<svg width="314" height="314" viewBox="0 0 314 314" fill="none" xmlns="http://www.w3.org/2000/svg">
<path d="M83.8388 230.21C69.3548 215.744 59.4856 197.309 55.4793 177.234C51.4729 157.16 53.5093 136.348 61.3309 117.431C69.1526 98.5137 82.4081 82.3408 99.4214 70.9572C116.435 59.5736 136.441 53.4907 156.912 53.4777C177.382 53.4647 197.397 59.5221 214.424 70.884C231.452 82.2458 244.728 98.4019 252.574 117.309C260.42 136.216 262.483 157.025 258.502 177.105C254.521 197.184 244.675 215.633 230.21 230.117" stroke="#B4B4B4" stroke-width="15" stroke-linecap="round"/>
<path d="M155.5 134V155M155.5 155L134 169.5M155.5 155L177 169.5" stroke="#D0D0D0" stroke-linecap="round"/>
<path d="M156 191.5L136.5 172L156 158.5L175.5 172L156 191.5Z" fill="#D0D0D0" stroke="#C47370"/>
<path d="M156 158V132.5C168.5 119 184 121 192 132.5C198.4 141.7 194 152.333 191 156.5L176 172L156 158Z" fill="#D0D0D0" stroke="#C47370"/>
<path d="M156.287 158V132.5C143.787 119 128.287 121 120.287 132.5C113.887 141.7 118.287 152.333 121.287 156.5L136.287 172L156.287 158Z" fill="#D0D0D0" stroke="#C47370"/>
<path d="M230.558 84.189C220.999 74.5263 209.631 66.8409 197.102 61.5717C184.573 56.3025 171.129 53.5527 157.538 53.4792C143.946 53.4056 130.473 56.0099 117.888 61.1433C105.303 66.2766 93.8518 73.8386 84.1891 83.3973C74.5264 92.9561 66.841 104.324 61.5718 116.853C56.3026 129.382 53.5528 142.826 53.4793 156.418C53.4057 170.009 56.01 183.482 61.1434 196.068C66.2767 208.653 73.8387 220.104 83.3974 229.766" stroke="url(#paint0_linear_93_845)" stroke-width="15" stroke-linecap="round"/>
<defs>
<linearGradient id="paint0_linear_93_845" x1="109.796" y1="208.578" x2="223.892" y2="67.9832" gradientUnits="userSpaceOnUse">
<stop stop-color="#C22E29"/>
<stop offset="1" stop-color="#ECA4A2"/>
</linearGradient>
</defs>
</svg>
