<svg width="314" height="314" viewBox="0 0 314 314" fill="none" xmlns="http://www.w3.org/2000/svg">
<path d="M83.8388 230.21C69.3548 215.744 59.4856 197.309 55.4793 177.234C51.4729 157.16 53.5093 136.348 61.3309 117.431C69.1526 98.5137 82.4081 82.3408 99.4214 70.9572C116.435 59.5736 136.441 53.4907 156.912 53.4777C177.382 53.4647 197.397 59.5221 214.424 70.884C231.452 82.2458 244.728 98.4019 252.574 117.309C260.42 136.216 262.483 157.025 258.502 177.105C254.521 197.184 244.675 215.633 230.21 230.117" stroke="#B4B4B4" stroke-width="15" stroke-linecap="round"/>
<path d="M155.5 134V155M155.5 155L134 169.5M155.5 155L177 169.5" stroke="#D0D0D0" stroke-linecap="round"/>
<path d="M156 191.5L136.5 172L156 158.5L175.5 172L156 191.5Z" fill="#D0D0D0" stroke="#C47370"/>
<path d="M156 158V132.5C168.5 119 184 121 192 132.5C198.4 141.7 194 152.333 191 156.5L176 172L156 158Z" fill="#ED8986" stroke="#C47370"/>
<path d="M156.287 158V132.5C143.787 119 128.287 121 120.287 132.5C113.887 141.7 118.287 152.333 121.287 156.5L136.287 172L156.287 158Z" fill="#D0D0D0" stroke="#C47370"/>
<path d="M83.9376 230.308C67.2403 213.677 56.7187 191.846 54.1125 168.424C51.5063 145.001 56.9715 121.391 69.6046 101.496" stroke="url(#paint0_linear_93_832)" stroke-width="15" stroke-linecap="round"/>
<defs>
<linearGradient id="paint0_linear_93_832" x1="226.337" y1="165.813" x2="48.3829" y2="132.386" gradientUnits="userSpaceOnUse">
<stop stop-color="#C22E29"/>
<stop offset="1" stop-color="#ECA4A2"/>
</linearGradient>
</defs>
</svg>
