<svg width="314" height="314" viewBox="0 0 314 314" fill="none" xmlns="http://www.w3.org/2000/svg">
<path d="M156 191.39L136.5 171.89L156 158.39L175.5 171.89L156 191.39Z" fill="#ED8986" stroke="#C47370"/>
<path d="M156 157.89V132.39C168.5 118.89 184 120.89 192 132.39C198.4 141.59 194 152.223 191 156.39L176 171.89L156 157.89Z" fill="#ED8986" stroke="#C47370"/>
<path d="M156.287 157.89V132.39C143.787 118.89 128.287 120.89 120.287 132.39C113.887 141.59 118.287 152.223 121.287 156.39L136.287 171.89L156.287 157.89Z" fill="#ED8986" stroke="#C47370"/>
<path d="M83.839 230.21C69.355 215.744 59.4859 197.309 55.4795 177.234C51.4732 157.16 53.5096 136.348 61.3312 117.431C69.1528 98.5137 82.4084 82.3408 99.4216 70.9572C116.435 59.5736 136.442 53.4907 156.912 53.4777C177.382 53.4647 197.397 59.5221 214.425 70.884C231.452 82.2458 244.728 98.4019 252.574 117.309C260.42 136.216 262.483 157.025 258.502 177.105C254.521 197.184 244.676 215.633 230.21 230.117" stroke="#B4B4B4" stroke-width="15" stroke-linecap="round"/>
<path d="M73.046 96.415C58.3275 116.813 51.541 141.873 53.9549 166.91C56.3688 191.948 67.818 215.249 86.1624 232.459" stroke="url(#paint0_linear_102_416)" stroke-width="15" stroke-linecap="round"/>
<defs>
<linearGradient id="paint0_linear_102_416" x1="157.448" y1="87.0592" x2="166.902" y2="267.878" gradientUnits="userSpaceOnUse">
<stop stop-color="#C22E29"/>
<stop offset="1" stop-color="#ECA4A2"/>
</linearGradient>
</defs>
</svg>
