<svg width="314" height="314" viewBox="0 0 314 314" fill="none" xmlns="http://www.w3.org/2000/svg">
<path d="M157 191.39L137.5 171.89L157 158.39L176.5 171.89L157 191.39Z" fill="#ED8986" stroke="#C47370"/>
<path d="M157 157.89V132.39C169.5 118.89 185 120.89 193 132.39C199.4 141.59 195 152.223 192 156.39L177 171.89L157 157.89Z" fill="#ED8986" stroke="#C47370"/>
<path d="M157.287 157.89V132.39C144.787 118.89 129.287 120.89 121.287 132.39C114.887 141.59 119.287 152.223 122.287 156.39L137.287 171.89L157.287 157.89Z" fill="#ED8986" stroke="#C47370"/>
<path d="M83.839 230.21C69.355 215.744 59.4859 197.309 55.4795 177.234C51.4732 157.16 53.5096 136.348 61.3312 117.431C69.1528 98.5137 82.4084 82.3408 99.4216 70.9572C116.435 59.5736 136.442 53.4907 156.912 53.4777C177.382 53.4647 197.397 59.5221 214.425 70.884C231.452 82.2458 244.728 98.4019 252.574 117.309C260.42 136.216 262.483 157.025 258.502 177.105C254.521 197.184 244.676 215.633 230.21 230.117" stroke="#B4B4B4" stroke-width="15" stroke-linecap="round"/>
<path d="M230.558 84.189C220.999 74.5263 209.631 66.8409 197.102 61.5717C184.573 56.3025 171.129 53.5527 157.538 53.4792C143.946 53.4056 130.473 56.0099 117.888 61.1433C105.303 66.2766 93.8518 73.8386 84.1891 83.3973C74.5264 92.9561 66.841 104.324 61.5718 116.853C56.3026 129.382 53.5528 142.826 53.4793 156.418C53.4057 170.009 56.01 183.482 61.1434 196.068C66.2767 208.653 73.8387 220.104 83.3974 229.766" stroke="url(#paint0_linear_102_415)" stroke-width="15" stroke-linecap="round"/>
<defs>
<linearGradient id="paint0_linear_102_415" x1="109.796" y1="208.578" x2="223.892" y2="67.9832" gradientUnits="userSpaceOnUse">
<stop stop-color="#C22E29"/>
<stop offset="1" stop-color="#ECA4A2"/>
</linearGradient>
</defs>
</svg>
