<svg width="314" height="314" viewBox="0 0 314 314" fill="none" xmlns="http://www.w3.org/2000/svg">
<path d="M83.8388 230.21C69.3548 215.744 59.4856 197.309 55.4793 177.234C51.4729 157.16 53.5093 136.348 61.3309 117.431C69.1526 98.5137 82.4081 82.3408 99.4214 70.9572C116.435 59.5736 136.441 53.4907 156.912 53.4777C177.382 53.4647 197.397 59.5221 214.424 70.884C231.452 82.2458 244.728 98.4019 252.574 117.309C260.42 136.216 262.483 157.025 258.502 177.105C254.521 197.184 244.675 215.633 230.21 230.117" stroke="#B4B4B4" stroke-width="15" stroke-linecap="round"/>
<path d="M83.8388 230.21C69.3548 215.744 59.4856 197.309 55.4793 177.234C51.4729 157.16 53.5093 136.348 61.3309 117.431C69.1526 98.5137 82.4081 82.3408 99.4214 70.9572C116.435 59.5736 136.441 53.4907 156.912 53.4777C177.382 53.4647 197.397 59.5221 214.424 70.884C231.452 82.2458 244.728 98.4019 252.574 117.309C260.42 136.216 262.483 157.025 258.502 177.105C254.521 197.184 244.675 215.633 230.21 230.117" stroke="url(#paint0_linear_93_799)" stroke-width="15" stroke-linecap="round"/>
<g filter="url(#filter0_d_93_799)">
<path d="M156 191L123.145 158.145C120.524 155.524 118.777 152.478 117.904 149.005C117.051 145.532 117.062 142.08 117.936 138.649C118.809 135.198 120.546 132.193 123.145 129.637C125.809 127.016 128.845 125.279 132.254 124.427C135.684 123.554 139.104 123.554 142.513 124.427C145.943 125.301 148.99 127.037 151.654 129.637L156 133.855L160.347 129.637C163.032 127.037 166.078 125.301 169.487 124.427C172.897 123.554 176.306 123.554 179.715 124.427C183.145 125.279 186.192 127.016 188.855 129.637C191.455 132.193 193.191 135.198 194.065 138.649C194.938 142.08 194.938 145.532 194.065 149.005C193.213 152.478 191.476 155.524 188.855 158.145L156 191Z" fill="#D0D0D0"/>
<path d="M156 191L155.293 191.707L156 192.414L156.707 191.707L156 191ZM123.145 158.145L123.852 157.438L123.852 157.438L123.145 158.145ZM117.904 149.005L116.932 149.243L116.934 149.248L117.904 149.005ZM117.936 138.649L118.905 138.896L118.905 138.895L117.936 138.649ZM123.145 129.637L123.846 130.35L123.847 130.349L123.145 129.637ZM132.254 124.427L132.496 125.397L132.501 125.396L132.254 124.427ZM142.513 124.427L142.265 125.396L142.266 125.396L142.513 124.427ZM151.654 129.637L150.955 130.352L150.957 130.354L151.654 129.637ZM156 133.855L155.304 134.573L156 135.249L156.697 134.573L156 133.855ZM160.347 129.637L159.651 128.918L159.65 128.919L160.347 129.637ZM169.487 124.427L169.736 125.396L169.736 125.396L169.487 124.427ZM179.715 124.427L179.467 125.396L179.474 125.398L179.715 124.427ZM188.855 129.637L188.154 130.349L188.154 130.35L188.855 129.637ZM194.065 138.649L193.095 138.895L193.096 138.896L194.065 138.649ZM194.065 149.005L193.095 148.761L193.094 148.766L194.065 149.005ZM188.855 158.145L189.562 158.852L189.562 158.852L188.855 158.145ZM156.707 190.293L123.852 157.438L122.438 158.852L155.293 191.707L156.707 190.293ZM123.852 157.438C121.355 154.94 119.701 152.052 118.873 148.761L116.934 149.248C117.853 152.903 119.694 156.108 122.438 158.852L123.852 157.438ZM118.875 148.766C118.061 145.451 118.072 142.166 118.905 138.896L116.967 138.403C116.052 141.994 116.042 145.612 116.932 149.243L118.875 148.766ZM118.905 138.895C119.733 135.625 121.374 132.781 123.846 130.35L122.444 128.924C119.717 131.606 117.886 134.77 116.966 138.404L118.905 138.895ZM123.847 130.349C126.391 127.846 129.271 126.203 132.496 125.397L132.011 123.457C128.418 124.355 125.226 126.186 122.444 128.924L123.847 130.349ZM132.501 125.396C135.77 124.564 139.019 124.564 142.265 125.396L142.761 123.458C139.189 122.543 135.599 122.543 132.007 123.458L132.501 125.396ZM142.266 125.396C145.518 126.224 148.411 127.869 150.955 130.352L152.352 128.921C149.57 126.205 146.369 124.377 142.76 123.458L142.266 125.396ZM150.957 130.354L155.304 134.573L156.697 133.138L152.35 128.919L150.957 130.354ZM156.697 134.573L161.043 130.354L159.65 128.919L155.304 133.138L156.697 134.573ZM161.042 130.355C163.61 127.869 166.505 126.224 169.736 125.396L169.239 123.458C165.651 124.378 162.453 126.206 159.651 128.918L161.042 130.355ZM169.736 125.396C172.982 124.564 176.22 124.564 179.467 125.396L179.963 123.458C176.391 122.543 172.811 122.543 169.239 123.458L169.736 125.396ZM179.474 125.398C182.72 126.204 185.611 127.847 188.154 130.349L189.557 128.924C186.773 126.185 183.57 124.355 179.956 123.457L179.474 125.398ZM188.154 130.35C190.626 132.781 192.268 135.625 193.095 138.895L195.034 138.404C194.115 134.77 192.283 131.606 189.557 128.924L188.154 130.35ZM193.096 138.896C193.928 142.164 193.929 145.447 193.095 148.761L195.035 149.248C195.948 145.616 195.949 141.996 195.034 138.403L193.096 138.896ZM193.094 148.766C192.287 152.055 190.645 154.942 188.148 157.438L189.562 158.852C192.307 156.107 194.139 152.9 195.036 149.243L193.094 148.766ZM188.148 157.438L155.293 190.293L156.707 191.707L189.562 158.852L188.148 157.438Z" fill="#B4B4B4"/>
</g>
<path d="M156 191.5L136.5 172L156 158.5L175.5 172L156 191.5Z" fill="#ED8986" stroke="#C47370"/>
<path d="M156 158V132.5C168.5 119 184 121 192 132.5C198.4 141.7 194 152.333 191 156.5L176 172L156 158Z" fill="#ED8986" stroke="#C47370"/>
<path d="M156.287 158V132.5C143.787 119 128.287 121 120.287 132.5C113.887 141.7 118.287 152.333 121.287 156.5L136.287 172L156.287 158Z" fill="#ED8986" stroke="#C47370"/>
<defs>
<filter id="filter0_d_93_799" x="112.625" y="121.117" width="86.75" height="75.8835" filterUnits="userSpaceOnUse" color-interpolation-filters="sRGB">
<feFlood flood-opacity="0" result="BackgroundImageFix"/>
<feColorMatrix in="SourceAlpha" type="matrix" values="0 0 0 0 0 0 0 0 0 0 0 0 0 0 0 0 0 0 127 0" result="hardAlpha"/>
<feOffset dy="2"/>
<feGaussianBlur stdDeviation="2"/>
<feComposite in2="hardAlpha" operator="out"/>
<feColorMatrix type="matrix" values="0 0 0 0 0 0 0 0 0 0 0 0 0 0 0 0 0 0 0.25 0"/>
<feBlend mode="normal" in2="BackgroundImageFix" result="effect1_dropShadow_93_799"/>
<feBlend mode="normal" in="SourceGraphic" in2="effect1_dropShadow_93_799" result="shape"/>
</filter>
<linearGradient id="paint0_linear_93_799" x1="87.7009" y1="166.439" x2="268.234" y2="152.554" gradientUnits="userSpaceOnUse">
<stop stop-color="#C22E29"/>
<stop offset="1" stop-color="#ECA4A2"/>
</linearGradient>
</defs>
</svg>
