<svg width="314" height="314" viewBox="0 0 314 314" fill="none" xmlns="http://www.w3.org/2000/svg">
<path d="M83.839 230.21C69.355 215.744 59.4859 197.309 55.4795 177.234C51.4732 157.16 53.5096 136.348 61.3312 117.431C69.1528 98.5137 82.4084 82.3408 99.4216 70.9572C116.435 59.5736 136.442 53.4907 156.912 53.4777C177.382 53.4647 197.397 59.5221 214.425 70.884C231.452 82.2458 244.728 98.4019 252.574 117.309C260.42 136.216 262.483 157.025 258.502 177.105C254.521 197.184 244.676 215.633 230.21 230.117" stroke="#B4B4B4" stroke-width="15" stroke-linecap="round"/>
<path d="M83.839 230.21C69.355 215.744 59.4859 197.309 55.4795 177.234C51.4732 157.16 53.5096 136.348 61.3312 117.431C69.1528 98.5137 82.4084 82.3408 99.4216 70.9572C116.435 59.5736 136.442 53.4907 156.912 53.4777C177.382 53.4647 197.397 59.5221 214.425 70.884C231.452 82.2458 244.728 98.4019 252.574 117.309C260.42 136.216 262.483 157.025 258.502 177.105C254.521 197.184 244.676 215.633 230.21 230.117" stroke="url(#paint0_linear_93_799)" stroke-width="15" stroke-linecap="round"/>
<g filter="url(#filter0_d_93_799)">
<path d="M156 191L123.145 158.145C120.524 155.524 118.777 152.478 117.904 149.005C117.051 145.532 117.062 142.08 117.936 138.649C118.809 135.198 120.546 132.193 123.145 129.637C125.809 127.016 128.845 125.279 132.254 124.427C135.684 123.554 139.104 123.554 142.513 124.427C145.943 125.301 148.99 127.037 151.654 129.637L156 133.855L160.347 129.637C163.032 127.037 166.078 125.301 169.487 124.427C172.897 123.554 176.306 123.554 179.715 124.427C183.145 125.279 186.192 127.016 188.855 129.637C191.455 132.193 193.191 135.198 194.065 138.649C194.938 142.08 194.938 145.532 194.065 149.005C193.213 152.478 191.476 155.524 188.855 158.145L156 191Z" fill="url(#paint1_linear_93_799)"/>
</g>
<defs>
<filter id="filter0_d_93_799" x="112.625" y="121.117" width="86.75" height="75.8835" filterUnits="userSpaceOnUse" color-interpolation-filters="sRGB">
<feFlood flood-opacity="0" result="BackgroundImageFix"/>
<feColorMatrix in="SourceAlpha" type="matrix" values="0 0 0 0 0 0 0 0 0 0 0 0 0 0 0 0 0 0 127 0" result="hardAlpha"/>
<feOffset dy="2"/>
<feGaussianBlur stdDeviation="2"/>
<feComposite in2="hardAlpha" operator="out"/>
<feColorMatrix type="matrix" values="0 0 0 0 0 0 0 0 0 0 0 0 0 0 0 0 0 0 0.25 0"/>
<feBlend mode="normal" in2="BackgroundImageFix" result="effect1_dropShadow_93_799"/>
<feBlend mode="normal" in="SourceGraphic" in2="effect1_dropShadow_93_799" result="shape"/>
</filter>
<linearGradient id="paint0_linear_93_799" x1="87.7011" y1="166.439" x2="268.234" y2="152.554" gradientUnits="userSpaceOnUse">
<stop stop-color="#C22E29"/>
<stop offset="1" stop-color="#ECA4A2"/>
</linearGradient>
<linearGradient id="paint1_linear_93_799" x1="190" y1="107" x2="140" y2="178" gradientUnits="userSpaceOnUse">
<stop offset="0.379008" stop-color="#FFE55B"/>
<stop offset="1" stop-color="#F3A03E"/>
</linearGradient>
</defs>
</svg>
