<svg width="341" height="95" viewBox="0 0 341 95" fill="none" xmlns="http://www.w3.org/2000/svg">
<path d="M10.2749 20.6526C10.2749 9.79879 19.0737 1 29.9275 1V29.4446H10.2749V20.6526Z" fill="#C47370" stroke="#C47370" stroke-width="0.805851"/>
<rect x="10.2749" y="29.4446" width="19.6526" height="36.1108" fill="#C47370" stroke="#C47370" stroke-width="0.805851"/>
<path fill-rule="evenodd" clip-rule="evenodd" d="M10.6316 78.0942C10.3975 76.8813 10.2748 75.6286 10.2748 74.3474V65.5554H29.9275V94C25.1684 94 20.8045 92.3084 17.4041 89.4937C14.0117 91.7537 8.57204 93.902 2 92.7071C3.81011 91.9313 10.792 87.2767 10.5334 77.9676C10.5648 78.0108 10.5975 78.053 10.6316 78.0942Z" fill="#C47370"/>
<path d="M10.6316 78.0942L10.321 78.3508L11.0272 78.0178L10.6316 78.0942ZM10.2748 65.5554V65.1525H9.87192V65.5554H10.2748ZM29.9275 65.5554H30.3304V65.1525H29.9275V65.5554ZM29.9275 94V94.4029H30.3304V94H29.9275ZM17.4041 89.4937L17.661 89.1833L17.4301 88.9922L17.1807 89.1584L17.4041 89.4937ZM2 92.7071L1.84128 92.3367L0.610887 92.864L1.92792 93.1035L2 92.7071ZM10.5334 77.9676L10.8592 77.7306L10.0945 76.6791L10.1306 77.9788L10.5334 77.9676ZM9.87192 74.3474C9.87192 75.6544 9.99701 76.9326 10.236 78.1706L11.0272 78.0178C10.7979 76.8299 10.6778 75.6029 10.6778 74.3474H9.87192ZM9.87192 65.5554V74.3474H10.6778V65.5554H9.87192ZM29.9275 65.1525H10.2748V65.9583H29.9275V65.1525ZM30.3304 94V65.5554H29.5246V94H30.3304ZM17.1472 89.8041C20.6171 92.6764 25.0712 94.4029 29.9275 94.4029V93.5971C25.2657 93.5971 20.9918 91.9404 17.661 89.1833L17.1472 89.8041ZM1.92792 93.1035C8.6283 94.3217 14.1727 92.1306 17.6275 89.829L17.1807 89.1584C13.8507 91.3768 8.51578 93.4822 2.07208 92.3106L1.92792 93.1035ZM10.1306 77.9788C10.2568 82.5221 8.61843 85.9224 6.72782 88.2856C4.8293 90.6588 2.68461 91.9753 1.84128 92.3367L2.15872 93.0774C3.1255 92.6631 5.3768 91.2644 7.35708 88.7891C9.34528 86.3038 11.0685 82.7222 10.9361 77.9564L10.1306 77.9788ZM10.9422 77.8375C10.9133 77.8026 10.8857 77.767 10.8592 77.7306L10.2075 78.2046C10.2439 78.2546 10.2817 78.3033 10.321 78.3508L10.9422 77.8375Z" fill="#C47370"/>
<rect x="29.9275" y="1" width="290.877" height="93" fill="#C47370"/>
<path d="M42.7009 36.5054H41.0408V29.7769H33.5408V36.5054H31.8806V22.228H33.5408V28.312H41.0408V22.228H42.7009V36.5054ZM50.1037 25.6069C51.0151 25.6069 51.7964 25.8088 52.4474 26.2124C53.0985 26.616 53.5965 27.1825 53.9416 27.9116C54.2866 28.6343 54.4591 29.4806 54.4591 30.4507V31.4565H47.0666C47.0861 32.7131 47.3986 33.6701 48.0041 34.3276C48.6095 34.9852 49.4624 35.314 50.5626 35.314C51.2397 35.314 51.8387 35.2521 52.3595 35.1284C52.8804 35.0047 53.4207 34.8224 53.9806 34.5815V36.0073C53.4403 36.2482 52.9031 36.424 52.3693 36.5347C51.8419 36.6453 51.2169 36.7007 50.4943 36.7007C49.4656 36.7007 48.5672 36.4924 47.799 36.0757C47.0373 35.6525 46.4448 35.034 46.0216 34.2202C45.5985 33.4064 45.3869 32.4103 45.3869 31.2319C45.3869 30.0796 45.5789 29.0835 45.963 28.2437C46.3537 27.3973 46.9005 26.7463 47.6037 26.2905C48.3133 25.8348 49.1466 25.6069 50.1037 25.6069ZM50.0841 26.9351C49.2182 26.9351 48.5281 27.2183 48.0138 27.7847C47.4995 28.3511 47.1935 29.1421 47.0958 30.1577H52.7599C52.7534 29.5197 52.6525 28.9598 52.4572 28.478C52.2684 27.9897 51.9787 27.6121 51.588 27.3452C51.1974 27.0718 50.6961 26.9351 50.0841 26.9351ZM55.1236 25.8022H56.8619L59.2251 32.0132C59.3619 32.3778 59.4888 32.7293 59.606 33.0679C59.7232 33.3999 59.8274 33.7189 59.9185 34.0249C60.0097 34.3309 60.0813 34.6271 60.1334 34.9136H60.2017C60.2929 34.5881 60.4231 34.1616 60.5923 33.6343C60.7616 33.1004 60.9439 32.5568 61.1392 32.0034L63.3755 25.8022H65.1236L60.4654 38.0776C60.218 38.7352 59.9283 39.3081 59.5962 39.7964C59.2707 40.2847 58.8736 40.659 58.4048 40.9194C57.9361 41.1864 57.3697 41.3198 56.7056 41.3198C56.3996 41.3198 56.1294 41.3003 55.8951 41.2612C55.6607 41.2287 55.4589 41.1896 55.2896 41.144V39.8452C55.4328 39.8778 55.6054 39.9071 55.8072 39.9331C56.0155 39.9591 56.2304 39.9722 56.4517 39.9722C56.8554 39.9722 57.2037 39.894 57.4966 39.7378C57.7961 39.5881 58.0533 39.3667 58.2681 39.0737C58.483 38.7808 58.6685 38.4325 58.8248 38.0288L59.4107 36.5249L55.1236 25.8022ZM68.288 34.1812L68.415 34.4058C68.2978 34.881 68.1481 35.3888 67.9658 35.9292C67.79 36.4696 67.5947 37.0099 67.3798 37.5503C67.1715 38.0972 66.9599 38.6082 66.7451 39.0835H65.5341C65.6708 38.5627 65.8043 38.0125 65.9345 37.4331C66.0647 36.8602 66.1819 36.2938 66.2861 35.7339C66.3968 35.1675 66.4847 34.6499 66.5498 34.1812H68.288ZM76.2478 36.5054V22.228H77.908V36.5054H76.2478ZM84.6959 41.3101C84.3638 41.3101 84.0741 41.284 83.8267 41.2319C83.5793 41.1864 83.3645 41.131 83.1822 41.0659V39.7476C83.384 39.8127 83.5891 39.8615 83.7974 39.894C84.0057 39.9331 84.2401 39.9526 84.5005 39.9526C84.9432 39.9526 85.3013 39.8289 85.5748 39.5815C85.8482 39.3341 85.9849 38.8849 85.9849 38.2339V25.8022H87.606V38.1948C87.606 38.8459 87.5018 39.4025 87.2935 39.8647C87.0852 40.3335 86.7662 40.6916 86.3365 40.939C85.9068 41.1864 85.3599 41.3101 84.6959 41.3101ZM85.8384 22.8628C85.8384 22.4982 85.9296 22.2313 86.1119 22.062C86.3007 21.8862 86.535 21.7983 86.815 21.7983C87.0819 21.7983 87.3098 21.8862 87.4986 22.062C87.6939 22.2313 87.7916 22.4982 87.7916 22.8628C87.7916 23.2209 87.6939 23.4878 87.4986 23.6636C87.3098 23.8394 87.0819 23.9272 86.815 23.9272C86.535 23.9272 86.3007 23.8394 86.1119 23.6636C85.9296 23.4878 85.8384 23.2209 85.8384 22.8628ZM99.4814 25.8022V36.5054H98.1533L97.9189 35.0015H97.831C97.6097 35.3726 97.3232 35.6851 96.9716 35.939C96.6201 36.1929 96.2229 36.3817 95.7802 36.5054C95.344 36.6356 94.8785 36.7007 94.3837 36.7007C93.5374 36.7007 92.8277 36.564 92.2548 36.2905C91.6819 36.0171 91.249 35.5939 90.956 35.021C90.6695 34.4481 90.5263 33.7124 90.5263 32.814V25.8022H92.1669V32.6968C92.1669 33.5887 92.3688 34.256 92.7724 34.6987C93.1761 35.1349 93.7913 35.353 94.6181 35.353C95.4124 35.353 96.0439 35.2033 96.5126 34.9038C96.9879 34.6043 97.3297 34.1649 97.538 33.5854C97.7464 32.9995 97.8505 32.2834 97.8505 31.437V25.8022H99.4814ZM109.433 33.5757C109.433 34.2593 109.26 34.8354 108.915 35.3042C108.577 35.7664 108.089 36.1147 107.451 36.3491C106.819 36.5835 106.064 36.7007 105.185 36.7007C104.436 36.7007 103.788 36.6421 103.242 36.5249C102.695 36.4077 102.216 36.2417 101.806 36.0269V34.5327C102.242 34.7476 102.763 34.9429 103.369 35.1187C103.974 35.2944 104.592 35.3823 105.224 35.3823C106.148 35.3823 106.819 35.2326 107.236 34.9331C107.652 34.6336 107.861 34.2267 107.861 33.7124C107.861 33.4194 107.776 33.1623 107.607 32.9409C107.444 32.7131 107.167 32.495 106.777 32.2866C106.386 32.0718 105.846 31.8374 105.156 31.5835C104.472 31.3231 103.88 31.0659 103.378 30.812C102.883 30.5516 102.499 30.2358 102.226 29.8647C101.959 29.4937 101.826 29.0119 101.826 28.4194C101.826 27.5145 102.19 26.8211 102.919 26.3394C103.655 25.8511 104.619 25.6069 105.81 25.6069C106.454 25.6069 107.057 25.672 107.617 25.8022C108.183 25.9259 108.71 26.0952 109.199 26.3101L108.652 27.6089C108.209 27.4201 107.737 27.2606 107.236 27.1304C106.734 27.0002 106.223 26.9351 105.702 26.9351C104.954 26.9351 104.378 27.0588 103.974 27.3062C103.577 27.5535 103.378 27.8921 103.378 28.3218C103.378 28.6538 103.469 28.9272 103.652 29.1421C103.841 29.3569 104.14 29.5588 104.55 29.7476C104.96 29.9364 105.501 30.1577 106.171 30.4116C106.842 30.659 107.421 30.9162 107.91 31.1831C108.398 31.4435 108.772 31.7625 109.033 32.1401C109.299 32.5112 109.433 32.9897 109.433 33.5757ZM115.097 35.3726C115.364 35.3726 115.638 35.3498 115.918 35.3042C116.198 35.2586 116.426 35.2033 116.601 35.1382V36.3979C116.413 36.4826 116.149 36.5542 115.81 36.6128C115.478 36.6714 115.153 36.7007 114.834 36.7007C114.267 36.7007 113.753 36.603 113.291 36.4077C112.829 36.2059 112.457 35.8674 112.177 35.3921C111.904 34.9168 111.767 34.2593 111.767 33.4194V27.0718H110.244V26.2808L111.777 25.646L112.422 23.3218H113.398V25.8022H116.533V27.0718H113.398V33.3706C113.398 34.0412 113.551 34.5425 113.857 34.8745C114.17 35.2065 114.583 35.3726 115.097 35.3726ZM127.93 27.0718H125.264V36.5054H123.643V27.0718H121.749V26.2905L123.643 25.7534V25.0405C123.643 24.1421 123.777 23.4129 124.044 22.853C124.31 22.2866 124.698 21.87 125.206 21.603C125.713 21.3361 126.332 21.2026 127.061 21.2026C127.471 21.2026 127.846 21.2384 128.184 21.3101C128.529 21.3817 128.832 21.4631 129.092 21.5542L128.672 22.8335C128.451 22.7619 128.2 22.6968 127.92 22.6382C127.647 22.5731 127.367 22.5405 127.081 22.5405C126.462 22.5405 126.003 22.7424 125.704 23.146C125.411 23.5431 125.264 24.1681 125.264 25.021V25.8022H127.93V27.0718ZM131.514 25.8022V36.5054H129.893V25.8022H131.514ZM130.723 21.7983C130.99 21.7983 131.218 21.8862 131.407 22.062C131.602 22.2313 131.7 22.4982 131.7 22.8628C131.7 23.2209 131.602 23.4878 131.407 23.6636C131.218 23.8394 130.99 23.9272 130.723 23.9272C130.443 23.9272 130.209 23.8394 130.02 23.6636C129.838 23.4878 129.747 23.2209 129.747 22.8628C129.747 22.4982 129.838 22.2313 130.02 22.062C130.209 21.8862 130.443 21.7983 130.723 21.7983ZM139.61 25.6069C140.88 25.6069 141.84 25.9194 142.491 26.5444C143.142 27.1629 143.468 28.159 143.468 29.5327V36.5054H141.866V29.6401C141.866 28.7482 141.661 28.0809 141.251 27.6382C140.847 27.1955 140.226 26.9741 139.386 26.9741C138.201 26.9741 137.367 27.3094 136.886 27.98C136.404 28.6506 136.163 29.6239 136.163 30.8999V36.5054H134.542V25.8022H135.851L136.095 27.3452H136.183C136.41 26.9676 136.7 26.6519 137.052 26.3979C137.403 26.1375 137.797 25.9422 138.233 25.812C138.67 25.6753 139.129 25.6069 139.61 25.6069ZM148.029 25.8022V36.5054H146.408V25.8022H148.029ZM147.238 21.7983C147.505 21.7983 147.732 21.8862 147.921 22.062C148.117 22.2313 148.214 22.4982 148.214 22.8628C148.214 23.2209 148.117 23.4878 147.921 23.6636C147.732 23.8394 147.505 23.9272 147.238 23.9272C146.958 23.9272 146.723 23.8394 146.535 23.6636C146.352 23.4878 146.261 23.2209 146.261 22.8628C146.261 22.4982 146.352 22.2313 146.535 22.062C146.723 21.8862 146.958 21.7983 147.238 21.7983ZM157.99 33.5757C157.99 34.2593 157.817 34.8354 157.472 35.3042C157.134 35.7664 156.646 36.1147 156.008 36.3491C155.376 36.5835 154.621 36.7007 153.742 36.7007C152.993 36.7007 152.345 36.6421 151.799 36.5249C151.252 36.4077 150.773 36.2417 150.363 36.0269V34.5327C150.799 34.7476 151.32 34.9429 151.926 35.1187C152.531 35.2944 153.149 35.3823 153.781 35.3823C154.705 35.3823 155.376 35.2326 155.793 34.9331C156.209 34.6336 156.418 34.2267 156.418 33.7124C156.418 33.4194 156.333 33.1623 156.164 32.9409C156.001 32.7131 155.724 32.495 155.334 32.2866C154.943 32.0718 154.403 31.8374 153.713 31.5835C153.029 31.3231 152.437 31.0659 151.935 30.812C151.441 30.5516 151.056 30.2358 150.783 29.8647C150.516 29.4937 150.383 29.0119 150.383 28.4194C150.383 27.5145 150.747 26.8211 151.476 26.3394C152.212 25.8511 153.176 25.6069 154.367 25.6069C155.011 25.6069 155.614 25.672 156.174 25.8022C156.74 25.9259 157.267 26.0952 157.756 26.3101L157.209 27.6089C156.766 27.4201 156.294 27.2606 155.793 27.1304C155.291 27.0002 154.78 26.9351 154.26 26.9351C153.511 26.9351 152.935 27.0588 152.531 27.3062C152.134 27.5535 151.935 27.8921 151.935 28.3218C151.935 28.6538 152.026 28.9272 152.209 29.1421C152.398 29.3569 152.697 29.5588 153.107 29.7476C153.517 29.9364 154.058 30.1577 154.728 30.4116C155.399 30.659 155.978 30.9162 156.467 31.1831C156.955 31.4435 157.329 31.7625 157.59 32.1401C157.857 32.5112 157.99 32.9897 157.99 33.5757ZM161.819 21.3101V25.8511C161.819 26.1115 161.812 26.3752 161.799 26.6421C161.786 26.9025 161.763 27.1434 161.731 27.3647H161.838C162.059 26.9871 162.339 26.6714 162.678 26.4175C163.023 26.1571 163.414 25.9618 163.85 25.8315C164.286 25.6948 164.748 25.6265 165.236 25.6265C166.096 25.6265 166.812 25.7632 167.385 26.0366C167.964 26.3101 168.397 26.7332 168.684 27.3062C168.977 27.8791 169.123 28.6213 169.123 29.5327V36.5054H167.522V29.6401C167.522 28.7482 167.317 28.0809 166.906 27.6382C166.503 27.1955 165.881 26.9741 165.041 26.9741C164.247 26.9741 163.612 27.1271 163.137 27.4331C162.668 27.7326 162.33 28.1753 162.121 28.7612C161.919 29.3472 161.819 30.0633 161.819 30.9097V36.5054H160.197V21.3101H161.819ZM176.184 25.6069C177.096 25.6069 177.877 25.8088 178.528 26.2124C179.179 26.616 179.677 27.1825 180.022 27.9116C180.367 28.6343 180.54 29.4806 180.54 30.4507V31.4565H173.147C173.167 32.7131 173.479 33.6701 174.085 34.3276C174.69 34.9852 175.543 35.314 176.643 35.314C177.32 35.314 177.919 35.2521 178.44 35.1284C178.961 35.0047 179.501 34.8224 180.061 34.5815V36.0073C179.521 36.2482 178.984 36.424 178.45 36.5347C177.922 36.6453 177.297 36.7007 176.575 36.7007C175.546 36.7007 174.648 36.4924 173.879 36.0757C173.118 35.6525 172.525 35.034 172.102 34.2202C171.679 33.4064 171.467 32.4103 171.467 31.2319C171.467 30.0796 171.659 29.0835 172.044 28.2437C172.434 27.3973 172.981 26.7463 173.684 26.2905C174.394 25.8348 175.227 25.6069 176.184 25.6069ZM176.165 26.9351C175.299 26.9351 174.609 27.2183 174.094 27.7847C173.58 28.3511 173.274 29.1421 173.176 30.1577H178.84C178.834 29.5197 178.733 28.9598 178.538 28.478C178.349 27.9897 178.059 27.6121 177.669 27.3452C177.278 27.0718 176.777 26.9351 176.165 26.9351ZM186.702 36.7007C185.348 36.7007 184.274 36.2384 183.479 35.314C182.692 34.3895 182.298 33.0158 182.298 31.1929C182.298 29.3504 182.701 27.9604 183.509 27.0229C184.316 26.0789 185.39 25.6069 186.731 25.6069C187.298 25.6069 187.793 25.6818 188.216 25.8315C188.639 25.9813 189.004 26.1831 189.31 26.437C189.616 26.6844 189.873 26.9676 190.081 27.2866H190.198C190.172 27.0848 190.146 26.8081 190.12 26.4565C190.094 26.105 190.081 25.8185 190.081 25.5972V21.3101H191.702V36.5054H190.394L190.149 34.9819H190.081C189.879 35.3009 189.622 35.5907 189.31 35.8511C189.004 36.1115 188.636 36.3198 188.206 36.4761C187.783 36.6258 187.282 36.7007 186.702 36.7007ZM186.956 35.353C188.102 35.353 188.912 35.0275 189.388 34.3765C189.863 33.7254 190.101 32.7586 190.101 31.4761V31.1831C190.101 29.8224 189.873 28.7775 189.417 28.0483C188.968 27.3192 188.147 26.9546 186.956 26.9546C185.96 26.9546 185.214 27.3387 184.72 28.1069C184.225 28.8687 183.977 29.9103 183.977 31.2319C183.977 32.547 184.222 33.5627 184.71 34.2788C185.205 34.995 185.953 35.353 186.956 35.353ZM210.599 36.5054H208.939V29.7769H201.439V36.5054H199.779V22.228H201.439V28.312H208.939V22.228H210.599V36.5054ZM223.11 31.1343C223.11 32.0132 222.996 32.7977 222.768 33.4878C222.54 34.1779 222.211 34.7606 221.781 35.2358C221.352 35.7111 220.831 36.0757 220.219 36.3296C219.613 36.577 218.927 36.7007 218.158 36.7007C217.442 36.7007 216.785 36.577 216.186 36.3296C215.593 36.0757 215.079 35.7111 214.643 35.2358C214.213 34.7606 213.878 34.1779 213.637 33.4878C213.402 32.7977 213.285 32.0132 213.285 31.1343C213.285 29.9624 213.484 28.9663 213.881 28.146C214.278 27.3192 214.845 26.6909 215.58 26.2612C216.322 25.825 217.205 25.6069 218.227 25.6069C219.203 25.6069 220.056 25.825 220.785 26.2612C221.521 26.6974 222.091 27.3289 222.494 28.1558C222.904 28.9761 223.11 29.9689 223.11 31.1343ZM214.965 31.1343C214.965 31.9937 215.079 32.7391 215.307 33.3706C215.535 34.0021 215.886 34.4904 216.361 34.8354C216.837 35.1805 217.449 35.353 218.197 35.353C218.94 35.353 219.548 35.1805 220.024 34.8354C220.505 34.4904 220.86 34.0021 221.088 33.3706C221.316 32.7391 221.43 31.9937 221.43 31.1343C221.43 30.2814 221.316 29.5457 221.088 28.9272C220.86 28.3022 220.509 27.8205 220.033 27.4819C219.558 27.1434 218.943 26.9741 218.188 26.9741C217.074 26.9741 216.257 27.342 215.736 28.0776C215.222 28.8133 214.965 29.8322 214.965 31.1343ZM237.133 25.6069C238.312 25.6069 239.2 25.9162 239.799 26.5347C240.398 27.1466 240.698 28.133 240.698 29.4937V36.5054H239.096V29.5718C239.096 28.7059 238.907 28.0581 238.53 27.6284C238.159 27.1922 237.605 26.9741 236.87 26.9741C235.835 26.9741 235.083 27.2736 234.614 27.8726C234.145 28.4715 233.911 29.3537 233.911 30.519V36.5054H232.299V29.5718C232.299 28.9924 232.215 28.5106 232.045 28.1265C231.883 27.7424 231.635 27.4559 231.303 27.2671C230.978 27.0718 230.564 26.9741 230.063 26.9741C229.353 26.9741 228.784 27.1206 228.354 27.4136C227.924 27.7065 227.612 28.1427 227.417 28.7222C227.228 29.2951 227.133 30.0015 227.133 30.8413V36.5054H225.512V25.8022H226.821L227.065 27.3159H227.153C227.368 26.9448 227.638 26.6323 227.963 26.3784C228.289 26.1245 228.654 25.9325 229.057 25.8022C229.461 25.672 229.891 25.6069 230.346 25.6069C231.16 25.6069 231.84 25.7599 232.387 26.0659C232.941 26.3654 233.341 26.8244 233.588 27.4429H233.676C234.028 26.8244 234.51 26.3654 235.122 26.0659C235.734 25.7599 236.404 25.6069 237.133 25.6069ZM247.749 25.6069C248.66 25.6069 249.442 25.8088 250.093 26.2124C250.744 26.616 251.242 27.1825 251.587 27.9116C251.932 28.6343 252.104 29.4806 252.104 30.4507V31.4565H244.712C244.731 32.7131 245.044 33.6701 245.649 34.3276C246.255 34.9852 247.108 35.314 248.208 35.314C248.885 35.314 249.484 35.2521 250.005 35.1284C250.526 35.0047 251.066 34.8224 251.626 34.5815V36.0073C251.086 36.2482 250.548 36.424 250.015 36.5347C249.487 36.6453 248.862 36.7007 248.14 36.7007C247.111 36.7007 246.213 36.4924 245.444 36.0757C244.683 35.6525 244.09 35.034 243.667 34.2202C243.244 33.4064 243.032 32.4103 243.032 31.2319C243.032 30.0796 243.224 29.0835 243.608 28.2437C243.999 27.3973 244.546 26.7463 245.249 26.2905C245.959 25.8348 246.792 25.6069 247.749 25.6069ZM247.729 26.9351C246.864 26.9351 246.173 27.2183 245.659 27.7847C245.145 28.3511 244.839 29.1421 244.741 30.1577H250.405C250.399 29.5197 250.298 28.9598 250.102 28.478C249.914 27.9897 249.624 27.6121 249.233 27.3452C248.843 27.0718 248.341 26.9351 247.729 26.9351ZM263.169 36.4858L261.265 30.2554C261.18 29.9884 261.099 29.728 261.021 29.4741C260.949 29.2137 260.881 28.9663 260.816 28.7319C260.757 28.491 260.702 28.2697 260.65 28.0679C260.604 27.8595 260.565 27.6805 260.533 27.5308H260.464C260.438 27.6805 260.402 27.8595 260.357 28.0679C260.311 28.2697 260.256 28.491 260.191 28.7319C260.132 28.9728 260.067 29.2267 259.995 29.4937C259.924 29.7541 259.842 30.0177 259.751 30.2847L257.759 36.4858H255.933L252.984 25.7827H254.663L256.206 31.6909C256.311 32.0815 256.408 32.4689 256.499 32.853C256.597 33.2306 256.678 33.5887 256.743 33.9272C256.815 34.2593 256.867 34.549 256.9 34.7964H256.978C257.017 34.6336 257.059 34.4383 257.105 34.2104C257.157 33.9826 257.212 33.7417 257.271 33.4878C257.336 33.2274 257.404 32.9702 257.476 32.7163C257.548 32.4559 257.619 32.2118 257.691 31.9839L259.663 25.7827H261.411L263.316 31.9741C263.413 32.2866 263.508 32.6121 263.599 32.9507C263.697 33.2892 263.785 33.618 263.863 33.937C263.941 34.2495 263.996 34.5295 264.029 34.7769H264.107C264.133 34.5555 264.182 34.2821 264.253 33.9565C264.325 33.631 264.406 33.2729 264.497 32.8823C264.595 32.4917 264.696 32.0946 264.8 31.6909L266.363 25.7827H268.013L265.054 36.4858H263.169ZM278.795 31.1343C278.795 32.0132 278.681 32.7977 278.453 33.4878C278.225 34.1779 277.896 34.7606 277.467 35.2358C277.037 35.7111 276.516 36.0757 275.904 36.3296C275.299 36.577 274.612 36.7007 273.844 36.7007C273.127 36.7007 272.47 36.577 271.871 36.3296C271.278 36.0757 270.764 35.7111 270.328 35.2358C269.898 34.7606 269.563 34.1779 269.322 33.4878C269.088 32.7977 268.97 32.0132 268.97 31.1343C268.97 29.9624 269.169 28.9663 269.566 28.146C269.963 27.3192 270.53 26.6909 271.265 26.2612C272.008 25.825 272.89 25.6069 273.912 25.6069C274.888 25.6069 275.741 25.825 276.47 26.2612C277.206 26.6974 277.776 27.3289 278.179 28.1558C278.59 28.9761 278.795 29.9689 278.795 31.1343ZM270.65 31.1343C270.65 31.9937 270.764 32.7391 270.992 33.3706C271.22 34.0021 271.571 34.4904 272.047 34.8354C272.522 35.1805 273.134 35.353 273.883 35.353C274.625 35.353 275.233 35.1805 275.709 34.8354C276.191 34.4904 276.545 34.0021 276.773 33.3706C277.001 32.7391 277.115 31.9937 277.115 31.1343C277.115 30.2814 277.001 29.5457 276.773 28.9272C276.545 28.3022 276.194 27.8205 275.719 27.4819C275.243 27.1434 274.628 26.9741 273.873 26.9741C272.76 26.9741 271.942 27.342 271.422 28.0776C270.907 28.8133 270.65 29.8322 270.65 31.1343ZM286.061 25.6069C286.276 25.6069 286.5 25.62 286.735 25.646C286.969 25.6655 287.177 25.6948 287.36 25.7339L287.154 27.2378C286.979 27.1922 286.783 27.1564 286.569 27.1304C286.354 27.1043 286.152 27.0913 285.963 27.0913C285.533 27.0913 285.126 27.1792 284.742 27.355C284.365 27.5243 284.033 27.7716 283.746 28.0972C283.46 28.4162 283.235 28.8035 283.072 29.2593C282.91 29.7085 282.828 30.2098 282.828 30.7632V36.5054H281.197V25.8022H282.545L282.721 27.7749H282.789C283.011 27.3778 283.277 27.0164 283.59 26.6909C283.902 26.3589 284.264 26.0952 284.674 25.8999C285.091 25.7046 285.553 25.6069 286.061 25.6069ZM290.592 21.3101V29.2007C290.592 29.4611 290.583 29.7801 290.563 30.1577C290.544 30.5288 290.527 30.8576 290.514 31.144H290.583C290.719 30.9748 290.918 30.7241 291.178 30.3921C291.445 30.0601 291.67 29.7931 291.852 29.5913L295.407 25.8022H297.311L293.004 30.3726L297.624 36.5054H295.67L291.891 31.437L290.592 32.6284V36.5054H288.981V21.3101H290.592ZM309.197 36.5054H307.615V26.3882C307.615 26.0041 307.615 25.6753 307.615 25.4019C307.621 25.1219 307.628 24.868 307.634 24.6401C307.647 24.4058 307.663 24.1681 307.683 23.9272C307.481 24.1356 307.292 24.3146 307.117 24.4644C306.941 24.6076 306.723 24.7866 306.462 25.0015L304.831 26.3101L303.982 25.2065L307.849 22.228H309.197V36.5054ZM316.785 34.1812L316.912 34.4058C316.795 34.881 316.645 35.3888 316.463 35.9292C316.287 36.4696 316.092 37.0099 315.877 37.5503C315.668 38.0972 315.457 38.6082 315.242 39.0835H314.031C314.168 38.5627 314.301 38.0125 314.431 37.4331C314.562 36.8602 314.679 36.2938 314.783 35.7339C314.894 35.1675 314.982 34.6499 315.047 34.1812H316.785ZM35.9236 63.7007C34.96 63.7007 34.1104 63.5021 33.3748 63.105C32.6391 62.7078 32.0662 62.1024 31.656 61.2886C31.2458 60.4748 31.0408 59.4494 31.0408 58.2124C31.0408 56.9168 31.2556 55.8589 31.6853 55.0386C32.1215 54.2118 32.7205 53.5998 33.4822 53.2026C34.2439 52.8055 35.1098 52.6069 36.0798 52.6069C36.6137 52.6069 37.128 52.6623 37.6228 52.7729C38.1241 52.8771 38.5343 53.0106 38.8533 53.1733L38.365 54.5308C38.0395 54.4006 37.6619 54.2834 37.2322 54.1792C36.809 54.075 36.4119 54.0229 36.0408 54.0229C35.2986 54.0229 34.6801 54.1825 34.1853 54.5015C33.697 54.8205 33.3292 55.2892 33.0818 55.9077C32.8409 56.5262 32.7205 57.2879 32.7205 58.1929C32.7205 59.0588 32.8376 59.7977 33.072 60.4097C33.3129 61.0216 33.6677 61.4904 34.1365 61.8159C34.6117 62.1349 35.2042 62.2944 35.9138 62.2944C36.4802 62.2944 36.9913 62.2358 37.447 62.1187C37.9028 61.995 38.3162 61.8517 38.6873 61.689V63.1343C38.3292 63.3166 37.9288 63.4565 37.4861 63.5542C37.0499 63.6519 36.5291 63.7007 35.9236 63.7007ZM44.8302 52.6265C46.1063 52.6265 47.0535 52.9129 47.672 53.4858C48.2905 54.0588 48.5998 54.9735 48.5998 56.23V63.5054H47.4181L47.1056 61.9233H47.0275C46.728 62.314 46.4155 62.6427 46.09 62.9097C45.7645 63.1701 45.3869 63.3687 44.9572 63.5054C44.534 63.6356 44.0132 63.7007 43.3947 63.7007C42.7436 63.7007 42.1642 63.5868 41.6564 63.3589C41.1551 63.131 40.758 62.786 40.465 62.3237C40.1785 61.8615 40.0353 61.2756 40.0353 60.5659C40.0353 59.4982 40.4585 58.6779 41.3048 58.105C42.1512 57.5321 43.4403 57.2196 45.172 57.1675L47.0177 57.0894V56.4351C47.0177 55.5106 46.8192 54.8628 46.422 54.4917C46.0249 54.1206 45.465 53.9351 44.7423 53.9351C44.1824 53.9351 43.6486 54.0164 43.1408 54.1792C42.633 54.342 42.1512 54.534 41.6955 54.7554L41.1974 53.5249C41.6792 53.2775 42.2326 53.0659 42.8576 52.8901C43.4826 52.7144 44.1401 52.6265 44.8302 52.6265ZM46.9982 58.2319L45.3673 58.3003C44.0327 58.3524 43.0919 58.5705 42.5451 58.9546C41.9982 59.3387 41.7248 59.8823 41.7248 60.5854C41.7248 61.1974 41.9103 61.6499 42.2814 61.9429C42.6525 62.2358 43.144 62.3823 43.756 62.3823C44.7065 62.3823 45.4845 62.1187 46.09 61.5913C46.6955 61.064 46.9982 60.2729 46.9982 59.2183V58.2319ZM56.608 52.6069C57.8775 52.6069 58.8378 52.9194 59.4888 53.5444C60.1399 54.1629 60.4654 55.159 60.4654 56.5327V63.5054H58.8638V56.6401C58.8638 55.7482 58.6587 55.0809 58.2486 54.6382C57.8449 54.1955 57.2232 53.9741 56.3834 53.9741C55.1985 53.9741 54.3651 54.3094 53.8834 54.98C53.4016 55.6506 53.1607 56.6239 53.1607 57.8999V63.5054H51.5396V52.8022H52.8482L53.0923 54.3452H53.1802C53.4081 53.9676 53.6978 53.6519 54.0494 53.3979C54.4009 53.1375 54.7948 52.9422 55.231 52.812C55.6672 52.6753 56.1262 52.6069 56.608 52.6069ZM68.4447 63.5054V49.228H70.1048V63.5054H68.4447ZM85.1056 60.5757C85.1056 61.2593 84.9331 61.8354 84.588 62.3042C84.2495 62.7664 83.7612 63.1147 83.1232 63.3491C82.4917 63.5835 81.7365 63.7007 80.8576 63.7007C80.1089 63.7007 79.4611 63.6421 78.9142 63.5249C78.3673 63.4077 77.8888 63.2417 77.4787 63.0269V61.5327C77.9149 61.7476 78.4357 61.9429 79.0412 62.1187C79.6466 62.2944 80.2651 62.3823 80.8966 62.3823C81.8211 62.3823 82.4917 62.2326 82.9083 61.9331C83.325 61.6336 83.5333 61.2267 83.5333 60.7124C83.5333 60.4194 83.4487 60.1623 83.2794 59.9409C83.1167 59.7131 82.84 59.495 82.4494 59.2866C82.0587 59.0718 81.5184 58.8374 80.8283 58.5835C80.1447 58.3231 79.5522 58.0659 79.0509 57.812C78.5561 57.5516 78.172 57.2358 77.8986 56.8647C77.6317 56.4937 77.4982 56.0119 77.4982 55.4194C77.4982 54.5145 77.8628 53.8211 78.5919 53.3394C79.3276 52.8511 80.2912 52.6069 81.4826 52.6069C82.1271 52.6069 82.7293 52.672 83.2892 52.8022C83.8556 52.9259 84.383 53.0952 84.8712 53.3101L84.3244 54.6089C83.8817 54.4201 83.4097 54.2606 82.9083 54.1304C82.407 54.0002 81.896 53.9351 81.3751 53.9351C80.6264 53.9351 80.0503 54.0588 79.6466 54.3062C79.2495 54.5535 79.0509 54.8921 79.0509 55.3218C79.0509 55.6538 79.1421 55.9272 79.3244 56.1421C79.5132 56.3569 79.8126 56.5588 80.2228 56.7476C80.633 56.9364 81.1733 57.1577 81.8439 57.4116C82.5145 57.659 83.0939 57.9162 83.5822 58.1831C84.0705 58.4435 84.4448 58.7625 84.7052 59.1401C84.9722 59.5112 85.1056 59.9897 85.1056 60.5757ZM91.4341 52.6069C92.3456 52.6069 93.1268 52.8088 93.7779 53.2124C94.4289 53.616 94.927 54.1825 95.272 54.9116C95.6171 55.6343 95.7896 56.4806 95.7896 57.4507V58.4565H88.397C88.4166 59.7131 88.7291 60.6701 89.3345 61.3276C89.94 61.9852 90.7929 62.314 91.8931 62.314C92.5702 62.314 93.1692 62.2521 93.69 62.1284C94.2108 62.0047 94.7512 61.8224 95.3111 61.5815V63.0073C94.7707 63.2482 94.2336 63.424 93.6998 63.5347C93.1724 63.6453 92.5474 63.7007 91.8248 63.7007C90.7961 63.7007 89.8977 63.4924 89.1294 63.0757C88.3677 62.6525 87.7753 62.034 87.3521 61.2202C86.9289 60.4064 86.7173 59.4103 86.7173 58.2319C86.7173 57.0796 86.9094 56.0835 87.2935 55.2437C87.6841 54.3973 88.231 53.7463 88.9341 53.2905C89.6438 52.8348 90.4771 52.6069 91.4341 52.6069ZM91.4146 53.9351C90.5487 53.9351 89.8586 54.2183 89.3443 54.7847C88.83 55.3511 88.524 56.1421 88.4263 57.1577H94.0904C94.0839 56.5197 93.983 55.9598 93.7876 55.478C93.5988 54.9897 93.3091 54.6121 92.9185 54.3452C92.5279 54.0718 92.0266 53.9351 91.4146 53.9351ZM103.212 52.6069C104.481 52.6069 105.442 52.9194 106.093 53.5444C106.744 54.1629 107.069 55.159 107.069 56.5327V63.5054H105.468V56.6401C105.468 55.7482 105.263 55.0809 104.852 54.6382C104.449 54.1955 103.827 53.9741 102.987 53.9741C101.802 53.9741 100.969 54.3094 100.487 54.98C100.005 55.6506 99.7646 56.6239 99.7646 57.8999V63.5054H98.1435V52.8022H99.4521L99.6962 54.3452H99.7841C100.012 53.9676 100.302 53.6519 100.653 53.3979C101.005 53.1375 101.399 52.9422 101.835 52.812C102.271 52.6753 102.73 52.6069 103.212 52.6069ZM113.818 63.7007C112.464 63.7007 111.389 63.2384 110.595 62.314C109.807 61.3895 109.413 60.0158 109.413 58.1929C109.413 56.3504 109.817 54.9604 110.624 54.0229C111.432 53.0789 112.506 52.6069 113.847 52.6069C114.413 52.6069 114.908 52.6818 115.331 52.8315C115.755 52.9813 116.119 53.1831 116.425 53.437C116.731 53.6844 116.988 53.9676 117.197 54.2866H117.314C117.288 54.0848 117.262 53.8081 117.236 53.4565C117.21 53.105 117.197 52.8185 117.197 52.5972V48.3101H118.818V63.5054H117.509L117.265 61.9819H117.197C116.995 62.3009 116.738 62.5907 116.425 62.8511C116.119 63.1115 115.751 63.3198 115.322 63.4761C114.898 63.6258 114.397 63.7007 113.818 63.7007ZM114.072 62.353C115.217 62.353 116.028 62.0275 116.503 61.3765C116.979 60.7254 117.216 59.7586 117.216 58.4761V58.1831C117.216 56.8224 116.988 55.7775 116.533 55.0483C116.083 54.3192 115.263 53.9546 114.072 53.9546C113.076 53.9546 112.33 54.3387 111.835 55.1069C111.341 55.8687 111.093 56.9103 111.093 58.2319C111.093 59.547 111.337 60.5627 111.826 61.2788C112.32 61.995 113.069 62.353 114.072 62.353ZM128.272 52.8022V63.5054H126.651V52.8022H128.272ZM127.481 48.7983C127.748 48.7983 127.975 48.8862 128.164 49.062C128.36 49.2313 128.457 49.4982 128.457 49.8628C128.457 50.2209 128.36 50.4878 128.164 50.6636C127.975 50.8394 127.748 50.9272 127.481 50.9272C127.201 50.9272 126.966 50.8394 126.777 50.6636C126.595 50.4878 126.504 50.2209 126.504 49.8628C126.504 49.4982 126.595 49.2313 126.777 49.062C126.966 48.8862 127.201 48.7983 127.481 48.7983ZM134.766 62.3726C135.033 62.3726 135.307 62.3498 135.586 62.3042C135.866 62.2586 136.094 62.2033 136.27 62.1382V63.3979C136.081 63.4826 135.818 63.5542 135.479 63.6128C135.147 63.6714 134.821 63.7007 134.502 63.7007C133.936 63.7007 133.422 63.603 132.96 63.4077C132.497 63.2059 132.126 62.8674 131.846 62.3921C131.573 61.9168 131.436 61.2593 131.436 60.4194V54.0718H129.913V53.2808L131.446 52.646L132.09 50.3218H133.067V52.8022H136.202V54.0718H133.067V60.3706C133.067 61.0412 133.22 61.5425 133.526 61.8745C133.838 62.2065 134.252 62.3726 134.766 62.3726ZM146.29 62.3726C146.557 62.3726 146.831 62.3498 147.111 62.3042C147.391 62.2586 147.619 62.2033 147.794 62.1382V63.3979C147.605 63.4826 147.342 63.5542 147.003 63.6128C146.671 63.6714 146.346 63.7007 146.027 63.7007C145.46 63.7007 144.946 63.603 144.484 63.4077C144.022 63.2059 143.65 62.8674 143.37 62.3921C143.097 61.9168 142.96 61.2593 142.96 60.4194V54.0718H141.437V53.2808L142.97 52.646L143.615 50.3218H144.591V52.8022H147.726V54.0718H144.591V60.3706C144.591 61.0412 144.744 61.5425 145.05 61.8745C145.363 62.2065 145.776 62.3726 146.29 62.3726ZM158.791 58.1343C158.791 59.0132 158.677 59.7977 158.449 60.4878C158.221 61.1779 157.892 61.7606 157.463 62.2358C157.033 62.7111 156.512 63.0757 155.9 63.3296C155.295 63.577 154.608 63.7007 153.84 63.7007C153.123 63.7007 152.466 63.577 151.867 63.3296C151.274 63.0757 150.76 62.7111 150.324 62.2358C149.894 61.7606 149.559 61.1779 149.318 60.4878C149.084 59.7977 148.967 59.0132 148.967 58.1343C148.967 56.9624 149.165 55.9663 149.562 55.146C149.959 54.3192 150.526 53.6909 151.261 53.2612C152.004 52.825 152.886 52.6069 153.908 52.6069C154.885 52.6069 155.737 52.825 156.467 53.2612C157.202 53.6974 157.772 54.3289 158.176 55.1558C158.586 55.9761 158.791 56.9689 158.791 58.1343ZM150.646 58.1343C150.646 58.9937 150.76 59.7391 150.988 60.3706C151.216 61.0021 151.567 61.4904 152.043 61.8354C152.518 62.1805 153.13 62.353 153.879 62.353C154.621 62.353 155.23 62.1805 155.705 61.8354C156.187 61.4904 156.541 61.0021 156.769 60.3706C156.997 59.7391 157.111 58.9937 157.111 58.1343C157.111 57.2814 156.997 56.5457 156.769 55.9272C156.541 55.3022 156.19 54.8205 155.715 54.4819C155.239 54.1434 154.624 53.9741 153.869 53.9741C152.756 53.9741 151.939 54.342 151.418 55.0776C150.903 55.8133 150.646 56.8322 150.646 58.1343ZM164.299 52.8022H166.038L168.401 59.0132C168.538 59.3778 168.665 59.7293 168.782 60.0679C168.899 60.3999 169.003 60.7189 169.094 61.0249C169.185 61.3309 169.257 61.6271 169.309 61.9136H169.377C169.469 61.5881 169.599 61.1616 169.768 60.6343C169.937 60.1004 170.12 59.5568 170.315 59.0034L172.551 52.8022H174.299L169.641 65.0776C169.394 65.7352 169.104 66.3081 168.772 66.7964C168.446 67.2847 168.049 67.659 167.581 67.9194C167.112 68.1864 166.545 68.3198 165.881 68.3198C165.575 68.3198 165.305 68.3003 165.071 68.2612C164.836 68.2287 164.635 68.1896 164.465 68.144V66.8452C164.609 66.8778 164.781 66.9071 164.983 66.9331C165.191 66.9591 165.406 66.9722 165.627 66.9722C166.031 66.9722 166.379 66.894 166.672 66.7378C166.972 66.5881 167.229 66.3667 167.444 66.0737C167.659 65.7808 167.844 65.4325 168.001 65.0288L168.586 63.5249L164.299 52.8022ZM184.837 58.1343C184.837 59.0132 184.723 59.7977 184.495 60.4878C184.267 61.1779 183.938 61.7606 183.509 62.2358C183.079 62.7111 182.558 63.0757 181.946 63.3296C181.341 63.577 180.654 63.7007 179.886 63.7007C179.17 63.7007 178.512 63.577 177.913 63.3296C177.321 63.0757 176.806 62.7111 176.37 62.2358C175.94 61.7606 175.605 61.1779 175.364 60.4878C175.13 59.7977 175.013 59.0132 175.013 58.1343C175.013 56.9624 175.211 55.9663 175.608 55.146C176.005 54.3192 176.572 53.6909 177.308 53.2612C178.05 52.825 178.932 52.6069 179.954 52.6069C180.931 52.6069 181.783 52.825 182.513 53.2612C183.248 53.6974 183.818 54.3289 184.222 55.1558C184.632 55.9761 184.837 56.9689 184.837 58.1343ZM176.692 58.1343C176.692 58.9937 176.806 59.7391 177.034 60.3706C177.262 61.0021 177.614 61.4904 178.089 61.8354C178.564 62.1805 179.176 62.353 179.925 62.353C180.667 62.353 181.276 62.1805 181.751 61.8354C182.233 61.4904 182.588 61.0021 182.815 60.3706C183.043 59.7391 183.157 58.9937 183.157 58.1343C183.157 57.2814 183.043 56.5457 182.815 55.9272C182.588 55.3022 182.236 54.8205 181.761 54.4819C181.285 54.1434 180.67 53.9741 179.915 53.9741C178.802 53.9741 177.985 54.342 177.464 55.0776C176.949 55.8133 176.692 56.8322 176.692 58.1343ZM196.077 52.8022V63.5054H194.749L194.515 62.0015H194.427C194.206 62.3726 193.919 62.6851 193.568 62.939C193.216 63.1929 192.819 63.3817 192.376 63.5054C191.94 63.6356 191.475 63.7007 190.98 63.7007C190.133 63.7007 189.424 63.564 188.851 63.2905C188.278 63.0171 187.845 62.5939 187.552 62.021C187.266 61.4481 187.122 60.7124 187.122 59.814V52.8022H188.763V59.6968C188.763 60.5887 188.965 61.256 189.368 61.6987C189.772 62.1349 190.387 62.353 191.214 62.353C192.008 62.353 192.64 62.2033 193.109 61.9038C193.584 61.6043 193.926 61.1649 194.134 60.5854C194.342 59.9995 194.447 59.2834 194.447 58.437V52.8022H196.077ZM207.358 62.3726C207.625 62.3726 207.898 62.3498 208.178 62.3042C208.458 62.2586 208.686 62.2033 208.861 62.1382V63.3979C208.673 63.4826 208.409 63.5542 208.07 63.6128C207.738 63.6714 207.413 63.7007 207.094 63.7007C206.527 63.7007 206.013 63.603 205.551 63.4077C205.089 63.2059 204.718 62.8674 204.438 62.3921C204.164 61.9168 204.027 61.2593 204.027 60.4194V54.0718H202.504V53.2808L204.037 52.646L204.682 50.3218H205.658V52.8022H208.793V54.0718H205.658V60.3706C205.658 61.0412 205.811 61.5425 206.117 61.8745C206.43 62.2065 206.843 62.3726 207.358 62.3726ZM219.858 58.1343C219.858 59.0132 219.744 59.7977 219.516 60.4878C219.288 61.1779 218.96 61.7606 218.53 62.2358C218.1 62.7111 217.579 63.0757 216.967 63.3296C216.362 63.577 215.675 63.7007 214.907 63.7007C214.191 63.7007 213.533 63.577 212.934 63.3296C212.342 63.0757 211.827 62.7111 211.391 62.2358C210.961 61.7606 210.626 61.1779 210.385 60.4878C210.151 59.7977 210.034 59.0132 210.034 58.1343C210.034 56.9624 210.232 55.9663 210.629 55.146C211.027 54.3192 211.593 53.6909 212.329 53.2612C213.071 52.825 213.953 52.6069 214.975 52.6069C215.952 52.6069 216.805 52.825 217.534 53.2612C218.269 53.6974 218.839 54.3289 219.243 55.1558C219.653 55.9761 219.858 56.9689 219.858 58.1343ZM211.713 58.1343C211.713 58.9937 211.827 59.7391 212.055 60.3706C212.283 61.0021 212.635 61.4904 213.11 61.8354C213.585 62.1805 214.197 62.353 214.946 62.353C215.688 62.353 216.297 62.1805 216.772 61.8354C217.254 61.4904 217.609 61.0021 217.836 60.3706C218.064 59.7391 218.178 58.9937 218.178 58.1343C218.178 57.2814 218.064 56.5457 217.836 55.9272C217.609 55.3022 217.257 54.8205 216.782 54.4819C216.307 54.1434 215.691 53.9741 214.936 53.9741C213.823 53.9741 213.006 54.342 212.485 55.0776C211.971 55.8133 211.713 56.8322 211.713 58.1343ZM231.343 63.7007C230.38 63.7007 229.53 63.5021 228.794 63.105C228.059 62.7078 227.486 62.1024 227.076 61.2886C226.665 60.4748 226.46 59.4494 226.46 58.2124C226.46 56.9168 226.675 55.8589 227.105 55.0386C227.541 54.2118 228.14 53.5998 228.902 53.2026C229.663 52.8055 230.529 52.6069 231.499 52.6069C232.033 52.6069 232.548 52.6623 233.042 52.7729C233.544 52.8771 233.954 53.0106 234.273 53.1733L233.785 54.5308C233.459 54.4006 233.081 54.2834 232.652 54.1792C232.229 54.075 231.831 54.0229 231.46 54.0229C230.718 54.0229 230.1 54.1825 229.605 54.5015C229.117 54.8205 228.749 55.2892 228.501 55.9077C228.26 56.5262 228.14 57.2879 228.14 58.1929C228.14 59.0588 228.257 59.7977 228.492 60.4097C228.732 61.0216 229.087 61.4904 229.556 61.8159C230.031 62.1349 230.624 62.2944 231.333 62.2944C231.9 62.2944 232.411 62.2358 232.867 62.1187C233.322 61.995 233.736 61.8517 234.107 61.689V63.1343C233.749 63.3166 233.348 63.4565 232.906 63.5542C232.469 63.6519 231.949 63.7007 231.343 63.7007ZM237.867 48.3101V52.8511C237.867 53.1115 237.86 53.3752 237.847 53.6421C237.834 53.9025 237.812 54.1434 237.779 54.3647H237.886C238.108 53.9871 238.388 53.6714 238.726 53.4175C239.071 53.1571 239.462 52.9618 239.898 52.8315C240.334 52.6948 240.797 52.6265 241.285 52.6265C242.144 52.6265 242.86 52.7632 243.433 53.0366C244.013 53.3101 244.446 53.7332 244.732 54.3062C245.025 54.8791 245.172 55.6213 245.172 56.5327V63.5054H243.57V56.6401C243.57 55.7482 243.365 55.0809 242.955 54.6382C242.551 54.1955 241.929 53.9741 241.09 53.9741C240.295 53.9741 239.661 54.1271 239.185 54.4331C238.717 54.7326 238.378 55.1753 238.17 55.7612C237.968 56.3472 237.867 57.0633 237.867 57.9097V63.5054H236.246V48.3101H237.867ZM252.233 52.6069C253.144 52.6069 253.925 52.8088 254.576 53.2124C255.227 53.616 255.725 54.1825 256.07 54.9116C256.416 55.6343 256.588 56.4806 256.588 57.4507V58.4565H249.195C249.215 59.7131 249.527 60.6701 250.133 61.3276C250.738 61.9852 251.591 62.314 252.692 62.314C253.369 62.314 253.968 62.2521 254.488 62.1284C255.009 62.0047 255.55 61.8224 256.11 61.5815V63.0073C255.569 63.2482 255.032 63.424 254.498 63.5347C253.971 63.6453 253.346 63.7007 252.623 63.7007C251.595 63.7007 250.696 63.4924 249.928 63.0757C249.166 62.6525 248.574 62.034 248.151 61.2202C247.727 60.4064 247.516 59.4103 247.516 58.2319C247.516 57.0796 247.708 56.0835 248.092 55.2437C248.483 54.3973 249.029 53.7463 249.733 53.2905C250.442 52.8348 251.276 52.6069 252.233 52.6069ZM252.213 53.9351C251.347 53.9351 250.657 54.2183 250.143 54.7847C249.628 55.3511 249.322 56.1421 249.225 57.1577H254.889C254.882 56.5197 254.781 55.9598 254.586 55.478C254.397 54.9897 254.108 54.6121 253.717 54.3452C253.326 54.0718 252.825 53.9351 252.213 53.9351ZM263.229 63.7007C262.266 63.7007 261.416 63.5021 260.68 63.105C259.945 62.7078 259.372 62.1024 258.961 61.2886C258.551 60.4748 258.346 59.4494 258.346 58.2124C258.346 56.9168 258.561 55.8589 258.991 55.0386C259.427 54.2118 260.026 53.5998 260.788 53.2026C261.549 52.8055 262.415 52.6069 263.385 52.6069C263.919 52.6069 264.433 52.6623 264.928 52.7729C265.43 52.8771 265.84 53.0106 266.159 53.1733L265.67 54.5308C265.345 54.4006 264.967 54.2834 264.538 54.1792C264.114 54.075 263.717 54.0229 263.346 54.0229C262.604 54.0229 261.986 54.1825 261.491 54.5015C261.002 54.8205 260.635 55.2892 260.387 55.9077C260.146 56.5262 260.026 57.2879 260.026 58.1929C260.026 59.0588 260.143 59.7977 260.377 60.4097C260.618 61.0216 260.973 61.4904 261.442 61.8159C261.917 62.1349 262.51 62.2944 263.219 62.2944C263.786 62.2944 264.297 62.2358 264.752 62.1187C265.208 61.995 265.622 61.8517 265.993 61.689V63.1343C265.635 63.3166 265.234 63.4565 264.792 63.5542C264.355 63.6519 263.835 63.7007 263.229 63.7007ZM269.743 48.3101V56.2007C269.743 56.4611 269.733 56.7801 269.714 57.1577C269.694 57.5288 269.678 57.8576 269.665 58.144H269.733C269.87 57.9748 270.069 57.7241 270.329 57.3921C270.596 57.0601 270.821 56.7931 271.003 56.5913L274.558 52.8022H276.462L272.155 57.3726L276.774 63.5054H274.821L271.042 58.437L269.743 59.6284V63.5054H268.132V48.3101H269.743ZM279.343 59.5405V59.0327C279.343 58.5119 279.392 58.0659 279.49 57.6948C279.587 57.3172 279.757 56.9657 279.997 56.6401C280.245 56.3146 280.587 55.9696 281.023 55.605C281.531 55.1818 281.931 54.8237 282.224 54.5308C282.523 54.2313 282.738 53.9318 282.868 53.6323C282.999 53.3328 283.064 52.9715 283.064 52.5483C283.064 51.8713 282.846 51.3537 282.41 50.9956C281.973 50.631 281.358 50.4487 280.564 50.4487C279.919 50.4487 279.346 50.5301 278.845 50.6929C278.344 50.8556 277.862 51.0509 277.4 51.2788L276.833 49.9702C277.367 49.6903 277.947 49.4624 278.572 49.2866C279.197 49.1108 279.893 49.0229 280.661 49.0229C281.918 49.0229 282.891 49.3354 283.581 49.9604C284.271 50.5789 284.617 51.4318 284.617 52.519C284.617 53.1245 284.519 53.6421 284.324 54.0718C284.128 54.495 283.852 54.8856 283.493 55.2437C283.135 55.5952 282.712 55.9696 282.224 56.3667C281.794 56.7313 281.466 57.0535 281.238 57.3335C281.01 57.6069 280.854 57.8901 280.769 58.1831C280.684 58.4696 280.642 58.8146 280.642 59.2183V59.5405H279.343ZM278.913 62.4897C278.913 62.034 279.021 61.7118 279.236 61.5229C279.451 61.3276 279.727 61.23 280.066 61.23C280.385 61.23 280.655 61.3276 280.876 61.5229C281.104 61.7118 281.218 62.034 281.218 62.4897C281.218 62.939 281.104 63.2677 280.876 63.4761C280.655 63.6779 280.385 63.7788 280.066 63.7788C279.727 63.7788 279.451 63.6779 279.236 63.4761C279.021 63.2677 278.913 62.939 278.913 62.4897Z" fill="white"/>
<rect x="29.9275" y="1" width="290.877" height="93" stroke="#C47370" stroke-width="0.805851"/>
<path d="M340.458 20.6526C340.458 9.79879 331.659 1 320.805 1V29.4446H340.458V20.6526Z" fill="#C47370" stroke="#C47370" stroke-width="0.805851"/>
<rect width="19.6526" height="36.1108" transform="matrix(-1 0 0 1 340.458 29.4446)" fill="#C47370" stroke="#C47370" stroke-width="0.805851"/>
<path d="M340.458 74.3474C340.458 85.2012 331.659 94 320.805 94V65.5554H340.458V74.3474Z" fill="#C47370" stroke="#C47370" stroke-width="0.805851"/>
</svg>
