<svg width="341" height="117" viewBox="0 0 341 117" fill="none" xmlns="http://www.w3.org/2000/svg">
<path d="M10.2749 20.6526C10.2749 9.79879 19.0737 1 29.9275 1V29.4446H10.2749V20.6526Z" fill="#C47370" stroke="#C47370" stroke-width="0.805851"/>
<rect x="10.2749" y="29.4446" width="19.6526" height="58.1108" fill="#C47370" stroke="#C47370" stroke-width="0.805851"/>
<path fill-rule="evenodd" clip-rule="evenodd" d="M10.6316 100.094C10.3975 98.8813 10.2748 97.6286 10.2748 96.3474V87.5554H29.9275V116C25.1684 116 20.8045 114.308 17.4041 111.494C14.0117 113.754 8.57204 115.902 2 114.707C3.81011 113.931 10.792 109.277 10.5334 99.9676C10.5648 100.011 10.5975 100.053 10.6316 100.094Z" fill="#C47370"/>
<path d="M10.6316 100.094L10.321 100.351L11.0272 100.018L10.6316 100.094ZM10.2748 87.5554V87.1525H9.87192V87.5554H10.2748ZM29.9275 87.5554H30.3304V87.1525H29.9275V87.5554ZM29.9275 116V116.403H30.3304V116H29.9275ZM17.4041 111.494L17.661 111.183L17.4301 110.992L17.1807 111.158L17.4041 111.494ZM2 114.707L1.84128 114.337L0.610887 114.864L1.92792 115.103L2 114.707ZM10.5334 99.9676L10.8592 99.7306L10.0945 98.6791L10.1306 99.9788L10.5334 99.9676ZM9.87192 96.3474C9.87192 97.6544 9.99701 98.9326 10.236 100.171L11.0272 100.018C10.7979 98.8299 10.6778 97.6029 10.6778 96.3474H9.87192ZM9.87192 87.5554V96.3474H10.6778V87.5554H9.87192ZM29.9275 87.1525H10.2748V87.9583H29.9275V87.1525ZM30.3304 116V87.5554H29.5246V116H30.3304ZM17.1472 111.804C20.6171 114.676 25.0712 116.403 29.9275 116.403V115.597C25.2657 115.597 20.9918 113.94 17.661 111.183L17.1472 111.804ZM1.92792 115.103C8.6283 116.322 14.1727 114.131 17.6275 111.829L17.1807 111.158C13.8507 113.377 8.51578 115.482 2.07208 114.311L1.92792 115.103ZM10.1306 99.9788C10.2568 104.522 8.61843 107.922 6.72782 110.286C4.8293 112.659 2.68461 113.975 1.84128 114.337L2.15872 115.077C3.1255 114.663 5.3768 113.264 7.35708 110.789C9.34528 108.304 11.0685 104.722 10.9361 99.9564L10.1306 99.9788ZM10.9422 99.8375C10.9133 99.8026 10.8857 99.767 10.8592 99.7306L10.2075 100.205C10.2439 100.255 10.2817 100.303 10.321 100.351L10.9422 99.8375Z" fill="#C47370"/>
<rect x="29.9275" y="1" width="290.877" height="115" fill="#C47370"/>
<path d="M31.8806 36.5054V22.228H33.5408V36.5054H31.8806ZM38.1017 22.228L38.2482 22.4429C38.131 22.9181 37.9813 23.4292 37.799 23.9761C37.6167 24.5164 37.4181 25.0568 37.2033 25.5972C36.9884 26.1375 36.7736 26.6453 36.5587 27.1206H35.3673C35.465 26.7495 35.5626 26.3524 35.6603 25.9292C35.7645 25.506 35.8621 25.0763 35.9533 24.6401C36.0444 24.2039 36.1258 23.7808 36.1974 23.3706C36.2755 22.9604 36.3406 22.5796 36.3927 22.228H38.1017ZM51.4419 25.6069C52.6203 25.6069 53.509 25.9162 54.108 26.5347C54.7069 27.1466 55.0064 28.133 55.0064 29.4937V36.5054H53.4048V29.5718C53.4048 28.7059 53.216 28.0581 52.8384 27.6284C52.4673 27.1922 51.9139 26.9741 51.1783 26.9741C50.1431 26.9741 49.3912 27.2736 48.9224 27.8726C48.4537 28.4715 48.2193 29.3537 48.2193 30.519V36.5054H46.608V29.5718C46.608 28.9924 46.5233 28.5106 46.3541 28.1265C46.1913 27.7424 45.9439 27.4559 45.6119 27.2671C45.2863 27.0718 44.8729 26.9741 44.3716 26.9741C43.662 26.9741 43.0923 27.1206 42.6626 27.4136C42.233 27.7065 41.9205 28.1427 41.7251 28.7222C41.5363 29.2951 41.4419 30.0015 41.4419 30.8413V36.5054H39.8208V25.8022H41.1294L41.3736 27.3159H41.4615C41.6763 26.9448 41.9465 26.6323 42.272 26.3784C42.5975 26.1245 42.9621 25.9325 43.3658 25.8022C43.7694 25.672 44.1991 25.6069 44.6548 25.6069C45.4686 25.6069 46.149 25.7599 46.6958 26.0659C47.2492 26.3654 47.6496 26.8244 47.897 27.4429H47.9849C48.3365 26.8244 48.8182 26.3654 49.4302 26.0659C50.0422 25.7599 50.7128 25.6069 51.4419 25.6069ZM67.8001 25.6069C69.0697 25.6069 70.03 25.9194 70.681 26.5444C71.332 27.1629 71.6576 28.159 71.6576 29.5327V36.5054H70.056V29.6401C70.056 28.7482 69.8509 28.0809 69.4408 27.6382C69.0371 27.1955 68.4154 26.9741 67.5755 26.9741C66.3906 26.9741 65.5573 27.3094 65.0755 27.98C64.5938 28.6506 64.3529 29.6239 64.3529 30.8999V36.5054H62.7318V25.8022H64.0404L64.2845 27.3452H64.3724C64.6003 26.9676 64.89 26.6519 65.2416 26.3979C65.5931 26.1375 65.987 25.9422 66.4232 25.812C66.8594 25.6753 67.3184 25.6069 67.8001 25.6069ZM83.8259 31.1343C83.8259 32.0132 83.712 32.7977 83.4841 33.4878C83.2563 34.1779 82.9275 34.7606 82.4978 35.2358C82.0681 35.7111 81.5473 36.0757 80.9353 36.3296C80.3298 36.577 79.643 36.7007 78.8748 36.7007C78.1586 36.7007 77.5011 36.577 76.9021 36.3296C76.3097 36.0757 75.7953 35.7111 75.3591 35.2358C74.9294 34.7606 74.5942 34.1779 74.3533 33.4878C74.1189 32.7977 74.0017 32.0132 74.0017 31.1343C74.0017 29.9624 74.2003 28.9663 74.5974 28.146C74.9945 27.3192 75.561 26.6909 76.2966 26.2612C77.0388 25.825 77.921 25.6069 78.9431 25.6069C79.9197 25.6069 80.7725 25.825 81.5017 26.2612C82.2374 26.6974 82.807 27.3289 83.2107 28.1558C83.6208 28.9761 83.8259 29.9689 83.8259 31.1343ZM75.6814 31.1343C75.6814 31.9937 75.7953 32.7391 76.0232 33.3706C76.2511 34.0021 76.6026 34.4904 77.0779 34.8354C77.5531 35.1805 78.1651 35.353 78.9138 35.353C79.656 35.353 80.2647 35.1805 80.74 34.8354C81.2218 34.4904 81.5766 34.0021 81.8044 33.3706C82.0323 32.7391 82.1462 31.9937 82.1462 31.1343C82.1462 30.2814 82.0323 29.5457 81.8044 28.9272C81.5766 28.3022 81.225 27.8205 80.7498 27.4819C80.2745 27.1434 79.6593 26.9741 78.9041 26.9741C77.7908 26.9741 76.9737 27.342 76.4529 28.0776C75.9386 28.8133 75.6814 29.8322 75.6814 31.1343ZM89.6857 35.3726C89.9526 35.3726 90.2261 35.3498 90.506 35.3042C90.786 35.2586 91.0138 35.2033 91.1896 35.1382V36.3979C91.0008 36.4826 90.7371 36.5542 90.3986 36.6128C90.0666 36.6714 89.741 36.7007 89.422 36.7007C88.8556 36.7007 88.3413 36.603 87.8791 36.4077C87.4168 36.2059 87.0457 35.8674 86.7658 35.3921C86.4923 34.9168 86.3556 34.2593 86.3556 33.4194V27.0718H84.8322V26.2808L86.3654 25.646L87.0099 23.3218H87.9865V25.8022H91.1212V27.0718H87.9865V33.3706C87.9865 34.0412 88.1395 34.5425 88.4455 34.8745C88.758 35.2065 89.1714 35.3726 89.6857 35.3726ZM101.757 25.6265C103.033 25.6265 103.98 25.9129 104.599 26.4858C105.217 27.0588 105.526 27.9735 105.526 29.23V36.5054H104.345L104.032 34.9233H103.954C103.655 35.314 103.342 35.6427 103.017 35.9097C102.691 36.1701 102.313 36.3687 101.884 36.5054C101.461 36.6356 100.94 36.7007 100.321 36.7007C99.6702 36.7007 99.0908 36.5868 98.583 36.3589C98.0817 36.131 97.6845 35.786 97.3916 35.3237C97.1051 34.8615 96.9619 34.2756 96.9619 33.5659C96.9619 32.4982 97.385 31.6779 98.2314 31.105C99.0778 30.5321 100.367 30.2196 102.099 30.1675L103.944 30.0894V29.4351C103.944 28.5106 103.746 27.8628 103.349 27.4917C102.951 27.1206 102.392 26.9351 101.669 26.9351C101.109 26.9351 100.575 27.0164 100.067 27.1792C99.5595 27.342 99.0778 27.534 98.622 27.7554L98.124 26.5249C98.6057 26.2775 99.1591 26.0659 99.7841 25.8901C100.409 25.7144 101.067 25.6265 101.757 25.6265ZM103.925 31.2319L102.294 31.3003C100.959 31.3524 100.019 31.5705 99.4716 31.9546C98.9248 32.3387 98.6513 32.8823 98.6513 33.5854C98.6513 34.1974 98.8369 34.6499 99.208 34.9429C99.5791 35.2358 100.071 35.3823 100.683 35.3823C101.633 35.3823 102.411 35.1187 103.017 34.5913C103.622 34.064 103.925 33.2729 103.925 32.2183V31.2319ZM111.923 35.3726C112.19 35.3726 112.464 35.3498 112.744 35.3042C113.023 35.2586 113.251 35.2033 113.427 35.1382V36.3979C113.238 36.4826 112.975 36.5542 112.636 36.6128C112.304 36.6714 111.979 36.7007 111.66 36.7007C111.093 36.7007 110.579 36.603 110.117 36.4077C109.654 36.2059 109.283 35.8674 109.003 35.3921C108.73 34.9168 108.593 34.2593 108.593 33.4194V27.0718H107.07V26.2808L108.603 25.646L109.247 23.3218H110.224V25.8022H113.359V27.0718H110.224V33.3706C110.224 34.0412 110.377 34.5425 110.683 34.8745C110.995 35.2065 111.409 35.3726 111.923 35.3726ZM126.914 33.5757C126.914 34.2593 126.742 34.8354 126.397 35.3042C126.058 35.7664 125.57 36.1147 124.932 36.3491C124.3 36.5835 123.545 36.7007 122.666 36.7007C121.917 36.7007 121.27 36.6421 120.723 36.5249C120.176 36.4077 119.697 36.2417 119.287 36.0269V34.5327C119.723 34.7476 120.244 34.9429 120.85 35.1187C121.455 35.2944 122.074 35.3823 122.705 35.3823C123.63 35.3823 124.3 35.2326 124.717 34.9331C125.134 34.6336 125.342 34.2267 125.342 33.7124C125.342 33.4194 125.257 33.1623 125.088 32.9409C124.925 32.7131 124.649 32.495 124.258 32.2866C123.867 32.0718 123.327 31.8374 122.637 31.5835C121.953 31.3231 121.361 31.0659 120.86 30.812C120.365 30.5516 119.981 30.2358 119.707 29.8647C119.44 29.4937 119.307 29.0119 119.307 28.4194C119.307 27.5145 119.671 26.8211 120.401 26.3394C121.136 25.8511 122.1 25.6069 123.291 25.6069C123.936 25.6069 124.538 25.672 125.098 25.8022C125.664 25.9259 126.192 26.0952 126.68 26.3101L126.133 27.6089C125.69 27.4201 125.218 27.2606 124.717 27.1304C124.216 27.0002 123.705 26.9351 123.184 26.9351C122.435 26.9351 121.859 27.0588 121.455 27.3062C121.058 27.5535 120.86 27.8921 120.86 28.3218C120.86 28.6538 120.951 28.9272 121.133 29.1421C121.322 29.3569 121.621 29.5588 122.031 29.7476C122.442 29.9364 122.982 30.1577 123.652 30.4116C124.323 30.659 124.902 30.9162 125.391 31.1831C125.879 31.4435 126.253 31.7625 126.514 32.1401C126.781 32.5112 126.914 32.9897 126.914 33.5757ZM133.409 36.7007C132.445 36.7007 131.596 36.5021 130.86 36.105C130.124 35.7078 129.551 35.1024 129.141 34.2886C128.731 33.4748 128.526 32.4494 128.526 31.2124C128.526 29.9168 128.741 28.8589 129.17 28.0386C129.607 27.2118 130.206 26.5998 130.967 26.2026C131.729 25.8055 132.595 25.6069 133.565 25.6069C134.099 25.6069 134.613 25.6623 135.108 25.7729C135.609 25.8771 136.019 26.0106 136.338 26.1733L135.85 27.5308C135.525 27.4006 135.147 27.2834 134.717 27.1792C134.294 27.075 133.897 27.0229 133.526 27.0229C132.784 27.0229 132.165 27.1825 131.67 27.5015C131.182 27.8205 130.814 28.2892 130.567 28.9077C130.326 29.5262 130.206 30.2879 130.206 31.1929C130.206 32.0588 130.323 32.7977 130.557 33.4097C130.798 34.0216 131.153 34.4904 131.622 34.8159C132.097 35.1349 132.689 35.2944 133.399 35.2944C133.965 35.2944 134.476 35.2358 134.932 35.1187C135.388 34.995 135.801 34.8517 136.172 34.689V36.1343C135.814 36.3166 135.414 36.4565 134.971 36.5542C134.535 36.6519 134.014 36.7007 133.409 36.7007ZM139.933 21.3101V25.8511C139.933 26.1115 139.926 26.3752 139.913 26.6421C139.9 26.9025 139.877 27.1434 139.845 27.3647H139.952C140.173 26.9871 140.453 26.6714 140.792 26.4175C141.137 26.1571 141.528 25.9618 141.964 25.8315C142.4 25.6948 142.862 25.6265 143.351 25.6265C144.21 25.6265 144.926 25.7632 145.499 26.0366C146.078 26.3101 146.511 26.7332 146.798 27.3062C147.091 27.8791 147.237 28.6213 147.237 29.5327V36.5054H145.636V29.6401C145.636 28.7482 145.431 28.0809 145.02 27.6382C144.617 27.1955 143.995 26.9741 143.155 26.9741C142.361 26.9741 141.726 27.1271 141.251 27.4331C140.782 27.7326 140.444 28.1753 140.235 28.7612C140.033 29.3472 139.933 30.0633 139.933 30.9097V36.5054H138.311V21.3101H139.933ZM159.406 31.1343C159.406 32.0132 159.292 32.7977 159.064 33.4878C158.836 34.1779 158.507 34.7606 158.077 35.2358C157.648 35.7111 157.127 36.0757 156.515 36.3296C155.91 36.577 155.223 36.7007 154.454 36.7007C153.738 36.7007 153.081 36.577 152.482 36.3296C151.889 36.0757 151.375 35.7111 150.939 35.2358C150.509 34.7606 150.174 34.1779 149.933 33.4878C149.699 32.7977 149.581 32.0132 149.581 31.1343C149.581 29.9624 149.78 28.9663 150.177 28.146C150.574 27.3192 151.141 26.6909 151.876 26.2612C152.619 25.825 153.501 25.6069 154.523 25.6069C155.499 25.6069 156.352 25.825 157.081 26.2612C157.817 26.6974 158.387 27.3289 158.79 28.1558C159.201 28.9761 159.406 29.9689 159.406 31.1343ZM151.261 31.1343C151.261 31.9937 151.375 32.7391 151.603 33.3706C151.831 34.0021 152.182 34.4904 152.658 34.8354C153.133 35.1805 153.745 35.353 154.494 35.353C155.236 35.353 155.844 35.1805 156.32 34.8354C156.801 34.4904 157.156 34.0021 157.384 33.3706C157.612 32.7391 157.726 31.9937 157.726 31.1343C157.726 30.2814 157.612 29.5457 157.384 28.9272C157.156 28.3022 156.805 27.8205 156.329 27.4819C155.854 27.1434 155.239 26.9741 154.484 26.9741C153.37 26.9741 152.553 27.342 152.033 28.0776C151.518 28.8133 151.261 29.8322 151.261 31.1343ZM171.037 31.1343C171.037 32.0132 170.923 32.7977 170.695 33.4878C170.467 34.1779 170.138 34.7606 169.709 35.2358C169.279 35.7111 168.758 36.0757 168.146 36.3296C167.541 36.577 166.854 36.7007 166.086 36.7007C165.37 36.7007 164.712 36.577 164.113 36.3296C163.521 36.0757 163.006 35.7111 162.57 35.2358C162.14 34.7606 161.805 34.1779 161.564 33.4878C161.33 32.7977 161.213 32.0132 161.213 31.1343C161.213 29.9624 161.411 28.9663 161.808 28.146C162.205 27.3192 162.772 26.6909 163.508 26.2612C164.25 25.825 165.132 25.6069 166.154 25.6069C167.131 25.6069 167.983 25.825 168.713 26.2612C169.448 26.6974 170.018 27.3289 170.422 28.1558C170.832 28.9761 171.037 29.9689 171.037 31.1343ZM162.892 31.1343C162.892 31.9937 163.006 32.7391 163.234 33.3706C163.462 34.0021 163.814 34.4904 164.289 34.8354C164.764 35.1805 165.376 35.353 166.125 35.353C166.867 35.353 167.476 35.1805 167.951 34.8354C168.433 34.4904 168.788 34.0021 169.015 33.3706C169.243 32.7391 169.357 31.9937 169.357 31.1343C169.357 30.2814 169.243 29.5457 169.015 28.9272C168.788 28.3022 168.436 27.8205 167.961 27.4819C167.485 27.1434 166.87 26.9741 166.115 26.9741C165.002 26.9741 164.185 27.342 163.664 28.0776C163.149 28.8133 162.892 29.8322 162.892 31.1343ZM175.07 36.5054H173.44V21.3101H175.07V36.5054ZM187.757 25.6069C187.972 25.6069 188.196 25.62 188.431 25.646C188.665 25.6655 188.873 25.6948 189.056 25.7339L188.851 27.2378C188.675 27.1922 188.479 27.1564 188.265 27.1304C188.05 27.1043 187.848 27.0913 187.659 27.0913C187.229 27.0913 186.823 27.1792 186.438 27.355C186.061 27.5243 185.729 27.7716 185.442 28.0972C185.156 28.4162 184.931 28.8035 184.769 29.2593C184.606 29.7085 184.524 30.2098 184.524 30.7632V36.5054H182.894V25.8022H184.241L184.417 27.7749H184.485C184.707 27.3778 184.974 27.0164 185.286 26.6909C185.599 26.3589 185.96 26.0952 186.37 25.8999C186.787 25.7046 187.249 25.6069 187.757 25.6069ZM192.298 25.8022V36.5054H190.677V25.8022H192.298ZM191.507 21.7983C191.774 21.7983 192.002 21.8862 192.191 22.062C192.386 22.2313 192.484 22.4982 192.484 22.8628C192.484 23.2209 192.386 23.4878 192.191 23.6636C192.002 23.8394 191.774 23.9272 191.507 23.9272C191.227 23.9272 190.993 23.8394 190.804 23.6636C190.622 23.4878 190.531 23.2209 190.531 22.8628C190.531 22.4982 190.622 22.2313 190.804 22.062C190.993 21.8862 191.227 21.7983 191.507 21.7983ZM198.324 41.3101C196.918 41.3101 195.834 41.0464 195.072 40.519C194.31 39.9982 193.929 39.2658 193.929 38.3218C193.929 37.6512 194.141 37.0783 194.564 36.603C194.994 36.1278 195.586 35.812 196.342 35.6558C196.062 35.5256 195.821 35.3302 195.619 35.0698C195.424 34.8094 195.326 34.5099 195.326 34.1714C195.326 33.7808 195.433 33.439 195.648 33.146C195.87 32.8465 196.205 32.5601 196.654 32.2866C196.094 32.0588 195.638 31.6746 195.287 31.1343C194.942 30.5874 194.769 29.9526 194.769 29.23C194.769 28.4618 194.929 27.8075 195.248 27.2671C195.567 26.7202 196.029 26.3035 196.635 26.0171C197.24 25.7306 197.972 25.5874 198.832 25.5874C199.021 25.5874 199.209 25.5972 199.398 25.6167C199.594 25.6297 199.779 25.6525 199.955 25.6851C200.131 25.7111 200.284 25.7437 200.414 25.7827H204.086V26.8276L202.113 27.0718C202.308 27.3257 202.471 27.6317 202.601 27.9897C202.732 28.3478 202.797 28.745 202.797 29.1812C202.797 30.2489 202.435 31.0985 201.713 31.73C200.99 32.355 199.997 32.6675 198.734 32.6675C198.435 32.6675 198.129 32.6414 197.816 32.5894C197.497 32.7651 197.253 32.9604 197.084 33.1753C196.921 33.3901 196.84 33.6375 196.84 33.9175C196.84 34.1258 196.901 34.2918 197.025 34.4155C197.155 34.5392 197.341 34.6304 197.582 34.689C197.823 34.741 198.112 34.7671 198.451 34.7671H200.336C201.501 34.7671 202.393 35.0112 203.011 35.4995C203.636 35.9878 203.949 36.7007 203.949 37.6382C203.949 38.8231 203.467 39.7313 202.504 40.3628C201.54 40.9943 200.147 41.3101 198.324 41.3101ZM198.373 40.0405C199.258 40.0405 199.991 39.9494 200.57 39.7671C201.156 39.5913 201.592 39.3341 201.879 38.9956C202.172 38.6636 202.318 38.2664 202.318 37.8042C202.318 37.3745 202.22 37.049 202.025 36.8276C201.83 36.6128 201.543 36.4696 201.166 36.3979C200.788 36.3198 200.326 36.2808 199.779 36.2808H197.924C197.442 36.2808 197.022 36.3556 196.664 36.5054C196.306 36.6551 196.029 36.8765 195.834 37.1694C195.645 37.4624 195.551 37.827 195.551 38.2632C195.551 38.8426 195.795 39.2821 196.283 39.5815C196.771 39.8875 197.468 40.0405 198.373 40.0405ZM198.793 31.4858C199.567 31.4858 200.15 31.2905 200.541 30.8999C200.931 30.5093 201.127 29.9396 201.127 29.1909C201.127 28.3901 200.928 27.7912 200.531 27.394C200.134 26.9904 199.548 26.7886 198.773 26.7886C198.031 26.7886 197.458 26.9969 197.054 27.4136C196.657 27.8237 196.459 28.4259 196.459 29.2202C196.459 29.9494 196.661 30.5093 197.064 30.8999C197.468 31.2905 198.044 31.4858 198.793 31.4858ZM207.416 21.3101V25.8511C207.416 26.1115 207.41 26.3752 207.397 26.6421C207.384 26.9025 207.361 27.1434 207.328 27.3647H207.436C207.657 26.9871 207.937 26.6714 208.276 26.4175C208.621 26.1571 209.011 25.9618 209.447 25.8315C209.884 25.6948 210.346 25.6265 210.834 25.6265C211.694 25.6265 212.41 25.7632 212.983 26.0366C213.562 26.3101 213.995 26.7332 214.281 27.3062C214.574 27.8791 214.721 28.6213 214.721 29.5327V36.5054H213.119V29.6401C213.119 28.7482 212.914 28.0809 212.504 27.6382C212.1 27.1955 211.479 26.9741 210.639 26.9741C209.845 26.9741 209.21 27.1271 208.735 27.4331C208.266 27.7326 207.927 28.1753 207.719 28.7612C207.517 29.3472 207.416 30.0633 207.416 30.9097V36.5054H205.795V21.3101H207.416ZM221.118 35.3726C221.385 35.3726 221.658 35.3498 221.938 35.3042C222.218 35.2586 222.446 35.2033 222.622 35.1382V36.3979C222.433 36.4826 222.169 36.5542 221.831 36.6128C221.499 36.6714 221.173 36.7007 220.854 36.7007C220.288 36.7007 219.773 36.603 219.311 36.4077C218.849 36.2059 218.478 35.8674 218.198 35.3921C217.924 34.9168 217.788 34.2593 217.788 33.4194V27.0718H216.264V26.2808L217.797 25.646L218.442 23.3218H219.419V25.8022H222.553V27.0718H219.419V33.3706C219.419 34.0412 219.571 34.5425 219.877 34.8745C220.19 35.2065 220.603 35.3726 221.118 35.3726ZM234.253 25.6069C235.523 25.6069 236.483 25.9194 237.134 26.5444C237.785 27.1629 238.111 28.159 238.111 29.5327V36.5054H236.509V29.6401C236.509 28.7482 236.304 28.0809 235.894 27.6382C235.49 27.1955 234.868 26.9741 234.029 26.9741C232.844 26.9741 232.01 27.3094 231.529 27.98C231.047 28.6506 230.806 29.6239 230.806 30.8999V36.5054H229.185V25.8022H230.493L230.738 27.3452H230.826C231.053 26.9676 231.343 26.6519 231.695 26.3979C232.046 26.1375 232.44 25.9422 232.876 25.812C233.313 25.6753 233.771 25.6069 234.253 25.6069ZM250.279 31.1343C250.279 32.0132 250.165 32.7977 249.937 33.4878C249.709 34.1779 249.381 34.7606 248.951 35.2358C248.521 35.7111 248 36.0757 247.388 36.3296C246.783 36.577 246.096 36.7007 245.328 36.7007C244.612 36.7007 243.954 36.577 243.355 36.3296C242.763 36.0757 242.248 35.7111 241.812 35.2358C241.383 34.7606 241.047 34.1779 240.806 33.4878C240.572 32.7977 240.455 32.0132 240.455 31.1343C240.455 29.9624 240.653 28.9663 241.051 28.146C241.448 27.3192 242.014 26.6909 242.75 26.2612C243.492 25.825 244.374 25.6069 245.396 25.6069C246.373 25.6069 247.226 25.825 247.955 26.2612C248.691 26.6974 249.26 27.3289 249.664 28.1558C250.074 28.9761 250.279 29.9689 250.279 31.1343ZM242.135 31.1343C242.135 31.9937 242.248 32.7391 242.476 33.3706C242.704 34.0021 243.056 34.4904 243.531 34.8354C244.006 35.1805 244.618 35.353 245.367 35.353C246.109 35.353 246.718 35.1805 247.193 34.8354C247.675 34.4904 248.03 34.0021 248.258 33.3706C248.485 32.7391 248.599 31.9937 248.599 31.1343C248.599 30.2814 248.485 29.5457 248.258 28.9272C248.03 28.3022 247.678 27.8205 247.203 27.4819C246.728 27.1434 246.112 26.9741 245.357 26.9741C244.244 26.9741 243.427 27.342 242.906 28.0776C242.392 28.8133 242.135 29.8322 242.135 31.1343ZM261.393 36.4858L259.488 30.2554C259.404 29.9884 259.322 29.728 259.244 29.4741C259.173 29.2137 259.104 28.9663 259.039 28.7319C258.981 28.491 258.925 28.2697 258.873 28.0679C258.828 27.8595 258.789 27.6805 258.756 27.5308H258.688C258.662 27.6805 258.626 27.8595 258.58 28.0679C258.535 28.2697 258.479 28.491 258.414 28.7319C258.356 28.9728 258.291 29.2267 258.219 29.4937C258.147 29.7541 258.066 30.0177 257.975 30.2847L255.983 36.4858H254.156L251.207 25.7827H252.887L254.43 31.6909C254.534 32.0815 254.632 32.4689 254.723 32.853C254.82 33.2306 254.902 33.5887 254.967 33.9272C255.039 34.2593 255.091 34.549 255.123 34.7964H255.201C255.24 34.6336 255.283 34.4383 255.328 34.2104C255.38 33.9826 255.436 33.7417 255.494 33.4878C255.559 33.2274 255.628 32.9702 255.699 32.7163C255.771 32.4559 255.843 32.2118 255.914 31.9839L257.887 25.7827H259.635L261.539 31.9741C261.637 32.2866 261.731 32.6121 261.822 32.9507C261.92 33.2892 262.008 33.618 262.086 33.937C262.164 34.2495 262.22 34.5295 262.252 34.7769H262.33C262.356 34.5555 262.405 34.2821 262.477 33.9565C262.548 33.631 262.63 33.2729 262.721 32.8823C262.819 32.4917 262.919 32.0946 263.024 31.6909L264.586 25.7827H266.236L263.277 36.4858H261.393ZM267.545 35.4897C267.545 35.034 267.656 34.7118 267.877 34.5229C268.099 34.3276 268.369 34.23 268.688 34.23C269.02 34.23 269.3 34.3276 269.528 34.5229C269.756 34.7118 269.87 35.034 269.87 35.4897C269.87 35.939 269.756 36.2677 269.528 36.4761C269.3 36.6779 269.02 36.7788 268.688 36.7788C268.369 36.7788 268.099 36.6779 267.877 36.4761C267.656 36.2677 267.545 35.939 267.545 35.4897ZM277.683 36.5054V22.228H279.343V36.5054H277.683ZM286.082 35.3726C286.349 35.3726 286.622 35.3498 286.902 35.3042C287.182 35.2586 287.41 35.2033 287.586 35.1382V36.3979C287.397 36.4826 287.133 36.5542 286.795 36.6128C286.463 36.6714 286.137 36.7007 285.818 36.7007C285.252 36.7007 284.737 36.603 284.275 36.4077C283.813 36.2059 283.442 35.8674 283.162 35.3921C282.888 34.9168 282.752 34.2593 282.752 33.4194V27.0718H281.228V26.2808L282.761 25.646L283.406 23.3218H284.383V25.8022H287.517V27.0718H284.383V33.3706C284.383 34.0412 284.536 34.5425 284.842 34.8745C285.154 35.2065 285.567 35.3726 286.082 35.3726ZM290.633 22.228L290.779 22.4429C290.662 22.9181 290.513 23.4292 290.33 23.9761C290.148 24.5164 289.949 25.0568 289.735 25.5972C289.52 26.1375 289.305 26.6453 289.09 27.1206H287.899C287.996 26.7495 288.094 26.3524 288.192 25.9292C288.296 25.506 288.393 25.0763 288.485 24.6401C288.576 24.2039 288.657 23.7808 288.729 23.3706C288.807 22.9604 288.872 22.5796 288.924 22.228H290.633ZM293.983 36.5054H292.352V21.3101H293.983V36.5054ZM298.642 36.5054H297.011V21.3101H298.642V36.5054ZM40.865 58.1343C40.865 59.0132 40.7511 59.7977 40.5232 60.4878C40.2953 61.1779 39.9666 61.7606 39.5369 62.2358C39.1072 62.7111 38.5863 63.0757 37.9744 63.3296C37.3689 63.577 36.682 63.7007 35.9138 63.7007C35.1977 63.7007 34.5401 63.577 33.9412 63.3296C33.3487 63.0757 32.8344 62.7111 32.3982 62.2358C31.9685 61.7606 31.6332 61.1779 31.3923 60.4878C31.158 59.7977 31.0408 59.0132 31.0408 58.1343C31.0408 56.9624 31.2393 55.9663 31.6365 55.146C32.0336 54.3192 32.6 53.6909 33.3357 53.2612C34.0779 52.825 34.96 52.6069 35.9822 52.6069C36.9587 52.6069 37.8116 52.825 38.5408 53.2612C39.2764 53.6974 39.8461 54.3289 40.2498 55.1558C40.6599 55.9761 40.865 56.9689 40.865 58.1343ZM32.7205 58.1343C32.7205 58.9937 32.8344 59.7391 33.0623 60.3706C33.2901 61.0021 33.6417 61.4904 34.1169 61.8354C34.5922 62.1805 35.2042 62.353 35.9529 62.353C36.6951 62.353 37.3038 62.1805 37.7791 61.8354C38.2608 61.4904 38.6156 61.0021 38.8435 60.3706C39.0714 59.7391 39.1853 58.9937 39.1853 58.1343C39.1853 57.2814 39.0714 56.5457 38.8435 55.9272C38.6156 55.3022 38.2641 54.8205 37.7888 54.4819C37.3136 54.1434 36.6983 53.9741 35.9431 53.9741C34.8298 53.9741 34.0128 54.342 33.4919 55.0776C32.9776 55.8133 32.7205 56.8322 32.7205 58.1343ZM48.3361 52.6069C49.6056 52.6069 50.5659 52.9194 51.2169 53.5444C51.868 54.1629 52.1935 55.159 52.1935 56.5327V63.5054H50.5919V56.6401C50.5919 55.7482 50.3869 55.0809 49.9767 54.6382C49.5731 54.1955 48.9513 53.9741 48.1115 53.9741C46.9266 53.9741 46.0932 54.3094 45.6115 54.98C45.1297 55.6506 44.8888 56.6239 44.8888 57.8999V63.5054H43.2677V52.8022H44.5763L44.8205 54.3452H44.9083C45.1362 53.9676 45.4259 53.6519 45.7775 53.3979C46.1291 53.1375 46.5229 52.9422 46.9591 52.812C47.3953 52.6753 47.8543 52.6069 48.3361 52.6069ZM56.7642 63.5054H55.1334V48.3101H56.7642V63.5054ZM58.1025 52.8022H59.8408L62.2041 59.0132C62.3408 59.3778 62.4677 59.7293 62.5849 60.0679C62.7021 60.3999 62.8063 60.7189 62.8974 61.0249C62.9886 61.3309 63.0602 61.6271 63.1123 61.9136H63.1806C63.2718 61.5881 63.402 61.1616 63.5712 60.6343C63.7405 60.1004 63.9228 59.5568 64.1181 59.0034L66.3544 52.8022H68.1025L63.4443 65.0776C63.1969 65.7352 62.9072 66.3081 62.5751 66.7964C62.2496 67.2847 61.8525 67.659 61.3837 67.9194C60.915 68.1864 60.3486 68.3198 59.6845 68.3198C59.3785 68.3198 59.1083 68.3003 58.874 68.2612C58.6396 68.2287 58.4378 68.1896 58.2685 68.144V66.8452C58.4117 66.8778 58.5843 66.9071 58.7861 66.9331C58.9944 66.9591 59.2093 66.9722 59.4306 66.9722C59.8343 66.9722 60.1826 66.894 60.4755 66.7378C60.775 66.5881 61.0322 66.3667 61.247 66.0737C61.4619 65.7808 61.6474 65.4325 61.8037 65.0288L62.3896 63.5249L58.1025 52.8022ZM77.6638 62.3726C77.9307 62.3726 78.2042 62.3498 78.4841 62.3042C78.7641 62.2586 78.9919 62.2033 79.1677 62.1382V63.3979C78.9789 63.4826 78.7153 63.5542 78.3767 63.6128C78.0447 63.6714 77.7192 63.7007 77.4001 63.7007C76.8337 63.7007 76.3194 63.603 75.8572 63.4077C75.3949 63.2059 75.0238 62.8674 74.7439 62.3921C74.4705 61.9168 74.3337 61.2593 74.3337 60.4194V54.0718H72.8103V53.2808L74.3435 52.646L74.988 50.3218H75.9646V52.8022H79.0994V54.0718H75.9646V60.3706C75.9646 61.0412 76.1176 61.5425 76.4236 61.8745C76.7361 62.2065 77.1495 62.3726 77.6638 62.3726ZM84.9396 52.6265C86.2156 52.6265 87.1629 52.9129 87.7814 53.4858C88.3999 54.0588 88.7091 54.9735 88.7091 56.23V63.5054H87.5275L87.215 61.9233H87.1369C86.8374 62.314 86.5249 62.6427 86.1994 62.9097C85.8738 63.1701 85.4962 63.3687 85.0666 63.5054C84.6434 63.6356 84.1225 63.7007 83.5041 63.7007C82.853 63.7007 82.2736 63.5868 81.7658 63.3589C81.2645 63.131 80.8673 62.786 80.5744 62.3237C80.2879 61.8615 80.1447 61.2756 80.1447 60.5659C80.1447 59.4982 80.5679 58.6779 81.4142 58.105C82.2606 57.5321 83.5496 57.2196 85.2814 57.1675L87.1271 57.0894V56.4351C87.1271 55.5106 86.9285 54.8628 86.5314 54.4917C86.1343 54.1206 85.5744 53.9351 84.8517 53.9351C84.2918 53.9351 83.758 54.0164 83.2501 54.1792C82.7423 54.342 82.2606 54.534 81.8048 54.7554L81.3068 53.5249C81.7886 53.2775 82.3419 53.0659 82.9669 52.8901C83.5919 52.7144 84.2495 52.6265 84.9396 52.6265ZM87.1076 58.2319L85.4767 58.3003C84.1421 58.3524 83.2013 58.5705 82.6544 58.9546C82.1076 59.3387 81.8341 59.8823 81.8341 60.5854C81.8341 61.1974 82.0197 61.6499 82.3908 61.9429C82.7619 62.2358 83.2534 62.3823 83.8654 62.3823C84.8159 62.3823 85.5939 62.1187 86.1994 61.5913C86.8048 61.064 87.1076 60.2729 87.1076 59.2183V58.2319ZM93.2603 48.3101V56.2007C93.2603 56.4611 93.2505 56.7801 93.231 57.1577C93.2115 57.5288 93.1952 57.8576 93.1822 58.144H93.2505C93.3873 57.9748 93.5858 57.7241 93.8462 57.3921C94.1132 57.0601 94.3378 56.7931 94.5201 56.5913L98.0748 52.8022H99.9791L95.6724 57.3726L100.292 63.5054H98.3384L94.5591 58.437L93.2603 59.6284V63.5054H91.649V48.3101H93.2603ZM105.878 52.6069C106.789 52.6069 107.571 52.8088 108.222 53.2124C108.873 53.616 109.371 54.1825 109.716 54.9116C110.061 55.6343 110.233 56.4806 110.233 57.4507V58.4565H102.841C102.86 59.7131 103.173 60.6701 103.778 61.3276C104.384 61.9852 105.237 62.314 106.337 62.314C107.014 62.314 107.613 62.2521 108.134 62.1284C108.655 62.0047 109.195 61.8224 109.755 61.5815V63.0073C109.214 63.2482 108.677 63.424 108.144 63.5347C107.616 63.6453 106.991 63.7007 106.269 63.7007C105.24 63.7007 104.341 63.4924 103.573 63.0757C102.811 62.6525 102.219 62.034 101.796 61.2202C101.373 60.4064 101.161 59.4103 101.161 58.2319C101.161 57.0796 101.353 56.0835 101.737 55.2437C102.128 54.3973 102.675 53.7463 103.378 53.2905C104.088 52.8348 104.921 52.6069 105.878 52.6069ZM105.858 53.9351C104.992 53.9351 104.302 54.2183 103.788 54.7847C103.274 55.3511 102.968 56.1421 102.87 57.1577H108.534C108.528 56.5197 108.427 55.9598 108.231 55.478C108.043 54.9897 107.753 54.6121 107.362 54.3452C106.972 54.0718 106.47 53.9351 105.858 53.9351ZM121.386 52.6265C122.663 52.6265 123.61 52.9129 124.228 53.4858C124.847 54.0588 125.156 54.9735 125.156 56.23V63.5054H123.974L123.662 61.9233H123.584C123.284 62.314 122.972 62.6427 122.646 62.9097C122.321 63.1701 121.943 63.3687 121.513 63.5054C121.09 63.6356 120.569 63.7007 119.951 63.7007C119.3 63.7007 118.72 63.5868 118.213 63.3589C117.711 63.131 117.314 62.786 117.021 62.3237C116.735 61.8615 116.592 61.2756 116.592 60.5659C116.592 59.4982 117.015 58.6779 117.861 58.105C118.707 57.5321 119.997 57.2196 121.728 57.1675L123.574 57.0894V56.4351C123.574 55.5106 123.375 54.8628 122.978 54.4917C122.581 54.1206 122.021 53.9351 121.299 53.9351C120.739 53.9351 120.205 54.0164 119.697 54.1792C119.189 54.342 118.707 54.534 118.252 54.7554L117.754 53.5249C118.235 53.2775 118.789 53.0659 119.414 52.8901C120.039 52.7144 120.696 52.6265 121.386 52.6265ZM123.554 58.2319L121.924 58.3003C120.589 58.3524 119.648 58.5705 119.101 58.9546C118.554 59.3387 118.281 59.8823 118.281 60.5854C118.281 61.1974 118.467 61.6499 118.838 61.9429C119.209 62.2358 119.7 62.3823 120.312 62.3823C121.263 62.3823 122.041 62.1187 122.646 61.5913C123.252 61.064 123.554 60.2729 123.554 59.2183V58.2319ZM137.657 54.0718H134.991V63.5054H133.37V54.0718H131.475V53.2905L133.37 52.7534V52.0405C133.37 51.1421 133.503 50.4129 133.77 49.853C134.037 49.2866 134.424 48.87 134.932 48.603C135.44 48.3361 136.058 48.2026 136.788 48.2026C137.198 48.2026 137.572 48.2384 137.911 48.3101C138.256 48.3817 138.558 48.4631 138.819 48.5542L138.399 49.8335C138.178 49.7619 137.927 49.6968 137.647 49.6382C137.374 49.5731 137.094 49.5405 136.807 49.5405C136.189 49.5405 135.73 49.7424 135.43 50.146C135.137 50.5431 134.991 51.1681 134.991 52.021V52.8022H137.657V54.0718ZM143.351 52.6069C144.262 52.6069 145.043 52.8088 145.694 53.2124C146.345 53.616 146.843 54.1825 147.188 54.9116C147.533 55.6343 147.706 56.4806 147.706 57.4507V58.4565H140.313C140.333 59.7131 140.645 60.6701 141.251 61.3276C141.856 61.9852 142.709 62.314 143.81 62.314C144.487 62.314 145.086 62.2521 145.606 62.1284C146.127 62.0047 146.668 61.8224 147.227 61.5815V63.0073C146.687 63.2482 146.15 63.424 145.616 63.5347C145.089 63.6453 144.464 63.7007 143.741 63.7007C142.713 63.7007 141.814 63.4924 141.046 63.0757C140.284 62.6525 139.692 62.034 139.269 61.2202C138.845 60.4064 138.634 59.4103 138.634 58.2319C138.634 57.0796 138.826 56.0835 139.21 55.2437C139.601 54.3973 140.147 53.7463 140.851 53.2905C141.56 52.8348 142.394 52.6069 143.351 52.6069ZM143.331 53.9351C142.465 53.9351 141.775 54.2183 141.261 54.7847C140.746 55.3511 140.44 56.1421 140.343 57.1577H146.007C146 56.5197 145.899 55.9598 145.704 55.478C145.515 54.9897 145.226 54.6121 144.835 54.3452C144.444 54.0718 143.943 53.9351 143.331 53.9351ZM158.771 63.4858L156.867 57.2554C156.782 56.9884 156.701 56.728 156.622 56.4741C156.551 56.2137 156.482 55.9663 156.417 55.7319C156.359 55.491 156.303 55.2697 156.251 55.0679C156.206 54.8595 156.167 54.6805 156.134 54.5308H156.066C156.04 54.6805 156.004 54.8595 155.958 55.0679C155.913 55.2697 155.857 55.491 155.792 55.7319C155.734 55.9728 155.669 56.2267 155.597 56.4937C155.525 56.7541 155.444 57.0177 155.353 57.2847L153.361 63.4858H151.535L148.585 52.7827H150.265L151.808 58.6909C151.912 59.0815 152.01 59.4689 152.101 59.853C152.199 60.2306 152.28 60.5887 152.345 60.9272C152.417 61.2593 152.469 61.549 152.501 61.7964H152.579C152.619 61.6336 152.661 61.4383 152.706 61.2104C152.758 60.9826 152.814 60.7417 152.872 60.4878C152.938 60.2274 153.006 59.9702 153.077 59.7163C153.149 59.4559 153.221 59.2118 153.292 58.9839L155.265 52.7827H157.013L158.917 58.9741C159.015 59.2866 159.109 59.6121 159.201 59.9507C159.298 60.2892 159.386 60.618 159.464 60.937C159.542 61.2495 159.598 61.5295 159.63 61.7769H159.708C159.734 61.5555 159.783 61.2821 159.855 60.9565C159.926 60.631 160.008 60.2729 160.099 59.8823C160.197 59.4917 160.298 59.0946 160.402 58.6909L161.964 52.7827H163.615L160.656 63.4858H158.771ZM181.584 52.6069C182.763 52.6069 183.651 52.9162 184.25 53.5347C184.849 54.1466 185.149 55.133 185.149 56.4937V63.5054H183.547V56.5718C183.547 55.7059 183.358 55.0581 182.981 54.6284C182.61 54.1922 182.056 53.9741 181.32 53.9741C180.285 53.9741 179.533 54.2736 179.065 54.8726C178.596 55.4715 178.361 56.3537 178.361 57.519V63.5054H176.75V56.5718C176.75 55.9924 176.666 55.5106 176.496 55.1265C176.333 54.7424 176.086 54.4559 175.754 54.2671C175.429 54.0718 175.015 53.9741 174.514 53.9741C173.804 53.9741 173.235 54.1206 172.805 54.4136C172.375 54.7065 172.063 55.1427 171.867 55.7222C171.679 56.2951 171.584 57.0015 171.584 57.8413V63.5054H169.963V52.8022H171.272L171.516 54.3159H171.604C171.819 53.9448 172.089 53.6323 172.414 53.3784C172.74 53.1245 173.104 52.9325 173.508 52.8022C173.912 52.672 174.341 52.6069 174.797 52.6069C175.611 52.6069 176.291 52.7599 176.838 53.0659C177.391 53.3654 177.792 53.8244 178.039 54.4429H178.127C178.479 53.8244 178.96 53.3654 179.572 53.0659C180.184 52.7599 180.855 52.6069 181.584 52.6069ZM189.7 52.8022V63.5054H188.079V52.8022H189.7ZM188.909 48.7983C189.176 48.7983 189.404 48.8862 189.592 49.062C189.788 49.2313 189.885 49.4982 189.885 49.8628C189.885 50.2209 189.788 50.4878 189.592 50.6636C189.404 50.8394 189.176 50.9272 188.909 50.9272C188.629 50.9272 188.394 50.8394 188.206 50.6636C188.023 50.4878 187.932 50.2209 187.932 49.8628C187.932 49.4982 188.023 49.2313 188.206 49.062C188.394 48.8862 188.629 48.7983 188.909 48.7983ZM197.806 52.6069C199.075 52.6069 200.035 52.9194 200.686 53.5444C201.338 54.1629 201.663 55.159 201.663 56.5327V63.5054H200.061V56.6401C200.061 55.7482 199.856 55.0809 199.446 54.6382C199.043 54.1955 198.421 53.9741 197.581 53.9741C196.396 53.9741 195.563 54.3094 195.081 54.98C194.599 55.6506 194.358 56.6239 194.358 57.8999V63.5054H192.737V52.8022H194.046L194.29 54.3452H194.378C194.606 53.9676 194.895 53.6519 195.247 53.3979C195.599 53.1375 195.992 52.9422 196.429 52.812C196.865 52.6753 197.324 52.6069 197.806 52.6069ZM213.441 52.8022V63.5054H212.113L211.878 62.0015H211.79C211.569 62.3726 211.283 62.6851 210.931 62.939C210.579 63.1929 210.182 63.3817 209.74 63.5054C209.303 63.6356 208.838 63.7007 208.343 63.7007C207.497 63.7007 206.787 63.564 206.214 63.2905C205.641 63.0171 205.208 62.5939 204.915 62.021C204.629 61.4481 204.486 60.7124 204.486 59.814V52.8022H206.126V59.6968C206.126 60.5887 206.328 61.256 206.732 61.6987C207.135 62.1349 207.751 62.353 208.577 62.353C209.372 62.353 210.003 62.2033 210.472 61.9038C210.947 61.6043 211.289 61.1649 211.497 60.5854C211.706 59.9995 211.81 59.2834 211.81 58.437V52.8022H213.441ZM219.926 62.3726C220.192 62.3726 220.466 62.3498 220.746 62.3042C221.026 62.2586 221.254 62.2033 221.429 62.1382V63.3979C221.241 63.4826 220.977 63.5542 220.638 63.6128C220.306 63.6714 219.981 63.7007 219.662 63.7007C219.095 63.7007 218.581 63.603 218.119 63.4077C217.657 63.2059 217.286 62.8674 217.006 62.3921C216.732 61.9168 216.595 61.2593 216.595 60.4194V54.0718H215.072V53.2808L216.605 52.646L217.25 50.3218H218.226V52.8022H221.361V54.0718H218.226V60.3706C218.226 61.0412 218.379 61.5425 218.685 61.8745C218.998 62.2065 219.411 62.3726 219.926 62.3726ZM227.319 52.6069C228.23 52.6069 229.011 52.8088 229.662 53.2124C230.313 53.616 230.811 54.1825 231.156 54.9116C231.501 55.6343 231.674 56.4806 231.674 57.4507V58.4565H224.281C224.301 59.7131 224.613 60.6701 225.219 61.3276C225.824 61.9852 226.677 62.314 227.777 62.314C228.455 62.314 229.054 62.2521 229.574 62.1284C230.095 62.0047 230.636 61.8224 231.195 61.5815V63.0073C230.655 63.2482 230.118 63.424 229.584 63.5347C229.057 63.6453 228.432 63.7007 227.709 63.7007C226.68 63.7007 225.782 63.4924 225.014 63.0757C224.252 62.6525 223.66 62.034 223.236 61.2202C222.813 60.4064 222.602 59.4103 222.602 58.2319C222.602 57.0796 222.794 56.0835 223.178 55.2437C223.569 54.3973 224.115 53.7463 224.819 53.2905C225.528 52.8348 226.361 52.6069 227.319 52.6069ZM227.299 53.9351C226.433 53.9351 225.743 54.2183 225.229 54.7847C224.714 55.3511 224.408 56.1421 224.311 57.1577H229.975C229.968 56.5197 229.867 55.9598 229.672 55.478C229.483 54.9897 229.194 54.6121 228.803 54.3452C228.412 54.0718 227.911 53.9351 227.299 53.9351ZM240.952 60.5757C240.952 61.2593 240.779 61.8354 240.434 62.3042C240.096 62.7664 239.607 63.1147 238.969 63.3491C238.338 63.5835 237.583 63.7007 236.704 63.7007C235.955 63.7007 235.307 63.6421 234.76 63.5249C234.213 63.4077 233.735 63.2417 233.325 63.0269V61.5327C233.761 61.7476 234.282 61.9429 234.887 62.1187C235.493 62.2944 236.111 62.3823 236.743 62.3823C237.667 62.3823 238.338 62.2326 238.754 61.9331C239.171 61.6336 239.379 61.2267 239.379 60.7124C239.379 60.4194 239.295 60.1623 239.126 59.9409C238.963 59.7131 238.686 59.495 238.295 59.2866C237.905 59.0718 237.364 58.8374 236.674 58.5835C235.991 58.3231 235.398 58.0659 234.897 57.812C234.402 57.5516 234.018 57.2358 233.745 56.8647C233.478 56.4937 233.344 56.0119 233.344 55.4194C233.344 54.5145 233.709 53.8211 234.438 53.3394C235.174 52.8511 236.137 52.6069 237.329 52.6069C237.973 52.6069 238.575 52.672 239.135 52.8022C239.702 52.9259 240.229 53.0952 240.717 53.3101L240.17 54.6089C239.728 54.4201 239.256 54.2606 238.754 54.1304C238.253 54.0002 237.742 53.9351 237.221 53.9351C236.473 53.9351 235.896 54.0588 235.493 54.3062C235.096 54.5535 234.897 54.8921 234.897 55.3218C234.897 55.6538 234.988 55.9272 235.17 56.1421C235.359 56.3569 235.659 56.5588 236.069 56.7476C236.479 56.9364 237.019 57.1577 237.69 57.4116C238.361 57.659 238.94 57.9162 239.428 58.1831C239.917 58.4435 240.291 58.7625 240.551 59.1401C240.818 59.5112 240.952 59.9897 240.952 60.5757ZM242.915 62.4897C242.915 62.034 243.026 61.7118 243.247 61.5229C243.468 61.3276 243.739 61.23 244.058 61.23C244.39 61.23 244.67 61.3276 244.897 61.5229C245.125 61.7118 245.239 62.034 245.239 62.4897C245.239 62.939 245.125 63.2677 244.897 63.4761C244.67 63.6779 244.39 63.7788 244.058 63.7788C243.739 63.7788 243.468 63.6779 243.247 63.4761C243.026 63.2677 242.915 62.939 242.915 62.4897ZM263.873 63.5054H262.213V56.7769H254.713V63.5054H253.052V49.228H254.713V55.312H262.213V49.228H263.873V63.5054ZM271.276 52.6069C272.187 52.6069 272.968 52.8088 273.619 53.2124C274.27 53.616 274.768 54.1825 275.113 54.9116C275.458 55.6343 275.631 56.4806 275.631 57.4507V58.4565H268.238C268.258 59.7131 268.57 60.6701 269.176 61.3276C269.781 61.9852 270.634 62.314 271.735 62.314C272.412 62.314 273.011 62.2521 273.531 62.1284C274.052 62.0047 274.593 61.8224 275.152 61.5815V63.0073C274.612 63.2482 274.075 63.424 273.541 63.5347C273.014 63.6453 272.389 63.7007 271.666 63.7007C270.638 63.7007 269.739 63.4924 268.971 63.0757C268.209 62.6525 267.617 62.034 267.194 61.2202C266.77 60.4064 266.559 59.4103 266.559 58.2319C266.559 57.0796 266.751 56.0835 267.135 55.2437C267.526 54.3973 268.072 53.7463 268.776 53.2905C269.485 52.8348 270.319 52.6069 271.276 52.6069ZM271.256 53.9351C270.39 53.9351 269.7 54.2183 269.186 54.7847C268.671 55.3511 268.365 56.1421 268.268 57.1577H273.932C273.925 56.5197 273.824 55.9598 273.629 55.478C273.44 54.9897 273.151 54.6121 272.76 54.3452C272.369 54.0718 271.868 53.9351 271.256 53.9351ZM282.848 52.6069C283.063 52.6069 283.288 52.62 283.522 52.646C283.756 52.6655 283.965 52.6948 284.147 52.7339L283.942 54.2378C283.766 54.1922 283.571 54.1564 283.356 54.1304C283.141 54.1043 282.939 54.0913 282.751 54.0913C282.321 54.0913 281.914 54.1792 281.53 54.355C281.152 54.5243 280.82 54.7716 280.534 55.0972C280.247 55.4162 280.023 55.8035 279.86 56.2593C279.697 56.7085 279.616 57.2098 279.616 57.7632V63.5054H277.985V52.8022H279.333L279.508 54.7749H279.577C279.798 54.3778 280.065 54.0164 280.377 53.6909C280.69 53.3589 281.051 53.0952 281.461 52.8999C281.878 52.7046 282.34 52.6069 282.848 52.6069ZM289.89 52.6069C290.801 52.6069 291.582 52.8088 292.233 53.2124C292.884 53.616 293.382 54.1825 293.727 54.9116C294.073 55.6343 294.245 56.4806 294.245 57.4507V58.4565H286.852C286.872 59.7131 287.185 60.6701 287.79 61.3276C288.395 61.9852 289.248 62.314 290.349 62.314C291.026 62.314 291.625 62.2521 292.145 62.1284C292.666 62.0047 293.207 61.8224 293.767 61.5815V63.0073C293.226 63.2482 292.689 63.424 292.155 63.5347C291.628 63.6453 291.003 63.7007 290.28 63.7007C289.252 63.7007 288.353 63.4924 287.585 63.0757C286.823 62.6525 286.231 62.034 285.808 61.2202C285.384 60.4064 285.173 59.4103 285.173 58.2319C285.173 57.0796 285.365 56.0835 285.749 55.2437C286.14 54.3973 286.686 53.7463 287.39 53.2905C288.099 52.8348 288.933 52.6069 289.89 52.6069ZM289.87 53.9351C289.004 53.9351 288.314 54.2183 287.8 54.7847C287.285 55.3511 286.979 56.1421 286.882 57.1577H292.546C292.539 56.5197 292.438 55.9598 292.243 55.478C292.054 54.9897 291.765 54.6121 291.374 54.3452C290.983 54.0718 290.482 53.9351 289.87 53.9351ZM303.015 52.8022V63.5054H301.394V52.8022H303.015ZM302.224 48.7983C302.491 48.7983 302.719 48.8862 302.908 49.062C303.103 49.2313 303.201 49.4982 303.201 49.8628C303.201 50.2209 303.103 50.4878 302.908 50.6636C302.719 50.8394 302.491 50.9272 302.224 50.9272C301.944 50.9272 301.71 50.8394 301.521 50.6636C301.339 50.4878 301.248 50.2209 301.248 49.8628C301.248 49.4982 301.339 49.2313 301.521 49.062C301.71 48.8862 301.944 48.7983 302.224 48.7983ZM312.977 60.5757C312.977 61.2593 312.804 61.8354 312.459 62.3042C312.121 62.7664 311.632 63.1147 310.994 63.3491C310.363 63.5835 309.608 63.7007 308.729 63.7007C307.98 63.7007 307.332 63.6421 306.785 63.5249C306.238 63.4077 305.76 63.2417 305.35 63.0269V61.5327C305.786 61.7476 306.307 61.9429 306.912 62.1187C307.518 62.2944 308.136 62.3823 308.768 62.3823C309.692 62.3823 310.363 62.2326 310.779 61.9331C311.196 61.6336 311.404 61.2267 311.404 60.7124C311.404 60.4194 311.32 60.1623 311.151 59.9409C310.988 59.7131 310.711 59.495 310.32 59.2866C309.93 59.0718 309.389 58.8374 308.699 58.5835C308.016 58.3231 307.423 58.0659 306.922 57.812C306.427 57.5516 306.043 57.2358 305.77 56.8647C305.503 56.4937 305.369 56.0119 305.369 55.4194C305.369 54.5145 305.734 53.8211 306.463 53.3394C307.199 52.8511 308.162 52.6069 309.354 52.6069C309.998 52.6069 310.6 52.672 311.16 52.8022C311.727 52.9259 312.254 53.0952 312.742 53.3101L312.195 54.6089C311.753 54.4201 311.281 54.2606 310.779 54.1304C310.278 54.0002 309.767 53.9351 309.246 53.9351C308.498 53.9351 307.921 54.0588 307.518 54.3062C307.121 54.5535 306.922 54.8921 306.922 55.3218C306.922 55.6538 307.013 55.9272 307.195 56.1421C307.384 56.3569 307.684 56.5588 308.094 56.7476C308.504 56.9364 309.044 57.1577 309.715 57.4116C310.386 57.659 310.965 57.9162 311.453 58.1831C311.942 58.4435 312.316 58.7625 312.576 59.1401C312.843 59.5112 312.977 59.9897 312.977 60.5757ZM35.0935 89.3726C35.3604 89.3726 35.6339 89.3498 35.9138 89.3042C36.1938 89.2586 36.4216 89.2033 36.5974 89.1382V90.3979C36.4086 90.4826 36.1449 90.5542 35.8064 90.6128C35.4744 90.6714 35.1488 90.7007 34.8298 90.7007C34.2634 90.7007 33.7491 90.603 33.2869 90.4077C32.8246 90.2059 32.4535 89.8674 32.1736 89.3921C31.9001 88.9168 31.7634 88.2593 31.7634 87.4194V81.0718H30.24V80.2808L31.7732 79.646L32.4177 77.3218H33.3943V79.8022H36.5291V81.0718H33.3943V87.3706C33.3943 88.0412 33.5473 88.5425 33.8533 88.8745C34.1658 89.2065 34.5792 89.3726 35.0935 89.3726ZM39.9865 75.3101V79.8511C39.9865 80.1115 39.98 80.3752 39.9669 80.6421C39.9539 80.9025 39.9311 81.1434 39.8986 81.3647H40.006C40.2274 80.9871 40.5073 80.6714 40.8458 80.4175C41.1909 80.1571 41.5815 79.9618 42.0177 79.8315C42.4539 79.6948 42.9162 79.6265 43.4044 79.6265C44.2638 79.6265 44.98 79.7632 45.5529 80.0366C46.1323 80.3101 46.5653 80.7332 46.8517 81.3062C47.1447 81.8791 47.2912 82.6213 47.2912 83.5327V90.5054H45.6896V83.6401C45.6896 82.7482 45.4845 82.0809 45.0744 81.6382C44.6707 81.1955 44.049 80.9741 43.2091 80.9741C42.4149 80.9741 41.7801 81.1271 41.3048 81.4331C40.8361 81.7326 40.4975 82.1753 40.2892 82.7612C40.0874 83.3472 39.9865 84.0633 39.9865 84.9097V90.5054H38.3654V75.3101H39.9865ZM54.3521 79.6069C55.2636 79.6069 56.0448 79.8088 56.6959 80.2124C57.3469 80.616 57.8449 81.1825 58.19 81.9116C58.535 82.6343 58.7076 83.4806 58.7076 84.4507V85.4565H51.315C51.3345 86.7131 51.647 87.6701 52.2525 88.3276C52.858 88.9852 53.7108 89.314 54.8111 89.314C55.4882 89.314 56.0871 89.2521 56.608 89.1284C57.1288 89.0047 57.6692 88.8224 58.2291 88.5815V90.0073C57.6887 90.2482 57.1516 90.424 56.6177 90.5347C56.0904 90.6453 55.4654 90.7007 54.7427 90.7007C53.7141 90.7007 52.8156 90.4924 52.0474 90.0757C51.2857 89.6525 50.6932 89.034 50.2701 88.2202C49.8469 87.4064 49.6353 86.4103 49.6353 85.2319C49.6353 84.0796 49.8274 83.0835 50.2115 82.2437C50.6021 81.3973 51.149 80.7463 51.8521 80.2905C52.5617 79.8348 53.3951 79.6069 54.3521 79.6069ZM54.3326 80.9351C53.4667 80.9351 52.7766 81.2183 52.2623 81.7847C51.7479 82.3511 51.4419 83.1421 51.3443 84.1577H57.0084C57.0018 83.5197 56.9009 82.9598 56.7056 82.478C56.5168 81.9897 56.2271 81.6121 55.8365 81.3452C55.4459 81.0718 54.9445 80.9351 54.3326 80.9351ZM70.6224 81.0718H67.9564V90.5054H66.3353V81.0718H64.4408V80.2905L66.3353 79.7534V79.0405C66.3353 78.1421 66.4688 77.4129 66.7357 76.853C67.0026 76.2866 67.39 75.87 67.8978 75.603C68.4056 75.3361 69.0241 75.2026 69.7533 75.2026C70.1634 75.2026 70.5378 75.2384 70.8763 75.3101C71.2214 75.3817 71.5241 75.4631 71.7845 75.5542L71.3646 76.8335C71.1432 76.7619 70.8926 76.6968 70.6126 76.6382C70.3392 76.5731 70.0593 76.5405 69.7728 76.5405C69.1543 76.5405 68.6953 76.7424 68.3959 77.146C68.1029 77.5431 67.9564 78.1681 67.9564 79.021V79.8022H70.6224V81.0718ZM74.2064 79.8022V90.5054H72.5853V79.8022H74.2064ZM73.4154 75.7983C73.6823 75.7983 73.9102 75.8862 74.099 76.062C74.2943 76.2313 74.3919 76.4982 74.3919 76.8628C74.3919 77.2209 74.2943 77.4878 74.099 77.6636C73.9102 77.8394 73.6823 77.9272 73.4154 77.9272C73.1354 77.9272 72.9011 77.8394 72.7123 77.6636C72.53 77.4878 72.4388 77.2209 72.4388 76.8628C72.4388 76.4982 72.53 76.2313 72.7123 76.062C72.9011 75.8862 73.1354 75.7983 73.4154 75.7983ZM78.865 90.5054H77.2341V75.3101H78.865V90.5054ZM86.0138 79.6069C86.9253 79.6069 87.7065 79.8088 88.3576 80.2124C89.0086 80.616 89.5067 81.1825 89.8517 81.9116C90.1968 82.6343 90.3693 83.4806 90.3693 84.4507V85.4565H82.9767C82.9962 86.7131 83.3087 87.6701 83.9142 88.3276C84.5197 88.9852 85.3725 89.314 86.4728 89.314C87.1499 89.314 87.7488 89.2521 88.2697 89.1284C88.7905 89.0047 89.3309 88.8224 89.8908 88.5815V90.0073C89.3504 90.2482 88.8133 90.424 88.2794 90.5347C87.7521 90.6453 87.1271 90.7007 86.4044 90.7007C85.3758 90.7007 84.4774 90.4924 83.7091 90.0757C82.9474 89.6525 82.355 89.034 81.9318 88.2202C81.5086 87.4064 81.297 86.4103 81.297 85.2319C81.297 84.0796 81.4891 83.0835 81.8732 82.2437C82.2638 81.3973 82.8107 80.7463 83.5138 80.2905C84.2235 79.8348 85.0568 79.6069 86.0138 79.6069ZM85.9943 80.9351C85.1284 80.9351 84.4383 81.2183 83.924 81.7847C83.4097 82.3511 83.1037 83.1421 83.006 84.1577H88.6701C88.6636 83.5197 88.5626 82.9598 88.3673 82.478C88.1785 81.9897 87.8888 81.6121 87.4982 81.3452C87.1076 81.0718 86.6063 80.9351 85.9943 80.9351Z" fill="white"/>
<rect x="29.9275" y="1" width="290.877" height="115" stroke="#C47370" stroke-width="0.805851"/>
<path d="M340.458 20.6526C340.458 9.79879 331.659 1 320.805 1V29.4446H340.458V20.6526Z" fill="#C47370" stroke="#C47370" stroke-width="0.805851"/>
<rect width="19.6526" height="58.1108" transform="matrix(-1 0 0 1 340.458 29.4446)" fill="#C47370" stroke="#C47370" stroke-width="0.805851"/>
<path d="M340.458 96.3474C340.458 107.201 331.659 116 320.805 116V87.5554H340.458V96.3474Z" fill="#C47370" stroke="#C47370" stroke-width="0.805851"/>
</svg>
