<svg width="341" height="85" viewBox="0 0 341 85" fill="none" xmlns="http://www.w3.org/2000/svg">
<path d="M10.2749 20.6526C10.2749 9.79879 19.0737 1 29.9275 1V29.4446H10.2749V20.6526Z" fill="#C47370" stroke="#C47370" stroke-width="0.805851"/>
<rect x="10.2749" y="29.4446" width="19.6526" height="5.11081" fill="#C47370" stroke="#C47370" stroke-width="0.805851"/>
<path fill-rule="evenodd" clip-rule="evenodd" d="M10.6316 47.0942C10.3975 45.8813 10.2748 44.6286 10.2748 43.3474V34.5554H29.9275V63C25.1684 63 20.8045 61.3084 17.4041 58.4937C14.0117 60.7537 8.57204 62.902 2 61.7071C3.81011 60.9313 10.792 56.2767 10.5334 46.9676C10.5648 47.0108 10.5975 47.053 10.6316 47.0942Z" fill="#C47370"/>
<path d="M10.6316 47.0942L10.321 47.3508L11.0272 47.0178L10.6316 47.0942ZM10.2748 34.5554V34.1525H9.87192V34.5554H10.2748ZM29.9275 34.5554H30.3304V34.1525H29.9275V34.5554ZM29.9275 63V63.4029H30.3304V63H29.9275ZM17.4041 58.4937L17.661 58.1833L17.4301 57.9922L17.1807 58.1584L17.4041 58.4937ZM2 61.7071L1.84128 61.3367L0.610887 61.864L1.92792 62.1035L2 61.7071ZM10.5334 46.9676L10.8592 46.7306L10.0945 45.6791L10.1306 46.9788L10.5334 46.9676ZM9.87192 43.3474C9.87192 44.6544 9.99701 45.9326 10.236 47.1706L11.0272 47.0178C10.7979 45.8299 10.6778 44.6029 10.6778 43.3474H9.87192ZM9.87192 34.5554V43.3474H10.6778V34.5554H9.87192ZM29.9275 34.1525H10.2748V34.9583H29.9275V34.1525ZM30.3304 63V34.5554H29.5246V63H30.3304ZM17.1472 58.8041C20.6171 61.6764 25.0712 63.4029 29.9275 63.4029V62.5971C25.2657 62.5971 20.9918 60.9404 17.661 58.1833L17.1472 58.8041ZM1.92792 62.1035C8.6283 63.3217 14.1727 61.1306 17.6275 58.829L17.1807 58.1584C13.8507 60.3768 8.51578 62.4822 2.07208 61.3106L1.92792 62.1035ZM10.1306 46.9788C10.2568 51.5221 8.61843 54.9224 6.72782 57.2856C4.8293 59.6588 2.68461 60.9753 1.84128 61.3367L2.15872 62.0774C3.1255 61.6631 5.3768 60.2644 7.35708 57.7891C9.34528 55.3038 11.0685 51.7222 10.9361 46.9564L10.1306 46.9788ZM10.9422 46.8375C10.9133 46.8026 10.8857 46.767 10.8592 46.7306L10.2075 47.2046C10.2439 47.2546 10.2817 47.3033 10.321 47.3508L10.9422 46.8375Z" fill="#C47370"/>
<rect x="29.9275" y="1" width="290.877" height="62" fill="#C47370"/>
<path d="M36.6658 25.6069C38.0004 25.6069 39.0649 26.0659 39.8591 26.9839C40.6534 27.9019 41.0505 29.2821 41.0505 31.1245C41.0505 32.342 40.8682 33.3641 40.5037 34.1909C40.1391 35.0177 39.6248 35.6427 38.9607 36.0659C38.3031 36.4891 37.5251 36.7007 36.6267 36.7007C36.0603 36.7007 35.5623 36.6258 35.1326 36.4761C34.7029 36.3263 34.335 36.1245 34.0291 35.8706C33.7231 35.6167 33.4692 35.34 33.2673 35.0405H33.1501C33.1697 35.2944 33.1925 35.6004 33.2185 35.9585C33.2511 36.3166 33.2673 36.6291 33.2673 36.896V41.2905H31.6365V25.8022H32.9744L33.1892 27.3843H33.2673C33.4757 27.0588 33.7296 26.7625 34.0291 26.4956C34.3285 26.2222 34.6931 26.0073 35.1228 25.8511C35.559 25.6883 36.0733 25.6069 36.6658 25.6069ZM36.3826 26.9741C35.6404 26.9741 35.0414 27.1174 34.5857 27.4038C34.1365 27.6903 33.8077 28.12 33.5994 28.6929C33.391 29.2593 33.2804 29.9722 33.2673 30.8315V31.144C33.2673 32.049 33.365 32.814 33.5603 33.439C33.7621 34.064 34.0909 34.5392 34.5466 34.8647C35.0089 35.1903 35.6274 35.353 36.4021 35.353C37.0662 35.353 37.6195 35.174 38.0623 34.8159C38.505 34.4578 38.8337 33.9598 39.0486 33.3218C39.2699 32.6772 39.3806 31.9383 39.3806 31.105C39.3806 29.842 39.1332 28.8394 38.6384 28.0972C38.1501 27.3485 37.3982 26.9741 36.3826 26.9741ZM48.3458 25.6069C48.5607 25.6069 48.7853 25.62 49.0197 25.646C49.2541 25.6655 49.4624 25.6948 49.6447 25.7339L49.4396 27.2378C49.2638 27.1922 49.0685 27.1564 48.8537 27.1304C48.6388 27.1043 48.437 27.0913 48.2482 27.0913C47.8185 27.0913 47.4116 27.1792 47.0275 27.355C46.6499 27.5243 46.3179 27.7716 46.0314 28.0972C45.7449 28.4162 45.5203 28.8035 45.3576 29.2593C45.1948 29.7085 45.1134 30.2098 45.1134 30.7632V36.5054H43.4826V25.8022H44.8302L45.006 27.7749H45.0744C45.2957 27.3778 45.5626 27.0164 45.8751 26.6909C46.1876 26.3589 46.549 26.0952 46.9591 25.8999C47.3758 25.7046 47.838 25.6069 48.3458 25.6069ZM60.4947 31.1343C60.4947 32.0132 60.3807 32.7977 60.1529 33.4878C59.925 34.1779 59.5962 34.7606 59.1666 35.2358C58.7369 35.7111 58.216 36.0757 57.6041 36.3296C56.9986 36.577 56.3117 36.7007 55.5435 36.7007C54.8274 36.7007 54.1698 36.577 53.5709 36.3296C52.9784 36.0757 52.4641 35.7111 52.0279 35.2358C51.5982 34.7606 51.2629 34.1779 51.022 33.4878C50.7876 32.7977 50.6705 32.0132 50.6705 31.1343C50.6705 29.9624 50.869 28.9663 51.2662 28.146C51.6633 27.3192 52.2297 26.6909 52.9654 26.2612C53.7076 25.825 54.5897 25.6069 55.6119 25.6069C56.5884 25.6069 57.4413 25.825 58.1705 26.2612C58.9061 26.6974 59.4758 27.3289 59.8794 28.1558C60.2896 28.9761 60.4947 29.9689 60.4947 31.1343ZM52.3501 31.1343C52.3501 31.9937 52.4641 32.7391 52.6919 33.3706C52.9198 34.0021 53.2714 34.4904 53.7466 34.8354C54.2219 35.1805 54.8339 35.353 55.5826 35.353C56.3248 35.353 56.9335 35.1805 57.4087 34.8354C57.8905 34.4904 58.2453 34.0021 58.4732 33.3706C58.7011 32.7391 58.815 31.9937 58.815 31.1343C58.815 30.2814 58.7011 29.5457 58.4732 28.9272C58.2453 28.3022 57.8938 27.8205 57.4185 27.4819C56.9432 27.1434 56.328 26.9741 55.5728 26.9741C54.4595 26.9741 53.6425 27.342 53.1216 28.0776C52.6073 28.8133 52.3501 29.8322 52.3501 31.1343ZM61.6083 41.3101C61.2763 41.3101 60.9866 41.284 60.7392 41.2319C60.4918 41.1864 60.277 41.131 60.0947 41.0659V39.7476C60.2965 39.8127 60.5016 39.8615 60.7099 39.894C60.9182 39.9331 61.1526 39.9526 61.413 39.9526C61.8557 39.9526 62.2138 39.8289 62.4873 39.5815C62.7607 39.3341 62.8974 38.8849 62.8974 38.2339V25.8022H64.5185V38.1948C64.5185 38.8459 64.4143 39.4025 64.206 39.8647C63.9977 40.3335 63.6787 40.6916 63.249 40.939C62.8193 41.1864 62.2724 41.3101 61.6083 41.3101ZM62.7509 22.8628C62.7509 22.4982 62.8421 22.2313 63.0244 22.062C63.2132 21.8862 63.4475 21.7983 63.7275 21.7983C63.9944 21.7983 64.2223 21.8862 64.4111 22.062C64.6064 22.2313 64.7041 22.4982 64.7041 22.8628C64.7041 23.2209 64.6064 23.4878 64.4111 23.6636C64.2223 23.8394 63.9944 23.9272 63.7275 23.9272C63.4475 23.9272 63.2132 23.8394 63.0244 23.6636C62.8421 23.4878 62.7509 23.2209 62.7509 22.8628ZM71.6771 25.6069C72.5886 25.6069 73.3698 25.8088 74.0209 26.2124C74.6719 26.616 75.1699 27.1825 75.515 27.9116C75.86 28.6343 76.0326 29.4806 76.0326 30.4507V31.4565H68.64C68.6595 32.7131 68.972 33.6701 69.5775 34.3276C70.183 34.9852 71.0358 35.314 72.1361 35.314C72.8132 35.314 73.4121 35.2521 73.933 35.1284C74.4538 35.0047 74.9942 34.8224 75.5541 34.5815V36.0073C75.0137 36.2482 74.4766 36.424 73.9427 36.5347C73.4154 36.6453 72.7904 36.7007 72.0677 36.7007C71.0391 36.7007 70.1406 36.4924 69.3724 36.0757C68.6107 35.6525 68.0182 35.034 67.5951 34.2202C67.1719 33.4064 66.9603 32.4103 66.9603 31.2319C66.9603 30.0796 67.1524 29.0835 67.5365 28.2437C67.9271 27.3973 68.474 26.7463 69.1771 26.2905C69.8867 25.8348 70.7201 25.6069 71.6771 25.6069ZM71.6576 26.9351C70.7917 26.9351 70.1016 27.2183 69.5873 27.7847C69.0729 28.3511 68.7669 29.1421 68.6693 30.1577H74.3334C74.3268 29.5197 74.2259 28.9598 74.0306 28.478C73.8418 27.9897 73.5521 27.6121 73.1615 27.3452C72.7709 27.0718 72.2695 26.9351 71.6576 26.9351ZM82.6736 36.7007C81.71 36.7007 80.8604 36.5021 80.1248 36.105C79.3891 35.7078 78.8162 35.1024 78.406 34.2886C77.9958 33.4748 77.7908 32.4494 77.7908 31.2124C77.7908 29.9168 78.0056 28.8589 78.4353 28.0386C78.8715 27.2118 79.4705 26.5998 80.2322 26.2026C80.9939 25.8055 81.8598 25.6069 82.8298 25.6069C83.3637 25.6069 83.878 25.6623 84.3728 25.7729C84.8741 25.8771 85.2843 26.0106 85.6033 26.1733L85.115 27.5308C84.7895 27.4006 84.4119 27.2834 83.9822 27.1792C83.559 27.075 83.1619 27.0229 82.7908 27.0229C82.0486 27.0229 81.4301 27.1825 80.9353 27.5015C80.447 27.8205 80.0792 28.2892 79.8318 28.9077C79.5909 29.5262 79.4705 30.2879 79.4705 31.1929C79.4705 32.0588 79.5876 32.7977 79.822 33.4097C80.0629 34.0216 80.4177 34.4904 80.8865 34.8159C81.3617 35.1349 81.9542 35.2944 82.6638 35.2944C83.2302 35.2944 83.7413 35.2358 84.197 35.1187C84.6528 34.995 85.0662 34.8517 85.4373 34.689V36.1343C85.0792 36.3166 84.6788 36.4565 84.2361 36.5542C83.7999 36.6519 83.2791 36.7007 82.6736 36.7007ZM91.0333 35.3726C91.3003 35.3726 91.5737 35.3498 91.8537 35.3042C92.1336 35.2586 92.3615 35.2033 92.5373 35.1382V36.3979C92.3485 36.4826 92.0848 36.5542 91.7462 36.6128C91.4142 36.6714 91.0887 36.7007 90.7697 36.7007C90.2033 36.7007 89.6889 36.603 89.2267 36.4077C88.7645 36.2059 88.3934 35.8674 88.1134 35.3921C87.84 34.9168 87.7033 34.2593 87.7033 33.4194V27.0718H86.1798V26.2808L87.713 25.646L88.3576 23.3218H89.3341V25.8022H92.4689V27.0718H89.3341V33.3706C89.3341 34.0412 89.4871 34.5425 89.7931 34.8745C90.1056 35.2065 90.519 35.3726 91.0333 35.3726ZM99.6177 36.5054H98.0357V26.3882C98.0357 26.0041 98.0357 25.6753 98.0357 25.4019C98.0422 25.1219 98.0487 24.868 98.0552 24.6401C98.0682 24.4058 98.0845 24.1681 98.1041 23.9272C97.9022 24.1356 97.7134 24.3146 97.5376 24.4644C97.3619 24.6076 97.1438 24.7866 96.8834 25.0015L95.2525 26.3101L94.4029 25.2065L98.2701 22.228H99.6177V36.5054ZM105.106 35.4897C105.106 35.034 105.217 34.7118 105.438 34.5229C105.66 34.3276 105.93 34.23 106.249 34.23C106.581 34.23 106.861 34.3276 107.089 34.5229C107.317 34.7118 107.431 35.034 107.431 35.4897C107.431 35.939 107.317 36.2677 107.089 36.4761C106.861 36.6779 106.581 36.7788 106.249 36.7788C105.93 36.7788 105.66 36.6779 105.438 36.4761C105.217 36.2677 105.106 35.939 105.106 35.4897ZM117.079 36.5054H109.277V35.4312L115.146 27.0718H109.648V25.8022H116.952V27.0034L111.161 35.2456H117.079V36.5054ZM120.801 25.8022V36.5054H119.179V25.8022H120.801ZM120.01 21.7983C120.276 21.7983 120.504 21.8862 120.693 22.062C120.888 22.2313 120.986 22.4982 120.986 22.8628C120.986 23.2209 120.888 23.4878 120.693 23.6636C120.504 23.8394 120.276 23.9272 120.01 23.9272C119.73 23.9272 119.495 23.8394 119.306 23.6636C119.124 23.4878 119.033 23.2209 119.033 22.8628C119.033 22.4982 119.124 22.2313 119.306 22.062C119.495 21.8862 119.73 21.7983 120.01 21.7983ZM128.867 25.6069C130.202 25.6069 131.266 26.0659 132.061 26.9839C132.855 27.9019 133.252 29.2821 133.252 31.1245C133.252 32.342 133.07 33.3641 132.705 34.1909C132.341 35.0177 131.826 35.6427 131.162 36.0659C130.505 36.4891 129.727 36.7007 128.828 36.7007C128.262 36.7007 127.764 36.6258 127.334 36.4761C126.904 36.3263 126.537 36.1245 126.231 35.8706C125.925 35.6167 125.671 35.34 125.469 35.0405H125.352C125.371 35.2944 125.394 35.6004 125.42 35.9585C125.453 36.3166 125.469 36.6291 125.469 36.896V41.2905H123.838V25.8022H125.176L125.391 27.3843H125.469C125.677 27.0588 125.931 26.7625 126.231 26.4956C126.53 26.2222 126.895 26.0073 127.324 25.8511C127.761 25.6883 128.275 25.6069 128.867 25.6069ZM128.584 26.9741C127.842 26.9741 127.243 27.1174 126.787 27.4038C126.338 27.6903 126.009 28.12 125.801 28.6929C125.593 29.2593 125.482 29.9722 125.469 30.8315V31.144C125.469 32.049 125.567 32.814 125.762 33.439C125.964 34.064 126.292 34.5392 126.748 34.8647C127.21 35.1903 127.829 35.353 128.604 35.353C129.268 35.353 129.821 35.174 130.264 34.8159C130.707 34.4578 131.035 33.9598 131.25 33.3218C131.471 32.6772 131.582 31.9383 131.582 31.105C131.582 29.842 131.335 28.8394 130.84 28.0972C130.352 27.3485 129.6 26.9741 128.584 26.9741Z" fill="white"/>
<rect x="29.9275" y="1" width="290.877" height="62" stroke="#C47370" stroke-width="0.805851"/>
<path d="M340.458 20.6526C340.458 9.79879 331.659 1 320.805 1V29.4446H340.458V20.6526Z" fill="#C47370" stroke="#C47370" stroke-width="0.805851"/>
<rect width="19.6526" height="5.11081" transform="matrix(-1 0 0 1 340.458 29.4446)" fill="#C47370" stroke="#C47370" stroke-width="0.805851"/>
<path d="M340.458 43.3474C340.458 54.2012 331.659 63 320.805 63V34.5554H340.458V43.3474Z" fill="#C47370" stroke="#C47370" stroke-width="0.805851"/>
</svg>
