<svg width="341" height="95" viewBox="0 0 341 95" fill="none" xmlns="http://www.w3.org/2000/svg">
<path d="M10.2749 20.6526C10.2749 9.79879 19.0737 1 29.9275 1V29.4446H10.2749V20.6526Z" fill="#C47370" stroke="#C47370" stroke-width="0.805851"/>
<rect x="10.2749" y="29.4446" width="19.6526" height="36.1108" fill="#C47370" stroke="#C47370" stroke-width="0.805851"/>
<path fill-rule="evenodd" clip-rule="evenodd" d="M10.6316 78.0942C10.3975 76.8813 10.2748 75.6286 10.2748 74.3474V65.5554H29.9275V94C25.1684 94 20.8045 92.3084 17.4041 89.4937C14.0117 91.7537 8.57204 93.902 2 92.7071C3.81011 91.9313 10.792 87.2767 10.5334 77.9676C10.5648 78.0108 10.5975 78.053 10.6316 78.0942Z" fill="#C47370"/>
<path d="M10.6316 78.0942L10.321 78.3508L11.0272 78.0178L10.6316 78.0942ZM10.2748 65.5554V65.1525H9.87192V65.5554H10.2748ZM29.9275 65.5554H30.3304V65.1525H29.9275V65.5554ZM29.9275 94V94.4029H30.3304V94H29.9275ZM17.4041 89.4937L17.661 89.1833L17.4301 88.9922L17.1807 89.1584L17.4041 89.4937ZM2 92.7071L1.84128 92.3367L0.610887 92.864L1.92792 93.1035L2 92.7071ZM10.5334 77.9676L10.8592 77.7306L10.0945 76.6791L10.1306 77.9788L10.5334 77.9676ZM9.87192 74.3474C9.87192 75.6544 9.99701 76.9326 10.236 78.1706L11.0272 78.0178C10.7979 76.8299 10.6778 75.6029 10.6778 74.3474H9.87192ZM9.87192 65.5554V74.3474H10.6778V65.5554H9.87192ZM29.9275 65.1525H10.2748V65.9583H29.9275V65.1525ZM30.3304 94V65.5554H29.5246V94H30.3304ZM17.1472 89.8041C20.6171 92.6764 25.0712 94.4029 29.9275 94.4029V93.5971C25.2657 93.5971 20.9918 91.9404 17.661 89.1833L17.1472 89.8041ZM1.92792 93.1035C8.6283 94.3217 14.1727 92.1306 17.6275 89.829L17.1807 89.1584C13.8507 91.3768 8.51578 93.4822 2.07208 92.3106L1.92792 93.1035ZM10.1306 77.9788C10.2568 82.5221 8.61843 85.9224 6.72782 88.2856C4.8293 90.6588 2.68461 91.9753 1.84128 92.3367L2.15872 93.0774C3.1255 92.6631 5.3768 91.2644 7.35708 88.7891C9.34528 86.3038 11.0685 82.7222 10.9361 77.9564L10.1306 77.9788ZM10.9422 77.8375C10.9133 77.8026 10.8857 77.767 10.8592 77.7306L10.2075 78.2046C10.2439 78.2546 10.2817 78.3033 10.321 78.3508L10.9422 77.8375Z" fill="#C47370"/>
<rect x="29.9275" y="1" width="290.877" height="93" fill="#C47370"/>
<path d="M36.2654 36.5054H34.5955V23.6929H30.1033V22.228H40.738V23.6929H36.2654V36.5054ZM43.8732 21.3101V25.8511C43.8732 26.1115 43.8667 26.3752 43.8537 26.6421C43.8406 26.9025 43.8179 27.1434 43.7853 27.3647H43.8927C44.1141 26.9871 44.394 26.6714 44.7326 26.4175C45.0776 26.1571 45.4682 25.9618 45.9044 25.8315C46.3406 25.6948 46.8029 25.6265 47.2912 25.6265C48.1505 25.6265 48.8667 25.7632 49.4396 26.0366C50.019 26.3101 50.452 26.7332 50.7384 27.3062C51.0314 27.8791 51.1779 28.6213 51.1779 29.5327V36.5054H49.5763V29.6401C49.5763 28.7482 49.3712 28.0809 48.9611 27.6382C48.5574 27.1955 47.9357 26.9741 47.0958 26.9741C46.3016 26.9741 45.6668 27.1271 45.1916 27.4331C44.7228 27.7326 44.3843 28.1753 44.1759 28.7612C43.9741 29.3472 43.8732 30.0633 43.8732 30.9097V36.5054H42.2521V21.3101H43.8732ZM58.2388 25.6069C59.1503 25.6069 59.9315 25.8088 60.5826 26.2124C61.2336 26.616 61.7317 27.1825 62.0767 27.9116C62.4218 28.6343 62.5943 29.4806 62.5943 30.4507V31.4565H55.2017C55.2212 32.7131 55.5337 33.6701 56.1392 34.3276C56.7447 34.9852 57.5975 35.314 58.6978 35.314C59.3749 35.314 59.9738 35.2521 60.4947 35.1284C61.0155 35.0047 61.5559 34.8224 62.1158 34.5815V36.0073C61.5754 36.2482 61.0383 36.424 60.5044 36.5347C59.9771 36.6453 59.3521 36.7007 58.6294 36.7007C57.6008 36.7007 56.7024 36.4924 55.9341 36.0757C55.1724 35.6525 54.58 35.034 54.1568 34.2202C53.7336 33.4064 53.522 32.4103 53.522 31.2319C53.522 30.0796 53.7141 29.0835 54.0982 28.2437C54.4888 27.3973 55.0357 26.7463 55.7388 26.2905C56.4485 25.8348 57.2818 25.6069 58.2388 25.6069ZM58.2193 26.9351C57.3534 26.9351 56.6633 27.2183 56.149 27.7847C55.6347 28.3511 55.3287 29.1421 55.231 30.1577H60.8951C60.8886 29.5197 60.7876 28.9598 60.5923 28.478C60.4035 27.9897 60.1138 27.6121 59.7232 27.3452C59.3326 27.0718 58.8313 26.9351 58.2193 26.9351ZM74.5091 27.0718H71.8431V36.5054H70.222V27.0718H68.3275V26.2905L70.222 25.7534V25.0405C70.222 24.1421 70.3555 23.4129 70.6224 22.853C70.8893 22.2866 71.2767 21.87 71.7845 21.603C72.2923 21.3361 72.9108 21.2026 73.64 21.2026C74.0501 21.2026 74.4245 21.2384 74.763 21.3101C75.1081 21.3817 75.4108 21.4631 75.6712 21.5542L75.2513 22.8335C75.03 22.7619 74.7793 22.6968 74.4994 22.6382C74.2259 22.5731 73.946 22.5405 73.6595 22.5405C73.041 22.5405 72.582 22.7424 72.2826 23.146C71.9896 23.5431 71.8431 24.1681 71.8431 25.021V25.8022H74.5091V27.0718ZM78.0931 25.8022V36.5054H76.472V25.8022H78.0931ZM77.3021 21.7983C77.569 21.7983 77.7969 21.8862 77.9857 22.062C78.181 22.2313 78.2787 22.4982 78.2787 22.8628C78.2787 23.2209 78.181 23.4878 77.9857 23.6636C77.7969 23.8394 77.569 23.9272 77.3021 23.9272C77.0222 23.9272 76.7878 23.8394 76.599 23.6636C76.4167 23.4878 76.3255 23.2209 76.3255 22.8628C76.3255 22.4982 76.4167 22.2313 76.599 22.062C76.7878 21.8862 77.0222 21.7983 77.3021 21.7983ZM82.7517 36.5054H81.1208V21.3101H82.7517V36.5054ZM89.9005 25.6069C90.812 25.6069 91.5932 25.8088 92.2443 26.2124C92.8953 26.616 93.3934 27.1825 93.7384 27.9116C94.0835 28.6343 94.256 29.4806 94.256 30.4507V31.4565H86.8634C86.883 32.7131 87.1955 33.6701 87.8009 34.3276C88.4064 34.9852 89.2593 35.314 90.3595 35.314C91.0366 35.314 91.6356 35.2521 92.1564 35.1284C92.6772 35.0047 93.2176 34.8224 93.7775 34.5815V36.0073C93.2371 36.2482 92.7 36.424 92.1662 36.5347C91.6388 36.6453 91.0138 36.7007 90.2912 36.7007C89.2625 36.7007 88.3641 36.4924 87.5958 36.0757C86.8341 35.6525 86.2417 35.034 85.8185 34.2202C85.3953 33.4064 85.1837 32.4103 85.1837 31.2319C85.1837 30.0796 85.3758 29.0835 85.7599 28.2437C86.1505 27.3973 86.6974 26.7463 87.4005 26.2905C88.1102 25.8348 88.9435 25.6069 89.9005 25.6069ZM89.881 26.9351C89.0151 26.9351 88.325 27.2183 87.8107 27.7847C87.2964 28.3511 86.9904 29.1421 86.8927 30.1577H92.5568C92.5503 29.5197 92.4494 28.9598 92.2541 28.478C92.0652 27.9897 91.7755 27.6121 91.3849 27.3452C90.9943 27.0718 90.493 26.9351 89.881 26.9351ZM103.534 33.5757C103.534 34.2593 103.361 34.8354 103.016 35.3042C102.678 35.7664 102.189 36.1147 101.551 36.3491C100.92 36.5835 100.165 36.7007 99.2857 36.7007C98.537 36.7007 97.8892 36.6421 97.3423 36.5249C96.7955 36.4077 96.3169 36.2417 95.9068 36.0269V34.5327C96.343 34.7476 96.8638 34.9429 97.4693 35.1187C98.0748 35.2944 98.6932 35.3823 99.3248 35.3823C100.249 35.3823 100.92 35.2326 101.336 34.9331C101.753 34.6336 101.961 34.2267 101.961 33.7124C101.961 33.4194 101.877 33.1623 101.708 32.9409C101.545 32.7131 101.268 32.495 100.877 32.2866C100.487 32.0718 99.9465 31.8374 99.2564 31.5835C98.5728 31.3231 97.9804 31.0659 97.479 30.812C96.9843 30.5516 96.6001 30.2358 96.3267 29.8647C96.0598 29.4937 95.9263 29.0119 95.9263 28.4194C95.9263 27.5145 96.2909 26.8211 97.0201 26.3394C97.7557 25.8511 98.7193 25.6069 99.9107 25.6069C100.555 25.6069 101.157 25.672 101.717 25.8022C102.284 25.9259 102.811 26.0952 103.299 26.3101L102.752 27.6089C102.31 27.4201 101.838 27.2606 101.336 27.1304C100.835 27.0002 100.324 26.9351 99.8033 26.9351C99.0546 26.9351 98.4784 27.0588 98.0748 27.3062C97.6776 27.5535 97.479 27.8921 97.479 28.3218C97.479 28.6538 97.5702 28.9272 97.7525 29.1421C97.9413 29.3569 98.2408 29.5588 98.6509 29.7476C99.0611 29.9364 99.6014 30.1577 100.272 30.4116C100.943 30.659 101.522 30.9162 102.01 31.1831C102.499 31.4435 102.873 31.7625 103.133 32.1401C103.4 32.5112 103.534 32.9897 103.534 33.5757ZM119.247 36.4858L117.343 30.2554C117.258 29.9884 117.177 29.728 117.099 29.4741C117.027 29.2137 116.959 28.9663 116.894 28.7319C116.835 28.491 116.78 28.2697 116.728 28.0679C116.682 27.8595 116.643 27.6805 116.611 27.5308H116.542C116.516 27.6805 116.48 27.8595 116.435 28.0679C116.389 28.2697 116.334 28.491 116.269 28.7319C116.21 28.9728 116.145 29.2267 116.074 29.4937C116.002 29.7541 115.921 30.0177 115.829 30.2847L113.837 36.4858H112.011L109.062 25.7827H110.742L112.285 31.6909C112.389 32.0815 112.486 32.4689 112.577 32.853C112.675 33.2306 112.757 33.5887 112.822 33.9272C112.893 34.2593 112.945 34.549 112.978 34.7964H113.056C113.095 34.6336 113.137 34.4383 113.183 34.2104C113.235 33.9826 113.29 33.7417 113.349 33.4878C113.414 33.2274 113.482 32.9702 113.554 32.7163C113.626 32.4559 113.697 32.2118 113.769 31.9839L115.742 25.7827H117.49L119.394 31.9741C119.492 32.2866 119.586 32.6121 119.677 32.9507C119.775 33.2892 119.863 33.618 119.941 33.937C120.019 34.2495 120.074 34.5295 120.107 34.7769H120.185C120.211 34.5555 120.26 34.2821 120.331 33.9565C120.403 33.631 120.484 33.2729 120.576 32.8823C120.673 32.4917 120.774 32.0946 120.878 31.6909L122.441 25.7827H124.091L121.132 36.4858H119.247ZM129.765 25.6069C130.677 25.6069 131.458 25.8088 132.109 26.2124C132.76 26.616 133.258 27.1825 133.603 27.9116C133.948 28.6343 134.121 29.4806 134.121 30.4507V31.4565H126.728C126.748 32.7131 127.06 33.6701 127.666 34.3276C128.271 34.9852 129.124 35.314 130.224 35.314C130.901 35.314 131.5 35.2521 132.021 35.1284C132.542 35.0047 133.082 34.8224 133.642 34.5815V36.0073C133.102 36.2482 132.565 36.424 132.031 36.5347C131.504 36.6453 130.879 36.7007 130.156 36.7007C129.127 36.7007 128.229 36.4924 127.461 36.0757C126.699 35.6525 126.107 35.034 125.683 34.2202C125.26 33.4064 125.049 32.4103 125.049 31.2319C125.049 30.0796 125.241 29.0835 125.625 28.2437C126.015 27.3973 126.562 26.7463 127.265 26.2905C127.975 25.8348 128.808 25.6069 129.765 25.6069ZM129.746 26.9351C128.88 26.9351 128.19 27.2183 127.676 27.7847C127.161 28.3511 126.855 29.1421 126.758 30.1577H132.422C132.415 29.5197 132.314 28.9598 132.119 28.478C131.93 27.9897 131.64 27.6121 131.25 27.3452C130.859 27.0718 130.358 26.9351 129.746 26.9351ZM141.338 25.6069C141.553 25.6069 141.777 25.62 142.012 25.646C142.246 25.6655 142.455 25.6948 142.637 25.7339L142.432 27.2378C142.256 27.1922 142.061 27.1564 141.846 27.1304C141.631 27.1043 141.429 27.0913 141.24 27.0913C140.811 27.0913 140.404 27.1792 140.02 27.355C139.642 27.5243 139.31 27.7716 139.024 28.0972C138.737 28.4162 138.513 28.8035 138.35 29.2593C138.187 29.7085 138.106 30.2098 138.106 30.7632V36.5054H136.475V25.8022H137.822L137.998 27.7749H138.067C138.288 27.3778 138.555 27.0164 138.867 26.6909C139.18 26.3589 139.541 26.0952 139.951 25.8999C140.368 25.7046 140.83 25.6069 141.338 25.6069ZM148.379 25.6069C149.291 25.6069 150.072 25.8088 150.723 26.2124C151.374 26.616 151.872 27.1825 152.217 27.9116C152.562 28.6343 152.735 29.4806 152.735 30.4507V31.4565H145.342C145.362 32.7131 145.674 33.6701 146.28 34.3276C146.885 34.9852 147.738 35.314 148.838 35.314C149.516 35.314 150.114 35.2521 150.635 35.1284C151.156 35.0047 151.696 34.8224 152.256 34.5815V36.0073C151.716 36.2482 151.179 36.424 150.645 36.5347C150.118 36.6453 149.493 36.7007 148.77 36.7007C147.741 36.7007 146.843 36.4924 146.075 36.0757C145.313 35.6525 144.721 35.034 144.297 34.2202C143.874 33.4064 143.663 32.4103 143.663 31.2319C143.663 30.0796 143.855 29.0835 144.239 28.2437C144.629 27.3973 145.176 26.7463 145.879 26.2905C146.589 25.8348 147.422 25.6069 148.379 25.6069ZM148.36 26.9351C147.494 26.9351 146.804 27.2183 146.29 27.7847C145.775 28.3511 145.469 29.1421 145.372 30.1577H151.036C151.029 29.5197 150.928 28.9598 150.733 28.478C150.544 27.9897 150.254 27.6121 149.864 27.3452C149.473 27.0718 148.972 26.9351 148.36 26.9351ZM163.341 35.3726C163.608 35.3726 163.882 35.3498 164.161 35.3042C164.441 35.2586 164.669 35.2033 164.845 35.1382V36.3979C164.656 36.4826 164.393 36.5542 164.054 36.6128C163.722 36.6714 163.396 36.7007 163.077 36.7007C162.511 36.7007 161.997 36.603 161.535 36.4077C161.072 36.2059 160.701 35.8674 160.421 35.3921C160.148 34.9168 160.011 34.2593 160.011 33.4194V27.0718H158.488V26.2808L160.021 25.646L160.665 23.3218H161.642V25.8022H164.777V27.0718H161.642V33.3706C161.642 34.0412 161.795 34.5425 162.101 34.8745C162.413 35.2065 162.827 35.3726 163.341 35.3726ZM175.842 31.1343C175.842 32.0132 175.728 32.7977 175.5 33.4878C175.272 34.1779 174.943 34.7606 174.513 35.2358C174.084 35.7111 173.563 36.0757 172.951 36.3296C172.345 36.577 171.659 36.7007 170.89 36.7007C170.174 36.7007 169.517 36.577 168.918 36.3296C168.325 36.0757 167.811 35.7111 167.375 35.2358C166.945 34.7606 166.61 34.1779 166.369 33.4878C166.135 32.7977 166.017 32.0132 166.017 31.1343C166.017 29.9624 166.216 28.9663 166.613 28.146C167.01 27.3192 167.577 26.6909 168.312 26.2612C169.054 25.825 169.937 25.6069 170.959 25.6069C171.935 25.6069 172.788 25.825 173.517 26.2612C174.253 26.6974 174.823 27.3289 175.226 28.1558C175.636 28.9761 175.842 29.9689 175.842 31.1343ZM167.697 31.1343C167.697 31.9937 167.811 32.7391 168.039 33.3706C168.267 34.0021 168.618 34.4904 169.094 34.8354C169.569 35.1805 170.181 35.353 170.929 35.353C171.672 35.353 172.28 35.1805 172.756 34.8354C173.237 34.4904 173.592 34.0021 173.82 33.3706C174.048 32.7391 174.162 31.9937 174.162 31.1343C174.162 30.2814 174.048 29.5457 173.82 28.9272C173.592 28.3022 173.241 27.8205 172.765 27.4819C172.29 27.1434 171.675 26.9741 170.92 26.9741C169.806 26.9741 168.989 27.342 168.469 28.0776C167.954 28.8133 167.697 29.8322 167.697 31.1343ZM187.473 31.1343C187.473 32.0132 187.359 32.7977 187.131 33.4878C186.903 34.1779 186.574 34.7606 186.145 35.2358C185.715 35.7111 185.194 36.0757 184.582 36.3296C183.977 36.577 183.29 36.7007 182.522 36.7007C181.805 36.7007 181.148 36.577 180.549 36.3296C179.957 36.0757 179.442 35.7111 179.006 35.2358C178.576 34.7606 178.241 34.1779 178 33.4878C177.766 32.7977 177.649 32.0132 177.649 31.1343C177.649 29.9624 177.847 28.9663 178.244 28.146C178.641 27.3192 179.208 26.6909 179.944 26.2612C180.686 25.825 181.568 25.6069 182.59 25.6069C183.567 25.6069 184.419 25.825 185.149 26.2612C185.884 26.6974 186.454 27.3289 186.858 28.1558C187.268 28.9761 187.473 29.9689 187.473 31.1343ZM179.328 31.1343C179.328 31.9937 179.442 32.7391 179.67 33.3706C179.898 34.0021 180.25 34.4904 180.725 34.8354C181.2 35.1805 181.812 35.353 182.561 35.353C183.303 35.353 183.912 35.1805 184.387 34.8354C184.869 34.4904 185.223 34.0021 185.451 33.3706C185.679 32.7391 185.793 31.9937 185.793 31.1343C185.793 30.2814 185.679 29.5457 185.451 28.9272C185.223 28.3022 184.872 27.8205 184.397 27.4819C183.921 27.1434 183.306 26.9741 182.551 26.9741C181.438 26.9741 180.621 27.342 180.1 28.0776C179.585 28.8133 179.328 29.8322 179.328 31.1343ZM196.292 21.3101V25.1089C196.292 25.5451 196.279 25.9683 196.253 26.3784C196.233 26.7886 196.217 27.1076 196.204 27.3354H196.292C196.585 26.8537 197.008 26.4468 197.561 26.1147C198.115 25.7827 198.821 25.6167 199.681 25.6167C201.022 25.6167 202.089 26.0822 202.884 27.0132C203.685 27.9377 204.085 29.3146 204.085 31.144C204.085 32.3485 203.903 33.3641 203.538 34.1909C203.173 35.0177 202.659 35.6427 201.995 36.0659C201.331 36.4891 200.547 36.7007 199.642 36.7007C198.795 36.7007 198.099 36.5444 197.552 36.2319C197.011 35.9129 196.595 35.5256 196.302 35.0698H196.175L195.843 36.5054H194.671V21.3101H196.292ZM199.417 26.9741C198.642 26.9741 198.027 27.1271 197.571 27.4331C197.116 27.7326 196.787 28.1883 196.585 28.8003C196.39 29.4058 196.292 30.174 196.292 31.105V31.1929C196.292 32.5405 196.517 33.5724 196.966 34.2886C197.415 34.9982 198.232 35.353 199.417 35.353C200.413 35.353 201.158 34.9884 201.653 34.2593C202.155 33.5301 202.405 32.4884 202.405 31.1343C202.405 29.7541 202.158 28.7157 201.663 28.019C201.175 27.3224 200.426 26.9741 199.417 26.9741ZM208.138 25.8022V36.5054H206.517V25.8022H208.138ZM207.347 21.7983C207.614 21.7983 207.842 21.8862 208.031 22.062C208.226 22.2313 208.324 22.4982 208.324 22.8628C208.324 23.2209 208.226 23.4878 208.031 23.6636C207.842 23.8394 207.614 23.9272 207.347 23.9272C207.067 23.9272 206.833 23.8394 206.644 23.6636C206.462 23.4878 206.37 23.2209 206.37 22.8628C206.37 22.4982 206.462 22.2313 206.644 22.062C206.833 21.8862 207.067 21.7983 207.347 21.7983ZM214.164 41.3101C212.758 41.3101 211.674 41.0464 210.912 40.519C210.15 39.9982 209.769 39.2658 209.769 38.3218C209.769 37.6512 209.981 37.0783 210.404 36.603C210.834 36.1278 211.426 35.812 212.181 35.6558C211.901 35.5256 211.661 35.3302 211.459 35.0698C211.263 34.8094 211.166 34.5099 211.166 34.1714C211.166 33.7808 211.273 33.439 211.488 33.146C211.709 32.8465 212.045 32.5601 212.494 32.2866C211.934 32.0588 211.478 31.6746 211.127 31.1343C210.782 30.5874 210.609 29.9526 210.609 29.23C210.609 28.4618 210.769 27.8075 211.088 27.2671C211.407 26.7202 211.869 26.3035 212.474 26.0171C213.08 25.7306 213.812 25.5874 214.672 25.5874C214.86 25.5874 215.049 25.5972 215.238 25.6167C215.433 25.6297 215.619 25.6525 215.795 25.6851C215.97 25.7111 216.123 25.7437 216.254 25.7827H219.926V26.8276L217.953 27.0718C218.148 27.3257 218.311 27.6317 218.441 27.9897C218.571 28.3478 218.636 28.745 218.636 29.1812C218.636 30.2489 218.275 31.0985 217.552 31.73C216.83 32.355 215.837 32.6675 214.574 32.6675C214.274 32.6675 213.969 32.6414 213.656 32.5894C213.337 32.7651 213.093 32.9604 212.924 33.1753C212.761 33.3901 212.679 33.6375 212.679 33.9175C212.679 34.1258 212.741 34.2918 212.865 34.4155C212.995 34.5392 213.181 34.6304 213.422 34.689C213.663 34.741 213.952 34.7671 214.291 34.7671H216.176C217.341 34.7671 218.233 35.0112 218.851 35.4995C219.476 35.9878 219.789 36.7007 219.789 37.6382C219.789 38.8231 219.307 39.7313 218.344 40.3628C217.38 40.9943 215.987 41.3101 214.164 41.3101ZM214.213 40.0405C215.098 40.0405 215.83 39.9494 216.41 39.7671C216.996 39.5913 217.432 39.3341 217.719 38.9956C218.011 38.6636 218.158 38.2664 218.158 37.8042C218.158 37.3745 218.06 37.049 217.865 36.8276C217.67 36.6128 217.383 36.4696 217.006 36.3979C216.628 36.3198 216.166 36.2808 215.619 36.2808H213.763C213.282 36.2808 212.862 36.3556 212.504 36.5054C212.146 36.6551 211.869 36.8765 211.674 37.1694C211.485 37.4624 211.39 37.827 211.39 38.2632C211.39 38.8426 211.635 39.2821 212.123 39.5815C212.611 39.8875 213.308 40.0405 214.213 40.0405ZM214.633 31.4858C215.407 31.4858 215.99 31.2905 216.381 30.8999C216.771 30.5093 216.967 29.9396 216.967 29.1909C216.967 28.3901 216.768 27.7912 216.371 27.394C215.974 26.9904 215.388 26.7886 214.613 26.7886C213.871 26.7886 213.298 26.9969 212.894 27.4136C212.497 27.8237 212.299 28.4259 212.299 29.2202C212.299 29.9494 212.5 30.5093 212.904 30.8999C213.308 31.2905 213.884 31.4858 214.633 31.4858ZM233.354 33.5757C233.354 34.2593 233.182 34.8354 232.836 35.3042C232.498 35.7664 232.01 36.1147 231.372 36.3491C230.74 36.5835 229.985 36.7007 229.106 36.7007C228.357 36.7007 227.71 36.6421 227.163 36.5249C226.616 36.4077 226.137 36.2417 225.727 36.0269V34.5327C226.163 34.7476 226.684 34.9429 227.29 35.1187C227.895 35.2944 228.514 35.3823 229.145 35.3823C230.07 35.3823 230.74 35.2326 231.157 34.9331C231.573 34.6336 231.782 34.2267 231.782 33.7124C231.782 33.4194 231.697 33.1623 231.528 32.9409C231.365 32.7131 231.088 32.495 230.698 32.2866C230.307 32.0718 229.767 31.8374 229.077 31.5835C228.393 31.3231 227.801 31.0659 227.299 30.812C226.805 30.5516 226.42 30.2358 226.147 29.8647C225.88 29.4937 225.747 29.0119 225.747 28.4194C225.747 27.5145 226.111 26.8211 226.84 26.3394C227.576 25.8511 228.54 25.6069 229.731 25.6069C230.376 25.6069 230.978 25.672 231.538 25.8022C232.104 25.9259 232.631 26.0952 233.12 26.3101L232.573 27.6089C232.13 27.4201 231.658 27.2606 231.157 27.1304C230.655 27.0002 230.144 26.9351 229.624 26.9351C228.875 26.9351 228.299 27.0588 227.895 27.3062C227.498 27.5535 227.299 27.8921 227.299 28.3218C227.299 28.6538 227.391 28.9272 227.573 29.1421C227.762 29.3569 228.061 29.5588 228.471 29.7476C228.881 29.9364 229.422 30.1577 230.092 30.4116C230.763 30.659 231.342 30.9162 231.831 31.1831C232.319 31.4435 232.693 31.7625 232.954 32.1401C233.221 32.5112 233.354 32.9897 233.354 33.5757ZM244.79 31.1343C244.79 32.0132 244.676 32.7977 244.448 33.4878C244.22 34.1779 243.892 34.7606 243.462 35.2358C243.032 35.7111 242.511 36.0757 241.899 36.3296C241.294 36.577 240.607 36.7007 239.839 36.7007C239.123 36.7007 238.465 36.577 237.866 36.3296C237.274 36.0757 236.759 35.7111 236.323 35.2358C235.894 34.7606 235.558 34.1779 235.317 33.4878C235.083 32.7977 234.966 32.0132 234.966 31.1343C234.966 29.9624 235.164 28.9663 235.561 28.146C235.959 27.3192 236.525 26.6909 237.261 26.2612C238.003 25.825 238.885 25.6069 239.907 25.6069C240.884 25.6069 241.737 25.825 242.466 26.2612C243.201 26.6974 243.771 27.3289 244.175 28.1558C244.585 28.9761 244.79 29.9689 244.79 31.1343ZM236.645 31.1343C236.645 31.9937 236.759 32.7391 236.987 33.3706C237.215 34.0021 237.567 34.4904 238.042 34.8354C238.517 35.1805 239.129 35.353 239.878 35.353C240.62 35.353 241.229 35.1805 241.704 34.8354C242.186 34.4904 242.541 34.0021 242.769 33.3706C242.996 32.7391 243.11 31.9937 243.11 31.1343C243.11 30.2814 242.996 29.5457 242.769 28.9272C242.541 28.3022 242.189 27.8205 241.714 27.4819C241.239 27.1434 240.623 26.9741 239.868 26.9741C238.755 26.9741 237.938 27.342 237.417 28.0776C236.903 28.8133 236.645 29.8322 236.645 31.1343ZM252.232 36.5054V22.228H253.892V36.5054H252.232ZM263.59 21.3101V25.8511C263.59 26.1115 263.584 26.3752 263.571 26.6421C263.558 26.9025 263.535 27.1434 263.502 27.3647H263.61C263.831 26.9871 264.111 26.6714 264.45 26.4175C264.795 26.1571 265.185 25.9618 265.622 25.8315C266.058 25.6948 266.52 25.6265 267.008 25.6265C267.868 25.6265 268.584 25.7632 269.157 26.0366C269.736 26.3101 270.169 26.7332 270.456 27.3062C270.749 27.8791 270.895 28.6213 270.895 29.5327V36.5054H269.294V29.6401C269.294 28.7482 269.088 28.0809 268.678 27.6382C268.275 27.1955 267.653 26.9741 266.813 26.9741C266.019 26.9741 265.384 27.1271 264.909 27.4331C264.44 27.7326 264.101 28.1753 263.893 28.7612C263.691 29.3472 263.59 30.0633 263.59 30.9097V36.5054H261.969V21.3101H263.59ZM277.839 25.6265C279.115 25.6265 280.062 25.9129 280.681 26.4858C281.299 27.0588 281.608 27.9735 281.608 29.23V36.5054H280.427L280.114 34.9233H280.036C279.737 35.314 279.424 35.6427 279.099 35.9097C278.773 36.1701 278.395 36.3687 277.966 36.5054C277.543 36.6356 277.022 36.7007 276.403 36.7007C275.752 36.7007 275.173 36.5868 274.665 36.3589C274.164 36.131 273.767 35.786 273.474 35.3237C273.187 34.8615 273.044 34.2756 273.044 33.5659C273.044 32.4982 273.467 31.6779 274.313 31.105C275.16 30.5321 276.449 30.2196 278.181 30.1675L280.026 30.0894V29.4351C280.026 28.5106 279.828 27.8628 279.431 27.4917C279.033 27.1206 278.474 26.9351 277.751 26.9351C277.191 26.9351 276.657 27.0164 276.149 27.1792C275.642 27.342 275.16 27.534 274.704 27.7554L274.206 26.5249C274.688 26.2775 275.241 26.0659 275.866 25.8901C276.491 25.7144 277.149 25.6265 277.839 25.6265ZM280.007 31.2319L278.376 31.3003C277.041 31.3524 276.101 31.5705 275.554 31.9546C275.007 32.3387 274.733 32.8823 274.733 33.5854C274.733 34.1974 274.919 34.6499 275.29 34.9429C275.661 35.2358 276.153 35.3823 276.765 35.3823C277.715 35.3823 278.493 35.1187 279.099 34.5913C279.704 34.064 280.007 33.2729 280.007 32.2183V31.2319ZM288.357 36.7007C287.003 36.7007 285.928 36.2384 285.134 35.314C284.346 34.3895 283.952 33.0158 283.952 31.1929C283.952 29.3504 284.356 27.9604 285.163 27.0229C285.971 26.0789 287.045 25.6069 288.386 25.6069C288.952 25.6069 289.447 25.6818 289.87 25.8315C290.294 25.9813 290.658 26.1831 290.964 26.437C291.27 26.6844 291.527 26.9676 291.736 27.2866H291.853C291.827 27.0848 291.801 26.8081 291.775 26.4565C291.749 26.105 291.736 25.8185 291.736 25.5972V21.3101H293.357V36.5054H292.048L291.804 34.9819H291.736C291.534 35.3009 291.277 35.5907 290.964 35.8511C290.658 36.1115 290.29 36.3198 289.861 36.4761C289.438 36.6258 288.936 36.7007 288.357 36.7007ZM288.611 35.353C289.757 35.353 290.567 35.0275 291.042 34.3765C291.518 33.7254 291.755 32.7586 291.755 31.4761V31.1831C291.755 29.8224 291.527 28.7775 291.072 28.0483C290.622 27.3192 289.802 26.9546 288.611 26.9546C287.615 26.9546 286.869 27.3387 286.374 28.1069C285.88 28.8687 285.632 29.9103 285.632 31.2319C285.632 32.547 285.876 33.5627 286.365 34.2788C286.859 34.995 287.608 35.353 288.611 35.353ZM304.647 35.3726C304.914 35.3726 305.187 35.3498 305.467 35.3042C305.747 35.2586 305.975 35.2033 306.151 35.1382V36.3979C305.962 36.4826 305.698 36.5542 305.36 36.6128C305.027 36.6714 304.702 36.7007 304.383 36.7007C303.817 36.7007 303.302 36.603 302.84 36.4077C302.378 36.2059 302.007 35.8674 301.727 35.3921C301.453 34.9168 301.317 34.2593 301.317 33.4194V27.0718H299.793V26.2808L301.326 25.646L301.971 23.3218H302.947V25.8022H306.082V27.0718H302.947V33.3706C302.947 34.0412 303.1 34.5425 303.406 34.8745C303.719 35.2065 304.132 35.3726 304.647 35.3726ZM317.147 31.1343C317.147 32.0132 317.033 32.7977 316.805 33.4878C316.577 34.1779 316.249 34.7606 315.819 35.2358C315.389 35.7111 314.868 36.0757 314.256 36.3296C313.651 36.577 312.964 36.7007 312.196 36.7007C311.48 36.7007 310.822 36.577 310.223 36.3296C309.631 36.0757 309.116 35.7111 308.68 35.2358C308.251 34.7606 307.915 34.1779 307.674 33.4878C307.44 32.7977 307.323 32.0132 307.323 31.1343C307.323 29.9624 307.521 28.9663 307.919 28.146C308.316 27.3192 308.882 26.6909 309.618 26.2612C310.36 25.825 311.242 25.6069 312.264 25.6069C313.241 25.6069 314.094 25.825 314.823 26.2612C315.558 26.6974 316.128 27.3289 316.532 28.1558C316.942 28.9761 317.147 29.9689 317.147 31.1343ZM309.003 31.1343C309.003 31.9937 309.116 32.7391 309.344 33.3706C309.572 34.0021 309.924 34.4904 310.399 34.8354C310.874 35.1805 311.486 35.353 312.235 35.353C312.977 35.353 313.586 35.1805 314.061 34.8354C314.543 34.4904 314.898 34.0021 315.126 33.3706C315.353 32.7391 315.467 31.9937 315.467 31.1343C315.467 30.2814 315.353 29.5457 315.126 28.9272C314.898 28.3022 314.546 27.8205 314.071 27.4819C313.596 27.1434 312.98 26.9741 312.225 26.9741C311.112 26.9741 310.295 27.342 309.774 28.0776C309.26 28.8133 309.003 29.8322 309.003 31.1343ZM35.9236 63.7007C34.96 63.7007 34.1104 63.5021 33.3748 63.105C32.6391 62.7078 32.0662 62.1024 31.656 61.2886C31.2458 60.4748 31.0408 59.4494 31.0408 58.2124C31.0408 56.9168 31.2556 55.8589 31.6853 55.0386C32.1215 54.2118 32.7205 53.5998 33.4822 53.2026C34.2439 52.8055 35.1098 52.6069 36.0798 52.6069C36.6137 52.6069 37.128 52.6623 37.6228 52.7729C38.1241 52.8771 38.5343 53.0106 38.8533 53.1733L38.365 54.5308C38.0395 54.4006 37.6619 54.2834 37.2322 54.1792C36.809 54.075 36.4119 54.0229 36.0408 54.0229C35.2986 54.0229 34.6801 54.1825 34.1853 54.5015C33.697 54.8205 33.3292 55.2892 33.0818 55.9077C32.8409 56.5262 32.7205 57.2879 32.7205 58.1929C32.7205 59.0588 32.8376 59.7977 33.072 60.4097C33.3129 61.0216 33.6677 61.4904 34.1365 61.8159C34.6117 62.1349 35.2042 62.2944 35.9138 62.2944C36.4802 62.2944 36.9913 62.2358 37.447 62.1187C37.9028 61.995 38.3162 61.8517 38.6873 61.689V63.1343C38.3292 63.3166 37.9288 63.4565 37.4861 63.5542C37.0499 63.6519 36.5291 63.7007 35.9236 63.7007ZM50.0548 58.1343C50.0548 59.0132 49.9409 59.7977 49.713 60.4878C49.4852 61.1779 49.1564 61.7606 48.7267 62.2358C48.297 62.7111 47.7762 63.0757 47.1642 63.3296C46.5587 63.577 45.8719 63.7007 45.1037 63.7007C44.3875 63.7007 43.73 63.577 43.131 63.3296C42.5386 63.0757 42.0242 62.7111 41.588 62.2358C41.1583 61.7606 40.8231 61.1779 40.5822 60.4878C40.3478 59.7977 40.2306 59.0132 40.2306 58.1343C40.2306 56.9624 40.4292 55.9663 40.8263 55.146C41.2235 54.3192 41.7899 53.6909 42.5255 53.2612C43.2677 52.825 44.1499 52.6069 45.172 52.6069C46.1486 52.6069 47.0014 52.825 47.7306 53.2612C48.4663 53.6974 49.036 54.3289 49.4396 55.1558C49.8498 55.9761 50.0548 56.9689 50.0548 58.1343ZM41.9103 58.1343C41.9103 58.9937 42.0242 59.7391 42.2521 60.3706C42.48 61.0021 42.8315 61.4904 43.3068 61.8354C43.782 62.1805 44.394 62.353 45.1427 62.353C45.8849 62.353 46.4936 62.1805 46.9689 61.8354C47.4507 61.4904 47.8055 61.0021 48.0333 60.3706C48.2612 59.7391 48.3751 58.9937 48.3751 58.1343C48.3751 57.2814 48.2612 56.5457 48.0333 55.9272C47.8055 55.3022 47.4539 54.8205 46.9787 54.4819C46.5034 54.1434 45.8882 53.9741 45.133 53.9741C44.0197 53.9741 43.2026 54.342 42.6818 55.0776C42.1675 55.8133 41.9103 56.8322 41.9103 58.1343ZM64.0787 52.6069C65.257 52.6069 66.1457 52.9162 66.7447 53.5347C67.3436 54.1466 67.6431 55.133 67.6431 56.4937V63.5054H66.0416V56.5718C66.0416 55.7059 65.8528 55.0581 65.4751 54.6284C65.1041 54.1922 64.5507 53.9741 63.815 53.9741C62.7798 53.9741 62.0279 54.2736 61.5591 54.8726C61.0904 55.4715 60.856 56.3537 60.856 57.519V63.5054H59.2447V56.5718C59.2447 55.9924 59.16 55.5106 58.9908 55.1265C58.828 54.7424 58.5806 54.4559 58.2486 54.2671C57.9231 54.0718 57.5097 53.9741 57.0084 53.9741C56.2987 53.9741 55.7291 54.1206 55.2994 54.4136C54.8697 54.7065 54.5572 55.1427 54.3619 55.7222C54.1731 56.2951 54.0787 57.0015 54.0787 57.8413V63.5054H52.4576V52.8022H53.7662L54.0103 54.3159H54.0982C54.313 53.9448 54.5832 53.6323 54.9087 53.3784C55.2343 53.1245 55.5988 52.9325 56.0025 52.8022C56.4061 52.672 56.8358 52.6069 57.2916 52.6069C58.1054 52.6069 58.7857 52.7599 59.3326 53.0659C59.886 53.3654 60.2863 53.8244 60.5337 54.4429H60.6216C60.9732 53.8244 61.455 53.3654 62.0669 53.0659C62.6789 52.7599 63.3495 52.6069 64.0787 52.6069ZM75.6025 52.6069C76.9371 52.6069 78.0016 53.0659 78.7958 53.9839C79.5901 54.9019 79.9873 56.2821 79.9873 58.1245C79.9873 59.342 79.805 60.3641 79.4404 61.1909C79.0758 62.0177 78.5615 62.6427 77.8974 63.0659C77.2399 63.4891 76.4619 63.7007 75.5634 63.7007C74.997 63.7007 74.499 63.6258 74.0693 63.4761C73.6396 63.3263 73.2718 63.1245 72.9658 62.8706C72.6598 62.6167 72.4059 62.34 72.2041 62.0405H72.0869C72.1064 62.2944 72.1292 62.6004 72.1552 62.9585C72.1878 63.3166 72.2041 63.6291 72.2041 63.896V68.2905H70.5732V52.8022H71.9111L72.1259 54.3843H72.2041C72.4124 54.0588 72.6663 53.7625 72.9658 53.4956C73.2652 53.2222 73.6298 53.0073 74.0595 52.8511C74.4957 52.6883 75.01 52.6069 75.6025 52.6069ZM75.3193 53.9741C74.5771 53.9741 73.9781 54.1174 73.5224 54.4038C73.0732 54.6903 72.7444 55.12 72.5361 55.6929C72.3277 56.2593 72.2171 56.9722 72.2041 57.8315V58.144C72.2041 59.049 72.3017 59.814 72.497 60.439C72.6988 61.064 73.0276 61.5392 73.4833 61.8647C73.9456 62.1903 74.5641 62.353 75.3388 62.353C76.0029 62.353 76.5563 62.174 76.999 61.8159C77.4417 61.4578 77.7705 60.9598 77.9853 60.3218C78.2067 59.6772 78.3173 58.9383 78.3173 58.105C78.3173 56.842 78.0699 55.8394 77.5751 55.0972C77.0869 54.3485 76.3349 53.9741 75.3193 53.9741ZM87.2826 52.6069C87.4974 52.6069 87.722 52.62 87.9564 52.646C88.1908 52.6655 88.3991 52.6948 88.5814 52.7339L88.3763 54.2378C88.2005 54.1922 88.0052 54.1564 87.7904 54.1304C87.5755 54.1043 87.3737 54.0913 87.1849 54.0913C86.7552 54.0913 86.3483 54.1792 85.9642 54.355C85.5866 54.5243 85.2546 54.7716 84.9681 55.0972C84.6817 55.4162 84.457 55.8035 84.2943 56.2593C84.1315 56.7085 84.0501 57.2098 84.0501 57.7632V63.5054H82.4193V52.8022H83.7669L83.9427 54.7749H84.0111C84.2324 54.3778 84.4994 54.0164 84.8119 53.6909C85.1244 53.3589 85.4857 53.0952 85.8959 52.8999C86.3125 52.7046 86.7748 52.6069 87.2826 52.6069ZM94.324 52.6069C95.2354 52.6069 96.0167 52.8088 96.6677 53.2124C97.3188 53.616 97.8168 54.1825 98.1619 54.9116C98.5069 55.6343 98.6794 56.4806 98.6794 57.4507V58.4565H91.2869C91.3064 59.7131 91.6189 60.6701 92.2244 61.3276C92.8298 61.9852 93.6827 62.314 94.783 62.314C95.46 62.314 96.059 62.2521 96.5798 62.1284C97.1007 62.0047 97.641 61.8224 98.2009 61.5815V63.0073C97.6606 63.2482 97.1235 63.424 96.5896 63.5347C96.0623 63.6453 95.4373 63.7007 94.7146 63.7007C93.686 63.7007 92.7875 63.4924 92.0193 63.0757C91.2576 62.6525 90.6651 62.034 90.2419 61.2202C89.8188 60.4064 89.6072 59.4103 89.6072 58.2319C89.6072 57.0796 89.7992 56.0835 90.1833 55.2437C90.574 54.3973 91.1208 53.7463 91.824 53.2905C92.5336 52.8348 93.3669 52.6069 94.324 52.6069ZM94.3044 53.9351C93.4386 53.9351 92.7485 54.2183 92.2341 54.7847C91.7198 55.3511 91.4138 56.1421 91.3162 57.1577H96.9802C96.9737 56.5197 96.8728 55.9598 96.6775 55.478C96.4887 54.9897 96.199 54.6121 95.8083 54.3452C95.4177 54.0718 94.9164 53.9351 94.3044 53.9351ZM107.957 60.5757C107.957 61.2593 107.785 61.8354 107.44 62.3042C107.101 62.7664 106.613 63.1147 105.975 63.3491C105.343 63.5835 104.588 63.7007 103.709 63.7007C102.96 63.7007 102.313 63.6421 101.766 63.5249C101.219 63.4077 100.74 63.2417 100.33 63.0269V61.5327C100.766 61.7476 101.287 61.9429 101.893 62.1187C102.498 62.2944 103.117 62.3823 103.748 62.3823C104.673 62.3823 105.343 62.2326 105.76 61.9331C106.177 61.6336 106.385 61.2267 106.385 60.7124C106.385 60.4194 106.3 60.1623 106.131 59.9409C105.968 59.7131 105.692 59.495 105.301 59.2866C104.91 59.0718 104.37 58.8374 103.68 58.5835C102.996 58.3231 102.404 58.0659 101.902 57.812C101.408 57.5516 101.024 57.2358 100.75 56.8647C100.483 56.4937 100.35 56.0119 100.35 55.4194C100.35 54.5145 100.714 53.8211 101.444 53.3394C102.179 52.8511 103.143 52.6069 104.334 52.6069C104.979 52.6069 105.581 52.672 106.141 52.8022C106.707 52.9259 107.235 53.0952 107.723 53.3101L107.176 54.6089C106.733 54.4201 106.261 54.2606 105.76 54.1304C105.259 54.0002 104.748 53.9351 104.227 53.9351C103.478 53.9351 102.902 54.0588 102.498 54.3062C102.101 54.5535 101.902 54.8921 101.902 55.3218C101.902 55.6538 101.994 55.9272 102.176 56.1421C102.365 56.3569 102.664 56.5588 103.074 56.7476C103.485 56.9364 104.025 57.1577 104.695 57.4116C105.366 57.659 105.945 57.9162 106.434 58.1831C106.922 58.4435 107.296 58.7625 107.557 59.1401C107.824 59.5112 107.957 59.9897 107.957 60.5757ZM117.088 60.5757C117.088 61.2593 116.916 61.8354 116.571 62.3042C116.232 62.7664 115.744 63.1147 115.106 63.3491C114.474 63.5835 113.719 63.7007 112.84 63.7007C112.092 63.7007 111.444 63.6421 110.897 63.5249C110.35 63.4077 109.872 63.2417 109.461 63.0269V61.5327C109.898 61.7476 110.419 61.9429 111.024 62.1187C111.629 62.2944 112.248 62.3823 112.879 62.3823C113.804 62.3823 114.474 62.2326 114.891 61.9331C115.308 61.6336 115.516 61.2267 115.516 60.7124C115.516 60.4194 115.432 60.1623 115.262 59.9409C115.099 59.7131 114.823 59.495 114.432 59.2866C114.042 59.0718 113.501 58.8374 112.811 58.5835C112.127 58.3231 111.535 58.0659 111.034 57.812C110.539 57.5516 110.155 57.2358 109.881 56.8647C109.614 56.4937 109.481 56.0119 109.481 55.4194C109.481 54.5145 109.846 53.8211 110.575 53.3394C111.31 52.8511 112.274 52.6069 113.465 52.6069C114.11 52.6069 114.712 52.672 115.272 52.8022C115.838 52.9259 116.366 53.0952 116.854 53.3101L116.307 54.6089C115.864 54.4201 115.392 54.2606 114.891 54.1304C114.39 54.0002 113.879 53.9351 113.358 53.9351C112.609 53.9351 112.033 54.0588 111.629 54.3062C111.232 54.5535 111.034 54.8921 111.034 55.3218C111.034 55.6538 111.125 55.9272 111.307 56.1421C111.496 56.3569 111.795 56.5588 112.206 56.7476C112.616 56.9364 113.156 57.1577 113.827 57.4116C114.497 57.659 115.077 57.9162 115.565 58.1831C116.053 58.4435 116.428 58.7625 116.688 59.1401C116.955 59.5112 117.088 59.9897 117.088 60.5757ZM127.548 62.3726C127.815 62.3726 128.089 62.3498 128.369 62.3042C128.648 62.2586 128.876 62.2033 129.052 62.1382V63.3979C128.863 63.4826 128.6 63.5542 128.261 63.6128C127.929 63.6714 127.604 63.7007 127.285 63.7007C126.718 63.7007 126.204 63.603 125.742 63.4077C125.279 63.2059 124.908 62.8674 124.628 62.3921C124.355 61.9168 124.218 61.2593 124.218 60.4194V54.0718H122.695V53.2808L124.228 52.646L124.872 50.3218H125.849V52.8022H128.984V54.0718H125.849V60.3706C125.849 61.0412 126.002 61.5425 126.308 61.8745C126.62 62.2065 127.034 62.3726 127.548 62.3726ZM132.441 48.3101V52.8511C132.441 53.1115 132.435 53.3752 132.422 53.6421C132.409 53.9025 132.386 54.1434 132.353 54.3647H132.461C132.682 53.9871 132.962 53.6714 133.301 53.4175C133.646 53.1571 134.036 52.9618 134.472 52.8315C134.909 52.6948 135.371 52.6265 135.859 52.6265C136.719 52.6265 137.435 52.7632 138.008 53.0366C138.587 53.3101 139.02 53.7332 139.306 54.3062C139.599 54.8791 139.746 55.6213 139.746 56.5327V63.5054H138.144V56.6401C138.144 55.7482 137.939 55.0809 137.529 54.6382C137.125 54.1955 136.504 53.9741 135.664 53.9741C134.87 53.9741 134.235 54.1271 133.76 54.4331C133.291 54.7326 132.952 55.1753 132.744 55.7612C132.542 56.3472 132.441 57.0633 132.441 57.9097V63.5054H130.82V48.3101H132.441ZM146.807 52.6069C147.718 52.6069 148.499 52.8088 149.151 53.2124C149.802 53.616 150.3 54.1825 150.645 54.9116C150.99 55.6343 151.162 56.4806 151.162 57.4507V58.4565H143.77C143.789 59.7131 144.102 60.6701 144.707 61.3276C145.313 61.9852 146.166 62.314 147.266 62.314C147.943 62.314 148.542 62.2521 149.063 62.1284C149.583 62.0047 150.124 61.8224 150.684 61.5815V63.0073C150.143 63.2482 149.606 63.424 149.072 63.5347C148.545 63.6453 147.92 63.7007 147.197 63.7007C146.169 63.7007 145.27 63.4924 144.502 63.0757C143.74 62.6525 143.148 62.034 142.725 61.2202C142.302 60.4064 142.09 59.4103 142.09 58.2319C142.09 57.0796 142.282 56.0835 142.666 55.2437C143.057 54.3973 143.604 53.7463 144.307 53.2905C145.016 52.8348 145.85 52.6069 146.807 52.6069ZM146.787 53.9351C145.921 53.9351 145.231 54.2183 144.717 54.7847C144.203 55.3511 143.897 56.1421 143.799 57.1577H149.463C149.457 56.5197 149.356 55.9598 149.16 55.478C148.971 54.9897 148.682 54.6121 148.291 54.3452C147.901 54.0718 147.399 53.9351 146.787 53.9351ZM165.137 52.6069C166.316 52.6069 167.204 52.9162 167.803 53.5347C168.402 54.1466 168.702 55.133 168.702 56.4937V63.5054H167.1V56.5718C167.1 55.7059 166.911 55.0581 166.534 54.6284C166.163 54.1922 165.609 53.9741 164.874 53.9741C163.838 53.9741 163.086 54.2736 162.618 54.8726C162.149 55.4715 161.915 56.3537 161.915 57.519V63.5054H160.303V56.5718C160.303 55.9924 160.219 55.5106 160.049 55.1265C159.887 54.7424 159.639 54.4559 159.307 54.2671C158.982 54.0718 158.568 53.9741 158.067 53.9741C157.357 53.9741 156.788 54.1206 156.358 54.4136C155.928 54.7065 155.616 55.1427 155.42 55.7222C155.232 56.2951 155.137 57.0015 155.137 57.8413V63.5054H153.516V52.8022H154.825L155.069 54.3159H155.157C155.372 53.9448 155.642 53.6323 155.967 53.3784C156.293 53.1245 156.657 52.9325 157.061 52.8022C157.465 52.672 157.894 52.6069 158.35 52.6069C159.164 52.6069 159.844 52.7599 160.391 53.0659C160.945 53.3654 161.345 53.8244 161.592 54.4429H161.68C162.032 53.8244 162.514 53.3654 163.126 53.0659C163.738 52.7599 164.408 52.6069 165.137 52.6069ZM171.388 62.4897C171.388 62.034 171.498 61.7118 171.72 61.5229C171.941 61.3276 172.211 61.23 172.53 61.23C172.862 61.23 173.142 61.3276 173.37 61.5229C173.598 61.7118 173.712 62.034 173.712 62.4897C173.712 62.939 173.598 63.2677 173.37 63.4761C173.142 63.6779 172.862 63.7788 172.53 63.7788C172.211 63.7788 171.941 63.6779 171.72 63.4761C171.498 63.2677 171.388 62.939 171.388 62.4897Z" fill="white"/>
<rect x="29.9275" y="1" width="290.877" height="93" stroke="#C47370" stroke-width="0.805851"/>
<path d="M340.458 20.6526C340.458 9.79879 331.659 1 320.805 1V29.4446H340.458V20.6526Z" fill="#C47370" stroke="#C47370" stroke-width="0.805851"/>
<rect width="19.6526" height="36.1108" transform="matrix(-1 0 0 1 340.458 29.4446)" fill="#C47370" stroke="#C47370" stroke-width="0.805851"/>
<path d="M340.458 74.3474C340.458 85.2012 331.659 94 320.805 94V65.5554H340.458V74.3474Z" fill="#C47370" stroke="#C47370" stroke-width="0.805851"/>
</svg>
