<svg width="374" height="84" viewBox="0 0 374 84" fill="none" xmlns="http://www.w3.org/2000/svg">
<path d="M329.53 36C329.53 25.5066 321.023 17 310.53 17V37H329.53V36Z" fill="#5E2A28" stroke="#5E2A28" stroke-width="0.805851"/>
<rect width="19.6526" height="1.5554" transform="matrix(-1 0 0 1 330.183 37)" fill="#5E2A28" stroke="#5E2A28" stroke-width="0.805851"/>
<path fill-rule="evenodd" clip-rule="evenodd" d="M329.826 51.0942C330.06 49.8813 330.183 48.6286 330.183 47.3474V38.5554H310.53V67C315.289 67 319.653 65.3084 323.053 62.4937C326.446 64.7537 331.885 66.902 338.458 65.7071C336.647 64.9313 329.666 60.2767 329.924 50.9676C329.893 51.0108 329.86 51.053 329.826 51.0942Z" fill="#5E2A28"/>
<path d="M329.826 51.0942L330.137 51.3508L329.43 51.0178L329.826 51.0942ZM330.183 38.5554V38.1525H330.586V38.5554H330.183ZM310.53 38.5554H310.127V38.1525H310.53V38.5554ZM310.53 67V67.4029H310.127V67H310.53ZM323.053 62.4937L322.797 62.1833L323.027 61.9922L323.277 62.1584L323.053 62.4937ZM338.458 65.7071L338.616 65.3367L339.847 65.864L338.53 66.1035L338.458 65.7071ZM329.924 50.9676L329.598 50.7306L330.363 49.6791L330.327 50.9788L329.924 50.9676ZM330.586 47.3474C330.586 48.6544 330.461 49.9326 330.222 51.1706L329.43 51.0178C329.66 49.8299 329.78 48.6029 329.78 47.3474H330.586ZM330.586 38.5554V47.3474H329.78V38.5554H330.586ZM310.53 38.1525H330.183V38.9583H310.53V38.1525ZM310.127 67V38.5554H310.933V67H310.127ZM323.31 62.8041C319.84 65.6764 315.386 67.4029 310.53 67.4029V66.5971C315.192 66.5971 319.466 64.9404 322.797 62.1833L323.31 62.8041ZM338.53 66.1035C331.829 67.3217 326.285 65.1306 322.83 62.829L323.277 62.1584C326.607 64.3768 331.942 66.4822 338.385 65.3106L338.53 66.1035ZM330.327 50.9788C330.201 55.5221 331.839 58.9224 333.73 61.2856C335.628 63.6588 337.773 64.9753 338.616 65.3367L338.299 66.0774C337.332 65.6631 335.081 64.2644 333.1 61.7891C331.112 59.3038 329.389 55.7222 329.521 50.9564L330.327 50.9788ZM329.515 50.8375C329.544 50.8026 329.572 50.767 329.598 50.7306L330.25 51.2046C330.214 51.2546 330.176 51.3033 330.137 51.3508L329.515 50.8375Z" fill="#5E2A28"/>
<rect width="255.53" height="50" transform="matrix(-1 0 0 1 310.53 17)" fill="#5E2A28"/>
<rect width="255.53" height="50" transform="matrix(-1 0 0 1 310.53 17)" stroke="#5E2A28" stroke-width="0.805851"/>
<path d="M35 36.6526C35 25.7988 43.7988 17 54.6526 17V45.4446H35V36.6526Z" fill="#5E2A28" stroke="#5E2A28" stroke-width="0.805851"/>
<rect x="35" y="45.4446" width="19.6526" height="1" fill="#5E2A28" stroke="#5E2A28" stroke-width="0.805851"/>
<path d="M35 47.4446C35 58.4903 43.9543 67.4446 55 67.4446V46.4446H35V47.4446Z" fill="#5E2A28" stroke="#5E2A28" stroke-width="0.805851"/>
<path d="M77.1738 34.7227L73.3555 49H71.6855L68.8535 39.3906C68.7689 39.1172 68.6875 38.8438 68.6094 38.5703C68.5378 38.2904 68.4694 38.0267 68.4043 37.7793C68.3392 37.5254 68.2839 37.304 68.2383 37.1152C68.1992 36.9199 68.1699 36.7734 68.1504 36.6758C68.1374 36.7734 68.1113 36.9167 68.0723 37.1055C68.0397 37.2943 67.9941 37.5124 67.9355 37.7598C67.8835 38.0072 67.8184 38.2708 67.7402 38.5508C67.6686 38.8307 67.5905 39.1139 67.5059 39.4004L64.752 49H63.082L59.293 34.7227H61.0215L63.3164 43.6777C63.3945 43.9772 63.4661 44.2734 63.5312 44.5664C63.6029 44.8529 63.6647 45.1328 63.7168 45.4062C63.7754 45.6797 63.8275 45.9466 63.873 46.207C63.9186 46.4674 63.9609 46.7214 64 46.9688C64.0326 46.7148 64.0749 46.4512 64.127 46.1777C64.179 45.8978 64.2344 45.6146 64.293 45.3281C64.3581 45.0417 64.4264 44.752 64.498 44.459C64.5762 44.166 64.6576 43.873 64.7422 43.5801L67.3105 34.7227H69.0195L71.6953 43.6484C71.7865 43.9544 71.8711 44.2572 71.9492 44.5566C72.0273 44.8561 72.0957 45.1491 72.1543 45.4355C72.2194 45.7155 72.2747 45.9857 72.3203 46.2461C72.3724 46.5 72.418 46.7409 72.457 46.9688C72.5026 46.6497 72.5579 46.3145 72.623 45.9629C72.6882 45.6113 72.763 45.2435 72.8477 44.8594C72.9388 44.4753 73.0365 44.0781 73.1406 43.668L75.4355 34.7227H77.1738ZM80.4066 33.8047V38.3457C80.4066 38.6061 80.4001 38.8698 80.3871 39.1367C80.3741 39.3971 80.3513 39.638 80.3188 39.8594H80.4262C80.6475 39.4818 80.9275 39.166 81.266 38.9121C81.6111 38.6517 82.0017 38.4564 82.4379 38.3262C82.8741 38.1895 83.3363 38.1211 83.8246 38.1211C84.684 38.1211 85.4001 38.2578 85.973 38.5312C86.5525 38.8047 86.9854 39.2279 87.2719 39.8008C87.5648 40.3737 87.7113 41.1159 87.7113 42.0273V49H86.1098V42.1348C86.1098 41.2428 85.9047 40.5755 85.4945 40.1328C85.0909 39.6901 84.4691 39.4688 83.6293 39.4688C82.835 39.4688 82.2003 39.6217 81.725 39.9277C81.2563 40.2272 80.9177 40.6699 80.7094 41.2559C80.5076 41.8418 80.4066 42.5579 80.4066 43.4043V49H78.7855V33.8047H80.4066ZM88.9617 38.2969H90.7L93.0633 44.5078C93.2 44.8724 93.327 45.224 93.4441 45.5625C93.5613 45.8945 93.6655 46.2135 93.7566 46.5195C93.8478 46.8255 93.9194 47.1217 93.9715 47.4082H94.0398C94.131 47.0827 94.2612 46.6562 94.4305 46.1289C94.5997 45.5951 94.782 45.0514 94.9773 44.498L97.2137 38.2969H98.9617L94.3035 50.5723C94.0561 51.2298 93.7664 51.8027 93.4344 52.291C93.1089 52.7793 92.7117 53.1536 92.243 53.4141C91.7742 53.681 91.2078 53.8145 90.5438 53.8145C90.2378 53.8145 89.9676 53.7949 89.7332 53.7559C89.4988 53.7233 89.297 53.6842 89.1277 53.6387V52.3398C89.271 52.3724 89.4435 52.4017 89.6453 52.4277C89.8536 52.4538 90.0685 52.4668 90.2898 52.4668C90.6935 52.4668 91.0418 52.3887 91.3348 52.2324C91.6342 52.0827 91.8914 51.8613 92.1063 51.5684C92.3211 51.2754 92.5066 50.9271 92.6629 50.5234L93.2488 49.0195L88.9617 38.2969ZM106.687 38.2969V49H105.066V38.2969H106.687ZM105.896 34.293C106.163 34.293 106.391 34.3809 106.58 34.5566C106.775 34.7259 106.873 34.9928 106.873 35.3574C106.873 35.7155 106.775 35.9824 106.58 36.1582C106.391 36.334 106.163 36.4219 105.896 36.4219C105.616 36.4219 105.382 36.334 105.193 36.1582C105.011 35.9824 104.92 35.7155 104.92 35.3574C104.92 34.9928 105.011 34.7259 105.193 34.5566C105.382 34.3809 105.616 34.293 105.896 34.293ZM116.648 46.0703C116.648 46.7539 116.476 47.3301 116.131 47.7988C115.792 48.2611 115.304 48.6094 114.666 48.8438C114.035 49.0781 113.279 49.1953 112.4 49.1953C111.652 49.1953 111.004 49.1367 110.457 49.0195C109.91 48.9023 109.432 48.7363 109.021 48.5215V47.0273C109.458 47.2422 109.979 47.4375 110.584 47.6133C111.189 47.7891 111.808 47.877 112.439 47.877C113.364 47.877 114.035 47.7272 114.451 47.4277C114.868 47.1283 115.076 46.7214 115.076 46.207C115.076 45.9141 114.992 45.6569 114.822 45.4355C114.66 45.2077 114.383 44.9896 113.992 44.7812C113.602 44.5664 113.061 44.332 112.371 44.0781C111.688 43.8177 111.095 43.5605 110.594 43.3066C110.099 43.0462 109.715 42.7305 109.441 42.3594C109.174 41.9883 109.041 41.5065 109.041 40.9141C109.041 40.0091 109.406 39.3158 110.135 38.834C110.87 38.3457 111.834 38.1016 113.025 38.1016C113.67 38.1016 114.272 38.1667 114.832 38.2969C115.398 38.4206 115.926 38.5898 116.414 38.8047L115.867 40.1035C115.424 39.9147 114.952 39.7552 114.451 39.625C113.95 39.4948 113.439 39.4297 112.918 39.4297C112.169 39.4297 111.593 39.5534 111.189 39.8008C110.792 40.0482 110.594 40.3867 110.594 40.8164C110.594 41.1484 110.685 41.4219 110.867 41.6367C111.056 41.8516 111.355 42.0534 111.766 42.2422C112.176 42.431 112.716 42.6523 113.387 42.9062C114.057 43.1536 114.637 43.4108 115.125 43.6777C115.613 43.9382 115.988 44.2572 116.248 44.6348C116.515 45.0059 116.648 45.4844 116.648 46.0703ZM125.272 38.2969V49H123.651V38.2969H125.272ZM124.481 34.293C124.748 34.293 124.976 34.3809 125.165 34.5566C125.36 34.7259 125.458 34.9928 125.458 35.3574C125.458 35.7155 125.36 35.9824 125.165 36.1582C124.976 36.334 124.748 36.4219 124.481 36.4219C124.201 36.4219 123.967 36.334 123.778 36.1582C123.596 35.9824 123.505 35.7155 123.505 35.3574C123.505 34.9928 123.596 34.7259 123.778 34.5566C123.967 34.3809 124.201 34.293 124.481 34.293ZM131.767 47.8672C132.034 47.8672 132.307 47.8444 132.587 47.7988C132.867 47.7533 133.095 47.6979 133.271 47.6328V48.8926C133.082 48.9772 132.818 49.0488 132.48 49.1074C132.148 49.166 131.822 49.1953 131.503 49.1953C130.937 49.1953 130.422 49.0977 129.96 48.9023C129.498 48.7005 129.127 48.362 128.847 47.8867C128.573 47.4115 128.437 46.7539 128.437 45.9141V39.5664H126.913V38.7754L128.446 38.1406L129.091 35.8164H130.068V38.2969H133.202V39.5664H130.068V45.8652C130.068 46.5358 130.221 47.0371 130.527 47.3691C130.839 47.7012 131.252 47.8672 131.767 47.8672ZM143.838 38.1211C145.114 38.1211 146.061 38.4076 146.68 38.9805C147.298 39.5534 147.607 40.4681 147.607 41.7246V49H146.426L146.113 47.418H146.035C145.736 47.8086 145.423 48.1374 145.098 48.4043C144.772 48.6647 144.395 48.8633 143.965 49C143.542 49.1302 143.021 49.1953 142.402 49.1953C141.751 49.1953 141.172 49.0814 140.664 48.8535C140.163 48.6257 139.766 48.2806 139.473 47.8184C139.186 47.3561 139.043 46.7702 139.043 46.0605C139.043 44.9928 139.466 44.1725 140.312 43.5996C141.159 43.0267 142.448 42.7142 144.18 42.6621L146.025 42.584V41.9297C146.025 41.0052 145.827 40.3574 145.43 39.9863C145.033 39.6152 144.473 39.4297 143.75 39.4297C143.19 39.4297 142.656 39.5111 142.148 39.6738C141.641 39.8366 141.159 40.0286 140.703 40.25L140.205 39.0195C140.687 38.7721 141.24 38.5605 141.865 38.3848C142.49 38.209 143.148 38.1211 143.838 38.1211ZM146.006 43.7266L144.375 43.7949C143.04 43.847 142.1 44.0651 141.553 44.4492C141.006 44.8333 140.732 45.377 140.732 46.0801C140.732 46.6921 140.918 47.1445 141.289 47.4375C141.66 47.7305 142.152 47.877 142.764 47.877C143.714 47.877 144.492 47.6133 145.098 47.0859C145.703 46.5586 146.006 45.7676 146.006 44.7129V43.7266ZM162.218 49H154.415V47.9258L160.284 39.5664H154.786V38.2969H162.091V39.498L156.3 47.7402H162.218V49ZM165.939 38.2969V49H164.318V38.2969H165.939ZM165.148 34.293C165.415 34.293 165.642 34.3809 165.831 34.5566C166.027 34.7259 166.124 34.9928 166.124 35.3574C166.124 35.7155 166.027 35.9824 165.831 36.1582C165.642 36.334 165.415 36.4219 165.148 36.4219C164.868 36.4219 164.633 36.334 164.445 36.1582C164.262 35.9824 164.171 35.7155 164.171 35.3574C164.171 34.9928 164.262 34.7259 164.445 34.5566C164.633 34.3809 164.868 34.293 165.148 34.293ZM174.005 38.1016C175.34 38.1016 176.405 38.5605 177.199 39.4785C177.993 40.3965 178.39 41.7767 178.39 43.6191C178.39 44.8366 178.208 45.8587 177.843 46.6855C177.479 47.5124 176.964 48.1374 176.3 48.5605C175.643 48.9837 174.865 49.1953 173.966 49.1953C173.4 49.1953 172.902 49.1204 172.472 48.9707C172.043 48.821 171.675 48.6191 171.369 48.3652C171.063 48.1113 170.809 47.8346 170.607 47.5352H170.49C170.509 47.7891 170.532 48.0951 170.558 48.4531C170.591 48.8112 170.607 49.1237 170.607 49.3906V53.7852H168.976V38.2969H170.314L170.529 39.8789H170.607C170.815 39.5534 171.069 39.2572 171.369 38.9902C171.668 38.7168 172.033 38.502 172.463 38.3457C172.899 38.1829 173.413 38.1016 174.005 38.1016ZM173.722 39.4688C172.98 39.4688 172.381 39.612 171.925 39.8984C171.476 40.1849 171.147 40.6146 170.939 41.1875C170.731 41.7539 170.62 42.4668 170.607 43.3262V43.6387C170.607 44.5436 170.705 45.3086 170.9 45.9336C171.102 46.5586 171.431 47.0339 171.886 47.3594C172.349 47.6849 172.967 47.8477 173.742 47.8477C174.406 47.8477 174.959 47.6686 175.402 47.3105C175.845 46.9525 176.173 46.4544 176.388 45.8164C176.61 45.1719 176.72 44.4329 176.72 43.5996C176.72 42.3366 176.473 41.334 175.978 40.5918C175.49 39.8431 174.738 39.4688 173.722 39.4688ZM190.383 39.5664H187.717V49H186.096V39.5664H184.202V38.7852L186.096 38.248V37.5352C186.096 36.6367 186.23 35.9076 186.496 35.3477C186.763 34.7812 187.151 34.3646 187.659 34.0977C188.166 33.8307 188.785 33.6973 189.514 33.6973C189.924 33.6973 190.299 33.7331 190.637 33.8047C190.982 33.8763 191.285 33.9577 191.545 34.0488L191.125 35.3281C190.904 35.2565 190.653 35.1914 190.373 35.1328C190.1 35.0677 189.82 35.0352 189.534 35.0352C188.915 35.0352 188.456 35.237 188.157 35.6406C187.864 36.0378 187.717 36.6628 187.717 37.5156V38.2969H190.383V39.5664ZM193.967 38.2969V49H192.346V38.2969H193.967ZM193.176 34.293C193.443 34.293 193.671 34.3809 193.86 34.5566C194.055 34.7259 194.153 34.9928 194.153 35.3574C194.153 35.7155 194.055 35.9824 193.86 36.1582C193.671 36.334 193.443 36.4219 193.176 36.4219C192.896 36.4219 192.662 36.334 192.473 36.1582C192.291 35.9824 192.2 35.7155 192.2 35.3574C192.2 34.9928 192.291 34.7259 192.473 34.5566C192.662 34.3809 192.896 34.293 193.176 34.293ZM198.626 49H196.995V33.8047H198.626V49ZM205.775 38.1016C206.686 38.1016 207.467 38.3034 208.118 38.707C208.769 39.1107 209.267 39.6771 209.613 40.4062C209.958 41.1289 210.13 41.9753 210.13 42.9453V43.9512H202.738C202.757 45.2077 203.07 46.1647 203.675 46.8223C204.28 47.4798 205.133 47.8086 206.234 47.8086C206.911 47.8086 207.51 47.7467 208.03 47.623C208.551 47.4993 209.092 47.3171 209.652 47.0762V48.502C209.111 48.7428 208.574 48.9186 208.04 49.0293C207.513 49.14 206.888 49.1953 206.165 49.1953C205.137 49.1953 204.238 48.987 203.47 48.5703C202.708 48.1471 202.116 47.5286 201.693 46.7148C201.269 45.901 201.058 44.9049 201.058 43.7266C201.058 42.5742 201.25 41.5781 201.634 40.7383C202.025 39.8919 202.571 39.2409 203.275 38.7852C203.984 38.3294 204.818 38.1016 205.775 38.1016ZM205.755 39.4297C204.889 39.4297 204.199 39.7129 203.685 40.2793C203.17 40.8457 202.864 41.6367 202.767 42.6523H208.431C208.424 42.0143 208.323 41.4544 208.128 40.9727C207.939 40.4844 207.65 40.1068 207.259 39.8398C206.868 39.5664 206.367 39.4297 205.755 39.4297ZM213.587 45.0352V44.5273C213.587 44.0065 213.636 43.5605 213.734 43.1895C213.832 42.8118 214.001 42.4603 214.242 42.1348C214.489 41.8092 214.831 41.4642 215.267 41.0996C215.775 40.6764 216.175 40.3184 216.468 40.0254C216.768 39.7259 216.983 39.4264 217.113 39.127C217.243 38.8275 217.308 38.4661 217.308 38.043C217.308 37.3659 217.09 36.8483 216.654 36.4902C216.218 36.1257 215.602 35.9434 214.808 35.9434C214.164 35.9434 213.591 36.0247 213.089 36.1875C212.588 36.3503 212.106 36.5456 211.644 36.7734L211.078 35.4648C211.612 35.1849 212.191 34.957 212.816 34.7812C213.441 34.6055 214.138 34.5176 214.906 34.5176C216.162 34.5176 217.136 34.8301 217.826 35.4551C218.516 36.0736 218.861 36.9264 218.861 38.0137C218.861 38.6191 218.763 39.1367 218.568 39.5664C218.373 39.9896 218.096 40.3802 217.738 40.7383C217.38 41.0898 216.957 41.4642 216.468 41.8613C216.039 42.2259 215.71 42.5482 215.482 42.8281C215.254 43.1016 215.098 43.3848 215.013 43.6777C214.929 43.9642 214.886 44.3092 214.886 44.7129V45.0352H213.587ZM213.158 47.9844C213.158 47.5286 213.265 47.2064 213.48 47.0176C213.695 46.8223 213.972 46.7246 214.31 46.7246C214.629 46.7246 214.899 46.8223 215.121 47.0176C215.349 47.2064 215.462 47.5286 215.462 47.9844C215.462 48.4336 215.349 48.7624 215.121 48.9707C214.899 49.1725 214.629 49.2734 214.31 49.2734C213.972 49.2734 213.695 49.1725 213.48 48.9707C213.265 48.7624 213.158 48.4336 213.158 47.9844Z" fill="white"/>
</svg>
