<svg width="40" height="42" viewBox="0 0 40 42" fill="none" xmlns="http://www.w3.org/2000/svg">
<g filter="url(#filter0_d_102_367)">
<path d="M19.8977 34.3977L7.12074 21.6207C6.10156 20.6016 5.42211 19.4167 5.08239 18.0661C4.75095 16.7154 4.75509 15.3731 5.09482 14.0391C5.43454 12.6967 6.10985 11.5284 7.12074 10.5341C8.15649 9.51491 9.33724 8.83961 10.663 8.50817C11.997 8.16844 13.3269 8.16844 14.6527 8.50817C15.9867 8.84789 17.1716 9.5232 18.2074 10.5341L19.8977 12.1747L21.5881 10.5341C22.6321 9.5232 23.817 8.84789 25.1428 8.50817C26.4685 8.16844 27.7943 8.16844 29.12 8.50817C30.4541 8.83961 31.639 9.51491 32.6747 10.5341C33.6856 11.5284 34.3609 12.6967 34.7006 14.0391C35.0404 15.3731 35.0404 16.7154 34.7006 18.0661C34.3692 19.4167 33.6939 20.6016 32.6747 21.6207L19.8977 34.3977Z" fill="#D0D0D0"/>
<path d="M19.8977 34.3977L19.7563 34.5392L19.8977 34.6806L20.0391 34.5392L19.8977 34.3977ZM7.12074 21.6207L7.26216 21.4793L7.12074 21.6207ZM5.08239 18.0661L4.88815 18.1137L4.88843 18.1148L5.08239 18.0661ZM5.09482 14.0391L5.28863 14.0884L5.2887 14.0881L5.09482 14.0391ZM7.12074 10.5341L7.26099 10.6767L7.26102 10.6766L7.12074 10.5341ZM10.663 8.50817L10.7115 8.7022L10.7124 8.70198L10.663 8.50817ZM14.6527 8.50817L14.6031 8.70191L14.6033 8.70198L14.6527 8.50817ZM18.2074 10.5341L18.0677 10.6772L18.0681 10.6776L18.2074 10.5341ZM19.8977 12.1747L19.7584 12.3182L19.8977 12.4534L20.037 12.3182L19.8977 12.1747ZM21.5881 10.5341L21.4489 10.3904L21.4488 10.3906L21.5881 10.5341ZM25.1428 8.50817L25.1924 8.70191L25.1428 8.50817ZM29.12 8.50817L29.0704 8.70191L29.0718 8.70227L29.12 8.50817ZM32.6747 10.5341L32.5344 10.6766L32.5345 10.6767L32.6747 10.5341ZM34.7006 14.0391L34.5068 14.0881L34.5068 14.0884L34.7006 14.0391ZM34.7006 18.0661L34.5067 18.0173L34.5064 18.0184L34.7006 18.0661ZM32.6747 21.6207L32.8161 21.7622L32.6747 21.6207ZM20.0391 34.2563L7.26216 21.4793L6.97932 21.7622L19.7563 34.5392L20.0391 34.2563ZM7.26216 21.4793C6.26761 20.4848 5.60693 19.3316 5.27634 18.0173L4.88843 18.1148C5.23729 19.5018 5.93551 20.7184 6.97932 21.7622L7.26216 21.4793ZM5.27662 18.0184C4.95293 16.6993 4.95709 15.3903 5.28863 14.0884L4.901 13.9897C4.55309 15.3559 4.54897 16.7316 4.88815 18.1137L5.27662 18.0184ZM5.2887 14.0881C5.61922 12.7822 6.27554 11.646 7.26099 10.6767L6.98049 10.3915C5.94416 11.4108 5.24986 12.6113 4.90093 13.99L5.2887 14.0881ZM7.26102 10.6766C8.27299 9.68086 9.42259 9.02442 10.7115 8.7022L10.6145 8.31414C9.25189 8.65479 8.03998 9.34896 6.98046 10.3915L7.26102 10.6766ZM10.7124 8.70198C12.0141 8.37048 13.31 8.37055 14.6031 8.70191L14.7023 8.31443C13.3439 7.96633 11.98 7.96641 10.6136 8.31435L10.7124 8.70198ZM14.6033 8.70198C15.9016 9.03259 17.0557 9.68955 18.0677 10.6772L18.3471 10.391C17.2875 9.35685 16.0719 8.6632 14.7021 8.31435L14.6033 8.70198ZM18.0681 10.6776L19.7584 12.3182L20.037 12.0312L18.3467 10.3906L18.0681 10.6776ZM20.037 12.3182L21.7274 10.6776L21.4488 10.3906L19.7584 12.0312L20.037 12.3182ZM21.7272 10.6778C22.7479 9.68951 23.9024 9.03247 25.1924 8.70191L25.0931 8.31443C23.7316 8.66332 22.5163 9.35689 21.4489 10.3904L21.7272 10.6778ZM25.1924 8.70191C26.4856 8.37053 27.7772 8.37053 29.0704 8.70191L29.1697 8.31443C27.8113 7.96636 26.4514 7.96636 25.0931 8.31443L25.1924 8.70191ZM29.0718 8.70227C30.3691 9.02457 31.5227 9.68109 32.5344 10.6766L32.815 10.3915C31.7552 9.34874 30.539 8.65464 29.1683 8.31407L29.0718 8.70227ZM32.5345 10.6767C33.5199 11.646 34.1762 12.7822 34.5068 14.0881L34.8945 13.99C34.5456 12.6113 33.8513 11.4108 32.815 10.3915L32.5345 10.6767ZM34.5068 14.0884C34.8383 15.3899 34.8384 16.6985 34.5067 18.0173L34.8946 18.1148C35.2423 16.7324 35.2425 15.3563 34.8945 13.9897L34.5068 14.0884ZM34.5064 18.0184C34.184 19.3322 33.5276 20.485 32.5333 21.4793L32.8161 21.7622C33.8602 20.7181 34.5544 19.5012 34.8949 18.1137L34.5064 18.0184ZM32.5333 21.4793L19.7563 34.2563L20.0391 34.5392L32.8161 21.7622L32.5333 21.4793Z" fill="#B4B4B4"/>
</g>
<path d="M20 12L17 15.5L22 19L19.5 22L21.5 24.5L18.5 27.5L21 30L20 34.5" stroke="#9D9D9D"/>
<defs>
<filter id="filter0_d_102_367" x="0.58522" y="5.99902" width="38.625" height="34.3984" filterUnits="userSpaceOnUse" color-interpolation-filters="sRGB">
<feFlood flood-opacity="0" result="BackgroundImageFix"/>
<feColorMatrix in="SourceAlpha" type="matrix" values="0 0 0 0 0 0 0 0 0 0 0 0 0 0 0 0 0 0 127 0" result="hardAlpha"/>
<feOffset dy="2"/>
<feGaussianBlur stdDeviation="2"/>
<feComposite in2="hardAlpha" operator="out"/>
<feColorMatrix type="matrix" values="0 0 0 0 0 0 0 0 0 0 0 0 0 0 0 0 0 0 0.25 0"/>
<feBlend mode="normal" in2="BackgroundImageFix" result="effect1_dropShadow_102_367"/>
<feBlend mode="normal" in="SourceGraphic" in2="effect1_dropShadow_102_367" result="shape"/>
</filter>
</defs>
</svg>
