<svg width="113" height="162" viewBox="0 0 113 162" fill="none" xmlns="http://www.w3.org/2000/svg">
<path d="M17 123.48C16.6484 123.48 16.2383 123.552 15.7695 123.695C15.3008 123.839 14.819 124.112 14.3242 124.516C13.8424 124.906 13.3672 125.46 12.8984 126.176C12.4297 126.892 12.0065 127.823 11.6289 128.969C11.2643 130.102 10.9648 131.482 10.7305 133.109C10.5091 134.737 10.3984 136.658 10.3984 138.871C10.3984 140.98 10.5091 142.81 10.7305 144.359C10.9648 145.909 11.2708 147.23 11.6484 148.324C12.0391 149.405 12.4818 150.29 12.9766 150.98C13.4714 151.671 13.9922 152.204 14.5391 152.582C15.0859 152.973 15.6328 153.24 16.1797 153.383C16.7266 153.526 17.2409 153.598 17.7227 153.598C18.2305 153.598 18.7448 153.533 19.2656 153.402C19.7865 153.272 20.2943 153.083 20.7891 152.836C21.2969 152.589 21.7786 152.289 22.2344 151.938C22.7031 151.586 23.1328 151.182 23.5234 150.727L24.4023 151.605C24.0117 152.087 23.543 152.576 22.9961 153.07C22.4492 153.578 21.8112 154.034 21.082 154.438C20.3659 154.854 19.5586 155.193 18.6602 155.453C17.7617 155.714 16.7656 155.844 15.6719 155.844C13.9661 155.844 12.3776 155.518 10.9062 154.867C9.44792 154.216 8.17188 153.201 7.07812 151.82C5.9974 150.453 5.14453 148.695 4.51953 146.547C3.90755 144.398 3.60156 141.827 3.60156 138.832C3.60156 136.02 3.92708 133.552 4.57812 131.43C5.22917 129.307 6.11458 127.536 7.23438 126.117C8.35417 124.685 9.66927 123.611 11.1797 122.895C12.6901 122.165 14.2982 121.801 16.0039 121.801C17.1367 121.801 18.1654 121.911 19.0898 122.133C20.0273 122.341 20.8346 122.654 21.5117 123.07C22.1888 123.474 22.7096 123.982 23.0742 124.594C23.4518 125.193 23.6406 125.876 23.6406 126.645C23.6406 126.996 23.582 127.367 23.4648 127.758C23.3477 128.135 23.1654 128.487 22.918 128.812C22.6836 129.125 22.3906 129.385 22.0391 129.594C21.6875 129.789 21.2773 129.887 20.8086 129.887C20.3919 129.887 20.0664 129.796 19.832 129.613C19.6107 129.431 19.4414 129.19 19.3242 128.891C19.2201 128.591 19.1484 128.253 19.1094 127.875C19.0833 127.484 19.0638 127.087 19.0508 126.684C19.0378 126.28 19.0052 125.889 18.9531 125.512C18.9141 125.121 18.8229 124.776 18.6797 124.477C18.5495 124.177 18.3542 123.936 18.0938 123.754C17.8333 123.572 17.4688 123.48 17 123.48ZM35.0273 140.883C35.0273 140.557 34.9232 140.31 34.7148 140.141C34.5065 139.971 34.2396 139.887 33.9141 139.887C33.4583 139.887 33.0221 139.991 32.6055 140.199C32.2018 140.408 31.8438 140.714 31.5312 141.117C31.2188 141.521 30.9714 142.022 30.7891 142.621C30.6068 143.207 30.5156 143.891 30.5156 144.672C30.5156 145.427 30.5677 146.052 30.6719 146.547C30.7891 147.042 30.9388 147.439 31.1211 147.738C31.3164 148.025 31.5378 148.227 31.7852 148.344C32.0326 148.461 32.293 148.52 32.5664 148.52C32.9049 148.52 33.224 148.435 33.5234 148.266C33.8229 148.083 34.0833 147.855 34.3047 147.582C34.526 147.309 34.7018 147.003 34.832 146.664C34.9622 146.326 35.0273 145.987 35.0273 145.648V140.883ZM31.9219 132.328C31.4792 132.328 31.069 132.38 30.6914 132.484C30.3138 132.589 29.9883 132.719 29.7148 132.875C29.4414 133.031 29.2266 133.207 29.0703 133.402C28.9141 133.585 28.8359 133.76 28.8359 133.93C28.8359 134.125 28.9336 134.268 29.1289 134.359C29.3372 134.438 29.5651 134.535 29.8125 134.652C30.0599 134.757 30.2812 134.913 30.4766 135.121C30.6849 135.316 30.7891 135.622 30.7891 136.039C30.7891 136.312 30.7305 136.566 30.6133 136.801C30.5091 137.022 30.3594 137.224 30.1641 137.406C29.9818 137.576 29.7604 137.712 29.5 137.816C29.2526 137.908 28.9922 137.953 28.7188 137.953C27.9896 137.953 27.3971 137.706 26.9414 137.211C26.4987 136.716 26.2773 136.059 26.2773 135.238C26.2773 134.444 26.4857 133.767 26.9023 133.207C27.319 132.634 27.8594 132.165 28.5234 131.801C29.2005 131.436 29.9622 131.169 30.8086 131C31.6549 130.818 32.5013 130.727 33.3477 130.727C34.3633 130.727 35.3333 130.837 36.2578 131.059C37.1823 131.28 37.9961 131.632 38.6992 132.113C39.4154 132.595 39.9818 133.207 40.3984 133.949C40.8281 134.691 41.043 135.59 41.043 136.645V147.68C41.043 147.797 41.0495 147.927 41.0625 148.07C41.0755 148.214 41.1081 148.344 41.1602 148.461C41.2122 148.578 41.2904 148.676 41.3945 148.754C41.4987 148.832 41.6484 148.871 41.8438 148.871C42.0781 148.871 42.293 148.786 42.4883 148.617C42.6966 148.435 42.8789 148.253 43.0352 148.07L43.5234 148.48C43.3281 148.754 43.0938 149.053 42.8203 149.379C42.5469 149.704 42.2148 150.01 41.8242 150.297C41.4336 150.583 40.9779 150.824 40.457 151.02C39.9362 151.215 39.3438 151.312 38.6797 151.312C37.8594 151.312 37.1302 151.072 36.4922 150.59C35.8542 150.095 35.4375 149.34 35.2422 148.324C34.8255 148.884 34.3893 149.353 33.9336 149.73C33.4909 150.108 33.0352 150.414 32.5664 150.648C32.0977 150.883 31.6224 151.052 31.1406 151.156C30.6719 151.26 30.1966 151.312 29.7148 151.312C29.0898 151.312 28.4844 151.215 27.8984 151.02C27.3125 150.824 26.7852 150.518 26.3164 150.102C25.8607 149.672 25.4896 149.118 25.2031 148.441C24.9297 147.764 24.793 146.938 24.793 145.961C24.793 144.776 25.0273 143.806 25.4961 143.051C25.9648 142.296 26.5768 141.664 27.332 141.156C28.1003 140.635 28.9661 140.193 29.9297 139.828C30.9062 139.464 31.9023 139.079 32.918 138.676C33.6732 138.376 34.2201 137.934 34.5586 137.348C34.9102 136.749 35.0859 136.137 35.0859 135.512C35.0859 134.548 34.7995 133.78 34.2266 133.207C33.6667 132.621 32.8984 132.328 31.9219 132.328ZM52.3906 134.848C52.8854 134.092 53.4128 133.409 53.9727 132.797C54.207 132.536 54.4609 132.283 54.7344 132.035C55.0078 131.788 55.2878 131.566 55.5742 131.371C55.8737 131.176 56.1797 131.02 56.4922 130.902C56.8047 130.785 57.1172 130.727 57.4297 130.727C58.0938 130.727 58.6146 130.928 58.9922 131.332C59.3698 131.723 59.5586 132.276 59.5586 132.992C59.5586 133.435 59.5195 133.865 59.4414 134.281C59.3763 134.685 59.2396 135.18 59.0312 135.766H58.4844C58.4062 135.362 58.224 135.03 57.9375 134.77C57.651 134.496 57.2344 134.359 56.6875 134.359C56.2839 134.359 55.8867 134.438 55.4961 134.594C55.1055 134.737 54.7214 134.919 54.3438 135.141C53.9792 135.362 53.6276 135.603 53.2891 135.863C52.9635 136.124 52.6641 136.371 52.3906 136.605V149.281C52.3906 149.451 52.3646 149.652 52.3125 149.887C52.2604 150.121 52.1302 150.342 51.9219 150.551C51.7266 150.759 51.4271 150.935 51.0234 151.078C50.6328 151.234 50.0924 151.312 49.4023 151.312C48.7122 151.312 48.1654 151.228 47.7617 151.059C47.3711 150.902 47.0716 150.714 46.8633 150.492C46.6549 150.271 46.5247 150.043 46.4727 149.809C46.4206 149.574 46.3945 149.385 46.3945 149.242V134.164C46.3945 133.786 46.3034 133.461 46.1211 133.188C45.9518 132.901 45.6589 132.758 45.2422 132.758C45.0208 132.758 44.832 132.797 44.6758 132.875C44.5195 132.953 44.3503 133.064 44.168 133.207L43.7578 132.719C44.0573 132.471 44.3893 132.23 44.7539 131.996C45.1315 131.749 45.5352 131.534 45.9648 131.352C46.3945 131.169 46.8568 131.02 47.3516 130.902C47.8464 130.785 48.3672 130.727 48.9141 130.727C49.474 130.727 49.9492 130.805 50.3398 130.961C50.7435 131.104 51.069 131.299 51.3164 131.547C51.5768 131.781 51.7786 132.048 51.9219 132.348C52.0651 132.647 52.1693 132.953 52.2344 133.266C52.3125 133.565 52.3581 133.858 52.3711 134.145C52.3841 134.418 52.3906 134.652 52.3906 134.848ZM66.2773 142.035C66.2773 142.452 66.3359 142.908 66.4531 143.402C66.5833 143.884 66.7656 144.372 67 144.867C67.2344 145.362 67.5208 145.837 67.8594 146.293C68.2109 146.736 68.6081 147.133 69.0508 147.484C69.5065 147.836 70.0078 148.116 70.5547 148.324C71.1016 148.533 71.7005 148.637 72.3516 148.637C72.8073 148.637 73.2305 148.585 73.6211 148.48C74.0117 148.376 74.3763 148.233 74.7148 148.051C75.0534 147.868 75.3789 147.66 75.6914 147.426C76.0039 147.178 76.3164 146.918 76.6289 146.645L77.1172 147.113C76.8177 147.517 76.4336 147.96 75.9648 148.441C75.4961 148.923 74.9297 149.379 74.2656 149.809C73.6016 150.225 72.8268 150.577 71.9414 150.863C71.056 151.137 70.0469 151.273 68.9141 151.273C67.7812 151.273 66.6745 151.072 65.5938 150.668C64.526 150.251 63.5755 149.633 62.7422 148.812C61.9089 147.992 61.2383 146.97 60.7305 145.746C60.2357 144.522 59.9883 143.09 59.9883 141.449C59.9883 140.264 60.138 139.177 60.4375 138.188C60.737 137.198 61.1406 136.306 61.6484 135.512C62.1693 134.717 62.7682 134.021 63.4453 133.422C64.1354 132.823 64.8581 132.328 65.6133 131.938C66.3685 131.534 67.1367 131.234 67.918 131.039C68.7122 130.831 69.474 130.727 70.2031 130.727C71.1667 130.727 72.0065 130.831 72.7227 131.039C73.4388 131.247 74.0312 131.527 74.5 131.879C74.9818 132.23 75.3398 132.641 75.5742 133.109C75.8086 133.565 75.9258 134.047 75.9258 134.555C75.9258 135.167 75.75 135.72 75.3984 136.215C75.0469 136.697 74.5781 137.12 73.9922 137.484L66.2773 142.035ZM70.2031 138.07C70.3724 137.966 70.5091 137.868 70.6133 137.777C70.7305 137.673 70.8216 137.556 70.8867 137.426C70.9518 137.283 70.9974 137.113 71.0234 136.918C71.0625 136.71 71.082 136.456 71.082 136.156C71.082 135.831 71.043 135.473 70.9648 135.082C70.8997 134.678 70.7826 134.301 70.6133 133.949C70.444 133.598 70.2292 133.305 69.9688 133.07C69.7083 132.836 69.3958 132.719 69.0312 132.719C68.5625 132.719 68.1589 132.862 67.8203 133.148C67.4948 133.422 67.2214 133.78 67 134.223C66.7917 134.665 66.6224 135.173 66.4922 135.746C66.375 136.306 66.2839 136.872 66.2188 137.445C66.1536 138.018 66.1146 138.572 66.1016 139.105C66.0885 139.626 66.082 140.069 66.082 140.434L70.2031 138.07ZM84.4023 142.035C84.4023 142.452 84.4609 142.908 84.5781 143.402C84.7083 143.884 84.8906 144.372 85.125 144.867C85.3594 145.362 85.6458 145.837 85.9844 146.293C86.3359 146.736 86.7331 147.133 87.1758 147.484C87.6315 147.836 88.1328 148.116 88.6797 148.324C89.2266 148.533 89.8255 148.637 90.4766 148.637C90.9323 148.637 91.3555 148.585 91.7461 148.48C92.1367 148.376 92.5013 148.233 92.8398 148.051C93.1784 147.868 93.5039 147.66 93.8164 147.426C94.1289 147.178 94.4414 146.918 94.7539 146.645L95.2422 147.113C94.9427 147.517 94.5586 147.96 94.0898 148.441C93.6211 148.923 93.0547 149.379 92.3906 149.809C91.7266 150.225 90.9518 150.577 90.0664 150.863C89.181 151.137 88.1719 151.273 87.0391 151.273C85.9062 151.273 84.7995 151.072 83.7188 150.668C82.651 150.251 81.7005 149.633 80.8672 148.812C80.0339 147.992 79.3633 146.97 78.8555 145.746C78.3607 144.522 78.1133 143.09 78.1133 141.449C78.1133 140.264 78.263 139.177 78.5625 138.188C78.862 137.198 79.2656 136.306 79.7734 135.512C80.2943 134.717 80.8932 134.021 81.5703 133.422C82.2604 132.823 82.9831 132.328 83.7383 131.938C84.4935 131.534 85.2617 131.234 86.043 131.039C86.8372 130.831 87.599 130.727 88.3281 130.727C89.2917 130.727 90.1315 130.831 90.8477 131.039C91.5638 131.247 92.1562 131.527 92.625 131.879C93.1068 132.23 93.4648 132.641 93.6992 133.109C93.9336 133.565 94.0508 134.047 94.0508 134.555C94.0508 135.167 93.875 135.72 93.5234 136.215C93.1719 136.697 92.7031 137.12 92.1172 137.484L84.4023 142.035ZM88.3281 138.07C88.4974 137.966 88.6341 137.868 88.7383 137.777C88.8555 137.673 88.9466 137.556 89.0117 137.426C89.0768 137.283 89.1224 137.113 89.1484 136.918C89.1875 136.71 89.207 136.456 89.207 136.156C89.207 135.831 89.168 135.473 89.0898 135.082C89.0247 134.678 88.9076 134.301 88.7383 133.949C88.569 133.598 88.3542 133.305 88.0938 133.07C87.8333 132.836 87.5208 132.719 87.1562 132.719C86.6875 132.719 86.2839 132.862 85.9453 133.148C85.6198 133.422 85.3464 133.78 85.125 134.223C84.9167 134.665 84.7474 135.173 84.6172 135.746C84.5 136.306 84.4089 136.872 84.3438 137.445C84.2786 138.018 84.2396 138.572 84.2266 139.105C84.2135 139.626 84.207 140.069 84.207 140.434L88.3281 138.07ZM104.109 134.848C104.604 134.092 105.132 133.409 105.691 132.797C105.926 132.536 106.18 132.283 106.453 132.035C106.727 131.788 107.007 131.566 107.293 131.371C107.592 131.176 107.898 131.02 108.211 130.902C108.523 130.785 108.836 130.727 109.148 130.727C109.812 130.727 110.333 130.928 110.711 131.332C111.089 131.723 111.277 132.276 111.277 132.992C111.277 133.435 111.238 133.865 111.16 134.281C111.095 134.685 110.958 135.18 110.75 135.766H110.203C110.125 135.362 109.943 135.03 109.656 134.77C109.37 134.496 108.953 134.359 108.406 134.359C108.003 134.359 107.605 134.438 107.215 134.594C106.824 134.737 106.44 134.919 106.062 135.141C105.698 135.362 105.346 135.603 105.008 135.863C104.682 136.124 104.383 136.371 104.109 136.605V149.281C104.109 149.451 104.083 149.652 104.031 149.887C103.979 150.121 103.849 150.342 103.641 150.551C103.445 150.759 103.146 150.935 102.742 151.078C102.352 151.234 101.811 151.312 101.121 151.312C100.431 151.312 99.8841 151.228 99.4805 151.059C99.0898 150.902 98.7904 150.714 98.582 150.492C98.3737 150.271 98.2435 150.043 98.1914 149.809C98.1393 149.574 98.1133 149.385 98.1133 149.242V134.164C98.1133 133.786 98.0221 133.461 97.8398 133.188C97.6706 132.901 97.3776 132.758 96.9609 132.758C96.7396 132.758 96.5508 132.797 96.3945 132.875C96.2383 132.953 96.069 133.064 95.8867 133.207L95.4766 132.719C95.776 132.471 96.1081 132.23 96.4727 131.996C96.8503 131.749 97.2539 131.534 97.6836 131.352C98.1133 131.169 98.5755 131.02 99.0703 130.902C99.5651 130.785 100.086 130.727 100.633 130.727C101.193 130.727 101.668 130.805 102.059 130.961C102.462 131.104 102.788 131.299 103.035 131.547C103.296 131.781 103.497 132.048 103.641 132.348C103.784 132.647 103.888 132.953 103.953 133.266C104.031 133.565 104.077 133.858 104.09 134.145C104.103 134.418 104.109 134.652 104.109 134.848Z" fill="white"/>
<circle cx="56.5" cy="56.5" r="46.5" fill="white" stroke="url(#paint0_linear_122_155)" stroke-width="20"/>
<path d="M69.5 48.375H43.5C41.7051 48.375 40.25 49.8301 40.25 51.625V67.875C40.25 69.6699 41.7051 71.125 43.5 71.125H69.5C71.2949 71.125 72.75 69.6699 72.75 67.875V51.625C72.75 49.8301 71.2949 48.375 69.5 48.375Z" stroke="#C47370" stroke-width="2" stroke-linecap="round" stroke-linejoin="round"/>
<path d="M63 71.125V45.125C63 44.263 62.6576 43.4364 62.0481 42.8269C61.4386 42.2174 60.612 41.875 59.75 41.875H53.25C52.388 41.875 51.5614 42.2174 50.9519 42.8269C50.3424 43.4364 50 44.263 50 45.125V71.125" stroke="#C47370" stroke-width="2" stroke-linecap="round" stroke-linejoin="round"/>
<defs>
<linearGradient id="paint0_linear_122_155" x1="27" y1="94.5" x2="115.485" y2="55.8632" gradientUnits="userSpaceOnUse">
<stop stop-color="#EE8481"/>
<stop offset="1" stop-color="#ED9592"/>
</linearGradient>
</defs>
</svg>
