<svg width="129" height="162" viewBox="0 0 129 162" fill="none" xmlns="http://www.w3.org/2000/svg">
<path d="M24.043 137.562H16.3281V148.441C16.3281 149.444 16.0612 150.173 15.5273 150.629C15.0065 151.085 14.2057 151.312 13.125 151.312C12.0312 151.312 11.224 151.085 10.7031 150.629C10.1823 150.173 9.92188 149.444 9.92188 148.441V137.562H6.875V135.844H9.92188V123.559C9.50521 123.598 9.02344 123.676 8.47656 123.793C7.94271 123.897 7.38932 124.053 6.81641 124.262C6.25651 124.457 5.70312 124.691 5.15625 124.965C4.60938 125.238 4.12109 125.557 3.69141 125.922C3.26172 126.286 2.91016 126.697 2.63672 127.152C2.3763 127.595 2.24609 128.077 2.24609 128.598C2.24609 129.014 2.29818 129.346 2.40234 129.594C2.51953 129.841 2.64974 130.03 2.79297 130.16C2.9362 130.277 3.07943 130.355 3.22266 130.395C3.37891 130.421 3.48958 130.434 3.55469 130.434C3.88021 130.434 4.14714 130.382 4.35547 130.277C4.5638 130.16 4.7526 130.043 4.92188 129.926C5.09115 129.796 5.2474 129.678 5.39062 129.574C5.54688 129.457 5.72266 129.398 5.91797 129.398C6.07422 129.398 6.23698 129.438 6.40625 129.516C6.58854 129.581 6.7513 129.691 6.89453 129.848C7.05078 130.004 7.18099 130.212 7.28516 130.473C7.38932 130.72 7.44141 131.026 7.44141 131.391C7.44141 131.911 7.33724 132.367 7.12891 132.758C6.93359 133.135 6.67318 133.448 6.34766 133.695C6.03516 133.943 5.67057 134.132 5.25391 134.262C4.85026 134.379 4.44661 134.438 4.04297 134.438C3.41797 134.438 2.85156 134.333 2.34375 134.125C1.84896 133.904 1.42578 133.604 1.07422 133.227C0.722656 132.849 0.455729 132.413 0.273438 131.918C0.0911458 131.41 0 130.863 0 130.277C0 128.754 0.416667 127.458 1.25 126.391C2.09635 125.323 3.2487 124.451 4.70703 123.773C6.16536 123.083 7.86458 122.582 9.80469 122.27C11.7448 121.957 13.8216 121.801 16.0352 121.801C16.9336 121.801 17.8711 121.814 18.8477 121.84C19.8242 121.853 20.7422 121.879 21.6016 121.918C22.474 121.957 23.2422 122.003 23.9062 122.055C24.5703 122.107 25.0391 122.165 25.3125 122.23C25.5729 122.296 25.7812 122.367 25.9375 122.445C26.0938 122.523 26.2109 122.615 26.2891 122.719C26.3672 122.823 26.4193 122.947 26.4453 123.09C26.4714 123.22 26.4844 123.376 26.4844 123.559C26.4844 123.715 26.4648 123.891 26.4258 124.086C26.3867 124.268 26.3281 124.444 26.25 124.613C26.1719 124.77 26.0742 124.906 25.957 125.023C25.8398 125.141 25.6966 125.199 25.5273 125.199C25.4232 125.199 25.306 125.154 25.1758 125.062C25.0586 124.971 24.8828 124.854 24.6484 124.711C24.4271 124.568 24.1211 124.418 23.7305 124.262C23.3529 124.105 22.8385 123.956 22.1875 123.812C21.5495 123.669 20.7487 123.552 19.7852 123.461C18.8346 123.37 17.6823 123.324 16.3281 123.324V135.844H24.043V137.562ZM33.9844 134.848C34.4792 134.092 35.0065 133.409 35.5664 132.797C35.8008 132.536 36.0547 132.283 36.3281 132.035C36.6016 131.788 36.8815 131.566 37.168 131.371C37.4674 131.176 37.7734 131.02 38.0859 130.902C38.3984 130.785 38.7109 130.727 39.0234 130.727C39.6875 130.727 40.2083 130.928 40.5859 131.332C40.9635 131.723 41.1523 132.276 41.1523 132.992C41.1523 133.435 41.1133 133.865 41.0352 134.281C40.9701 134.685 40.8333 135.18 40.625 135.766H40.0781C40 135.362 39.8177 135.03 39.5312 134.77C39.2448 134.496 38.8281 134.359 38.2812 134.359C37.8776 134.359 37.4805 134.438 37.0898 134.594C36.6992 134.737 36.3151 134.919 35.9375 135.141C35.5729 135.362 35.2214 135.603 34.8828 135.863C34.5573 136.124 34.2578 136.371 33.9844 136.605V149.281C33.9844 149.451 33.9583 149.652 33.9062 149.887C33.8542 150.121 33.724 150.342 33.5156 150.551C33.3203 150.759 33.0208 150.935 32.6172 151.078C32.2266 151.234 31.6862 151.312 30.9961 151.312C30.306 151.312 29.7591 151.228 29.3555 151.059C28.9648 150.902 28.6654 150.714 28.457 150.492C28.2487 150.271 28.1185 150.043 28.0664 149.809C28.0143 149.574 27.9883 149.385 27.9883 149.242V134.164C27.9883 133.786 27.8971 133.461 27.7148 133.188C27.5456 132.901 27.2526 132.758 26.8359 132.758C26.6146 132.758 26.4258 132.797 26.2695 132.875C26.1133 132.953 25.944 133.064 25.7617 133.207L25.3516 132.719C25.651 132.471 25.9831 132.23 26.3477 131.996C26.7253 131.749 27.1289 131.534 27.5586 131.352C27.9883 131.169 28.4505 131.02 28.9453 130.902C29.4401 130.785 29.9609 130.727 30.5078 130.727C31.0677 130.727 31.543 130.805 31.9336 130.961C32.3372 131.104 32.6628 131.299 32.9102 131.547C33.1706 131.781 33.3724 132.048 33.5156 132.348C33.6589 132.647 33.763 132.953 33.8281 133.266C33.9062 133.565 33.9518 133.858 33.9648 134.145C33.9779 134.418 33.9844 134.652 33.9844 134.848ZM49.8828 149.242C49.8828 149.411 49.8503 149.62 49.7852 149.867C49.7331 150.102 49.5964 150.329 49.375 150.551C49.1667 150.759 48.8607 150.935 48.457 151.078C48.0534 151.234 47.5065 151.312 46.8164 151.312C46.1263 151.312 45.5859 151.228 45.1953 151.059C44.8047 150.902 44.5117 150.714 44.3164 150.492C44.1211 150.271 43.9974 150.043 43.9453 149.809C43.9062 149.574 43.8867 149.385 43.8867 149.242V134.164C43.8867 133.786 43.7956 133.461 43.6133 133.188C43.444 132.901 43.151 132.758 42.7344 132.758C42.513 132.758 42.3242 132.797 42.168 132.875C42.0117 132.953 41.8424 133.064 41.6602 133.207L41.25 132.719C41.5495 132.471 41.8815 132.23 42.2461 131.996C42.6237 131.749 43.0273 131.534 43.457 131.352C43.8867 131.169 44.349 131.02 44.8438 130.902C45.3385 130.785 45.8594 130.727 46.4062 130.727C47.2526 130.727 47.9102 130.844 48.3789 131.078C48.8477 131.299 49.1927 131.579 49.4141 131.918C49.6354 132.243 49.7656 132.595 49.8047 132.973C49.8568 133.35 49.8828 133.682 49.8828 133.969V149.242ZM43.2812 126.273C43.2812 125.909 43.3594 125.564 43.5156 125.238C43.6849 124.9 43.9128 124.607 44.1992 124.359C44.4987 124.112 44.8372 123.917 45.2148 123.773C45.6055 123.63 46.0286 123.559 46.4844 123.559C46.9271 123.559 47.3372 123.63 47.7148 123.773C48.1055 123.917 48.444 124.112 48.7305 124.359C49.0169 124.607 49.2383 124.9 49.3945 125.238C49.5638 125.564 49.6484 125.909 49.6484 126.273C49.6484 126.651 49.5638 127.003 49.3945 127.328C49.2383 127.654 49.0169 127.94 48.7305 128.188C48.444 128.422 48.1055 128.611 47.7148 128.754C47.3372 128.897 46.9271 128.969 46.4844 128.969C46.0286 128.969 45.6055 128.897 45.2148 128.754C44.8372 128.611 44.4987 128.422 44.1992 128.188C43.9128 127.94 43.6849 127.654 43.5156 127.328C43.3594 127.003 43.2812 126.651 43.2812 126.273ZM59.8633 142.035C59.8633 142.452 59.9219 142.908 60.0391 143.402C60.1693 143.884 60.3516 144.372 60.5859 144.867C60.8203 145.362 61.1068 145.837 61.4453 146.293C61.7969 146.736 62.194 147.133 62.6367 147.484C63.0924 147.836 63.5938 148.116 64.1406 148.324C64.6875 148.533 65.2865 148.637 65.9375 148.637C66.3932 148.637 66.8164 148.585 67.207 148.48C67.5977 148.376 67.9622 148.233 68.3008 148.051C68.6393 147.868 68.9648 147.66 69.2773 147.426C69.5898 147.178 69.9023 146.918 70.2148 146.645L70.7031 147.113C70.4036 147.517 70.0195 147.96 69.5508 148.441C69.082 148.923 68.5156 149.379 67.8516 149.809C67.1875 150.225 66.4128 150.577 65.5273 150.863C64.6419 151.137 63.6328 151.273 62.5 151.273C61.3672 151.273 60.2604 151.072 59.1797 150.668C58.112 150.251 57.1615 149.633 56.3281 148.812C55.4948 147.992 54.8242 146.97 54.3164 145.746C53.8216 144.522 53.5742 143.09 53.5742 141.449C53.5742 140.264 53.724 139.177 54.0234 138.188C54.3229 137.198 54.7266 136.306 55.2344 135.512C55.7552 134.717 56.3542 134.021 57.0312 133.422C57.7214 132.823 58.444 132.328 59.1992 131.938C59.9544 131.534 60.7227 131.234 61.5039 131.039C62.2982 130.831 63.0599 130.727 63.7891 130.727C64.7526 130.727 65.5924 130.831 66.3086 131.039C67.0247 131.247 67.6172 131.527 68.0859 131.879C68.5677 132.23 68.9258 132.641 69.1602 133.109C69.3945 133.565 69.5117 134.047 69.5117 134.555C69.5117 135.167 69.3359 135.72 68.9844 136.215C68.6328 136.697 68.1641 137.12 67.5781 137.484L59.8633 142.035ZM63.7891 138.07C63.9583 137.966 64.0951 137.868 64.1992 137.777C64.3164 137.673 64.4076 137.556 64.4727 137.426C64.5378 137.283 64.5833 137.113 64.6094 136.918C64.6484 136.71 64.668 136.456 64.668 136.156C64.668 135.831 64.6289 135.473 64.5508 135.082C64.4857 134.678 64.3685 134.301 64.1992 133.949C64.0299 133.598 63.8151 133.305 63.5547 133.07C63.2943 132.836 62.9818 132.719 62.6172 132.719C62.1484 132.719 61.7448 132.862 61.4062 133.148C61.0807 133.422 60.8073 133.78 60.5859 134.223C60.3776 134.665 60.2083 135.173 60.0781 135.746C59.9609 136.306 59.8698 136.872 59.8047 137.445C59.7396 138.018 59.7005 138.572 59.6875 139.105C59.6745 139.626 59.668 140.069 59.668 140.434L63.7891 138.07ZM84.8242 141.273C84.8242 139.633 84.7461 138.324 84.5898 137.348C84.4466 136.358 84.2513 135.609 84.0039 135.102C83.7565 134.581 83.4831 134.242 83.1836 134.086C82.8841 133.917 82.5781 133.832 82.2656 133.832C81.888 133.832 81.5495 133.936 81.25 134.145C80.9635 134.34 80.7096 134.568 80.4883 134.828C80.2799 135.089 80.0977 135.349 79.9414 135.609C79.7982 135.87 79.6745 136.065 79.5703 136.195V149.242C79.5703 149.411 79.5443 149.62 79.4922 149.867C79.4401 150.102 79.3099 150.329 79.1016 150.551C78.9062 150.759 78.6068 150.935 78.2031 151.078C77.8125 151.234 77.2721 151.312 76.582 151.312C75.8919 151.312 75.3451 151.228 74.9414 151.059C74.5508 150.902 74.2513 150.714 74.043 150.492C73.8346 150.271 73.7044 150.043 73.6523 149.809C73.6003 149.574 73.5742 149.385 73.5742 149.242V134.164C73.5742 133.786 73.4831 133.461 73.3008 133.188C73.1315 132.901 72.8385 132.758 72.4219 132.758C72.2005 132.758 72.0117 132.797 71.8555 132.875C71.6992 132.953 71.5299 133.064 71.3477 133.207L70.9375 132.719C71.237 132.471 71.569 132.23 71.9336 131.996C72.3112 131.749 72.7148 131.534 73.1445 131.352C73.5742 131.169 74.0365 131.02 74.5312 130.902C75.026 130.785 75.5469 130.727 76.0938 130.727C76.9401 130.727 77.5977 130.87 78.0664 131.156C78.5352 131.43 78.8802 131.762 79.1016 132.152C79.3229 132.543 79.4531 132.953 79.4922 133.383C79.5443 133.799 79.5703 134.151 79.5703 134.438C80.0521 133.747 80.599 133.129 81.2109 132.582C81.4583 132.348 81.7318 132.12 82.0312 131.898C82.3438 131.677 82.6693 131.482 83.0078 131.312C83.3594 131.13 83.724 130.987 84.1016 130.883C84.4922 130.779 84.8893 130.727 85.293 130.727C86.1784 130.727 86.9596 130.896 87.6367 131.234C88.3268 131.573 88.9062 132.139 89.375 132.934C89.8438 133.728 90.2018 134.783 90.4492 136.098C90.6966 137.4 90.8203 139.021 90.8203 140.961C90.8203 142.849 90.651 144.49 90.3125 145.883C89.974 147.276 89.5312 148.461 88.9844 149.438C88.4375 150.414 87.819 151.208 87.1289 151.82C86.4388 152.445 85.7422 152.934 85.0391 153.285C84.3359 153.637 83.6589 153.878 83.0078 154.008C82.3698 154.151 81.8164 154.229 81.3477 154.242L81.1328 153.441C81.5234 153.35 81.8815 153.207 82.207 153.012C82.5456 152.816 82.8516 152.53 83.125 152.152C83.3984 151.775 83.6393 151.299 83.8477 150.727C84.056 150.141 84.2318 149.411 84.375 148.539C84.5312 147.667 84.6419 146.638 84.707 145.453C84.7852 144.255 84.8242 142.862 84.8242 141.273ZM105.703 140.395C105.703 140.251 105.703 139.965 105.703 139.535C105.703 139.092 105.69 138.591 105.664 138.031C105.638 137.458 105.592 136.853 105.527 136.215C105.462 135.577 105.358 134.984 105.215 134.438C104.902 134.034 104.551 133.676 104.16 133.363C103.783 133.038 103.294 132.875 102.695 132.875C101.68 132.875 100.931 133.539 100.449 134.867C99.9805 136.195 99.7461 138.253 99.7461 141.039C99.7461 142.263 99.7982 143.383 99.9023 144.398C100.02 145.414 100.189 146.286 100.41 147.016C100.645 147.745 100.938 148.311 101.289 148.715C101.654 149.118 102.083 149.32 102.578 149.32C104.661 149.32 105.703 146.345 105.703 140.395ZM105.469 131.801C105.221 130.499 104.876 129.288 104.434 128.168C103.991 127.035 103.457 126.059 102.832 125.238C102.22 124.418 101.517 123.773 100.723 123.305C99.9414 122.836 99.0951 122.602 98.1836 122.602C97.6628 122.602 97.1875 122.667 96.7578 122.797C96.3411 122.927 95.9766 123.083 95.6641 123.266C95.3516 123.435 95.0911 123.604 94.8828 123.773C94.6875 123.93 94.5443 124.047 94.4531 124.125L93.9453 123.441C94.2578 123.038 94.6354 122.66 95.0781 122.309C95.5339 121.957 96.0286 121.658 96.5625 121.41C97.0964 121.163 97.6562 120.967 98.2422 120.824C98.8411 120.681 99.4336 120.609 100.02 120.609C101.947 120.609 103.639 121.033 105.098 121.879C106.556 122.712 107.773 123.897 108.75 125.434C109.727 126.97 110.462 128.826 110.957 131C111.452 133.174 111.699 135.59 111.699 138.246C111.699 140.395 111.478 142.283 111.035 143.91C110.605 145.538 109.987 146.905 109.18 148.012C108.372 149.105 107.389 149.932 106.23 150.492C105.085 151.039 103.789 151.312 102.344 151.312C101.341 151.312 100.319 151.137 99.2773 150.785C98.2487 150.421 97.3112 149.835 96.4648 149.027C95.6315 148.22 94.9479 147.165 94.4141 145.863C93.8802 144.548 93.6133 142.94 93.6133 141.039C93.6133 139.398 93.8411 137.94 94.2969 136.664C94.7656 135.388 95.3906 134.314 96.1719 133.441C96.9531 132.556 97.8581 131.885 98.8867 131.43C99.9154 130.961 101.003 130.727 102.148 130.727C102.591 130.727 102.988 130.766 103.34 130.844C103.691 130.909 103.997 130.993 104.258 131.098C104.518 131.202 104.746 131.319 104.941 131.449C105.137 131.566 105.312 131.684 105.469 131.801ZM121.719 132.289C121.419 132.289 121.133 132.328 120.859 132.406C120.599 132.484 120.365 132.615 120.156 132.797C119.948 132.966 119.785 133.188 119.668 133.461C119.551 133.721 119.492 134.034 119.492 134.398C119.492 134.906 119.674 135.414 120.039 135.922C120.417 136.417 120.879 136.938 121.426 137.484C121.986 138.018 122.585 138.578 123.223 139.164C123.874 139.737 124.473 140.349 125.02 141C125.579 141.638 126.042 142.322 126.406 143.051C126.784 143.78 126.973 144.561 126.973 145.395C126.973 146.332 126.81 147.165 126.484 147.895C126.172 148.624 125.716 149.242 125.117 149.75C124.531 150.258 123.815 150.648 122.969 150.922C122.135 151.182 121.204 151.312 120.176 151.312C119.277 151.312 118.464 151.189 117.734 150.941C117.005 150.681 116.354 150.368 115.781 150.004C115.221 149.626 114.74 149.229 114.336 148.812C113.932 148.396 113.62 148.018 113.398 147.68L114.082 147.191C114.251 147.387 114.466 147.602 114.727 147.836C114.987 148.057 115.273 148.266 115.586 148.461C115.911 148.656 116.257 148.819 116.621 148.949C116.986 149.066 117.357 149.125 117.734 149.125C118.672 149.125 119.44 148.904 120.039 148.461C120.638 148.005 120.938 147.335 120.938 146.449C120.938 145.954 120.775 145.447 120.449 144.926C120.124 144.392 119.714 143.845 119.219 143.285C118.724 142.725 118.19 142.146 117.617 141.547C117.044 140.948 116.51 140.329 116.016 139.691C115.521 139.053 115.111 138.396 114.785 137.719C114.46 137.042 114.297 136.339 114.297 135.609C114.297 134.789 114.46 134.073 114.785 133.461C115.124 132.849 115.566 132.341 116.113 131.938C116.673 131.534 117.305 131.234 118.008 131.039C118.724 130.831 119.46 130.727 120.215 130.727C121.087 130.727 121.882 130.805 122.598 130.961C123.314 131.117 123.926 131.358 124.434 131.684C124.954 131.996 125.352 132.393 125.625 132.875C125.911 133.357 126.055 133.917 126.055 134.555C126.055 135.049 125.892 135.479 125.566 135.844C125.241 136.208 124.785 136.391 124.199 136.391C123.639 136.391 123.21 136.273 122.91 136.039C122.624 135.792 122.48 135.46 122.48 135.043C122.48 134.77 122.546 134.555 122.676 134.398C122.819 134.242 122.975 134.118 123.145 134.027C123.314 133.923 123.464 133.839 123.594 133.773C123.737 133.695 123.809 133.598 123.809 133.48C123.809 133.116 123.613 132.829 123.223 132.621C122.832 132.4 122.331 132.289 121.719 132.289Z" fill="white"/>
<circle cx="64.5" cy="56.5" r="46.5" fill="white" stroke="url(#paint0_linear_115_153)" stroke-width="20"/>
<path d="M64.5 72.75C73.4746 72.75 80.75 65.4746 80.75 56.5C80.75 47.5254 73.4746 40.25 64.5 40.25C55.5254 40.25 48.25 47.5254 48.25 56.5C48.25 65.4746 55.5254 72.75 64.5 72.75Z" stroke="#C47370" stroke-width="2" stroke-linecap="round" stroke-linejoin="round"/>
<path d="M74.25 58.125C73.8623 60.4202 72.6662 62.5009 70.878 63.9911C69.0898 65.4813 66.8275 66.2825 64.5 66.25C62.1725 66.2825 59.9102 65.4813 58.122 63.9911C56.3338 62.5009 55.1377 60.4202 54.75 58.125H74.25Z" stroke="#C47370" stroke-width="2" stroke-linecap="round" stroke-linejoin="round"/>
<path d="M59.625 51.625H59.6413" stroke="#C47370" stroke-width="2" stroke-linecap="round" stroke-linejoin="round"/>
<path d="M69.375 51.625H69.3913" stroke="#C47370" stroke-width="2" stroke-linecap="round" stroke-linejoin="round"/>
<defs>
<linearGradient id="paint0_linear_115_153" x1="35" y1="94.5" x2="123.485" y2="55.8632" gradientUnits="userSpaceOnUse">
<stop stop-color="#EE8481"/>
<stop offset="1" stop-color="#ED9592"/>
</linearGradient>
</defs>
</svg>
