<svg width="391" height="279" viewBox="0 0 391 279" fill="none" xmlns="http://www.w3.org/2000/svg">
<rect width="391" height="279" rx="20" fill="url(#paint0_linear_68_576)"/>
<path d="M155.043 196.562H147.328V207.441C147.328 208.444 147.061 209.173 146.527 209.629C146.007 210.085 145.206 210.312 144.125 210.312C143.031 210.312 142.224 210.085 141.703 209.629C141.182 209.173 140.922 208.444 140.922 207.441V196.562H137.875V194.844H140.922V182.559C140.505 182.598 140.023 182.676 139.477 182.793C138.943 182.897 138.389 183.053 137.816 183.262C137.257 183.457 136.703 183.691 136.156 183.965C135.609 184.238 135.121 184.557 134.691 184.922C134.262 185.286 133.91 185.697 133.637 186.152C133.376 186.595 133.246 187.077 133.246 187.598C133.246 188.014 133.298 188.346 133.402 188.594C133.52 188.841 133.65 189.03 133.793 189.16C133.936 189.277 134.079 189.355 134.223 189.395C134.379 189.421 134.49 189.434 134.555 189.434C134.88 189.434 135.147 189.382 135.355 189.277C135.564 189.16 135.753 189.043 135.922 188.926C136.091 188.796 136.247 188.678 136.391 188.574C136.547 188.457 136.723 188.398 136.918 188.398C137.074 188.398 137.237 188.438 137.406 188.516C137.589 188.581 137.751 188.691 137.895 188.848C138.051 189.004 138.181 189.212 138.285 189.473C138.389 189.72 138.441 190.026 138.441 190.391C138.441 190.911 138.337 191.367 138.129 191.758C137.934 192.135 137.673 192.448 137.348 192.695C137.035 192.943 136.671 193.132 136.254 193.262C135.85 193.379 135.447 193.438 135.043 193.438C134.418 193.438 133.852 193.333 133.344 193.125C132.849 192.904 132.426 192.604 132.074 192.227C131.723 191.849 131.456 191.413 131.273 190.918C131.091 190.41 131 189.863 131 189.277C131 187.754 131.417 186.458 132.25 185.391C133.096 184.323 134.249 183.451 135.707 182.773C137.165 182.083 138.865 181.582 140.805 181.27C142.745 180.957 144.822 180.801 147.035 180.801C147.934 180.801 148.871 180.814 149.848 180.84C150.824 180.853 151.742 180.879 152.602 180.918C153.474 180.957 154.242 181.003 154.906 181.055C155.57 181.107 156.039 181.165 156.312 181.23C156.573 181.296 156.781 181.367 156.938 181.445C157.094 181.523 157.211 181.615 157.289 181.719C157.367 181.823 157.419 181.947 157.445 182.09C157.471 182.22 157.484 182.376 157.484 182.559C157.484 182.715 157.465 182.891 157.426 183.086C157.387 183.268 157.328 183.444 157.25 183.613C157.172 183.77 157.074 183.906 156.957 184.023C156.84 184.141 156.697 184.199 156.527 184.199C156.423 184.199 156.306 184.154 156.176 184.062C156.059 183.971 155.883 183.854 155.648 183.711C155.427 183.568 155.121 183.418 154.73 183.262C154.353 183.105 153.839 182.956 153.188 182.812C152.549 182.669 151.749 182.552 150.785 182.461C149.835 182.37 148.682 182.324 147.328 182.324V194.844H155.043V196.562ZM164.984 193.848C165.479 193.092 166.007 192.409 166.566 191.797C166.801 191.536 167.055 191.283 167.328 191.035C167.602 190.788 167.882 190.566 168.168 190.371C168.467 190.176 168.773 190.02 169.086 189.902C169.398 189.785 169.711 189.727 170.023 189.727C170.688 189.727 171.208 189.928 171.586 190.332C171.964 190.723 172.152 191.276 172.152 191.992C172.152 192.435 172.113 192.865 172.035 193.281C171.97 193.685 171.833 194.18 171.625 194.766H171.078C171 194.362 170.818 194.03 170.531 193.77C170.245 193.496 169.828 193.359 169.281 193.359C168.878 193.359 168.48 193.438 168.09 193.594C167.699 193.737 167.315 193.919 166.938 194.141C166.573 194.362 166.221 194.603 165.883 194.863C165.557 195.124 165.258 195.371 164.984 195.605V208.281C164.984 208.451 164.958 208.652 164.906 208.887C164.854 209.121 164.724 209.342 164.516 209.551C164.32 209.759 164.021 209.935 163.617 210.078C163.227 210.234 162.686 210.312 161.996 210.312C161.306 210.312 160.759 210.228 160.355 210.059C159.965 209.902 159.665 209.714 159.457 209.492C159.249 209.271 159.118 209.043 159.066 208.809C159.014 208.574 158.988 208.385 158.988 208.242V193.164C158.988 192.786 158.897 192.461 158.715 192.188C158.546 191.901 158.253 191.758 157.836 191.758C157.615 191.758 157.426 191.797 157.27 191.875C157.113 191.953 156.944 192.064 156.762 192.207L156.352 191.719C156.651 191.471 156.983 191.23 157.348 190.996C157.725 190.749 158.129 190.534 158.559 190.352C158.988 190.169 159.451 190.02 159.945 189.902C160.44 189.785 160.961 189.727 161.508 189.727C162.068 189.727 162.543 189.805 162.934 189.961C163.337 190.104 163.663 190.299 163.91 190.547C164.171 190.781 164.372 191.048 164.516 191.348C164.659 191.647 164.763 191.953 164.828 192.266C164.906 192.565 164.952 192.858 164.965 193.145C164.978 193.418 164.984 193.652 164.984 193.848ZM180.883 208.242C180.883 208.411 180.85 208.62 180.785 208.867C180.733 209.102 180.596 209.329 180.375 209.551C180.167 209.759 179.861 209.935 179.457 210.078C179.053 210.234 178.507 210.312 177.816 210.312C177.126 210.312 176.586 210.228 176.195 210.059C175.805 209.902 175.512 209.714 175.316 209.492C175.121 209.271 174.997 209.043 174.945 208.809C174.906 208.574 174.887 208.385 174.887 208.242V193.164C174.887 192.786 174.796 192.461 174.613 192.188C174.444 191.901 174.151 191.758 173.734 191.758C173.513 191.758 173.324 191.797 173.168 191.875C173.012 191.953 172.842 192.064 172.66 192.207L172.25 191.719C172.549 191.471 172.882 191.23 173.246 190.996C173.624 190.749 174.027 190.534 174.457 190.352C174.887 190.169 175.349 190.02 175.844 189.902C176.339 189.785 176.859 189.727 177.406 189.727C178.253 189.727 178.91 189.844 179.379 190.078C179.848 190.299 180.193 190.579 180.414 190.918C180.635 191.243 180.766 191.595 180.805 191.973C180.857 192.35 180.883 192.682 180.883 192.969V208.242ZM174.281 185.273C174.281 184.909 174.359 184.564 174.516 184.238C174.685 183.9 174.913 183.607 175.199 183.359C175.499 183.112 175.837 182.917 176.215 182.773C176.605 182.63 177.029 182.559 177.484 182.559C177.927 182.559 178.337 182.63 178.715 182.773C179.105 182.917 179.444 183.112 179.73 183.359C180.017 183.607 180.238 183.9 180.395 184.238C180.564 184.564 180.648 184.909 180.648 185.273C180.648 185.651 180.564 186.003 180.395 186.328C180.238 186.654 180.017 186.94 179.73 187.188C179.444 187.422 179.105 187.611 178.715 187.754C178.337 187.897 177.927 187.969 177.484 187.969C177.029 187.969 176.605 187.897 176.215 187.754C175.837 187.611 175.499 187.422 175.199 187.188C174.913 186.94 174.685 186.654 174.516 186.328C174.359 186.003 174.281 185.651 174.281 185.273ZM190.863 201.035C190.863 201.452 190.922 201.908 191.039 202.402C191.169 202.884 191.352 203.372 191.586 203.867C191.82 204.362 192.107 204.837 192.445 205.293C192.797 205.736 193.194 206.133 193.637 206.484C194.092 206.836 194.594 207.116 195.141 207.324C195.688 207.533 196.286 207.637 196.938 207.637C197.393 207.637 197.816 207.585 198.207 207.48C198.598 207.376 198.962 207.233 199.301 207.051C199.639 206.868 199.965 206.66 200.277 206.426C200.59 206.178 200.902 205.918 201.215 205.645L201.703 206.113C201.404 206.517 201.02 206.96 200.551 207.441C200.082 207.923 199.516 208.379 198.852 208.809C198.188 209.225 197.413 209.577 196.527 209.863C195.642 210.137 194.633 210.273 193.5 210.273C192.367 210.273 191.26 210.072 190.18 209.668C189.112 209.251 188.161 208.633 187.328 207.812C186.495 206.992 185.824 205.97 185.316 204.746C184.822 203.522 184.574 202.09 184.574 200.449C184.574 199.264 184.724 198.177 185.023 197.188C185.323 196.198 185.727 195.306 186.234 194.512C186.755 193.717 187.354 193.021 188.031 192.422C188.721 191.823 189.444 191.328 190.199 190.938C190.954 190.534 191.723 190.234 192.504 190.039C193.298 189.831 194.06 189.727 194.789 189.727C195.753 189.727 196.592 189.831 197.309 190.039C198.025 190.247 198.617 190.527 199.086 190.879C199.568 191.23 199.926 191.641 200.16 192.109C200.395 192.565 200.512 193.047 200.512 193.555C200.512 194.167 200.336 194.72 199.984 195.215C199.633 195.697 199.164 196.12 198.578 196.484L190.863 201.035ZM194.789 197.07C194.958 196.966 195.095 196.868 195.199 196.777C195.316 196.673 195.408 196.556 195.473 196.426C195.538 196.283 195.583 196.113 195.609 195.918C195.648 195.71 195.668 195.456 195.668 195.156C195.668 194.831 195.629 194.473 195.551 194.082C195.486 193.678 195.368 193.301 195.199 192.949C195.03 192.598 194.815 192.305 194.555 192.07C194.294 191.836 193.982 191.719 193.617 191.719C193.148 191.719 192.745 191.862 192.406 192.148C192.081 192.422 191.807 192.78 191.586 193.223C191.378 193.665 191.208 194.173 191.078 194.746C190.961 195.306 190.87 195.872 190.805 196.445C190.74 197.018 190.701 197.572 190.688 198.105C190.674 198.626 190.668 199.069 190.668 199.434L194.789 197.07ZM215.824 200.273C215.824 198.633 215.746 197.324 215.59 196.348C215.447 195.358 215.251 194.609 215.004 194.102C214.757 193.581 214.483 193.242 214.184 193.086C213.884 192.917 213.578 192.832 213.266 192.832C212.888 192.832 212.549 192.936 212.25 193.145C211.964 193.34 211.71 193.568 211.488 193.828C211.28 194.089 211.098 194.349 210.941 194.609C210.798 194.87 210.674 195.065 210.57 195.195V208.242C210.57 208.411 210.544 208.62 210.492 208.867C210.44 209.102 210.31 209.329 210.102 209.551C209.906 209.759 209.607 209.935 209.203 210.078C208.812 210.234 208.272 210.312 207.582 210.312C206.892 210.312 206.345 210.228 205.941 210.059C205.551 209.902 205.251 209.714 205.043 209.492C204.835 209.271 204.704 209.043 204.652 208.809C204.6 208.574 204.574 208.385 204.574 208.242V193.164C204.574 192.786 204.483 192.461 204.301 192.188C204.132 191.901 203.839 191.758 203.422 191.758C203.201 191.758 203.012 191.797 202.855 191.875C202.699 191.953 202.53 192.064 202.348 192.207L201.938 191.719C202.237 191.471 202.569 191.23 202.934 190.996C203.311 190.749 203.715 190.534 204.145 190.352C204.574 190.169 205.036 190.02 205.531 189.902C206.026 189.785 206.547 189.727 207.094 189.727C207.94 189.727 208.598 189.87 209.066 190.156C209.535 190.43 209.88 190.762 210.102 191.152C210.323 191.543 210.453 191.953 210.492 192.383C210.544 192.799 210.57 193.151 210.57 193.438C211.052 192.747 211.599 192.129 212.211 191.582C212.458 191.348 212.732 191.12 213.031 190.898C213.344 190.677 213.669 190.482 214.008 190.312C214.359 190.13 214.724 189.987 215.102 189.883C215.492 189.779 215.889 189.727 216.293 189.727C217.178 189.727 217.96 189.896 218.637 190.234C219.327 190.573 219.906 191.139 220.375 191.934C220.844 192.728 221.202 193.783 221.449 195.098C221.697 196.4 221.82 198.021 221.82 199.961C221.82 201.849 221.651 203.49 221.312 204.883C220.974 206.276 220.531 207.461 219.984 208.438C219.438 209.414 218.819 210.208 218.129 210.82C217.439 211.445 216.742 211.934 216.039 212.285C215.336 212.637 214.659 212.878 214.008 213.008C213.37 213.151 212.816 213.229 212.348 213.242L212.133 212.441C212.523 212.35 212.882 212.207 213.207 212.012C213.546 211.816 213.852 211.53 214.125 211.152C214.398 210.775 214.639 210.299 214.848 209.727C215.056 209.141 215.232 208.411 215.375 207.539C215.531 206.667 215.642 205.638 215.707 204.453C215.785 203.255 215.824 201.862 215.824 200.273ZM236.703 199.395C236.703 199.251 236.703 198.965 236.703 198.535C236.703 198.092 236.69 197.591 236.664 197.031C236.638 196.458 236.592 195.853 236.527 195.215C236.462 194.577 236.358 193.984 236.215 193.438C235.902 193.034 235.551 192.676 235.16 192.363C234.783 192.038 234.294 191.875 233.695 191.875C232.68 191.875 231.931 192.539 231.449 193.867C230.98 195.195 230.746 197.253 230.746 200.039C230.746 201.263 230.798 202.383 230.902 203.398C231.02 204.414 231.189 205.286 231.41 206.016C231.645 206.745 231.938 207.311 232.289 207.715C232.654 208.118 233.083 208.32 233.578 208.32C235.661 208.32 236.703 205.345 236.703 199.395ZM236.469 190.801C236.221 189.499 235.876 188.288 235.434 187.168C234.991 186.035 234.457 185.059 233.832 184.238C233.22 183.418 232.517 182.773 231.723 182.305C230.941 181.836 230.095 181.602 229.184 181.602C228.663 181.602 228.188 181.667 227.758 181.797C227.341 181.927 226.977 182.083 226.664 182.266C226.352 182.435 226.091 182.604 225.883 182.773C225.688 182.93 225.544 183.047 225.453 183.125L224.945 182.441C225.258 182.038 225.635 181.66 226.078 181.309C226.534 180.957 227.029 180.658 227.562 180.41C228.096 180.163 228.656 179.967 229.242 179.824C229.841 179.681 230.434 179.609 231.02 179.609C232.947 179.609 234.639 180.033 236.098 180.879C237.556 181.712 238.773 182.897 239.75 184.434C240.727 185.97 241.462 187.826 241.957 190C242.452 192.174 242.699 194.59 242.699 197.246C242.699 199.395 242.478 201.283 242.035 202.91C241.605 204.538 240.987 205.905 240.18 207.012C239.372 208.105 238.389 208.932 237.23 209.492C236.085 210.039 234.789 210.312 233.344 210.312C232.341 210.312 231.319 210.137 230.277 209.785C229.249 209.421 228.311 208.835 227.465 208.027C226.632 207.22 225.948 206.165 225.414 204.863C224.88 203.548 224.613 201.94 224.613 200.039C224.613 198.398 224.841 196.94 225.297 195.664C225.766 194.388 226.391 193.314 227.172 192.441C227.953 191.556 228.858 190.885 229.887 190.43C230.915 189.961 232.003 189.727 233.148 189.727C233.591 189.727 233.988 189.766 234.34 189.844C234.691 189.909 234.997 189.993 235.258 190.098C235.518 190.202 235.746 190.319 235.941 190.449C236.137 190.566 236.312 190.684 236.469 190.801ZM252.719 191.289C252.419 191.289 252.133 191.328 251.859 191.406C251.599 191.484 251.365 191.615 251.156 191.797C250.948 191.966 250.785 192.188 250.668 192.461C250.551 192.721 250.492 193.034 250.492 193.398C250.492 193.906 250.674 194.414 251.039 194.922C251.417 195.417 251.879 195.938 252.426 196.484C252.986 197.018 253.585 197.578 254.223 198.164C254.874 198.737 255.473 199.349 256.02 200C256.579 200.638 257.042 201.322 257.406 202.051C257.784 202.78 257.973 203.561 257.973 204.395C257.973 205.332 257.81 206.165 257.484 206.895C257.172 207.624 256.716 208.242 256.117 208.75C255.531 209.258 254.815 209.648 253.969 209.922C253.135 210.182 252.204 210.312 251.176 210.312C250.277 210.312 249.464 210.189 248.734 209.941C248.005 209.681 247.354 209.368 246.781 209.004C246.221 208.626 245.74 208.229 245.336 207.812C244.932 207.396 244.62 207.018 244.398 206.68L245.082 206.191C245.251 206.387 245.466 206.602 245.727 206.836C245.987 207.057 246.273 207.266 246.586 207.461C246.911 207.656 247.257 207.819 247.621 207.949C247.986 208.066 248.357 208.125 248.734 208.125C249.672 208.125 250.44 207.904 251.039 207.461C251.638 207.005 251.938 206.335 251.938 205.449C251.938 204.954 251.775 204.447 251.449 203.926C251.124 203.392 250.714 202.845 250.219 202.285C249.724 201.725 249.19 201.146 248.617 200.547C248.044 199.948 247.51 199.329 247.016 198.691C246.521 198.053 246.111 197.396 245.785 196.719C245.46 196.042 245.297 195.339 245.297 194.609C245.297 193.789 245.46 193.073 245.785 192.461C246.124 191.849 246.566 191.341 247.113 190.938C247.673 190.534 248.305 190.234 249.008 190.039C249.724 189.831 250.46 189.727 251.215 189.727C252.087 189.727 252.882 189.805 253.598 189.961C254.314 190.117 254.926 190.358 255.434 190.684C255.954 190.996 256.352 191.393 256.625 191.875C256.911 192.357 257.055 192.917 257.055 193.555C257.055 194.049 256.892 194.479 256.566 194.844C256.241 195.208 255.785 195.391 255.199 195.391C254.639 195.391 254.21 195.273 253.91 195.039C253.624 194.792 253.48 194.46 253.48 194.043C253.48 193.77 253.546 193.555 253.676 193.398C253.819 193.242 253.975 193.118 254.145 193.027C254.314 192.923 254.464 192.839 254.594 192.773C254.737 192.695 254.809 192.598 254.809 192.48C254.809 192.116 254.613 191.829 254.223 191.621C253.832 191.4 253.331 191.289 252.719 191.289Z" fill="white"/>
<circle cx="195.5" cy="115.5" r="46.5" fill="white" stroke="url(#paint1_linear_68_576)" stroke-width="20"/>
<path d="M195.5 131.75C204.475 131.75 211.75 124.475 211.75 115.5C211.75 106.525 204.475 99.25 195.5 99.25C186.525 99.25 179.25 106.525 179.25 115.5C179.25 124.475 186.525 131.75 195.5 131.75Z" stroke="#C47370" stroke-width="2" stroke-linecap="round" stroke-linejoin="round"/>
<path d="M205.25 117.125C204.862 119.42 203.666 121.501 201.878 122.991C200.09 124.481 197.827 125.283 195.5 125.25C193.173 125.283 190.91 124.481 189.122 122.991C187.334 121.501 186.138 119.42 185.75 117.125H205.25Z" stroke="#C47370" stroke-width="2" stroke-linecap="round" stroke-linejoin="round"/>
<path d="M190.625 110.625H190.641" stroke="#C47370" stroke-width="2" stroke-linecap="round" stroke-linejoin="round"/>
<path d="M200.375 110.625H200.391" stroke="#C47370" stroke-width="2" stroke-linecap="round" stroke-linejoin="round"/>
<defs>
<linearGradient id="paint0_linear_68_576" x1="120.943" y1="209.437" x2="357.123" y2="69.147" gradientUnits="userSpaceOnUse">
<stop stop-color="#EE7C78"/>
<stop offset="1" stop-color="#ECA4A2"/>
</linearGradient>
<linearGradient id="paint1_linear_68_576" x1="166" y1="153.5" x2="254.485" y2="114.863" gradientUnits="userSpaceOnUse">
<stop stop-color="#EE8481"/>
<stop offset="1" stop-color="#ED9592"/>
</linearGradient>
</defs>
</svg>
