<svg width="1728" height="1650" viewBox="0 0 1728 1650" fill="none" xmlns="http://www.w3.org/2000/svg">
<g clip-path="url(#clip0_79_345)">
<rect width="1728" height="1650" fill="white"/>
<path d="M1256.72 206.557L1243.36 156.689C1242.29 152.711 1242.3 148.809 1243.39 144.982C1244.5 141.166 1246.43 137.851 1249.17 135.035C1251.93 132.199 1255.27 130.273 1259.19 129.257C1263.21 128.215 1267.1 128.23 1270.85 129.304C1274.64 130.369 1277.93 132.269 1280.72 135.004C1283.54 137.75 1285.51 141.114 1286.63 145.095L1288.46 151.569L1294.99 149.924C1299.02 148.915 1302.91 148.936 1306.68 149.99C1310.45 151.043 1313.73 152.937 1316.52 155.671C1319.35 158.397 1321.32 161.761 1322.42 165.762C1323.5 169.667 1323.51 173.522 1322.43 177.329C1321.36 181.115 1319.45 184.437 1316.68 187.293C1313.93 190.162 1310.56 192.129 1306.58 193.195L1256.72 206.557Z" fill="url(#paint0_radial_79_345)"/>
<path d="M1596.82 644.261L1553.07 616.861C1549.58 614.675 1546.92 611.811 1545.11 608.267C1543.33 604.719 1542.48 600.978 1542.57 597.046C1542.66 593.091 1543.79 589.406 1545.97 585.99C1548.2 582.489 1551.06 579.853 1554.54 578.081C1558.03 576.281 1561.74 575.43 1565.65 575.528C1569.58 575.62 1573.31 576.742 1576.84 578.894L1582.6 582.38L1586.25 576.73C1588.51 573.247 1591.38 570.608 1594.86 568.813C1598.33 567.019 1602.02 566.17 1605.93 566.268C1609.86 566.337 1613.59 567.459 1617.13 569.634C1620.58 571.755 1623.2 574.576 1625.01 578.097C1626.81 581.594 1627.67 585.331 1627.59 589.31C1627.53 593.283 1626.41 597.014 1624.22 600.505L1596.82 644.261Z" fill="url(#paint1_radial_79_345)"/>
<path d="M1667.39 364.893L1658.96 351.9C1658.29 350.864 1657.93 349.749 1657.89 348.556C1657.85 347.365 1658.09 346.24 1658.62 345.182C1659.14 344.118 1659.92 343.259 1660.94 342.606C1661.99 341.936 1663.1 341.581 1664.27 341.54C1665.45 341.493 1666.57 341.731 1667.62 342.252C1668.67 342.775 1669.55 343.553 1670.24 344.585L1671.36 346.262L1673.07 345.189C1674.13 344.528 1675.24 344.173 1676.41 344.125C1677.58 344.077 1678.69 344.314 1679.75 344.835C1680.8 345.351 1681.68 346.129 1682.36 347.168C1683.03 348.182 1683.39 349.282 1683.44 350.468C1683.48 351.647 1683.24 352.773 1682.72 353.844C1682.2 354.917 1681.42 355.79 1680.38 356.463L1667.39 364.893Z" fill="url(#paint2_radial_79_345)"/>
<path d="M1608.62 270.055L1557 180.635C1552.88 173.502 1550.88 165.957 1551 158C1551.17 150.055 1553.18 142.652 1557.03 135.791C1560.89 128.884 1566.34 123.434 1573.39 119.441C1580.62 115.348 1588.13 113.366 1595.94 113.498C1603.81 113.596 1611.15 115.563 1617.96 119.398C1624.82 123.247 1630.36 128.726 1634.59 135.838L1641.49 147.393L1653.25 140.838C1660.5 136.802 1668.04 134.827 1675.86 134.913C1683.68 134.998 1691 136.959 1697.82 140.795C1704.69 144.598 1710.23 150.077 1714.44 157.235C1718.55 164.218 1720.55 171.665 1720.44 179.577C1720.34 187.443 1718.36 194.852 1714.48 201.804C1710.66 208.769 1705.18 214.31 1698.04 218.428L1608.62 270.055Z" fill="url(#paint3_radial_79_345)"/>
<path d="M1703.43 523.535L1679.43 503.946C1677.52 502.384 1676.16 500.48 1675.34 498.235C1674.55 495.988 1674.32 493.698 1674.67 491.364C1675.02 489.016 1675.97 486.907 1677.52 485.037C1679.11 483.12 1681.01 481.764 1683.21 480.971C1685.43 480.161 1687.7 479.932 1690.02 480.283C1692.35 480.632 1694.49 481.579 1696.43 483.125L1699.6 485.632L1702.2 482.542C1703.8 480.638 1705.71 479.282 1707.91 478.474C1710.11 477.665 1712.37 477.437 1714.69 477.788C1717.03 478.123 1719.16 479.07 1721.11 480.63C1723 482.152 1724.36 484.028 1725.17 486.259C1725.98 488.475 1726.21 490.765 1725.86 493.127C1725.53 495.488 1724.58 497.625 1723.02 499.539L1703.43 523.535Z" fill="url(#paint4_radial_79_345)"/>
<path d="M1436.82 126.788L1410 111.3C1407.86 110.065 1406.21 108.404 1405.05 106.318C1403.9 104.229 1403.31 102.004 1403.28 99.6447C1403.25 97.2712 1403.85 95.037 1405.08 92.942C1406.34 90.7948 1408 89.1527 1410.05 88.0157C1412.1 86.8612 1414.31 86.2711 1416.65 86.2455C1419.01 86.2161 1421.27 86.8086 1423.44 88.023L1426.96 89.9896L1429.04 86.523C1430.32 84.3859 1431.98 82.7419 1434.02 81.5911C1436.07 80.4404 1438.26 79.8521 1440.61 79.8265C1442.96 79.7834 1445.23 80.3759 1447.39 81.604C1449.51 82.8019 1451.15 84.4369 1452.3 86.5089C1453.46 88.5671 1454.05 90.7899 1454.09 93.177C1454.14 95.5605 1453.55 97.8222 1452.31 99.962L1436.82 126.788Z" fill="url(#paint5_radial_79_345)"/>
<path d="M1396.71 541.763L1373.11 531.315C1371.23 530.481 1369.71 529.252 1368.56 527.627C1367.43 525.998 1366.74 524.207 1366.51 522.255C1366.27 520.291 1366.57 518.387 1367.4 516.541C1368.26 514.65 1369.48 513.142 1371.08 512.018C1372.68 510.878 1374.45 510.193 1376.4 509.964C1378.35 509.729 1380.27 510.019 1382.18 510.833L1385.27 512.149L1386.68 509.093C1387.55 507.208 1388.78 505.698 1390.37 504.563C1391.97 503.428 1393.73 502.745 1395.67 502.515C1397.62 502.27 1399.55 502.56 1401.45 503.385C1403.31 504.189 1404.81 505.398 1405.96 507.012C1407.1 508.615 1407.79 510.404 1408.03 512.379C1408.29 514.349 1408 516.276 1407.16 518.158L1396.71 541.763Z" fill="url(#paint6_radial_79_345)"/>
<path d="M30.3916 1350.37L21.9614 1337.37C21.289 1336.34 20.9309 1335.22 20.8873 1334.03C20.8506 1332.84 21.0937 1331.71 21.6167 1330.66C22.1412 1329.59 22.9159 1328.73 23.9409 1328.08C24.9912 1327.41 26.1016 1327.05 27.2722 1327.01C28.4513 1326.97 29.5662 1327.2 30.617 1327.73C31.6747 1328.25 32.5475 1329.03 33.2353 1330.06L34.3594 1331.74L36.0695 1330.66C37.1252 1330 38.2391 1329.65 39.4112 1329.6C40.5833 1329.55 41.6947 1329.79 42.7455 1330.31C43.8047 1330.82 44.6775 1331.6 45.3638 1332.64C46.0338 1333.66 46.3913 1334.76 46.4365 1335.94C46.4831 1337.12 46.2434 1338.25 45.7175 1339.32C45.1985 1340.39 44.4208 1341.26 43.3844 1341.94L30.3916 1350.37Z" fill="url(#paint7_radial_79_345)" fill-opacity="0.3"/>
<path d="M189.751 1527.57L104.976 1504.86C98.2138 1503.04 92.4781 1499.71 87.769 1494.85C83.0948 1489.98 79.8523 1484.32 78.0415 1477.88C76.2106 1471.41 76.2138 1464.86 78.0513 1458.22C79.9329 1451.42 83.2596 1445.71 88.0314 1441.1C92.8179 1436.43 98.412 1433.2 104.814 1431.41C111.25 1429.6 117.874 1429.56 124.686 1431.3L135.781 1434.09L138.907 1423.09C140.843 1416.3 144.188 1410.58 148.939 1405.93C153.691 1401.28 159.267 1398.06 165.669 1396.27C172.086 1394.43 178.71 1394.39 185.542 1396.16C192.209 1397.89 197.887 1401.16 202.576 1405.98C207.245 1410.77 210.504 1416.42 212.356 1422.92C214.241 1429.41 214.278 1436.03 212.466 1442.8L189.751 1527.57Z" fill="url(#paint8_radial_79_345)" fill-opacity="0.3"/>
<path d="M51.749 1676.86L11.7562 1644.21C8.56614 1641.6 6.29414 1638.43 4.94024 1634.69C3.60988 1630.94 3.23585 1627.13 3.81815 1623.24C4.39806 1619.32 5.98193 1615.81 8.56976 1612.69C11.2211 1609.5 14.3835 1607.24 18.0569 1605.92C21.7515 1604.57 25.5319 1604.18 29.3982 1604.77C33.2881 1605.35 36.8504 1606.93 40.0852 1609.51L45.3618 1613.68L49.6953 1608.53C52.3726 1605.36 55.5467 1603.1 59.2178 1601.75C62.8888 1600.41 66.6574 1600.03 70.5238 1600.61C74.4112 1601.17 77.9736 1602.75 81.2108 1605.35C84.3702 1607.88 86.6256 1611.01 87.9771 1614.73C89.3263 1618.42 89.7121 1622.24 89.1346 1626.18C88.5806 1630.11 87.0015 1633.67 84.3972 1636.86L51.749 1676.86Z" fill="url(#paint9_radial_79_345)" fill-opacity="0.3"/>
<path d="M112.841 1231.72L77.5191 1194.07C74.7016 1191.06 72.8694 1187.62 72.0225 1183.73C71.1992 1179.84 71.3335 1176.01 72.4254 1172.23C73.518 1168.43 75.553 1165.15 78.5305 1162.41C81.5813 1159.59 85.0147 1157.77 88.8309 1156.94C92.6715 1156.1 96.4693 1156.22 100.224 1157.31C104.003 1158.4 107.325 1160.44 110.191 1163.42L114.868 1168.26L119.845 1163.73C122.918 1160.93 126.364 1159.11 130.181 1158.27C133.998 1157.42 137.783 1157.54 141.538 1158.63C145.318 1159.7 148.64 1161.73 151.505 1164.74C154.301 1167.67 156.123 1171.07 156.97 1174.93C157.819 1178.77 157.696 1182.61 156.603 1186.43C155.533 1190.26 153.497 1193.58 150.493 1196.4L112.841 1231.72Z" fill="url(#paint10_radial_79_345)" fill-opacity="0.3"/>
<path d="M374.503 1157.56L349.74 1112.26C347.765 1108.64 346.854 1104.85 347.009 1100.87C347.185 1096.9 348.276 1093.23 350.279 1089.84C352.289 1086.43 355.08 1083.77 358.651 1081.86C362.31 1079.9 366.09 1079 369.991 1079.15C373.922 1079.29 377.568 1080.36 380.93 1082.36C384.315 1084.36 387.021 1087.17 389.048 1090.77L392.364 1096.63L398.317 1093.49C401.992 1091.56 405.783 1090.66 409.691 1090.79C413.599 1090.92 417.234 1091.99 420.596 1093.99C423.987 1095.97 426.693 1098.77 428.714 1102.4C430.686 1105.94 431.599 1109.68 431.452 1113.64C431.311 1117.57 430.232 1121.25 428.215 1124.68C426.221 1128.11 423.417 1130.82 419.803 1132.8L374.503 1157.56Z" fill="url(#paint11_radial_79_345)" fill-opacity="0.3"/>
<path d="M366.535 1379.96L351.047 1353.14C349.812 1351 349.212 1348.73 349.249 1346.35C349.3 1343.96 349.902 1341.74 351.056 1339.68C352.215 1337.61 353.851 1335.98 355.966 1334.78C358.134 1333.55 360.388 1332.96 362.731 1332.99C365.09 1333.02 367.293 1333.61 369.337 1334.76C371.395 1335.92 373.058 1337.56 374.324 1339.7L376.395 1343.16L379.922 1341.2C382.1 1339.99 384.361 1339.39 386.707 1339.42C389.053 1339.44 391.249 1340.03 393.293 1341.18C395.355 1342.32 397.018 1343.97 398.28 1346.12C399.513 1348.21 400.113 1350.44 400.08 1352.82C400.051 1355.18 399.455 1357.4 398.293 1359.49C397.145 1361.58 395.501 1363.24 393.361 1364.47L366.535 1379.96Z" fill="url(#paint12_radial_79_345)" fill-opacity="0.3"/>
<path d="M164.068 1257.28L156.451 1250.31C155.843 1249.75 155.425 1249.09 155.197 1248.33C154.974 1247.57 154.942 1246.8 155.103 1246.03C155.263 1245.26 155.619 1244.57 156.171 1243.98C156.736 1243.37 157.393 1242.96 158.142 1242.73C158.894 1242.51 159.654 1242.47 160.419 1242.63C161.189 1242.79 161.883 1243.15 162.5 1243.7L163.506 1244.59L164.43 1243.62C165 1243.01 165.659 1242.6 166.408 1242.37C167.156 1242.14 167.913 1242.11 168.678 1242.27C169.448 1242.42 170.141 1242.78 170.759 1243.34C171.361 1243.88 171.776 1244.53 172.004 1245.28C172.231 1246.04 172.265 1246.8 172.105 1247.58C171.95 1248.36 171.595 1249.06 171.039 1249.66L164.068 1257.28Z" fill="url(#paint13_radial_79_345)" fill-opacity="0.3"/>
<path d="M1247.72 1173.56L1234.36 1123.69C1233.29 1119.71 1233.3 1115.81 1234.39 1111.98C1235.5 1108.17 1237.43 1104.85 1240.17 1102.04C1242.93 1099.2 1246.27 1097.27 1250.19 1096.26C1254.21 1095.21 1258.1 1095.23 1261.85 1096.3C1265.64 1097.37 1268.93 1099.27 1271.72 1102C1274.54 1104.75 1276.51 1108.11 1277.63 1112.09L1279.46 1118.57L1285.99 1116.92C1290.02 1115.91 1293.91 1115.94 1297.68 1116.99C1301.45 1118.04 1304.73 1119.94 1307.52 1122.67C1310.35 1125.4 1312.32 1128.76 1313.42 1132.76C1314.5 1136.67 1314.51 1140.52 1313.43 1144.33C1312.36 1148.12 1310.45 1151.44 1307.68 1154.29C1304.93 1157.16 1301.56 1159.13 1297.58 1160.19L1247.72 1173.56Z" fill="url(#paint14_radial_79_345)"/>
<path d="M1587.82 1611.26L1544.07 1583.86C1540.58 1581.68 1537.92 1578.81 1536.11 1575.27C1534.33 1571.72 1533.48 1567.98 1533.57 1564.05C1533.66 1560.09 1534.79 1556.41 1536.97 1552.99C1539.2 1549.49 1542.06 1546.85 1545.54 1545.08C1549.03 1543.28 1552.74 1542.43 1556.65 1542.53C1560.58 1542.62 1564.31 1543.74 1567.84 1545.89L1573.6 1549.38L1577.25 1543.73C1579.51 1540.25 1582.38 1537.61 1585.86 1535.81C1589.33 1534.02 1593.02 1533.17 1596.93 1533.27C1600.86 1533.34 1604.59 1534.46 1608.13 1536.63C1611.58 1538.76 1614.2 1541.58 1616.01 1545.1C1617.81 1548.59 1618.67 1552.33 1618.59 1556.31C1618.53 1560.28 1617.41 1564.01 1615.22 1567.5L1587.82 1611.26Z" fill="url(#paint15_radial_79_345)"/>
<path d="M1658.39 1331.89L1649.96 1318.9C1649.29 1317.86 1648.93 1316.75 1648.89 1315.56C1648.85 1314.36 1649.09 1313.24 1649.62 1312.18C1650.14 1311.12 1650.92 1310.26 1651.94 1309.61C1652.99 1308.94 1654.1 1308.58 1655.27 1308.54C1656.45 1308.49 1657.57 1308.73 1658.62 1309.25C1659.67 1309.78 1660.55 1310.55 1661.24 1311.59L1662.36 1313.26L1664.07 1312.19C1665.13 1311.53 1666.24 1311.17 1667.41 1311.13C1668.58 1311.08 1669.69 1311.31 1670.75 1311.84C1671.8 1312.35 1672.68 1313.13 1673.36 1314.17C1674.03 1315.18 1674.39 1316.28 1674.44 1317.47C1674.48 1318.65 1674.24 1319.77 1673.72 1320.84C1673.2 1321.92 1672.42 1322.79 1671.38 1323.46L1658.39 1331.89Z" fill="url(#paint16_radial_79_345)"/>
<path d="M1599.62 1237.06L1548 1147.63C1543.88 1140.5 1541.88 1132.96 1542 1125C1542.17 1117.05 1544.18 1109.65 1548.03 1102.79C1551.89 1095.88 1557.34 1090.43 1564.39 1086.44C1571.62 1082.35 1579.13 1080.37 1586.94 1080.5C1594.81 1080.6 1602.15 1082.56 1608.96 1086.4C1615.82 1090.25 1621.36 1095.73 1625.59 1102.84L1632.49 1114.39L1644.25 1107.84C1651.5 1103.8 1659.04 1101.83 1666.86 1101.91C1674.68 1102 1682 1103.96 1688.82 1107.8C1695.69 1111.6 1701.23 1117.08 1705.44 1124.23C1709.55 1131.22 1711.55 1138.67 1711.44 1146.58C1711.34 1154.44 1709.36 1161.85 1705.48 1168.8C1701.66 1175.77 1696.18 1181.31 1689.04 1185.43L1599.62 1237.06Z" fill="url(#paint17_radial_79_345)"/>
<path d="M1694.43 1490.54L1670.43 1470.95C1668.52 1469.38 1667.16 1467.48 1666.34 1465.23C1665.55 1462.99 1665.32 1460.7 1665.67 1458.36C1666.02 1456.02 1666.97 1453.91 1668.52 1452.04C1670.11 1450.12 1672.01 1448.76 1674.21 1447.97C1676.43 1447.16 1678.7 1446.93 1681.02 1447.28C1683.35 1447.63 1685.49 1448.58 1687.43 1450.12L1690.6 1452.63L1693.2 1449.54C1694.8 1447.64 1696.71 1446.28 1698.91 1445.47C1701.11 1444.67 1703.37 1444.44 1705.69 1444.79C1708.03 1445.12 1710.16 1446.07 1712.11 1447.63C1714 1449.15 1715.36 1451.03 1716.17 1453.26C1716.98 1455.48 1717.21 1457.76 1716.86 1460.13C1716.53 1462.49 1715.58 1464.63 1714.02 1466.54L1694.43 1490.54Z" fill="url(#paint18_radial_79_345)"/>
<path d="M1427.82 1093.79L1401 1078.3C1398.86 1077.06 1397.21 1075.4 1396.05 1073.32C1394.9 1071.23 1394.31 1069 1394.28 1066.64C1394.25 1064.27 1394.85 1062.04 1396.08 1059.94C1397.34 1057.79 1399 1056.15 1401.05 1055.02C1403.1 1053.86 1405.31 1053.27 1407.65 1053.25C1410.01 1053.22 1412.27 1053.81 1414.44 1055.02L1417.96 1056.99L1420.04 1053.52C1421.32 1051.39 1422.98 1049.74 1425.02 1048.59C1427.07 1047.44 1429.26 1046.85 1431.61 1046.83C1433.96 1046.78 1436.23 1047.38 1438.39 1048.6C1440.51 1049.8 1442.15 1051.44 1443.3 1053.51C1444.46 1055.57 1445.05 1057.79 1445.09 1060.18C1445.14 1062.56 1444.55 1064.82 1443.31 1066.96L1427.82 1093.79Z" fill="url(#paint19_radial_79_345)"/>
<path d="M1387.71 1508.76L1364.11 1498.31C1362.23 1497.48 1360.71 1496.25 1359.56 1494.63C1358.43 1493 1357.74 1491.21 1357.51 1489.25C1357.27 1487.29 1357.57 1485.39 1358.4 1483.54C1359.26 1481.65 1360.48 1480.14 1362.08 1479.02C1363.68 1477.88 1365.45 1477.19 1367.4 1476.96C1369.35 1476.73 1371.27 1477.02 1373.18 1477.83L1376.27 1479.15L1377.68 1476.09C1378.55 1474.21 1379.78 1472.7 1381.37 1471.56C1382.97 1470.43 1384.73 1469.74 1386.67 1469.52C1388.62 1469.27 1390.55 1469.56 1392.45 1470.38C1394.31 1471.19 1395.81 1472.4 1396.96 1474.01C1398.1 1475.62 1398.79 1477.4 1399.03 1479.38C1399.29 1481.35 1399 1483.28 1398.16 1485.16L1387.71 1508.76Z" fill="url(#paint20_radial_79_345)"/>
<path d="M16.3916 377.366L7.96143 364.374C7.28898 363.337 6.93093 362.223 6.88727 361.03C6.85055 359.838 7.09369 358.714 7.61669 357.656C8.14116 356.591 8.91589 355.732 9.9409 355.079C10.9912 354.41 12.1016 354.055 13.2722 354.013C14.4513 353.967 15.5662 354.204 16.617 354.726C17.6747 355.249 18.5475 356.026 19.2353 357.059L20.3594 358.736L22.0695 357.662C23.1252 357.001 24.2391 356.647 25.4112 356.599C26.5833 356.551 27.6947 356.787 28.7455 357.309C29.8047 357.825 30.6775 358.603 31.3638 359.642C32.0338 360.656 32.3913 361.756 32.4365 362.942C32.4831 364.121 32.2434 365.246 31.7175 366.318C31.1985 367.391 30.4208 368.264 29.3844 368.936L16.3916 377.366Z" fill="url(#paint21_radial_79_345)" fill-opacity="0.3"/>
<path d="M216.751 554.571L131.976 531.855C125.214 530.043 119.478 526.709 114.769 521.853C110.095 516.977 106.852 511.32 105.041 504.884C103.211 498.412 103.214 491.858 105.051 485.22C106.933 478.418 110.26 472.71 115.031 468.096C119.818 463.427 125.412 460.197 131.814 458.406C138.25 456.596 144.874 456.559 151.686 458.295L162.781 461.091L165.907 450.085C167.843 443.297 171.188 437.579 175.939 432.931C180.691 428.282 186.267 425.062 192.669 423.271C199.086 421.426 205.71 421.389 212.542 423.16C219.209 424.888 224.887 428.162 229.576 432.984C234.245 437.77 237.504 443.417 239.356 449.923C241.241 456.409 241.278 463.033 239.466 469.795L216.751 554.571Z" fill="url(#paint22_radial_79_345)" fill-opacity="0.3"/>
<path d="M37.749 703.856L-2.24377 671.208C-5.43386 668.603 -7.70586 665.43 -9.05976 661.689C-10.3901 657.945 -10.7641 654.128 -10.1819 650.238C-9.60194 646.324 -8.01807 642.809 -5.43024 639.692C-2.7789 636.497 0.383472 634.238 4.05688 632.915C7.75145 631.566 11.5319 631.184 15.3982 631.768C19.2881 632.351 22.8504 633.93 26.0852 636.506L31.3618 640.684L35.6953 635.534C38.3726 632.36 41.5467 630.1 45.2178 628.753C48.8888 627.407 52.6574 627.026 56.5238 627.61C60.4112 628.169 63.9736 629.748 67.2108 632.348C70.3702 634.883 72.6256 638.011 73.9771 641.729C75.3263 645.423 75.7121 649.239 75.1346 653.176C74.5806 657.111 73.0015 660.673 70.3972 663.863L37.749 703.856Z" fill="url(#paint23_radial_79_345)" fill-opacity="0.3"/>
<path d="M90.2853 229.719L54.9639 192.066C52.1464 189.063 50.3142 185.617 49.4673 181.729C48.644 177.842 48.7783 174.009 49.8702 170.231C50.9628 166.428 52.9979 163.154 55.9754 160.406C59.0261 157.59 62.4596 155.77 66.2758 154.944C70.1164 154.096 73.9141 154.217 77.6691 155.308C81.4477 156.4 84.7698 158.437 87.6353 161.418L92.3127 166.257L97.2895 161.726C100.363 158.935 103.808 157.114 107.625 156.265C111.442 155.416 115.228 155.537 118.983 156.628C122.763 157.696 126.085 159.733 128.949 162.738C131.746 165.669 133.567 169.067 134.415 172.932C135.264 176.772 135.141 180.606 134.048 184.431C132.978 188.258 130.941 191.58 127.938 194.398L90.2853 229.719Z" fill="url(#paint24_radial_79_345)" fill-opacity="0.3"/>
<path d="M360.503 184.558L335.74 139.258C333.765 135.644 332.854 131.849 333.009 127.873C333.185 123.904 334.276 120.227 336.279 116.842C338.289 113.435 341.08 110.774 344.651 108.861C348.31 106.899 352.09 105.996 355.991 106.153C359.922 106.294 363.568 107.363 366.93 109.36C370.315 111.363 373.021 114.167 375.048 117.771L378.364 123.628L384.317 120.488C387.992 118.556 391.783 117.656 395.691 117.791C399.599 117.925 403.234 118.99 406.596 120.987C409.987 122.968 412.693 125.772 414.714 129.399C416.686 132.937 417.599 136.683 417.452 140.637C417.311 144.567 416.232 148.248 414.215 151.678C412.221 155.115 409.417 157.821 405.803 159.796L360.503 184.558Z" fill="url(#paint25_radial_79_345)" fill-opacity="0.3"/>
<path d="M352.535 406.962L337.047 380.136C335.812 377.996 335.212 375.732 335.249 373.345C335.3 370.962 335.902 368.741 337.056 366.682C338.215 364.61 339.851 362.975 341.966 361.778C344.134 360.549 346.388 359.955 348.731 359.995C351.09 360.024 353.293 360.614 355.337 361.765C357.395 362.919 359.058 364.563 360.324 366.697L362.395 370.163L365.922 368.197C368.1 366.986 370.361 366.393 372.707 366.419C375.053 366.445 377.249 367.033 379.293 368.184C381.355 369.324 383.018 370.968 384.28 373.116C385.513 375.211 386.113 377.445 386.08 379.818C386.051 382.178 385.455 384.401 384.293 386.486C383.145 388.576 381.501 390.238 379.361 391.474L352.535 406.962Z" fill="url(#paint26_radial_79_345)" fill-opacity="0.3"/>
<path d="M150.068 284.281L142.451 277.31C141.843 276.754 141.425 276.095 141.197 275.332C140.974 274.57 140.942 273.803 141.103 273.033C141.263 272.258 141.619 271.574 142.171 270.981C142.736 270.373 143.393 269.958 144.142 269.735C144.894 269.507 145.654 269.474 146.419 269.634C147.189 269.794 147.883 270.15 148.5 270.701L149.506 271.595L150.43 270.615C151 270.012 151.659 269.596 152.408 269.369C153.156 269.141 153.913 269.108 154.678 269.268C155.448 269.424 156.141 269.779 156.759 270.335C157.361 270.877 157.776 271.527 158.004 272.285C158.231 273.038 158.265 273.804 158.105 274.584C157.95 275.363 157.595 276.057 157.039 276.664L150.068 284.281Z" fill="url(#paint27_radial_79_345)" fill-opacity="0.3"/>
<ellipse cx="1227.5" cy="920.5" rx="419.5" ry="377.5" fill="url(#paint28_radial_79_345)" fill-opacity="0.34"/>
<circle cx="1308.5" cy="-49.5" r="419.5" fill="url(#paint29_radial_79_345)" fill-opacity="0.5"/>
<circle cx="300.5" cy="1363.5" r="419.5" fill="url(#paint30_radial_79_345)" fill-opacity="0.5"/>
<circle cx="1582.5" cy="1325.5" r="419.5" fill="url(#paint31_radial_79_345)" fill-opacity="0.5"/>
<circle cx="121.5" cy="206.5" r="284.5" fill="url(#paint32_radial_79_345)" fill-opacity="0.5"/>
</g>
<defs>
<radialGradient id="paint0_radial_79_345" cx="0" cy="0" r="1" gradientUnits="userSpaceOnUse" gradientTransform="translate(1275.85 174.145) rotate(120) scale(60.5 51.5)">
<stop stop-color="#ED8986" stop-opacity="0.4"/>
<stop offset="1" stop-color="#ED8986" stop-opacity="0"/>
</radialGradient>
<radialGradient id="paint1_radial_79_345" cx="0" cy="0" r="1" gradientUnits="userSpaceOnUse" gradientTransform="translate(1588.74 607.499) rotate(77.0545) scale(60.5 51.5)">
<stop stop-color="#ED8986" stop-opacity="0.4"/>
<stop offset="1" stop-color="#ED8986" stop-opacity="0"/>
</radialGradient>
<radialGradient id="paint2_radial_79_345" cx="0" cy="0" r="1" gradientUnits="userSpaceOnUse" gradientTransform="translate(1669.91 353.834) rotate(102.023) scale(18 15.5)">
<stop stop-color="#ED8986" stop-opacity="0.4"/>
<stop offset="1" stop-color="#ED8986" stop-opacity="0"/>
</radialGradient>
<radialGradient id="paint3_radial_79_345" cx="0" cy="0" r="1" gradientUnits="userSpaceOnUse" gradientTransform="translate(1628.32 197.406) rotate(105) scale(121 102.5)">
<stop stop-color="#ED8986" stop-opacity="0.4"/>
<stop offset="1" stop-color="#ED8986" stop-opacity="0"/>
</radialGradient>
<radialGradient id="paint4_radial_79_345" cx="0" cy="0" r="1" gradientUnits="userSpaceOnUse" gradientTransform="translate(1701.51 501.434) rotate(84.2265) scale(36.5 31)">
<stop stop-color="#ED8986" stop-opacity="0.4"/>
<stop offset="1" stop-color="#ED8986" stop-opacity="0"/>
</radialGradient>
<radialGradient id="paint5_radial_79_345" cx="0" cy="0" r="1" gradientUnits="userSpaceOnUse" gradientTransform="translate(1431.39 105.28) rotate(75) scale(36.5 31)">
<stop stop-color="#ED8986" stop-opacity="0.4"/>
<stop offset="1" stop-color="#ED8986" stop-opacity="0"/>
</radialGradient>
<radialGradient id="paint6_radial_79_345" cx="0" cy="0" r="1" gradientUnits="userSpaceOnUse" gradientTransform="translate(1390.24 523.82) rotate(68.8757) scale(30.5 26)">
<stop stop-color="#ED8986" stop-opacity="0.4"/>
<stop offset="1" stop-color="#ED8986" stop-opacity="0"/>
</radialGradient>
<radialGradient id="paint7_radial_79_345" cx="0" cy="0" r="1" gradientUnits="userSpaceOnUse" gradientTransform="translate(32.9096 1339.31) rotate(102.023) scale(18 15.5)">
<stop stop-color="#ED8986"/>
<stop offset="1" stop-color="#ED8986" stop-opacity="0"/>
</radialGradient>
<radialGradient id="paint8_radial_79_345" cx="0" cy="0" r="1" gradientUnits="userSpaceOnUse" gradientTransform="translate(157.844 1472.17) rotate(60) scale(103 87)">
<stop stop-color="#ED8986"/>
<stop offset="1" stop-color="#ED8986" stop-opacity="0"/>
</radialGradient>
<radialGradient id="paint9_radial_79_345" cx="0" cy="0" r="1" gradientUnits="userSpaceOnUse" gradientTransform="translate(48.3248 1639.37) rotate(84.2265) scale(60.5 51.5)">
<stop stop-color="#ED8986"/>
<stop offset="1" stop-color="#ED8986" stop-opacity="0"/>
</radialGradient>
<radialGradient id="paint10_radial_79_345" cx="0" cy="0" r="1" gradientUnits="userSpaceOnUse" gradientTransform="translate(114.406 1194.11) rotate(91.8298) scale(60.5 51.5)">
<stop stop-color="#ED8986"/>
<stop offset="1" stop-color="#ED8986" stop-opacity="0"/>
</radialGradient>
<radialGradient id="paint11_radial_79_345" cx="0" cy="0" r="1" gradientUnits="userSpaceOnUse" gradientTransform="translate(385.439 1121.54) rotate(106.338) scale(60.5 51.5)">
<stop stop-color="#ED8986"/>
<stop offset="1" stop-color="#ED8986" stop-opacity="0"/>
</radialGradient>
<radialGradient id="paint12_radial_79_345" cx="0" cy="0" r="1" gradientUnits="userSpaceOnUse" gradientTransform="translate(372.584 1358.62) rotate(105) scale(36.5 31)">
<stop stop-color="#ED8986"/>
<stop offset="1" stop-color="#ED8986" stop-opacity="0"/>
</radialGradient>
<radialGradient id="paint13_radial_79_345" cx="0" cy="0" r="1" gradientUnits="userSpaceOnUse" gradientTransform="translate(164.02 1250.05) rotate(87.4651) scale(12 10.5)">
<stop stop-color="#ED8986"/>
<stop offset="1" stop-color="#ED8986" stop-opacity="0"/>
</radialGradient>
<radialGradient id="paint14_radial_79_345" cx="0" cy="0" r="1" gradientUnits="userSpaceOnUse" gradientTransform="translate(1266.85 1141.14) rotate(120) scale(60.5 51.5)">
<stop stop-color="#ED8986" stop-opacity="0.4"/>
<stop offset="1" stop-color="#ED8986" stop-opacity="0"/>
</radialGradient>
<radialGradient id="paint15_radial_79_345" cx="0" cy="0" r="1" gradientUnits="userSpaceOnUse" gradientTransform="translate(1579.74 1574.5) rotate(77.0545) scale(60.5 51.5)">
<stop stop-color="#ED8986" stop-opacity="0.4"/>
<stop offset="1" stop-color="#ED8986" stop-opacity="0"/>
</radialGradient>
<radialGradient id="paint16_radial_79_345" cx="0" cy="0" r="1" gradientUnits="userSpaceOnUse" gradientTransform="translate(1660.91 1320.83) rotate(102.023) scale(18 15.5)">
<stop stop-color="#ED8986" stop-opacity="0.4"/>
<stop offset="1" stop-color="#ED8986" stop-opacity="0"/>
</radialGradient>
<radialGradient id="paint17_radial_79_345" cx="0" cy="0" r="1" gradientUnits="userSpaceOnUse" gradientTransform="translate(1619.32 1164.41) rotate(105) scale(121 102.5)">
<stop stop-color="#ED8986" stop-opacity="0.4"/>
<stop offset="1" stop-color="#ED8986" stop-opacity="0"/>
</radialGradient>
<radialGradient id="paint18_radial_79_345" cx="0" cy="0" r="1" gradientUnits="userSpaceOnUse" gradientTransform="translate(1692.51 1468.43) rotate(84.2265) scale(36.5 31)">
<stop stop-color="#ED8986" stop-opacity="0.4"/>
<stop offset="1" stop-color="#ED8986" stop-opacity="0"/>
</radialGradient>
<radialGradient id="paint19_radial_79_345" cx="0" cy="0" r="1" gradientUnits="userSpaceOnUse" gradientTransform="translate(1422.39 1072.28) rotate(75) scale(36.5 31)">
<stop stop-color="#ED8986" stop-opacity="0.4"/>
<stop offset="1" stop-color="#ED8986" stop-opacity="0"/>
</radialGradient>
<radialGradient id="paint20_radial_79_345" cx="0" cy="0" r="1" gradientUnits="userSpaceOnUse" gradientTransform="translate(1381.24 1490.82) rotate(68.8757) scale(30.5 26)">
<stop stop-color="#ED8986" stop-opacity="0.4"/>
<stop offset="1" stop-color="#ED8986" stop-opacity="0"/>
</radialGradient>
<radialGradient id="paint21_radial_79_345" cx="0" cy="0" r="1" gradientUnits="userSpaceOnUse" gradientTransform="translate(18.9096 366.307) rotate(102.023) scale(18 15.5)">
<stop stop-color="#ED8986"/>
<stop offset="1" stop-color="#ED8986" stop-opacity="0"/>
</radialGradient>
<radialGradient id="paint22_radial_79_345" cx="0" cy="0" r="1" gradientUnits="userSpaceOnUse" gradientTransform="translate(184.844 499.17) rotate(60) scale(103 87)">
<stop stop-color="#ED8986"/>
<stop offset="1" stop-color="#ED8986" stop-opacity="0"/>
</radialGradient>
<radialGradient id="paint23_radial_79_345" cx="0" cy="0" r="1" gradientUnits="userSpaceOnUse" gradientTransform="translate(34.3248 666.374) rotate(84.2265) scale(60.5 51.5)">
<stop stop-color="#ED8986"/>
<stop offset="1" stop-color="#ED8986" stop-opacity="0"/>
</radialGradient>
<radialGradient id="paint24_radial_79_345" cx="0" cy="0" r="1" gradientUnits="userSpaceOnUse" gradientTransform="translate(91.8505 192.114) rotate(91.8298) scale(60.5 51.5)">
<stop stop-color="#ED8986"/>
<stop offset="1" stop-color="#ED8986" stop-opacity="0"/>
</radialGradient>
<radialGradient id="paint25_radial_79_345" cx="0" cy="0" r="1" gradientUnits="userSpaceOnUse" gradientTransform="translate(371.439 148.544) rotate(106.338) scale(60.5 51.5)">
<stop stop-color="#ED8986"/>
<stop offset="1" stop-color="#ED8986" stop-opacity="0"/>
</radialGradient>
<radialGradient id="paint26_radial_79_345" cx="0" cy="0" r="1" gradientUnits="userSpaceOnUse" gradientTransform="translate(358.584 385.618) rotate(105) scale(36.5 31)">
<stop stop-color="#ED8986"/>
<stop offset="1" stop-color="#ED8986" stop-opacity="0"/>
</radialGradient>
<radialGradient id="paint27_radial_79_345" cx="0" cy="0" r="1" gradientUnits="userSpaceOnUse" gradientTransform="translate(150.02 277.049) rotate(87.4651) scale(12 10.5)">
<stop stop-color="#ED8986"/>
<stop offset="1" stop-color="#ED8986" stop-opacity="0"/>
</radialGradient>
<radialGradient id="paint28_radial_79_345" cx="0" cy="0" r="1" gradientUnits="userSpaceOnUse" gradientTransform="translate(1227.5 920.5) rotate(90) scale(377.5 419.5)">
<stop stop-color="#ED8986"/>
<stop offset="1" stop-color="#ED8986" stop-opacity="0"/>
</radialGradient>
<radialGradient id="paint29_radial_79_345" cx="0" cy="0" r="1" gradientUnits="userSpaceOnUse" gradientTransform="translate(1308.5 -49.5) rotate(90) scale(419.5)">
<stop stop-color="#ED8986"/>
<stop offset="1" stop-color="#ED8986" stop-opacity="0"/>
</radialGradient>
<radialGradient id="paint30_radial_79_345" cx="0" cy="0" r="1" gradientUnits="userSpaceOnUse" gradientTransform="translate(300.5 1363.5) rotate(90) scale(419.5)">
<stop stop-color="#ED8986"/>
<stop offset="1" stop-color="#ED8986" stop-opacity="0"/>
</radialGradient>
<radialGradient id="paint31_radial_79_345" cx="0" cy="0" r="1" gradientUnits="userSpaceOnUse" gradientTransform="translate(1582.5 1325.5) rotate(90) scale(419.5)">
<stop stop-color="#ED8986"/>
<stop offset="1" stop-color="#ED8986" stop-opacity="0"/>
</radialGradient>
<radialGradient id="paint32_radial_79_345" cx="0" cy="0" r="1" gradientUnits="userSpaceOnUse" gradientTransform="translate(121.5 206.5) rotate(90) scale(284.5)">
<stop stop-color="#ED8986"/>
<stop offset="1" stop-color="#ED8986" stop-opacity="0"/>
</radialGradient>
<clipPath id="clip0_79_345">
<rect width="1728" height="1650" fill="white"/>
</clipPath>
</defs>
</svg>
