<svg width="341" height="86" viewBox="0 0 341 86" fill="none" xmlns="http://www.w3.org/2000/svg">
<path d="M10.2749 20.6526C10.2749 9.79879 19.0737 1 29.9275 1V29.4446H10.2749V20.6526Z" fill="#C47370" stroke="#C47370" stroke-width="0.805851"/>
<rect x="10.2749" y="29.4446" width="19.6526" height="27.1108" fill="#C47370" stroke="#C47370" stroke-width="0.805851"/>
<path fill-rule="evenodd" clip-rule="evenodd" d="M10.6316 69.0942C10.3975 67.8813 10.2748 66.6286 10.2748 65.3474V56.5554H29.9275V85C25.1684 85 20.8045 83.3084 17.4041 80.4937C14.0117 82.7537 8.57204 84.902 2 83.7071C3.81011 82.9313 10.792 78.2767 10.5334 68.9676C10.5648 69.0108 10.5975 69.053 10.6316 69.0942Z" fill="#C47370"/>
<path d="M10.6316 69.0942L10.321 69.3508L11.0272 69.0178L10.6316 69.0942ZM10.2748 56.5554V56.1525H9.87192V56.5554H10.2748ZM29.9275 56.5554H30.3304V56.1525H29.9275V56.5554ZM29.9275 85V85.4029H30.3304V85H29.9275ZM17.4041 80.4937L17.661 80.1833L17.4301 79.9922L17.1807 80.1584L17.4041 80.4937ZM2 83.7071L1.84128 83.3367L0.610887 83.864L1.92792 84.1035L2 83.7071ZM10.5334 68.9676L10.8592 68.7306L10.0945 67.6791L10.1306 68.9788L10.5334 68.9676ZM9.87192 65.3474C9.87192 66.6544 9.99701 67.9326 10.236 69.1706L11.0272 69.0178C10.7979 67.8299 10.6778 66.6029 10.6778 65.3474H9.87192ZM9.87192 56.5554V65.3474H10.6778V56.5554H9.87192ZM29.9275 56.1525H10.2748V56.9583H29.9275V56.1525ZM30.3304 85V56.5554H29.5246V85H30.3304ZM17.1472 80.8041C20.6171 83.6764 25.0712 85.4029 29.9275 85.4029V84.5971C25.2657 84.5971 20.9918 82.9404 17.661 80.1833L17.1472 80.8041ZM1.92792 84.1035C8.6283 85.3217 14.1727 83.1306 17.6275 80.829L17.1807 80.1584C13.8507 82.3768 8.51578 84.4822 2.07208 83.3106L1.92792 84.1035ZM10.1306 68.9788C10.2568 73.5221 8.61843 76.9224 6.72782 79.2856C4.8293 81.6588 2.68461 82.9753 1.84128 83.3367L2.15872 84.0774C3.1255 83.6631 5.3768 82.2644 7.35708 79.7891C9.34528 77.3038 11.0685 73.7222 10.9361 68.9564L10.1306 68.9788ZM10.9422 68.8375C10.9133 68.8026 10.8857 68.767 10.8592 68.7306L10.2075 69.2046C10.2439 69.2546 10.2817 69.3033 10.321 69.3508L10.9422 68.8375Z" fill="#C47370"/>
<rect x="29.9272" y="1" width="290.877" height="84" fill="#C47370"/>
<path d="M42.7007 36.5054H41.0405V29.7769H33.5405V36.5054H31.8804V22.228H33.5405V28.312H41.0405V22.228H42.7007V36.5054ZM50.1034 25.6069C51.0149 25.6069 51.7961 25.8088 52.4472 26.2124C53.0982 26.616 53.5963 27.1825 53.9413 27.9116C54.2864 28.6343 54.4589 29.4806 54.4589 30.4507V31.4565H47.0663C47.0858 32.7131 47.3983 33.6701 48.0038 34.3276C48.6093 34.9852 49.4621 35.314 50.5624 35.314C51.2395 35.314 51.8384 35.2521 52.3593 35.1284C52.8801 35.0047 53.4205 34.8224 53.9804 34.5815V36.0073C53.44 36.2482 52.9029 36.424 52.369 36.5347C51.8417 36.6453 51.2167 36.7007 50.494 36.7007C49.4654 36.7007 48.567 36.4924 47.7987 36.0757C47.037 35.6525 46.4446 35.034 46.0214 34.2202C45.5982 33.4064 45.3866 32.4103 45.3866 31.2319C45.3866 30.0796 45.5787 29.0835 45.9628 28.2437C46.3534 27.3973 46.9003 26.7463 47.6034 26.2905C48.3131 25.8348 49.1464 25.6069 50.1034 25.6069ZM50.0839 26.9351C49.218 26.9351 48.5279 27.2183 48.0136 27.7847C47.4993 28.3511 47.1933 29.1421 47.0956 30.1577H52.7597C52.7532 29.5197 52.6522 28.9598 52.4569 28.478C52.2681 27.9897 51.9784 27.6121 51.5878 27.3452C51.1972 27.0718 50.6959 26.9351 50.0839 26.9351ZM55.1233 25.8022H56.8616L59.2249 32.0132C59.3616 32.3778 59.4886 32.7293 59.6058 33.0679C59.7229 33.3999 59.8271 33.7189 59.9183 34.0249C60.0094 34.3309 60.081 34.6271 60.1331 34.9136H60.2015C60.2926 34.5881 60.4228 34.1616 60.5921 33.6343C60.7614 33.1004 60.9437 32.5568 61.139 32.0034L63.3753 25.8022H65.1233L60.4651 38.0776C60.2177 38.7352 59.928 39.3081 59.596 39.7964C59.2705 40.2847 58.8733 40.659 58.4046 40.9194C57.9358 41.1864 57.3694 41.3198 56.7054 41.3198C56.3994 41.3198 56.1292 41.3003 55.8948 41.2612C55.6604 41.2287 55.4586 41.1896 55.2894 41.144V39.8452C55.4326 39.8778 55.6051 39.9071 55.8069 39.9331C56.0153 39.9591 56.2301 39.9722 56.4515 39.9722C56.8551 39.9722 57.2034 39.894 57.4964 39.7378C57.7959 39.5881 58.053 39.3667 58.2679 39.0737C58.4827 38.7808 58.6683 38.4325 58.8245 38.0288L59.4104 36.5249L55.1233 25.8022ZM68.2878 34.1812L68.4147 34.4058C68.2976 34.881 68.1478 35.3888 67.9655 35.9292C67.7897 36.4696 67.5944 37.0099 67.3796 37.5503C67.1713 38.0972 66.9597 38.6082 66.7448 39.0835H65.5339C65.6706 38.5627 65.8041 38.0125 65.9343 37.4331C66.0645 36.8602 66.1817 36.2938 66.2858 35.7339C66.3965 35.1675 66.4844 34.6499 66.5495 34.1812H68.2878ZM76.2476 36.5054V22.228H77.9077V36.5054H76.2476ZM91.053 25.6069C92.3226 25.6069 93.2828 25.9194 93.9339 26.5444C94.5849 27.1629 94.9104 28.159 94.9104 29.5327V36.5054H93.3089V29.6401C93.3089 28.7482 93.1038 28.0809 92.6937 27.6382C92.29 27.1955 91.6683 26.9741 90.8284 26.9741C89.6435 26.9741 88.8102 27.3094 88.3284 27.98C87.8466 28.6506 87.6058 29.6239 87.6058 30.8999V36.5054H85.9847V25.8022H87.2933L87.5374 27.3452H87.6253C87.8532 26.9676 88.1429 26.6519 88.4944 26.3979C88.846 26.1375 89.2399 25.9422 89.6761 25.812C90.1123 25.6753 90.5713 25.6069 91.053 25.6069ZM101.971 25.6069C102.883 25.6069 103.664 25.8088 104.315 26.2124C104.966 26.616 105.464 27.1825 105.809 27.9116C106.154 28.6343 106.327 29.4806 106.327 30.4507V31.4565H98.9343C98.9538 32.7131 99.2663 33.6701 99.8718 34.3276C100.477 34.9852 101.33 35.314 102.43 35.314C103.107 35.314 103.706 35.2521 104.227 35.1284C104.748 35.0047 105.288 34.8224 105.848 34.5815V36.0073C105.308 36.2482 104.771 36.424 104.237 36.5347C103.71 36.6453 103.085 36.7007 102.362 36.7007C101.333 36.7007 100.435 36.4924 99.6667 36.0757C98.905 35.6525 98.3125 35.034 97.8894 34.2202C97.4662 33.4064 97.2546 32.4103 97.2546 31.2319C97.2546 30.0796 97.4467 29.0835 97.8308 28.2437C98.2214 27.3973 98.7683 26.7463 99.4714 26.2905C100.181 25.8348 101.014 25.6069 101.971 25.6069ZM101.952 26.9351C101.086 26.9351 100.396 27.2183 99.8815 27.7847C99.3672 28.3511 99.0612 29.1421 98.9636 30.1577H104.628C104.621 29.5197 104.52 28.9598 104.325 28.478C104.136 27.9897 103.846 27.6121 103.456 27.3452C103.065 27.0718 102.564 26.9351 101.952 26.9351ZM112.802 25.6069C113.713 25.6069 114.495 25.8088 115.146 26.2124C115.797 26.616 116.295 27.1825 116.64 27.9116C116.985 28.6343 117.157 29.4806 117.157 30.4507V31.4565H109.765C109.784 32.7131 110.097 33.6701 110.702 34.3276C111.308 34.9852 112.161 35.314 113.261 35.314C113.938 35.314 114.537 35.2521 115.058 35.1284C115.579 35.0047 116.119 34.8224 116.679 34.5815V36.0073C116.138 36.2482 115.601 36.424 115.067 36.5347C114.54 36.6453 113.915 36.7007 113.192 36.7007C112.164 36.7007 111.265 36.4924 110.497 36.0757C109.735 35.6525 109.143 35.034 108.72 34.2202C108.297 33.4064 108.085 32.4103 108.085 31.2319C108.085 30.0796 108.277 29.0835 108.661 28.2437C109.052 27.3973 109.599 26.7463 110.302 26.2905C111.011 25.8348 111.845 25.6069 112.802 25.6069ZM112.782 26.9351C111.916 26.9351 111.226 27.2183 110.712 27.7847C110.198 28.3511 109.892 29.1421 109.794 30.1577H115.458C115.452 29.5197 115.351 28.9598 115.155 28.478C114.967 27.9897 114.677 27.6121 114.286 27.3452C113.896 27.0718 113.394 26.9351 112.782 26.9351ZM123.32 36.7007C121.966 36.7007 120.891 36.2384 120.097 35.314C119.309 34.3895 118.916 33.0158 118.916 31.1929C118.916 29.3504 119.319 27.9604 120.126 27.0229C120.934 26.0789 122.008 25.6069 123.349 25.6069C123.916 25.6069 124.41 25.6818 124.833 25.8315C125.257 25.9813 125.621 26.1831 125.927 26.437C126.233 26.6844 126.49 26.9676 126.699 27.2866H126.816C126.79 27.0848 126.764 26.8081 126.738 26.4565C126.712 26.105 126.699 25.8185 126.699 25.5972V21.3101H128.32V36.5054H127.011L126.767 34.9819H126.699C126.497 35.3009 126.24 35.5907 125.927 35.8511C125.621 36.1115 125.253 36.3198 124.824 36.4761C124.401 36.6258 123.899 36.7007 123.32 36.7007ZM123.574 35.353C124.72 35.353 125.53 35.0275 126.005 34.3765C126.481 33.7254 126.718 32.7586 126.718 31.4761V31.1831C126.718 29.8224 126.49 28.7775 126.035 28.0483C125.585 27.3192 124.765 26.9546 123.574 26.9546C122.578 26.9546 121.832 27.3387 121.337 28.1069C120.843 28.8687 120.595 29.9103 120.595 31.2319C120.595 32.547 120.839 33.5627 121.328 34.2788C121.822 34.995 122.571 35.353 123.574 35.353ZM143.076 33.5757C143.076 34.2593 142.904 34.8354 142.559 35.3042C142.22 35.7664 141.732 36.1147 141.094 36.3491C140.463 36.5835 139.707 36.7007 138.828 36.7007C138.08 36.7007 137.432 36.6421 136.885 36.5249C136.338 36.4077 135.86 36.2417 135.45 36.0269V34.5327C135.886 34.7476 136.407 34.9429 137.012 35.1187C137.617 35.2944 138.236 35.3823 138.867 35.3823C139.792 35.3823 140.463 35.2326 140.879 34.9331C141.296 34.6336 141.504 34.2267 141.504 33.7124C141.504 33.4194 141.42 33.1623 141.25 32.9409C141.088 32.7131 140.811 32.495 140.42 32.2866C140.03 32.0718 139.489 31.8374 138.799 31.5835C138.116 31.3231 137.523 31.0659 137.022 30.812C136.527 30.5516 136.143 30.2358 135.869 29.8647C135.603 29.4937 135.469 29.0119 135.469 28.4194C135.469 27.5145 135.834 26.8211 136.563 26.3394C137.298 25.8511 138.262 25.6069 139.453 25.6069C140.098 25.6069 140.7 25.672 141.26 25.8022C141.826 25.9259 142.354 26.0952 142.842 26.3101L142.295 27.6089C141.853 27.4201 141.38 27.2606 140.879 27.1304C140.378 27.0002 139.867 26.9351 139.346 26.9351C138.597 26.9351 138.021 27.0588 137.617 27.3062C137.22 27.5535 137.022 27.8921 137.022 28.3218C137.022 28.6538 137.113 28.9272 137.295 29.1421C137.484 29.3569 137.783 29.5588 138.194 29.7476C138.604 29.9364 139.144 30.1577 139.815 30.4116C140.485 30.659 141.065 30.9162 141.553 31.1831C142.041 31.4435 142.416 31.7625 142.676 32.1401C142.943 32.5112 143.076 32.9897 143.076 33.5757ZM154.512 31.1343C154.512 32.0132 154.398 32.7977 154.171 33.4878C153.943 34.1779 153.614 34.7606 153.184 35.2358C152.755 35.7111 152.234 36.0757 151.622 36.3296C151.016 36.577 150.329 36.7007 149.561 36.7007C148.845 36.7007 148.188 36.577 147.589 36.3296C146.996 36.0757 146.482 35.7111 146.046 35.2358C145.616 34.7606 145.281 34.1779 145.04 33.4878C144.805 32.7977 144.688 32.0132 144.688 31.1343C144.688 29.9624 144.887 28.9663 145.284 28.146C145.681 27.3192 146.247 26.6909 146.983 26.2612C147.725 25.825 148.607 25.6069 149.63 25.6069C150.606 25.6069 151.459 25.825 152.188 26.2612C152.924 26.6974 153.494 27.3289 153.897 28.1558C154.307 28.9761 154.512 29.9689 154.512 31.1343ZM146.368 31.1343C146.368 31.9937 146.482 32.7391 146.71 33.3706C146.938 34.0021 147.289 34.4904 147.764 34.8354C148.24 35.1805 148.852 35.353 149.6 35.353C150.342 35.353 150.951 35.1805 151.426 34.8354C151.908 34.4904 152.263 34.0021 152.491 33.3706C152.719 32.7391 152.833 31.9937 152.833 31.1343C152.833 30.2814 152.719 29.5457 152.491 28.9272C152.263 28.3022 151.911 27.8205 151.436 27.4819C150.961 27.1434 150.346 26.9741 149.591 26.9741C148.477 26.9741 147.66 27.342 147.139 28.0776C146.625 28.8133 146.368 29.8322 146.368 31.1343ZM168.536 25.6069C169.715 25.6069 170.603 25.9162 171.202 26.5347C171.801 27.1466 172.101 28.133 172.101 29.4937V36.5054H170.499V29.5718C170.499 28.7059 170.31 28.0581 169.933 27.6284C169.562 27.1922 169.008 26.9741 168.273 26.9741C167.237 26.9741 166.485 27.2736 166.017 27.8726C165.548 28.4715 165.314 29.3537 165.314 30.519V36.5054H163.702V29.5718C163.702 28.9924 163.618 28.5106 163.448 28.1265C163.286 27.7424 163.038 27.4559 162.706 27.2671C162.381 27.0718 161.967 26.9741 161.466 26.9741C160.756 26.9741 160.187 27.1206 159.757 27.4136C159.327 27.7065 159.015 28.1427 158.819 28.7222C158.631 29.2951 158.536 30.0015 158.536 30.8413V36.5054H156.915V25.8022H158.224L158.468 27.3159H158.556C158.771 26.9448 159.041 26.6323 159.366 26.3784C159.692 26.1245 160.056 25.9325 160.46 25.8022C160.864 25.672 161.293 25.6069 161.749 25.6069C162.563 25.6069 163.243 25.7599 163.79 26.0659C164.344 26.3654 164.744 26.8244 164.991 27.4429H165.079C165.431 26.8244 165.913 26.3654 166.525 26.0659C167.136 25.7599 167.807 25.6069 168.536 25.6069ZM179.152 25.6069C180.063 25.6069 180.845 25.8088 181.496 26.2124C182.147 26.616 182.645 27.1825 182.99 27.9116C183.335 28.6343 183.507 29.4806 183.507 30.4507V31.4565H176.115C176.134 32.7131 176.447 33.6701 177.052 34.3276C177.658 34.9852 178.511 35.314 179.611 35.314C180.288 35.314 180.887 35.2521 181.408 35.1284C181.929 35.0047 182.469 34.8224 183.029 34.5815V36.0073C182.488 36.2482 181.951 36.424 181.417 36.5347C180.89 36.6453 180.265 36.7007 179.542 36.7007C178.514 36.7007 177.615 36.4924 176.847 36.0757C176.085 35.6525 175.493 35.034 175.07 34.2202C174.647 33.4064 174.435 32.4103 174.435 31.2319C174.435 30.0796 174.627 29.0835 175.011 28.2437C175.402 27.3973 175.949 26.7463 176.652 26.2905C177.361 25.8348 178.195 25.6069 179.152 25.6069ZM179.132 26.9351C178.266 26.9351 177.576 27.2183 177.062 27.7847C176.548 28.3511 176.242 29.1421 176.144 30.1577H181.808C181.802 29.5197 181.701 28.9598 181.505 28.478C181.317 27.9897 181.027 27.6121 180.636 27.3452C180.246 27.0718 179.744 26.9351 179.132 26.9351ZM195.422 27.0718H192.756V36.5054H191.135V27.0718H189.241V26.2905L191.135 25.7534V25.0405C191.135 24.1421 191.269 23.4129 191.535 22.853C191.802 22.2866 192.19 21.87 192.698 21.603C193.205 21.3361 193.824 21.2026 194.553 21.2026C194.963 21.2026 195.338 21.2384 195.676 21.3101C196.021 21.3817 196.324 21.4631 196.584 21.5542L196.164 22.8335C195.943 22.7619 195.692 22.6968 195.412 22.6382C195.139 22.5731 194.859 22.5405 194.573 22.5405C193.954 22.5405 193.495 22.7424 193.196 23.146C192.903 23.5431 192.756 24.1681 192.756 25.021V25.8022H195.422V27.0718ZM199.006 25.8022V36.5054H197.385V25.8022H199.006ZM198.215 21.7983C198.482 21.7983 198.71 21.8862 198.899 22.062C199.094 22.2313 199.192 22.4982 199.192 22.8628C199.192 23.2209 199.094 23.4878 198.899 23.6636C198.71 23.8394 198.482 23.9272 198.215 23.9272C197.935 23.9272 197.701 23.8394 197.512 23.6636C197.33 23.4878 197.239 23.2209 197.239 22.8628C197.239 22.4982 197.33 22.2313 197.512 22.062C197.701 21.8862 197.935 21.7983 198.215 21.7983ZM207.102 25.6069C208.372 25.6069 209.332 25.9194 209.983 26.5444C210.634 27.1629 210.96 28.159 210.96 29.5327V36.5054H209.358V29.6401C209.358 28.7482 209.153 28.0809 208.743 27.6382C208.339 27.1955 207.717 26.9741 206.878 26.9741C205.693 26.9741 204.859 27.3094 204.378 27.98C203.896 28.6506 203.655 29.6239 203.655 30.8999V36.5054H202.034V25.8022H203.342L203.587 27.3452H203.675C203.902 26.9676 204.192 26.6519 204.544 26.3979C204.895 26.1375 205.289 25.9422 205.725 25.812C206.161 25.6753 206.62 25.6069 207.102 25.6069ZM217.903 25.6265C219.179 25.6265 220.127 25.9129 220.745 26.4858C221.364 27.0588 221.673 27.9735 221.673 29.23V36.5054H220.491L220.179 34.9233H220.101C219.801 35.314 219.489 35.6427 219.163 35.9097C218.838 36.1701 218.46 36.3687 218.03 36.5054C217.607 36.6356 217.086 36.7007 216.468 36.7007C215.817 36.7007 215.237 36.5868 214.73 36.3589C214.228 36.131 213.831 35.786 213.538 35.3237C213.252 34.8615 213.108 34.2756 213.108 33.5659C213.108 32.4982 213.532 31.6779 214.378 31.105C215.224 30.5321 216.513 30.2196 218.245 30.1675L220.091 30.0894V29.4351C220.091 28.5106 219.892 27.8628 219.495 27.4917C219.098 27.1206 218.538 26.9351 217.816 26.9351C217.256 26.9351 216.722 27.0164 216.214 27.1792C215.706 27.342 215.224 27.534 214.769 27.7554L214.271 26.5249C214.752 26.2775 215.306 26.0659 215.931 25.8901C216.556 25.7144 217.213 25.6265 217.903 25.6265ZM220.071 31.2319L218.441 31.3003C217.106 31.3524 216.165 31.5705 215.618 31.9546C215.071 32.3387 214.798 32.8823 214.798 33.5854C214.798 34.1974 214.983 34.6499 215.355 34.9429C215.726 35.2358 216.217 35.3823 216.829 35.3823C217.78 35.3823 218.558 35.1187 219.163 34.5913C219.769 34.064 220.071 33.2729 220.071 32.2183V31.2319ZM229.681 25.6069C230.951 25.6069 231.911 25.9194 232.562 26.5444C233.213 27.1629 233.539 28.159 233.539 29.5327V36.5054H231.937V29.6401C231.937 28.7482 231.732 28.0809 231.322 27.6382C230.918 27.1955 230.296 26.9741 229.457 26.9741C228.272 26.9741 227.438 27.3094 226.957 27.98C226.475 28.6506 226.234 29.6239 226.234 30.8999V36.5054H224.613V25.8022H225.921L226.166 27.3452H226.253C226.481 26.9676 226.771 26.6519 227.123 26.3979C227.474 26.1375 227.868 25.9422 228.304 25.812C228.74 25.6753 229.199 25.6069 229.681 25.6069ZM240.766 36.7007C239.802 36.7007 238.952 36.5021 238.217 36.105C237.481 35.7078 236.908 35.1024 236.498 34.2886C236.088 33.4748 235.883 32.4494 235.883 31.2124C235.883 29.9168 236.098 28.8589 236.527 28.0386C236.963 27.2118 237.562 26.5998 238.324 26.2026C239.086 25.8055 239.952 25.6069 240.922 25.6069C241.456 25.6069 241.97 25.6623 242.465 25.7729C242.966 25.8771 243.376 26.0106 243.695 26.1733L243.207 27.5308C242.881 27.4006 242.504 27.2834 242.074 27.1792C241.651 27.075 241.254 27.0229 240.883 27.0229C240.141 27.0229 239.522 27.1825 239.027 27.5015C238.539 27.8205 238.171 28.2892 237.924 28.9077C237.683 29.5262 237.562 30.2879 237.562 31.1929C237.562 32.0588 237.68 32.7977 237.914 33.4097C238.155 34.0216 238.51 34.4904 238.978 34.8159C239.454 35.1349 240.046 35.2944 240.756 35.2944C241.322 35.2944 241.833 35.2358 242.289 35.1187C242.745 34.995 243.158 34.8517 243.529 34.689V36.1343C243.171 36.3166 242.771 36.4565 242.328 36.5542C241.892 36.6519 241.371 36.7007 240.766 36.7007ZM247.289 25.8022V36.5054H245.668V25.8022H247.289ZM246.498 21.7983C246.765 21.7983 246.993 21.8862 247.182 22.062C247.377 22.2313 247.475 22.4982 247.475 22.8628C247.475 23.2209 247.377 23.4878 247.182 23.6636C246.993 23.8394 246.765 23.9272 246.498 23.9272C246.218 23.9272 245.984 23.8394 245.795 23.6636C245.613 23.4878 245.522 23.2209 245.522 22.8628C245.522 22.4982 245.613 22.2313 245.795 22.062C245.984 21.8862 246.218 21.7983 246.498 21.7983ZM254.331 25.6265C255.607 25.6265 256.554 25.9129 257.173 26.4858C257.791 27.0588 258.1 27.9735 258.1 29.23V36.5054H256.919L256.606 34.9233H256.528C256.229 35.314 255.916 35.6427 255.591 35.9097C255.265 36.1701 254.887 36.3687 254.458 36.5054C254.035 36.6356 253.514 36.7007 252.895 36.7007C252.244 36.7007 251.665 36.5868 251.157 36.3589C250.656 36.131 250.258 35.786 249.966 35.3237C249.679 34.8615 249.536 34.2756 249.536 33.5659C249.536 32.4982 249.959 31.6779 250.805 31.105C251.652 30.5321 252.941 30.2196 254.673 30.1675L256.518 30.0894V29.4351C256.518 28.5106 256.32 27.8628 255.923 27.4917C255.525 27.1206 254.966 26.9351 254.243 26.9351C253.683 26.9351 253.149 27.0164 252.641 27.1792C252.133 27.342 251.652 27.534 251.196 27.7554L250.698 26.5249C251.18 26.2775 251.733 26.0659 252.358 25.8901C252.983 25.7144 253.641 25.6265 254.331 25.6265ZM256.499 31.2319L254.868 31.3003C253.533 31.3524 252.592 31.5705 252.046 31.9546C251.499 32.3387 251.225 32.8823 251.225 33.5854C251.225 34.1974 251.411 34.6499 251.782 34.9429C252.153 35.2358 252.645 35.3823 253.257 35.3823C254.207 35.3823 254.985 35.1187 255.591 34.5913C256.196 34.064 256.499 33.2729 256.499 32.2183V31.2319ZM262.671 36.5054H261.04V21.3101H262.671V36.5054ZM272.115 21.3101V25.8511C272.115 26.1115 272.109 26.3752 272.096 26.6421C272.083 26.9025 272.06 27.1434 272.027 27.3647H272.135C272.356 26.9871 272.636 26.6714 272.975 26.4175C273.32 26.1571 273.71 25.9618 274.146 25.8315C274.583 25.6948 275.045 25.6265 275.533 25.6265C276.392 25.6265 277.109 25.7632 277.682 26.0366C278.261 26.3101 278.694 26.7332 278.98 27.3062C279.273 27.8791 279.42 28.6213 279.42 29.5327V36.5054H277.818V29.6401C277.818 28.7482 277.613 28.0809 277.203 27.6382C276.799 27.1955 276.178 26.9741 275.338 26.9741C274.544 26.9741 273.909 27.1271 273.434 27.4331C272.965 27.7326 272.626 28.1753 272.418 28.7612C272.216 29.3472 272.115 30.0633 272.115 30.9097V36.5054H270.494V21.3101H272.115ZM286.481 25.6069C287.392 25.6069 288.173 25.8088 288.825 26.2124C289.476 26.616 289.974 27.1825 290.319 27.9116C290.664 28.6343 290.836 29.4806 290.836 30.4507V31.4565H283.444C283.463 32.7131 283.776 33.6701 284.381 34.3276C284.987 34.9852 285.839 35.314 286.94 35.314C287.617 35.314 288.216 35.2521 288.737 35.1284C289.257 35.0047 289.798 34.8224 290.358 34.5815V36.0073C289.817 36.2482 289.28 36.424 288.746 36.5347C288.219 36.6453 287.594 36.7007 286.871 36.7007C285.843 36.7007 284.944 36.4924 284.176 36.0757C283.414 35.6525 282.822 35.034 282.399 34.2202C281.976 33.4064 281.764 32.4103 281.764 31.2319C281.764 30.0796 281.956 29.0835 282.34 28.2437C282.731 27.3973 283.278 26.7463 283.981 26.2905C284.69 25.8348 285.524 25.6069 286.481 25.6069ZM286.461 26.9351C285.595 26.9351 284.905 27.2183 284.391 27.7847C283.877 28.3511 283.571 29.1421 283.473 30.1577H289.137C289.13 29.5197 289.03 28.9598 288.834 28.478C288.645 27.9897 288.356 27.6121 287.965 27.3452C287.575 27.0718 287.073 26.9351 286.461 26.9351ZM294.821 36.5054H293.19V21.3101H294.821V36.5054ZM302.878 25.6069C304.213 25.6069 305.277 26.0659 306.071 26.9839C306.866 27.9019 307.263 29.2821 307.263 31.1245C307.263 32.342 307.08 33.3641 306.716 34.1909C306.351 35.0177 305.837 35.6427 305.173 36.0659C304.515 36.4891 303.737 36.7007 302.839 36.7007C302.273 36.7007 301.775 36.6258 301.345 36.4761C300.915 36.3263 300.547 36.1245 300.241 35.8706C299.935 35.6167 299.681 35.34 299.48 35.0405H299.362C299.382 35.2944 299.405 35.6004 299.431 35.9585C299.463 36.3166 299.48 36.6291 299.48 36.896V41.2905H297.849V25.8022H299.187L299.401 27.3843H299.48C299.688 27.0588 299.942 26.7625 300.241 26.4956C300.541 26.2222 300.905 26.0073 301.335 25.8511C301.771 25.6883 302.286 25.6069 302.878 25.6069ZM302.595 26.9741C301.853 26.9741 301.254 27.1174 300.798 27.4038C300.349 27.6903 300.02 28.12 299.812 28.6929C299.603 29.2593 299.493 29.9722 299.48 30.8315V31.144C299.48 32.049 299.577 32.814 299.773 33.439C299.974 34.064 300.303 34.5392 300.759 34.8647C301.221 35.1903 301.84 35.353 302.614 35.353C303.278 35.353 303.832 35.174 304.275 34.8159C304.717 34.4578 305.046 33.9598 305.261 33.3218C305.482 32.6772 305.593 31.9383 305.593 31.105C305.593 29.842 305.345 28.8394 304.851 28.0972C304.362 27.3485 303.61 26.9741 302.595 26.9741ZM36.4995 52.6069C36.7144 52.6069 36.939 52.62 37.1733 52.646C37.4077 52.6655 37.616 52.6948 37.7983 52.7339L37.5933 54.2378C37.4175 54.1922 37.2222 54.1564 37.0073 54.1304C36.7925 54.1043 36.5907 54.0913 36.4019 54.0913C35.9722 54.0913 35.5653 54.1792 35.1812 54.355C34.8035 54.5243 34.4715 54.7716 34.1851 55.0972C33.8986 55.4162 33.674 55.8035 33.5112 56.2593C33.3485 56.7085 33.2671 57.2098 33.2671 57.7632V63.5054H31.6362V52.8022H32.9839L33.1597 54.7749H33.228C33.4494 54.3778 33.7163 54.0164 34.0288 53.6909C34.3413 53.3589 34.7026 53.0952 35.1128 52.8999C35.5295 52.7046 35.9917 52.6069 36.4995 52.6069ZM41.0409 52.8022V63.5054H39.4198V52.8022H41.0409ZM40.2499 48.7983C40.5168 48.7983 40.7447 48.8862 40.9335 49.062C41.1288 49.2313 41.2265 49.4982 41.2265 49.8628C41.2265 50.2209 41.1288 50.4878 40.9335 50.6636C40.7447 50.8394 40.5168 50.9272 40.2499 50.9272C39.97 50.9272 39.7356 50.8394 39.5468 50.6636C39.3645 50.4878 39.2733 50.2209 39.2733 49.8628C39.2733 49.4982 39.3645 49.2313 39.5468 49.062C39.7356 48.8862 39.97 48.7983 40.2499 48.7983ZM47.0667 68.3101C45.6604 68.3101 44.5765 68.0464 43.8147 67.519C43.053 66.9982 42.6722 66.2658 42.6722 65.3218C42.6722 64.6512 42.8838 64.0783 43.3069 63.603C43.7366 63.1278 44.3291 62.812 45.0843 62.6558C44.8043 62.5256 44.5634 62.3302 44.3616 62.0698C44.1663 61.8094 44.0687 61.5099 44.0687 61.1714C44.0687 60.7808 44.1761 60.439 44.3909 60.146C44.6123 59.8465 44.9476 59.5601 45.3968 59.2866C44.8369 59.0588 44.3812 58.6746 44.0296 58.1343C43.6845 57.5874 43.512 56.9526 43.512 56.23C43.512 55.4618 43.6715 54.8075 43.9905 54.2671C44.3095 53.7202 44.7718 53.3035 45.3772 53.0171C45.9827 52.7306 46.7151 52.5874 47.5745 52.5874C47.7633 52.5874 47.9521 52.5972 48.1409 52.6167C48.3362 52.6297 48.5218 52.6525 48.6976 52.6851C48.8733 52.7111 49.0263 52.7437 49.1565 52.7827H52.8284V53.8276L50.8558 54.0718C51.0511 54.3257 51.2138 54.6317 51.344 54.9897C51.4743 55.3478 51.5394 55.745 51.5394 56.1812C51.5394 57.2489 51.178 58.0985 50.4554 58.73C49.7327 59.355 48.7399 59.6675 47.4769 59.6675C47.1774 59.6675 46.8714 59.6414 46.5589 59.5894C46.2399 59.7651 45.9957 59.9604 45.8265 60.1753C45.6637 60.3901 45.5823 60.6375 45.5823 60.9175C45.5823 61.1258 45.6442 61.2918 45.7679 61.4155C45.8981 61.5392 46.0836 61.6304 46.3245 61.689C46.5654 61.741 46.8551 61.7671 47.1937 61.7671H49.0784C50.2438 61.7671 51.1357 62.0112 51.7542 62.4995C52.3792 62.9878 52.6917 63.7007 52.6917 64.6382C52.6917 65.8231 52.2099 66.7313 51.2464 67.3628C50.2828 67.9943 48.8896 68.3101 47.0667 68.3101ZM47.1155 67.0405C48.0009 67.0405 48.7334 66.9494 49.3128 66.7671C49.8987 66.5913 50.3349 66.3341 50.6214 65.9956C50.9144 65.6636 51.0608 65.2664 51.0608 64.8042C51.0608 64.3745 50.9632 64.049 50.7679 63.8276C50.5726 63.6128 50.2861 63.4696 49.9085 63.3979C49.5309 63.3198 49.0687 63.2808 48.5218 63.2808H46.6663C46.1845 63.2808 45.7646 63.3556 45.4065 63.5054C45.0485 63.6551 44.7718 63.8765 44.5765 64.1694C44.3877 64.4624 44.2933 64.827 44.2933 65.2632C44.2933 65.8426 44.5374 66.2821 45.0257 66.5815C45.514 66.8875 46.2106 67.0405 47.1155 67.0405ZM47.5354 58.4858C48.3102 58.4858 48.8929 58.2905 49.2835 57.8999C49.6741 57.5093 49.8694 56.9396 49.8694 56.1909C49.8694 55.3901 49.6709 54.7912 49.2737 54.394C48.8766 53.9904 48.2907 53.7886 47.5159 53.7886C46.7737 53.7886 46.2008 53.9969 45.7972 54.4136C45.4 54.8237 45.2015 55.4259 45.2015 56.2202C45.2015 56.9494 45.4033 57.5093 45.8069 57.8999C46.2106 58.2905 46.7868 58.4858 47.5354 58.4858ZM56.1589 48.3101V52.8511C56.1589 53.1115 56.1524 53.3752 56.1394 53.6421C56.1263 53.9025 56.1035 54.1434 56.071 54.3647H56.1784C56.3998 53.9871 56.6797 53.6714 57.0183 53.4175C57.3633 53.1571 57.7539 52.9618 58.1901 52.8315C58.6263 52.6948 59.0886 52.6265 59.5769 52.6265C60.4362 52.6265 61.1524 52.7632 61.7253 53.0366C62.3047 53.3101 62.7377 53.7332 63.0241 54.3062C63.3171 54.8791 63.4636 55.6213 63.4636 56.5327V63.5054H61.862V56.6401C61.862 55.7482 61.6569 55.0809 61.2468 54.6382C60.8431 54.1955 60.2214 53.9741 59.3815 53.9741C58.5873 53.9741 57.9525 54.1271 57.4772 54.4331C57.0085 54.7326 56.67 55.1753 56.4616 55.7612C56.2598 56.3472 56.1589 57.0633 56.1589 57.9097V63.5054H54.5378V48.3101H56.1589ZM69.8605 62.3726C70.1274 62.3726 70.4008 62.3498 70.6808 62.3042C70.9607 62.2586 71.1886 62.2033 71.3644 62.1382V63.3979C71.1756 63.4826 70.9119 63.5542 70.5733 63.6128C70.2413 63.6714 69.9158 63.7007 69.5968 63.7007C69.0304 63.7007 68.516 63.603 68.0538 63.4077C67.5916 63.2059 67.2205 62.8674 66.9405 62.3921C66.6671 61.9168 66.5304 61.2593 66.5304 60.4194V54.0718H65.0069V53.2808L66.5401 52.646L67.1847 50.3218H68.1612V52.8022H71.296V54.0718H68.1612V60.3706C68.1612 61.0412 68.3142 61.5425 68.6202 61.8745C68.9327 62.2065 69.3461 62.3726 69.8605 62.3726ZM82.996 52.6069C84.2655 52.6069 85.2258 52.9194 85.8769 53.5444C86.5279 54.1629 86.8534 55.159 86.8534 56.5327V63.5054H85.2519V56.6401C85.2519 55.7482 85.0468 55.0809 84.6366 54.6382C84.233 54.1955 83.6112 53.9741 82.7714 53.9741C81.5865 53.9741 80.7532 54.3094 80.2714 54.98C79.7896 55.6506 79.5487 56.6239 79.5487 57.8999V63.5054H77.9276V52.8022H79.2362L79.4804 54.3452H79.5683C79.7961 53.9676 80.0858 53.6519 80.4374 53.3979C80.789 53.1375 81.1828 52.9422 81.619 52.812C82.0552 52.6753 82.5142 52.6069 82.996 52.6069ZM99.0218 58.1343C99.0218 59.0132 98.9078 59.7977 98.68 60.4878C98.4521 61.1779 98.1233 61.7606 97.6937 62.2358C97.264 62.7111 96.7431 63.0757 96.1312 63.3296C95.5257 63.577 94.8388 63.7007 94.0706 63.7007C93.3545 63.7007 92.6969 63.577 92.0979 63.3296C91.5055 63.0757 90.9912 62.7111 90.555 62.2358C90.1253 61.7606 89.79 61.1779 89.5491 60.4878C89.3147 59.7977 89.1976 59.0132 89.1976 58.1343C89.1976 56.9624 89.3961 55.9663 89.7933 55.146C90.1904 54.3192 90.7568 53.6909 91.4925 53.2612C92.2347 52.825 93.1168 52.6069 94.139 52.6069C95.1155 52.6069 95.9684 52.825 96.6976 53.2612C97.4332 53.6974 98.0029 54.3289 98.4065 55.1558C98.8167 55.9761 99.0218 56.9689 99.0218 58.1343ZM90.8772 58.1343C90.8772 58.9937 90.9912 59.7391 91.219 60.3706C91.4469 61.0021 91.7985 61.4904 92.2737 61.8354C92.749 62.1805 93.361 62.353 94.1097 62.353C94.8519 62.353 95.4606 62.1805 95.9358 61.8354C96.4176 61.4904 96.7724 61.0021 97.0003 60.3706C97.2282 59.7391 97.3421 58.9937 97.3421 58.1343C97.3421 57.2814 97.2282 56.5457 97.0003 55.9272C96.7724 55.3022 96.4209 54.8205 95.9456 54.4819C95.4703 54.1434 94.8551 53.9741 94.0999 53.9741C92.9866 53.9741 92.1696 54.342 91.6487 55.0776C91.1344 55.8133 90.8772 56.8322 90.8772 58.1343ZM110.135 63.4858L108.231 57.2554C108.147 56.9884 108.065 56.728 107.987 56.4741C107.915 56.2137 107.847 55.9663 107.782 55.7319C107.723 55.491 107.668 55.2697 107.616 55.0679C107.57 54.8595 107.531 54.6805 107.499 54.5308H107.43C107.404 54.6805 107.369 54.8595 107.323 55.0679C107.277 55.2697 107.222 55.491 107.157 55.7319C107.098 55.9728 107.033 56.2267 106.962 56.4937C106.89 56.7541 106.809 57.0177 106.717 57.2847L104.725 63.4858H102.899L99.9499 52.7827H101.63L103.173 58.6909C103.277 59.0815 103.374 59.4689 103.466 59.853C103.563 60.2306 103.645 60.5887 103.71 60.9272C103.781 61.2593 103.833 61.549 103.866 61.7964H103.944C103.983 61.6336 104.025 61.4383 104.071 61.2104C104.123 60.9826 104.178 60.7417 104.237 60.4878C104.302 60.2274 104.37 59.9702 104.442 59.7163C104.514 59.4559 104.585 59.2118 104.657 58.9839L106.63 52.7827H108.378L110.282 58.9741C110.38 59.2866 110.474 59.6121 110.565 59.9507C110.663 60.2892 110.751 60.618 110.829 60.937C110.907 61.2495 110.962 61.5295 110.995 61.7769H111.073C111.099 61.5555 111.148 61.2821 111.219 60.9565C111.291 60.631 111.372 60.2729 111.464 59.8823C111.561 59.4917 111.662 59.0946 111.766 58.6909L113.329 52.7827H114.979L112.02 63.4858H110.135ZM116.288 62.4897C116.288 62.034 116.399 61.7118 116.62 61.5229C116.842 61.3276 117.112 61.23 117.431 61.23C117.763 61.23 118.043 61.3276 118.271 61.5229C118.498 61.7118 118.612 62.034 118.612 62.4897C118.612 62.939 118.498 63.2677 118.271 63.4761C118.043 63.6779 117.763 63.7788 117.431 63.7788C117.112 63.7788 116.842 63.6779 116.62 63.4761C116.399 63.2677 116.288 62.939 116.288 62.4897ZM132.529 50.4878C131.741 50.4878 131.032 50.6245 130.4 50.8979C129.775 51.1649 129.241 51.5555 128.799 52.0698C128.363 52.5776 128.027 53.1929 127.793 53.9155C127.558 54.6382 127.441 55.452 127.441 56.3569C127.441 57.5549 127.627 58.5965 127.998 59.4819C128.376 60.3608 128.935 61.0412 129.678 61.5229C130.426 62.0047 131.361 62.2456 132.48 62.2456C133.118 62.2456 133.717 62.1935 134.277 62.0894C134.844 61.9787 135.394 61.842 135.928 61.6792V63.1245C135.407 63.3198 134.86 63.4631 134.287 63.5542C133.714 63.6519 133.034 63.7007 132.246 63.7007C130.794 63.7007 129.58 63.4012 128.603 62.8022C127.633 62.1968 126.904 61.3439 126.416 60.2437C125.934 59.1434 125.693 57.8446 125.693 56.3472C125.693 55.2664 125.843 54.2801 126.142 53.3882C126.448 52.4897 126.891 51.715 127.471 51.064C128.057 50.4129 128.773 49.9116 129.619 49.5601C130.472 49.202 131.448 49.0229 132.549 49.0229C133.271 49.0229 133.968 49.0946 134.639 49.2378C135.309 49.381 135.915 49.5861 136.455 49.853L135.791 51.2593C135.335 51.0509 134.834 50.8719 134.287 50.7222C133.747 50.5659 133.161 50.4878 132.529 50.4878ZM142.383 52.6265C143.659 52.6265 144.606 52.9129 145.225 53.4858C145.843 54.0588 146.153 54.9735 146.153 56.23V63.5054H144.971L144.658 61.9233H144.58C144.281 62.314 143.968 62.6427 143.643 62.9097C143.317 63.1701 142.94 63.3687 142.51 63.5054C142.087 63.6356 141.566 63.7007 140.948 63.7007C140.297 63.7007 139.717 63.5868 139.209 63.3589C138.708 63.131 138.311 62.786 138.018 62.3237C137.731 61.8615 137.588 61.2756 137.588 60.5659C137.588 59.4982 138.011 58.6779 138.858 58.105C139.704 57.5321 140.993 57.2196 142.725 57.1675L144.571 57.0894V56.4351C144.571 55.5106 144.372 54.8628 143.975 54.4917C143.578 54.1206 143.018 53.9351 142.295 53.9351C141.735 53.9351 141.201 54.0164 140.694 54.1792C140.186 54.342 139.704 54.534 139.248 54.7554L138.75 53.5249C139.232 53.2775 139.785 53.0659 140.41 52.8901C141.035 52.7144 141.693 52.6265 142.383 52.6265ZM144.551 58.2319L142.92 58.3003C141.586 58.3524 140.645 58.5705 140.098 58.9546C139.551 59.3387 139.278 59.8823 139.278 60.5854C139.278 61.1974 139.463 61.6499 139.834 61.9429C140.205 62.2358 140.697 62.3823 141.309 62.3823C142.259 62.3823 143.037 62.1187 143.643 61.5913C144.248 61.064 144.551 60.2729 144.551 59.2183V58.2319ZM154.161 52.6069C155.43 52.6069 156.391 52.9194 157.042 53.5444C157.693 54.1629 158.018 55.159 158.018 56.5327V63.5054H156.417V56.6401C156.417 55.7482 156.212 55.0809 155.801 54.6382C155.398 54.1955 154.776 53.9741 153.936 53.9741C152.751 53.9741 151.918 54.3094 151.436 54.98C150.954 55.6506 150.714 56.6239 150.714 57.8999V63.5054H149.092V52.8022H150.401L150.645 54.3452H150.733C150.961 53.9676 151.251 53.6519 151.602 53.3979C151.954 53.1375 152.348 52.9422 152.784 52.812C153.22 52.6753 153.679 52.6069 154.161 52.6069ZM164.064 52.8022H165.802L168.166 59.0132C168.302 59.3778 168.429 59.7293 168.546 60.0679C168.664 60.3999 168.768 60.7189 168.859 61.0249C168.95 61.3309 169.022 61.6271 169.074 61.9136H169.142C169.233 61.5881 169.363 61.1616 169.533 60.6343C169.702 60.1004 169.884 59.5568 170.08 59.0034L172.316 52.8022H174.064L169.406 65.0776C169.158 65.7352 168.869 66.3081 168.537 66.7964C168.211 67.2847 167.814 67.659 167.345 67.9194C166.876 68.1864 166.31 68.3198 165.646 68.3198C165.34 68.3198 165.07 68.3003 164.835 68.2612C164.601 68.2287 164.399 68.1896 164.23 68.144V66.8452C164.373 66.8778 164.546 66.9071 164.748 66.9331C164.956 66.9591 165.171 66.9722 165.392 66.9722C165.796 66.9722 166.144 66.894 166.437 66.7378C166.736 66.5881 166.994 66.3667 167.208 66.0737C167.423 65.7808 167.609 65.4325 167.765 65.0288L168.351 63.5249L164.064 52.8022ZM184.601 58.1343C184.601 59.0132 184.488 59.7977 184.26 60.4878C184.032 61.1779 183.703 61.7606 183.273 62.2358C182.844 62.7111 182.323 63.0757 181.711 63.3296C181.105 63.577 180.419 63.7007 179.65 63.7007C178.934 63.7007 178.277 63.577 177.678 63.3296C177.085 63.0757 176.571 62.7111 176.135 62.2358C175.705 61.7606 175.37 61.1779 175.129 60.4878C174.894 59.7977 174.777 59.0132 174.777 58.1343C174.777 56.9624 174.976 55.9663 175.373 55.146C175.77 54.3192 176.336 53.6909 177.072 53.2612C177.814 52.825 178.697 52.6069 179.719 52.6069C180.695 52.6069 181.548 52.825 182.277 53.2612C183.013 53.6974 183.583 54.3289 183.986 55.1558C184.396 55.9761 184.601 56.9689 184.601 58.1343ZM176.457 58.1343C176.457 58.9937 176.571 59.7391 176.799 60.3706C177.027 61.0021 177.378 61.4904 177.853 61.8354C178.329 62.1805 178.941 62.353 179.689 62.353C180.432 62.353 181.04 62.1805 181.516 61.8354C181.997 61.4904 182.352 61.0021 182.58 60.3706C182.808 59.7391 182.922 58.9937 182.922 58.1343C182.922 57.2814 182.808 56.5457 182.58 55.9272C182.352 55.3022 182.001 54.8205 181.525 54.4819C181.05 54.1434 180.435 53.9741 179.68 53.9741C178.566 53.9741 177.749 54.342 177.228 55.0776C176.714 55.8133 176.457 56.8322 176.457 58.1343ZM195.842 52.8022V63.5054H194.514L194.28 62.0015H194.192C193.97 62.3726 193.684 62.6851 193.332 62.939C192.981 63.1929 192.584 63.3817 192.141 63.5054C191.705 63.6356 191.239 63.7007 190.744 63.7007C189.898 63.7007 189.188 63.564 188.616 63.2905C188.043 63.0171 187.61 62.5939 187.317 62.021C187.03 61.4481 186.887 60.7124 186.887 59.814V52.8022H188.528V59.6968C188.528 60.5887 188.729 61.256 189.133 61.6987C189.537 62.1349 190.152 62.353 190.979 62.353C191.773 62.353 192.405 62.2033 192.873 61.9038C193.349 61.6043 193.69 61.1649 193.899 60.5854C194.107 59.9995 194.211 59.2834 194.211 58.437V52.8022H195.842ZM205.286 48.3101V52.8511C205.286 53.1115 205.28 53.3752 205.267 53.6421C205.254 53.9025 205.231 54.1434 205.198 54.3647H205.306C205.527 53.9871 205.807 53.6714 206.146 53.4175C206.491 53.1571 206.881 52.9618 207.317 52.8315C207.754 52.6948 208.216 52.6265 208.704 52.6265C209.564 52.6265 210.28 52.7632 210.853 53.0366C211.432 53.3101 211.865 53.7332 212.151 54.3062C212.444 54.8791 212.591 55.6213 212.591 56.5327V63.5054H210.989V56.6401C210.989 55.7482 210.784 55.0809 210.374 54.6382C209.97 54.1955 209.349 53.9741 208.509 53.9741C207.715 53.9741 207.08 54.1271 206.605 54.4331C206.136 54.7326 205.797 55.1753 205.589 55.7612C205.387 56.3472 205.286 57.0633 205.286 57.9097V63.5054H203.665V48.3101H205.286ZM219.652 52.6069C220.563 52.6069 221.345 52.8088 221.996 53.2124C222.647 53.616 223.145 54.1825 223.49 54.9116C223.835 55.6343 224.007 56.4806 224.007 57.4507V58.4565H216.615C216.634 59.7131 216.947 60.6701 217.552 61.3276C218.158 61.9852 219.011 62.314 220.111 62.314C220.788 62.314 221.387 62.2521 221.908 62.1284C222.429 62.0047 222.969 61.8224 223.529 61.5815V63.0073C222.988 63.2482 222.451 63.424 221.917 63.5347C221.39 63.6453 220.765 63.7007 220.042 63.7007C219.014 63.7007 218.115 63.4924 217.347 63.0757C216.585 62.6525 215.993 62.034 215.57 61.2202C215.147 60.4064 214.935 59.4103 214.935 58.2319C214.935 57.0796 215.127 56.0835 215.511 55.2437C215.902 54.3973 216.449 53.7463 217.152 53.2905C217.861 52.8348 218.695 52.6069 219.652 52.6069ZM219.632 53.9351C218.766 53.9351 218.076 54.2183 217.562 54.7847C217.048 55.3511 216.742 56.1421 216.644 57.1577H222.308C222.302 56.5197 222.201 55.9598 222.005 55.478C221.817 54.9897 221.527 54.6121 221.136 54.3452C220.746 54.0718 220.244 53.9351 219.632 53.9351ZM227.992 63.5054H226.361V48.3101H227.992V63.5054ZM236.049 52.6069C237.384 52.6069 238.448 53.0659 239.242 53.9839C240.037 54.9019 240.434 56.2821 240.434 58.1245C240.434 59.342 240.252 60.3641 239.887 61.1909C239.522 62.0177 239.008 62.6427 238.344 63.0659C237.686 63.4891 236.908 63.7007 236.01 63.7007C235.444 63.7007 234.946 63.6258 234.516 63.4761C234.086 63.3263 233.718 63.1245 233.412 62.8706C233.106 62.6167 232.853 62.34 232.651 62.0405H232.533C232.553 62.2944 232.576 62.6004 232.602 62.9585C232.634 63.3166 232.651 63.6291 232.651 63.896V68.2905H231.02V52.8022H232.358L232.573 54.3843H232.651C232.859 54.0588 233.113 53.7625 233.412 53.4956C233.712 53.2222 234.076 53.0073 234.506 52.8511C234.942 52.6883 235.457 52.6069 236.049 52.6069ZM235.766 53.9741C235.024 53.9741 234.425 54.1174 233.969 54.4038C233.52 54.6903 233.191 55.12 232.983 55.6929C232.774 56.2593 232.664 56.9722 232.651 57.8315V58.144C232.651 59.049 232.748 59.814 232.944 60.439C233.145 61.064 233.474 61.5392 233.93 61.8647C234.392 62.1903 235.011 62.353 235.785 62.353C236.45 62.353 237.003 62.174 237.446 61.8159C237.888 61.4578 238.217 60.9598 238.432 60.3218C238.653 59.6772 238.764 58.9383 238.764 58.105C238.764 56.842 238.517 55.8394 238.022 55.0972C237.533 54.3485 236.782 53.9741 235.766 53.9741ZM259.282 52.6069C260.461 52.6069 261.349 52.9162 261.948 53.5347C262.547 54.1466 262.847 55.133 262.847 56.4937V63.5054H261.245V56.5718C261.245 55.7059 261.056 55.0581 260.679 54.6284C260.308 54.1922 259.754 53.9741 259.019 53.9741C257.983 53.9741 257.232 54.2736 256.763 54.8726C256.294 55.4715 256.06 56.3537 256.06 57.519V63.5054H254.448V56.5718C254.448 55.9924 254.364 55.5106 254.194 55.1265C254.032 54.7424 253.784 54.4559 253.452 54.2671C253.127 54.0718 252.713 53.9741 252.212 53.9741C251.502 53.9741 250.933 54.1206 250.503 54.4136C250.073 54.7065 249.761 55.1427 249.566 55.7222C249.377 56.2951 249.282 57.0015 249.282 57.8413V63.5054H247.661V52.8022H248.97L249.214 54.3159H249.302C249.517 53.9448 249.787 53.6323 250.112 53.3784C250.438 53.1245 250.803 52.9325 251.206 52.8022C251.61 52.672 252.039 52.6069 252.495 52.6069C253.309 52.6069 253.989 52.7599 254.536 53.0659C255.09 53.3654 255.49 53.8244 255.737 54.4429H255.825C256.177 53.8244 256.659 53.3654 257.271 53.0659C257.883 52.7599 258.553 52.6069 259.282 52.6069ZM269.898 52.6069C270.809 52.6069 271.591 52.8088 272.242 53.2124C272.893 53.616 273.391 54.1825 273.736 54.9116C274.081 55.6343 274.253 56.4806 274.253 57.4507V58.4565H266.861C266.88 59.7131 267.193 60.6701 267.798 61.3276C268.404 61.9852 269.257 62.314 270.357 62.314C271.034 62.314 271.633 62.2521 272.154 62.1284C272.675 62.0047 273.215 61.8224 273.775 61.5815V63.0073C273.235 63.2482 272.697 63.424 272.164 63.5347C271.636 63.6453 271.011 63.7007 270.289 63.7007C269.26 63.7007 268.361 63.4924 267.593 63.0757C266.832 62.6525 266.239 62.034 265.816 61.2202C265.393 60.4064 265.181 59.4103 265.181 58.2319C265.181 57.0796 265.373 56.0835 265.757 55.2437C266.148 54.3973 266.695 53.7463 267.398 53.2905C268.108 52.8348 268.941 52.6069 269.898 52.6069ZM269.878 53.9351C269.013 53.9351 268.322 54.2183 267.808 54.7847C267.294 55.3511 266.988 56.1421 266.89 57.1577H272.554C272.548 56.5197 272.447 55.9598 272.251 55.478C272.063 54.9897 271.773 54.6121 271.382 54.3452C270.992 54.0718 270.49 53.9351 269.878 53.9351ZM277.711 59.5405V59.0327C277.711 58.5119 277.76 58.0659 277.857 57.6948C277.955 57.3172 278.124 56.9657 278.365 56.6401C278.613 56.3146 278.954 55.9696 279.391 55.605C279.898 55.1818 280.299 54.8237 280.592 54.5308C280.891 54.2313 281.106 53.9318 281.236 53.6323C281.366 53.3328 281.432 52.9715 281.432 52.5483C281.432 51.8713 281.213 51.3537 280.777 50.9956C280.341 50.631 279.726 50.4487 278.932 50.4487C278.287 50.4487 277.714 50.5301 277.213 50.6929C276.711 50.8556 276.23 51.0509 275.767 51.2788L275.201 49.9702C275.735 49.6903 276.314 49.4624 276.939 49.2866C277.564 49.1108 278.261 49.0229 279.029 49.0229C280.286 49.0229 281.259 49.3354 281.949 49.9604C282.639 50.5789 282.984 51.4318 282.984 52.519C282.984 53.1245 282.887 53.6421 282.691 54.0718C282.496 54.495 282.219 54.8856 281.861 55.2437C281.503 55.5952 281.08 55.9696 280.592 56.3667C280.162 56.7313 279.833 57.0535 279.605 57.3335C279.378 57.6069 279.221 57.8901 279.137 58.1831C279.052 58.4696 279.01 58.8146 279.01 59.2183V59.5405H277.711ZM277.281 62.4897C277.281 62.034 277.389 61.7118 277.603 61.5229C277.818 61.3276 278.095 61.23 278.434 61.23C278.753 61.23 279.023 61.3276 279.244 61.5229C279.472 61.7118 279.586 62.034 279.586 62.4897C279.586 62.939 279.472 63.2677 279.244 63.4761C279.023 63.6779 278.753 63.7788 278.434 63.7788C278.095 63.7788 277.818 63.6779 277.603 63.4761C277.389 63.2677 277.281 62.939 277.281 62.4897Z" fill="white"/>
<rect x="29.9272" y="1" width="290.877" height="84" stroke="#C47370" stroke-width="0.805851"/>
<path d="M340.458 20.6526C340.458 9.79879 331.659 1 320.805 1V29.4446H340.458V20.6526Z" fill="#C47370" stroke="#C47370" stroke-width="0.805851"/>
<rect width="19.6526" height="27.1108" transform="matrix(-1 0 0 1 340.458 29.4446)" fill="#C47370" stroke="#C47370" stroke-width="0.805851"/>
<path d="M340.458 65.3474C340.458 76.2012 331.659 85 320.805 85V56.5554H340.458V65.3474Z" fill="#C47370" stroke="#C47370" stroke-width="0.805851"/>
</svg>
