<svg width="341" height="86" viewBox="0 0 341 86" fill="none" xmlns="http://www.w3.org/2000/svg">
<path d="M10.2749 20.6526C10.2749 9.79879 19.0737 1 29.9275 1V29.4446H10.2749V20.6526Z" fill="#C47370" stroke="#C47370" stroke-width="0.805851"/>
<rect x="10.2749" y="29.4446" width="19.6526" height="27.1108" fill="#C47370" stroke="#C47370" stroke-width="0.805851"/>
<path fill-rule="evenodd" clip-rule="evenodd" d="M10.6316 69.0942C10.3975 67.8813 10.2748 66.6286 10.2748 65.3474V56.5554H29.9275V85C25.1684 85 20.8045 83.3084 17.4041 80.4937C14.0117 82.7537 8.57204 84.902 2 83.7071C3.81011 82.9313 10.792 78.2767 10.5334 68.9676C10.5648 69.0108 10.5975 69.053 10.6316 69.0942Z" fill="#C47370"/>
<path d="M10.6316 69.0942L10.321 69.3508L11.0272 69.0178L10.6316 69.0942ZM10.2748 56.5554V56.1525H9.87192V56.5554H10.2748ZM29.9275 56.5554H30.3304V56.1525H29.9275V56.5554ZM29.9275 85V85.4029H30.3304V85H29.9275ZM17.4041 80.4937L17.661 80.1833L17.4301 79.9922L17.1807 80.1584L17.4041 80.4937ZM2 83.7071L1.84128 83.3367L0.610887 83.864L1.92792 84.1035L2 83.7071ZM10.5334 68.9676L10.8592 68.7306L10.0945 67.6791L10.1306 68.9788L10.5334 68.9676ZM9.87192 65.3474C9.87192 66.6544 9.99701 67.9326 10.236 69.1706L11.0272 69.0178C10.7979 67.8299 10.6778 66.6029 10.6778 65.3474H9.87192ZM9.87192 56.5554V65.3474H10.6778V56.5554H9.87192ZM29.9275 56.1525H10.2748V56.9583H29.9275V56.1525ZM30.3304 85V56.5554H29.5246V85H30.3304ZM17.1472 80.8041C20.6171 83.6764 25.0712 85.4029 29.9275 85.4029V84.5971C25.2657 84.5971 20.9918 82.9404 17.661 80.1833L17.1472 80.8041ZM1.92792 84.1035C8.6283 85.3217 14.1727 83.1306 17.6275 80.829L17.1807 80.1584C13.8507 82.3768 8.51578 84.4822 2.07208 83.3106L1.92792 84.1035ZM10.1306 68.9788C10.2568 73.5221 8.61843 76.9224 6.72782 79.2856C4.8293 81.6588 2.68461 82.9753 1.84128 83.3367L2.15872 84.0774C3.1255 83.6631 5.3768 82.2644 7.35708 79.7891C9.34528 77.3038 11.0685 73.7222 10.9361 68.9564L10.1306 68.9788ZM10.9422 68.8375C10.9133 68.8026 10.8857 68.767 10.8592 68.7306L10.2075 69.2046C10.2439 69.2546 10.2817 69.3033 10.321 69.3508L10.9422 68.8375Z" fill="#C47370"/>
<rect x="29.9272" y="1" width="290.877" height="84" fill="#C47370"/>
<path d="M43.0425 36.5054H41.1284L33.3452 24.5132H33.2671C33.2866 24.8322 33.3094 25.1968 33.3354 25.6069C33.3615 26.0106 33.381 26.4435 33.394 26.9058C33.4136 27.3615 33.4233 27.827 33.4233 28.3022V36.5054H31.8804V22.228H33.7847L41.5386 34.1812H41.6069C41.5939 33.9533 41.5776 33.631 41.5581 33.2144C41.5386 32.7912 41.519 32.3387 41.4995 31.8569C41.4865 31.3687 41.48 30.9162 41.48 30.4995V22.228H43.0425V36.5054ZM55.5233 31.1343C55.5233 32.0132 55.4094 32.7977 55.1815 33.4878C54.9537 34.1779 54.6249 34.7606 54.1952 35.2358C53.7655 35.7111 53.2447 36.0757 52.6327 36.3296C52.0272 36.577 51.3404 36.7007 50.5722 36.7007C49.856 36.7007 49.1985 36.577 48.5995 36.3296C48.0071 36.0757 47.4927 35.7111 47.0565 35.2358C46.6269 34.7606 46.2916 34.1779 46.0507 33.4878C45.8163 32.7977 45.6991 32.0132 45.6991 31.1343C45.6991 29.9624 45.8977 28.9663 46.2948 28.146C46.692 27.3192 47.2584 26.6909 47.994 26.2612C48.7362 25.825 49.6184 25.6069 50.6405 25.6069C51.6171 25.6069 52.47 25.825 53.1991 26.2612C53.9348 26.6974 54.5045 27.3289 54.9081 28.1558C55.3183 28.9761 55.5233 29.9689 55.5233 31.1343ZM47.3788 31.1343C47.3788 31.9937 47.4927 32.7391 47.7206 33.3706C47.9485 34.0021 48.3 34.4904 48.7753 34.8354C49.2506 35.1805 49.8625 35.353 50.6112 35.353C51.3534 35.353 51.9621 35.1805 52.4374 34.8354C52.9192 34.4904 53.274 34.0021 53.5019 33.3706C53.7297 32.7391 53.8437 31.9937 53.8437 31.1343C53.8437 30.2814 53.7297 29.5457 53.5019 28.9272C53.274 28.3022 52.9224 27.8205 52.4472 27.4819C51.9719 27.1434 51.3567 26.9741 50.6015 26.9741C49.4882 26.9741 48.6711 27.342 48.1503 28.0776C47.636 28.8133 47.3788 29.8322 47.3788 31.1343ZM69.6452 33.5757C69.6452 34.2593 69.4727 34.8354 69.1276 35.3042C68.7891 35.7664 68.3008 36.1147 67.6628 36.3491C67.0313 36.5835 66.2761 36.7007 65.3972 36.7007C64.6485 36.7007 64.0007 36.6421 63.4538 36.5249C62.9069 36.4077 62.4284 36.2417 62.0183 36.0269V34.5327C62.4545 34.7476 62.9753 34.9429 63.5808 35.1187C64.1862 35.2944 64.8047 35.3823 65.4362 35.3823C66.3607 35.3823 67.0313 35.2326 67.4479 34.9331C67.8646 34.6336 68.0729 34.2267 68.0729 33.7124C68.0729 33.4194 67.9883 33.1623 67.819 32.9409C67.6563 32.7131 67.3796 32.495 66.989 32.2866C66.5983 32.0718 66.058 31.8374 65.3679 31.5835C64.6843 31.3231 64.0918 31.0659 63.5905 30.812C63.0957 30.5516 62.7116 30.2358 62.4382 29.8647C62.1713 29.4937 62.0378 29.0119 62.0378 28.4194C62.0378 27.5145 62.4024 26.8211 63.1315 26.3394C63.8672 25.8511 64.8308 25.6069 66.0222 25.6069C66.6667 25.6069 67.2689 25.672 67.8288 25.8022C68.3952 25.9259 68.9226 26.0952 69.4108 26.3101L68.864 27.6089C68.4213 27.4201 67.9493 27.2606 67.4479 27.1304C66.9466 27.0002 66.4356 26.9351 65.9147 26.9351C65.166 26.9351 64.5899 27.0588 64.1862 27.3062C63.7891 27.5535 63.5905 27.8921 63.5905 28.3218C63.5905 28.6538 63.6817 28.9272 63.864 29.1421C64.0528 29.3569 64.3522 29.5588 64.7624 29.7476C65.1726 29.9364 65.7129 30.1577 66.3835 30.4116C67.0541 30.659 67.6335 30.9162 68.1218 31.1831C68.6101 31.4435 68.9844 31.7625 69.2448 32.1401C69.5118 32.5112 69.6452 32.9897 69.6452 33.5757ZM81.0812 31.1343C81.0812 32.0132 80.9672 32.7977 80.7394 33.4878C80.5115 34.1779 80.1827 34.7606 79.753 35.2358C79.3233 35.7111 78.8025 36.0757 78.1905 36.3296C77.5851 36.577 76.8982 36.7007 76.13 36.7007C75.4138 36.7007 74.7563 36.577 74.1573 36.3296C73.5649 36.0757 73.0506 35.7111 72.6144 35.2358C72.1847 34.7606 71.8494 34.1779 71.6085 33.4878C71.3741 32.7977 71.2569 32.0132 71.2569 31.1343C71.2569 29.9624 71.4555 28.9663 71.8526 28.146C72.2498 27.3192 72.8162 26.6909 73.5519 26.2612C74.294 25.825 75.1762 25.6069 76.1983 25.6069C77.1749 25.6069 78.0278 25.825 78.7569 26.2612C79.4926 26.6974 80.0623 27.3289 80.4659 28.1558C80.8761 28.9761 81.0812 29.9689 81.0812 31.1343ZM72.9366 31.1343C72.9366 31.9937 73.0506 32.7391 73.2784 33.3706C73.5063 34.0021 73.8578 34.4904 74.3331 34.8354C74.8084 35.1805 75.4203 35.353 76.169 35.353C76.9112 35.353 77.52 35.1805 77.9952 34.8354C78.477 34.4904 78.8318 34.0021 79.0597 33.3706C79.2875 32.7391 79.4015 31.9937 79.4015 31.1343C79.4015 30.2814 79.2875 29.5457 79.0597 28.9272C78.8318 28.3022 78.4802 27.8205 78.005 27.4819C77.5297 27.1434 76.9145 26.9741 76.1593 26.9741C75.046 26.9741 74.2289 27.342 73.7081 28.0776C73.1938 28.8133 72.9366 29.8322 72.9366 31.1343ZM88.3472 25.6069C88.562 25.6069 88.7866 25.62 89.021 25.646C89.2554 25.6655 89.4637 25.6948 89.646 25.7339L89.4409 27.2378C89.2651 27.1922 89.0698 27.1564 88.855 27.1304C88.6401 27.1043 88.4383 27.0913 88.2495 27.0913C87.8198 27.0913 87.4129 27.1792 87.0288 27.355C86.6512 27.5243 86.3192 27.7716 86.0327 28.0972C85.7463 28.4162 85.5216 28.8035 85.3589 29.2593C85.1961 29.7085 85.1147 30.2098 85.1147 30.7632V36.5054H83.4839V25.8022H84.8315L85.0073 27.7749H85.0757C85.297 27.3778 85.564 27.0164 85.8765 26.6909C86.189 26.3589 86.5503 26.0952 86.9604 25.8999C87.3771 25.7046 87.8394 25.6069 88.3472 25.6069ZM96.1308 25.6069C96.3456 25.6069 96.5702 25.62 96.8046 25.646C97.039 25.6655 97.2473 25.6948 97.4296 25.7339L97.2245 27.2378C97.0487 27.1922 96.8534 27.1564 96.6386 27.1304C96.4237 27.1043 96.2219 27.0913 96.0331 27.0913C95.6034 27.0913 95.1965 27.1792 94.8124 27.355C94.4348 27.5243 94.1028 27.7716 93.8163 28.0972C93.5298 28.4162 93.3052 28.8035 93.1425 29.2593C92.9797 29.7085 92.8983 30.2098 92.8983 30.7632V36.5054H91.2675V25.8022H92.6151L92.7909 27.7749H92.8593C93.0806 27.3778 93.3476 27.0164 93.6601 26.6909C93.9726 26.3589 94.3339 26.0952 94.744 25.8999C95.1607 25.7046 95.6229 25.6069 96.1308 25.6069ZM97.3616 25.8022H99.0999L101.463 32.0132C101.6 32.3778 101.727 32.7293 101.844 33.0679C101.961 33.3999 102.065 33.7189 102.157 34.0249C102.248 34.3309 102.319 34.6271 102.371 34.9136H102.44C102.531 34.5881 102.661 34.1616 102.83 33.6343C103 33.1004 103.182 32.5568 103.377 32.0034L105.614 25.8022H107.362L102.703 38.0776C102.456 38.7352 102.166 39.3081 101.834 39.7964C101.509 40.2847 101.112 40.659 100.643 40.9194C100.174 41.1864 99.6077 41.3198 98.9436 41.3198C98.6377 41.3198 98.3675 41.3003 98.1331 41.2612C97.8987 41.2287 97.6969 41.1896 97.5276 41.144V39.8452C97.6709 39.8778 97.8434 39.9071 98.0452 39.9331C98.2535 39.9591 98.4684 39.9722 98.6897 39.9722C99.0934 39.9722 99.4417 39.894 99.7347 39.7378C100.034 39.5881 100.291 39.3667 100.506 39.0737C100.721 38.7808 100.907 38.4325 101.063 38.0288L101.649 36.5249L97.3616 25.8022ZM110.526 34.1812L110.653 34.4058C110.536 34.881 110.386 35.3888 110.204 35.9292C110.028 36.4696 109.833 37.0099 109.618 37.5503C109.41 38.0972 109.198 38.6082 108.983 39.0835H107.772C107.909 38.5627 108.042 38.0125 108.173 37.4331C108.303 36.8602 108.42 36.2938 108.524 35.7339C108.635 35.1675 108.723 34.6499 108.788 34.1812H110.526ZM118.486 36.5054V22.228H120.146V36.5054H118.486ZM126.934 41.3101C126.602 41.3101 126.312 41.284 126.065 41.2319C125.817 41.1864 125.603 41.131 125.42 41.0659V39.7476C125.622 39.8127 125.827 39.8615 126.035 39.894C126.244 39.9331 126.478 39.9526 126.739 39.9526C127.181 39.9526 127.539 39.8289 127.813 39.5815C128.086 39.3341 128.223 38.8849 128.223 38.2339V25.8022H129.844V38.1948C129.844 38.8459 129.74 39.4025 129.532 39.8647C129.323 40.3335 129.004 40.6916 128.575 40.939C128.145 41.1864 127.598 41.3101 126.934 41.3101ZM128.076 22.8628C128.076 22.4982 128.168 22.2313 128.35 22.062C128.539 21.8862 128.773 21.7983 129.053 21.7983C129.32 21.7983 129.548 21.8862 129.737 22.062C129.932 22.2313 130.03 22.4982 130.03 22.8628C130.03 23.2209 129.932 23.4878 129.737 23.6636C129.548 23.8394 129.32 23.9272 129.053 23.9272C128.773 23.9272 128.539 23.8394 128.35 23.6636C128.168 23.4878 128.076 23.2209 128.076 22.8628ZM141.719 25.8022V36.5054H140.391L140.157 35.0015H140.069C139.848 35.3726 139.561 35.6851 139.21 35.939C138.858 36.1929 138.461 36.3817 138.018 36.5054C137.582 36.6356 137.117 36.7007 136.622 36.7007C135.775 36.7007 135.066 36.564 134.493 36.2905C133.92 36.0171 133.487 35.5939 133.194 35.021C132.908 34.4481 132.764 33.7124 132.764 32.814V25.8022H134.405V32.6968C134.405 33.5887 134.607 34.256 135.01 34.6987C135.414 35.1349 136.029 35.353 136.856 35.353C137.65 35.353 138.282 35.2033 138.751 34.9038C139.226 34.6043 139.568 34.1649 139.776 33.5854C139.984 32.9995 140.089 32.2834 140.089 31.437V25.8022H141.719ZM151.671 33.5757C151.671 34.2593 151.498 34.8354 151.153 35.3042C150.815 35.7664 150.327 36.1147 149.689 36.3491C149.057 36.5835 148.302 36.7007 147.423 36.7007C146.674 36.7007 146.026 36.6421 145.48 36.5249C144.933 36.4077 144.454 36.2417 144.044 36.0269V34.5327C144.48 34.7476 145.001 34.9429 145.607 35.1187C146.212 35.2944 146.831 35.3823 147.462 35.3823C148.386 35.3823 149.057 35.2326 149.474 34.9331C149.89 34.6336 150.099 34.2267 150.099 33.7124C150.099 33.4194 150.014 33.1623 149.845 32.9409C149.682 32.7131 149.405 32.495 149.015 32.2866C148.624 32.0718 148.084 31.8374 147.394 31.5835C146.71 31.3231 146.118 31.0659 145.616 30.812C145.122 30.5516 144.737 30.2358 144.464 29.8647C144.197 29.4937 144.064 29.0119 144.064 28.4194C144.064 27.5145 144.428 26.8211 145.157 26.3394C145.893 25.8511 146.857 25.6069 148.048 25.6069C148.692 25.6069 149.295 25.672 149.855 25.8022C150.421 25.9259 150.948 26.0952 151.437 26.3101L150.89 27.6089C150.447 27.4201 149.975 27.2606 149.474 27.1304C148.972 27.0002 148.461 26.9351 147.941 26.9351C147.192 26.9351 146.616 27.0588 146.212 27.3062C145.815 27.5535 145.616 27.8921 145.616 28.3218C145.616 28.6538 145.707 28.9272 145.89 29.1421C146.079 29.3569 146.378 29.5588 146.788 29.7476C147.198 29.9364 147.739 30.1577 148.409 30.4116C149.08 30.659 149.659 30.9162 150.148 31.1831C150.636 31.4435 151.01 31.7625 151.271 32.1401C151.538 32.5112 151.671 32.9897 151.671 33.5757ZM157.335 35.3726C157.602 35.3726 157.876 35.3498 158.156 35.3042C158.436 35.2586 158.664 35.2033 158.839 35.1382V36.3979C158.651 36.4826 158.387 36.5542 158.048 36.6128C157.716 36.6714 157.391 36.7007 157.072 36.7007C156.505 36.7007 155.991 36.603 155.529 36.4077C155.067 36.2059 154.695 35.8674 154.416 35.3921C154.142 34.9168 154.005 34.2593 154.005 33.4194V27.0718H152.482V26.2808L154.015 25.646L154.66 23.3218H155.636V25.8022H158.771V27.0718H155.636V33.3706C155.636 34.0412 155.789 34.5425 156.095 34.8745C156.408 35.2065 156.821 35.3726 157.335 35.3726ZM170.266 25.6069C170.481 25.6069 170.705 25.62 170.94 25.646C171.174 25.6655 171.382 25.6948 171.565 25.7339L171.36 27.2378C171.184 27.1922 170.989 27.1564 170.774 27.1304C170.559 27.1043 170.357 27.0913 170.168 27.0913C169.739 27.0913 169.332 27.1792 168.948 27.355C168.57 27.5243 168.238 27.7716 167.951 28.0972C167.665 28.4162 167.44 28.8035 167.278 29.2593C167.115 29.7085 167.033 30.2098 167.033 30.7632V36.5054H165.403V25.8022H166.75L166.926 27.7749H166.994C167.216 27.3778 167.483 27.0164 167.795 26.6909C168.108 26.3589 168.469 26.0952 168.879 25.8999C169.296 25.7046 169.758 25.6069 170.266 25.6069ZM177.307 25.6069C178.219 25.6069 179 25.8088 179.651 26.2124C180.302 26.616 180.8 27.1825 181.145 27.9116C181.49 28.6343 181.663 29.4806 181.663 30.4507V31.4565H174.27C174.29 32.7131 174.602 33.6701 175.208 34.3276C175.813 34.9852 176.666 35.314 177.766 35.314C178.443 35.314 179.042 35.2521 179.563 35.1284C180.084 35.0047 180.624 34.8224 181.184 34.5815V36.0073C180.644 36.2482 180.107 36.424 179.573 36.5347C179.046 36.6453 178.421 36.7007 177.698 36.7007C176.669 36.7007 175.771 36.4924 175.003 36.0757C174.241 35.6525 173.648 35.034 173.225 34.2202C172.802 33.4064 172.591 32.4103 172.591 31.2319C172.591 30.0796 172.783 29.0835 173.167 28.2437C173.557 27.3973 174.104 26.7463 174.807 26.2905C175.517 25.8348 176.35 25.6069 177.307 25.6069ZM177.288 26.9351C176.422 26.9351 175.732 27.2183 175.217 27.7847C174.703 28.3511 174.397 29.1421 174.3 30.1577H179.964C179.957 29.5197 179.856 28.9598 179.661 28.478C179.472 27.9897 179.182 27.6121 178.792 27.3452C178.401 27.0718 177.9 26.9351 177.288 26.9351ZM188.021 25.6265C189.297 25.6265 190.244 25.9129 190.862 26.4858C191.481 27.0588 191.79 27.9735 191.79 29.23V36.5054H190.608L190.296 34.9233H190.218C189.918 35.314 189.606 35.6427 189.28 35.9097C188.955 36.1701 188.577 36.3687 188.148 36.5054C187.724 36.6356 187.204 36.7007 186.585 36.7007C185.934 36.7007 185.355 36.5868 184.847 36.3589C184.345 36.131 183.948 35.786 183.655 35.3237C183.369 34.8615 183.226 34.2756 183.226 33.5659C183.226 32.4982 183.649 31.6779 184.495 31.105C185.342 30.5321 186.631 30.2196 188.362 30.1675L190.208 30.0894V29.4351C190.208 28.5106 190.01 27.8628 189.612 27.4917C189.215 27.1206 188.655 26.9351 187.933 26.9351C187.373 26.9351 186.839 27.0164 186.331 27.1792C185.823 27.342 185.342 27.534 184.886 27.7554L184.388 26.5249C184.87 26.2775 185.423 26.0659 186.048 25.8901C186.673 25.7144 187.33 25.6265 188.021 25.6265ZM190.189 31.2319L188.558 31.3003C187.223 31.3524 186.282 31.5705 185.735 31.9546C185.189 32.3387 184.915 32.8823 184.915 33.5854C184.915 34.1974 185.101 34.6499 185.472 34.9429C185.843 35.2358 186.334 35.3823 186.946 35.3823C187.897 35.3823 188.675 35.1187 189.28 34.5913C189.886 34.064 190.189 33.2729 190.189 32.2183V31.2319ZM196.361 36.5054H194.73V21.3101H196.361V36.5054ZM201.019 36.5054H199.389V21.3101H201.019V36.5054ZM202.358 25.8022H204.096L206.459 32.0132C206.596 32.3778 206.723 32.7293 206.84 33.0679C206.957 33.3999 207.061 33.7189 207.153 34.0249C207.244 34.3309 207.315 34.6271 207.367 34.9136H207.436C207.527 34.5881 207.657 34.1616 207.826 33.6343C207.996 33.1004 208.178 32.5568 208.373 32.0034L210.61 25.8022H212.358L207.7 38.0776C207.452 38.7352 207.162 39.3081 206.83 39.7964C206.505 40.2847 206.108 40.659 205.639 40.9194C205.17 41.1864 204.604 41.3198 203.94 41.3198C203.634 41.3198 203.364 41.3003 203.129 41.2612C202.895 41.2287 202.693 41.1896 202.524 41.144V39.8452C202.667 39.8778 202.839 39.9071 203.041 39.9331C203.25 39.9591 203.464 39.9722 203.686 39.9722C204.089 39.9722 204.438 39.894 204.731 39.7378C205.03 39.5881 205.287 39.3667 205.502 39.0737C205.717 38.7808 205.903 38.4325 206.059 38.0288L206.645 36.5249L202.358 25.8022ZM223.53 25.6069C224.8 25.6069 225.76 25.9194 226.411 26.5444C227.062 27.1629 227.388 28.159 227.388 29.5327V36.5054H225.786V29.6401C225.786 28.7482 225.581 28.0809 225.171 27.6382C224.767 27.1955 224.146 26.9741 223.306 26.9741C222.121 26.9741 221.288 27.3094 220.806 27.98C220.324 28.6506 220.083 29.6239 220.083 30.8999V36.5054H218.462V25.8022H219.771L220.015 27.3452H220.103C220.33 26.9676 220.62 26.6519 220.972 26.3979C221.323 26.1375 221.717 25.9422 222.153 25.812C222.59 25.6753 223.049 25.6069 223.53 25.6069ZM234.449 25.6069C235.36 25.6069 236.141 25.8088 236.792 26.2124C237.444 26.616 237.942 27.1825 238.287 27.9116C238.632 28.6343 238.804 29.4806 238.804 30.4507V31.4565H231.412C231.431 32.7131 231.744 33.6701 232.349 34.3276C232.955 34.9852 233.807 35.314 234.908 35.314C235.585 35.314 236.184 35.2521 236.705 35.1284C237.225 35.0047 237.766 34.8224 238.326 34.5815V36.0073C237.785 36.2482 237.248 36.424 236.714 36.5347C236.187 36.6453 235.562 36.7007 234.839 36.7007C233.811 36.7007 232.912 36.4924 232.144 36.0757C231.382 35.6525 230.79 35.034 230.367 34.2202C229.944 33.4064 229.732 32.4103 229.732 31.2319C229.732 30.0796 229.924 29.0835 230.308 28.2437C230.699 27.3973 231.246 26.7463 231.949 26.2905C232.658 25.8348 233.492 25.6069 234.449 25.6069ZM234.429 26.9351C233.563 26.9351 232.873 27.2183 232.359 27.7847C231.845 28.3511 231.539 29.1421 231.441 30.1577H237.105C237.098 29.5197 236.998 28.9598 236.802 28.478C236.613 27.9897 236.324 27.6121 235.933 27.3452C235.542 27.0718 235.041 26.9351 234.429 26.9351ZM245.279 25.6069C246.191 25.6069 246.972 25.8088 247.623 26.2124C248.274 26.616 248.772 27.1825 249.117 27.9116C249.462 28.6343 249.635 29.4806 249.635 30.4507V31.4565H242.242C242.262 32.7131 242.574 33.6701 243.18 34.3276C243.785 34.9852 244.638 35.314 245.738 35.314C246.415 35.314 247.014 35.2521 247.535 35.1284C248.056 35.0047 248.596 34.8224 249.156 34.5815V36.0073C248.616 36.2482 248.079 36.424 247.545 36.5347C247.017 36.6453 246.392 36.7007 245.67 36.7007C244.641 36.7007 243.743 36.4924 242.975 36.0757C242.213 35.6525 241.62 35.034 241.197 34.2202C240.774 33.4064 240.562 32.4103 240.562 31.2319C240.562 30.0796 240.754 29.0835 241.139 28.2437C241.529 27.3973 242.076 26.7463 242.779 26.2905C243.489 25.8348 244.322 25.6069 245.279 25.6069ZM245.26 26.9351C244.394 26.9351 243.704 27.2183 243.189 27.7847C242.675 28.3511 242.369 29.1421 242.271 30.1577H247.935C247.929 29.5197 247.828 28.9598 247.633 28.478C247.444 27.9897 247.154 27.6121 246.764 27.3452C246.373 27.0718 245.872 26.9351 245.26 26.9351ZM255.797 36.7007C254.443 36.7007 253.369 36.2384 252.575 35.314C251.787 34.3895 251.393 33.0158 251.393 31.1929C251.393 29.3504 251.797 27.9604 252.604 27.0229C253.411 26.0789 254.485 25.6069 255.826 25.6069C256.393 25.6069 256.888 25.6818 257.311 25.8315C257.734 25.9813 258.099 26.1831 258.405 26.437C258.711 26.6844 258.968 26.9676 259.176 27.2866H259.293C259.267 27.0848 259.241 26.8081 259.215 26.4565C259.189 26.105 259.176 25.8185 259.176 25.5972V21.3101H260.797V36.5054H259.489L259.244 34.9819H259.176C258.974 35.3009 258.717 35.5907 258.405 35.8511C258.099 36.1115 257.731 36.3198 257.301 36.4761C256.878 36.6258 256.377 36.7007 255.797 36.7007ZM256.051 35.353C257.197 35.353 258.007 35.0275 258.483 34.3765C258.958 33.7254 259.196 32.7586 259.196 31.4761V31.1831C259.196 29.8224 258.968 28.7775 258.512 28.0483C258.063 27.3192 257.242 26.9546 256.051 26.9546C255.055 26.9546 254.31 27.3387 253.815 28.1069C253.32 28.8687 253.073 29.9103 253.073 31.2319C253.073 32.547 253.317 33.5627 253.805 34.2788C254.3 34.995 255.048 35.353 256.051 35.353ZM43.2573 52.6069C44.4357 52.6069 45.3244 52.9162 45.9233 53.5347C46.5223 54.1466 46.8218 55.133 46.8218 56.4937V63.5054H45.2202V56.5718C45.2202 55.7059 45.0314 55.0581 44.6538 54.6284C44.2827 54.1922 43.7293 53.9741 42.9937 53.9741C41.9585 53.9741 41.2065 54.2736 40.7378 54.8726C40.269 55.4715 40.0347 56.3537 40.0347 57.519V63.5054H38.4233V56.5718C38.4233 55.9924 38.3387 55.5106 38.1694 55.1265C38.0067 54.7424 37.7593 54.4559 37.4272 54.2671C37.1017 54.0718 36.6883 53.9741 36.187 53.9741C35.4774 53.9741 34.9077 54.1206 34.478 54.4136C34.0483 54.7065 33.7358 55.1427 33.5405 55.7222C33.3517 56.2951 33.2573 57.0015 33.2573 57.8413V63.5054H31.6362V52.8022H32.9448L33.189 54.3159H33.2769C33.4917 53.9448 33.7619 53.6323 34.0874 53.3784C34.4129 53.1245 34.7775 52.9325 35.1812 52.8022C35.5848 52.672 36.0145 52.6069 36.4702 52.6069C37.284 52.6069 37.9644 52.7599 38.5112 53.0659C39.0646 53.3654 39.465 53.8244 39.7124 54.4429H39.8003C40.1519 53.8244 40.6336 53.3654 41.2456 53.0659C41.8576 52.7599 42.5282 52.6069 43.2573 52.6069ZM58.9804 58.1343C58.9804 59.0132 58.8664 59.7977 58.6386 60.4878C58.4107 61.1779 58.0819 61.7606 57.6522 62.2358C57.2226 62.7111 56.7017 63.0757 56.0897 63.3296C55.4843 63.577 54.7974 63.7007 54.0292 63.7007C53.3131 63.7007 52.6555 63.577 52.0565 63.3296C51.4641 63.0757 50.9498 62.7111 50.5136 62.2358C50.0839 61.7606 49.7486 61.1779 49.5077 60.4878C49.2733 59.7977 49.1562 59.0132 49.1562 58.1343C49.1562 56.9624 49.3547 55.9663 49.7519 55.146C50.149 54.3192 50.7154 53.6909 51.4511 53.2612C52.1933 52.825 53.0754 52.6069 54.0976 52.6069C55.0741 52.6069 55.927 52.825 56.6562 53.2612C57.3918 53.6974 57.9615 54.3289 58.3651 55.1558C58.7753 55.9761 58.9804 56.9689 58.9804 58.1343ZM50.8358 58.1343C50.8358 58.9937 50.9498 59.7391 51.1776 60.3706C51.4055 61.0021 51.7571 61.4904 52.2323 61.8354C52.7076 62.1805 53.3196 62.353 54.0683 62.353C54.8104 62.353 55.4192 62.1805 55.8944 61.8354C56.3762 61.4904 56.731 61.0021 56.9589 60.3706C57.1868 59.7391 57.3007 58.9937 57.3007 58.1343C57.3007 57.2814 57.1868 56.5457 56.9589 55.9272C56.731 55.3022 56.3795 54.8205 55.9042 54.4819C55.4289 54.1434 54.8137 53.9741 54.0585 53.9741C52.9452 53.9741 52.1282 54.342 51.6073 55.0776C51.093 55.8133 50.8358 56.8322 50.8358 58.1343ZM66.4515 52.6069C67.721 52.6069 68.6813 52.9194 69.3323 53.5444C69.9834 54.1629 70.3089 55.159 70.3089 56.5327V63.5054H68.7073V56.6401C68.7073 55.7482 68.5022 55.0809 68.0921 54.6382C67.6884 54.1955 67.0667 53.9741 66.2269 53.9741C65.042 53.9741 64.2086 54.3094 63.7269 54.98C63.2451 55.6506 63.0042 56.6239 63.0042 57.8999V63.5054H61.3831V52.8022H62.6917L62.9358 54.3452H63.0237C63.2516 53.9676 63.5413 53.6519 63.8929 53.3979C64.2444 53.1375 64.6383 52.9422 65.0745 52.812C65.5107 52.6753 65.9697 52.6069 66.4515 52.6069ZM77.3698 52.6069C78.2813 52.6069 79.0625 52.8088 79.7136 53.2124C80.3646 53.616 80.8627 54.1825 81.2077 54.9116C81.5528 55.6343 81.7253 56.4806 81.7253 57.4507V58.4565H74.3327C74.3522 59.7131 74.6647 60.6701 75.2702 61.3276C75.8757 61.9852 76.7285 62.314 77.8288 62.314C78.5059 62.314 79.1048 62.2521 79.6257 62.1284C80.1465 62.0047 80.6869 61.8224 81.2468 61.5815V63.0073C80.7064 63.2482 80.1693 63.424 79.6354 63.5347C79.1081 63.6453 78.4831 63.7007 77.7604 63.7007C76.7318 63.7007 75.8334 63.4924 75.0651 63.0757C74.3034 62.6525 73.711 62.034 73.2878 61.2202C72.8646 60.4064 72.653 59.4103 72.653 58.2319C72.653 57.0796 72.8451 56.0835 73.2292 55.2437C73.6198 54.3973 74.1667 53.7463 74.8698 53.2905C75.5795 52.8348 76.4128 52.6069 77.3698 52.6069ZM77.3503 53.9351C76.4844 53.9351 75.7943 54.2183 75.28 54.7847C74.7657 55.3511 74.4597 56.1421 74.362 57.1577H80.0261C80.0196 56.5197 79.9187 55.9598 79.7233 55.478C79.5345 54.9897 79.2448 54.6121 78.8542 54.3452C78.4636 54.0718 77.9623 53.9351 77.3503 53.9351ZM82.3897 52.8022H84.128L86.4913 59.0132C86.628 59.3778 86.755 59.7293 86.8722 60.0679C86.9894 60.3999 87.0935 60.7189 87.1847 61.0249C87.2758 61.3309 87.3474 61.6271 87.3995 61.9136H87.4679C87.559 61.5881 87.6892 61.1616 87.8585 60.6343C88.0278 60.1004 88.2101 59.5568 88.4054 59.0034L90.6417 52.8022H92.3897L87.7315 65.0776C87.4841 65.7352 87.1944 66.3081 86.8624 66.7964C86.5369 67.2847 86.1397 67.659 85.671 67.9194C85.2022 68.1864 84.6358 68.3198 83.9718 68.3198C83.6658 68.3198 83.3956 68.3003 83.1612 68.2612C82.9269 68.2287 82.725 68.1896 82.5558 68.144V66.8452C82.699 66.8778 82.8715 66.9071 83.0733 66.9331C83.2817 66.9591 83.4965 66.9722 83.7179 66.9722C84.1215 66.9722 84.4698 66.894 84.7628 66.7378C85.0623 66.5881 85.3194 66.3667 85.5343 66.0737C85.7491 65.7808 85.9347 65.4325 86.0909 65.0288L86.6769 63.5249L82.3897 52.8022ZM103.26 54.0718H100.594V63.5054H98.9726V54.0718H97.078V53.2905L98.9726 52.7534V52.0405C98.9726 51.1421 99.106 50.4129 99.3729 49.853C99.6399 49.2866 100.027 48.87 100.535 48.603C101.043 48.3361 101.661 48.2026 102.391 48.2026C102.801 48.2026 103.175 48.2384 103.514 48.3101C103.859 48.3817 104.161 48.4631 104.422 48.5542L104.002 49.8335C103.78 49.7619 103.53 49.6968 103.25 49.6382C102.976 49.5731 102.697 49.5405 102.41 49.5405C101.792 49.5405 101.333 49.7424 101.033 50.146C100.74 50.5431 100.594 51.1681 100.594 52.021V52.8022H103.26V54.0718ZM114.061 58.1343C114.061 59.0132 113.947 59.7977 113.719 60.4878C113.491 61.1779 113.162 61.7606 112.733 62.2358C112.303 62.7111 111.782 63.0757 111.17 63.3296C110.565 63.577 109.878 63.7007 109.11 63.7007C108.394 63.7007 107.736 63.577 107.137 63.3296C106.545 63.0757 106.03 62.7111 105.594 62.2358C105.164 61.7606 104.829 61.1779 104.588 60.4878C104.354 59.7977 104.237 59.0132 104.237 58.1343C104.237 56.9624 104.435 55.9663 104.832 55.146C105.229 54.3192 105.796 53.6909 106.532 53.2612C107.274 52.825 108.156 52.6069 109.178 52.6069C110.155 52.6069 111.007 52.825 111.737 53.2612C112.472 53.6974 113.042 54.3289 113.446 55.1558C113.856 55.9761 114.061 56.9689 114.061 58.1343ZM105.916 58.1343C105.916 58.9937 106.03 59.7391 106.258 60.3706C106.486 61.0021 106.838 61.4904 107.313 61.8354C107.788 62.1805 108.4 62.353 109.149 62.353C109.891 62.353 110.5 62.1805 110.975 61.8354C111.457 61.4904 111.811 61.0021 112.039 60.3706C112.267 59.7391 112.381 58.9937 112.381 58.1343C112.381 57.2814 112.267 56.5457 112.039 55.9272C111.811 55.3022 111.46 54.8205 110.985 54.4819C110.509 54.1434 109.894 53.9741 109.139 53.9741C108.026 53.9741 107.209 54.342 106.688 55.0776C106.173 55.8133 105.916 56.8322 105.916 58.1343ZM121.327 52.6069C121.542 52.6069 121.766 52.62 122.001 52.646C122.235 52.6655 122.443 52.6948 122.626 52.7339L122.421 54.2378C122.245 54.1922 122.05 54.1564 121.835 54.1304C121.62 54.1043 121.418 54.0913 121.229 54.0913C120.8 54.0913 120.393 54.1792 120.008 54.355C119.631 54.5243 119.299 54.7716 119.012 55.0972C118.726 55.4162 118.501 55.8035 118.339 56.2593C118.176 56.7085 118.094 57.2098 118.094 57.7632V63.5054H116.464V52.8022H117.811L117.987 54.7749H118.055C118.277 54.3778 118.544 54.0164 118.856 53.6909C119.169 53.3589 119.53 53.0952 119.94 52.8999C120.357 52.7046 120.819 52.6069 121.327 52.6069ZM133.808 54.0718H131.142V63.5054H129.521V54.0718H127.626V53.2905L129.521 52.7534V52.0405C129.521 51.1421 129.654 50.4129 129.921 49.853C130.188 49.2866 130.576 48.87 131.083 48.603C131.591 48.3361 132.21 48.2026 132.939 48.2026C133.349 48.2026 133.723 48.2384 134.062 48.3101C134.407 48.3817 134.71 48.4631 134.97 48.5542L134.55 49.8335C134.329 49.7619 134.078 49.6968 133.798 49.6382C133.525 49.5731 133.245 49.5405 132.958 49.5405C132.34 49.5405 131.881 49.7424 131.582 50.146C131.289 50.5431 131.142 51.1681 131.142 52.021V52.8022H133.808V54.0718ZM144.609 58.1343C144.609 59.0132 144.495 59.7977 144.267 60.4878C144.04 61.1779 143.711 61.7606 143.281 62.2358C142.851 62.7111 142.331 63.0757 141.719 63.3296C141.113 63.577 140.426 63.7007 139.658 63.7007C138.942 63.7007 138.284 63.577 137.685 63.3296C137.093 63.0757 136.579 62.7111 136.142 62.2358C135.713 61.7606 135.378 61.1779 135.137 60.4878C134.902 59.7977 134.785 59.0132 134.785 58.1343C134.785 56.9624 134.984 55.9663 135.381 55.146C135.778 54.3192 136.344 53.6909 137.08 53.2612C137.822 52.825 138.704 52.6069 139.726 52.6069C140.703 52.6069 141.556 52.825 142.285 53.2612C143.021 53.6974 143.59 54.3289 143.994 55.1558C144.404 55.9761 144.609 56.9689 144.609 58.1343ZM136.465 58.1343C136.465 58.9937 136.579 59.7391 136.807 60.3706C137.034 61.0021 137.386 61.4904 137.861 61.8354C138.336 62.1805 138.948 62.353 139.697 62.353C140.439 62.353 141.048 62.1805 141.523 61.8354C142.005 61.4904 142.36 61.0021 142.588 60.3706C142.816 59.7391 142.93 58.9937 142.93 58.1343C142.93 57.2814 142.816 56.5457 142.588 55.9272C142.36 55.3022 142.008 54.8205 141.533 54.4819C141.058 54.1434 140.443 53.9741 139.687 53.9741C138.574 53.9741 137.757 54.342 137.236 55.0776C136.722 55.8133 136.465 56.8322 136.465 58.1343ZM156.241 58.1343C156.241 59.0132 156.127 59.7977 155.899 60.4878C155.671 61.1779 155.342 61.7606 154.912 62.2358C154.483 62.7111 153.962 63.0757 153.35 63.3296C152.744 63.577 152.058 63.7007 151.289 63.7007C150.573 63.7007 149.916 63.577 149.317 63.3296C148.724 63.0757 148.21 62.7111 147.774 62.2358C147.344 61.7606 147.009 61.1779 146.768 60.4878C146.533 59.7977 146.416 59.0132 146.416 58.1343C146.416 56.9624 146.615 55.9663 147.012 55.146C147.409 54.3192 147.976 53.6909 148.711 53.2612C149.453 52.825 150.336 52.6069 151.358 52.6069C152.334 52.6069 153.187 52.825 153.916 53.2612C154.652 53.6974 155.222 54.3289 155.625 55.1558C156.035 55.9761 156.241 56.9689 156.241 58.1343ZM148.096 58.1343C148.096 58.9937 148.21 59.7391 148.438 60.3706C148.666 61.0021 149.017 61.4904 149.492 61.8354C149.968 62.1805 150.58 62.353 151.328 62.353C152.071 62.353 152.679 62.1805 153.155 61.8354C153.636 61.4904 153.991 61.0021 154.219 60.3706C154.447 59.7391 154.561 58.9937 154.561 58.1343C154.561 57.2814 154.447 56.5457 154.219 55.9272C153.991 55.3022 153.64 54.8205 153.164 54.4819C152.689 54.1434 152.074 53.9741 151.319 53.9741C150.205 53.9741 149.388 54.342 148.867 55.0776C148.353 55.8133 148.096 56.8322 148.096 58.1343ZM162.452 63.7007C161.098 63.7007 160.023 63.2384 159.229 62.314C158.441 61.3895 158.048 60.0158 158.048 58.1929C158.048 56.3504 158.451 54.9604 159.258 54.0229C160.066 53.0789 161.14 52.6069 162.481 52.6069C163.048 52.6069 163.542 52.6818 163.966 52.8315C164.389 52.9813 164.753 53.1831 165.059 53.437C165.365 53.6844 165.622 53.9676 165.831 54.2866H165.948C165.922 54.0848 165.896 53.8081 165.87 53.4565C165.844 53.105 165.831 52.8185 165.831 52.5972V48.3101H167.452V63.5054H166.143L165.899 61.9819H165.831C165.629 62.3009 165.372 62.5907 165.059 62.8511C164.753 63.1115 164.385 63.3198 163.956 63.4761C163.533 63.6258 163.031 63.7007 162.452 63.7007ZM162.706 62.353C163.852 62.353 164.662 62.0275 165.137 61.3765C165.613 60.7254 165.85 59.7586 165.85 58.4761V58.1831C165.85 56.8224 165.622 55.7775 165.167 55.0483C164.717 54.3192 163.897 53.9546 162.706 53.9546C161.71 53.9546 160.964 54.3387 160.469 55.1069C159.975 55.8687 159.727 56.9103 159.727 58.2319C159.727 59.547 159.971 60.5627 160.46 61.2788C160.954 61.995 161.703 62.353 162.706 62.353ZM180.148 52.6069C180.363 52.6069 180.587 52.62 180.822 52.646C181.056 52.6655 181.264 52.6948 181.447 52.7339L181.242 54.2378C181.066 54.1922 180.871 54.1564 180.656 54.1304C180.441 54.1043 180.239 54.0913 180.05 54.0913C179.621 54.0913 179.214 54.1792 178.83 54.355C178.452 54.5243 178.12 54.7716 177.833 55.0972C177.547 55.4162 177.322 55.8035 177.16 56.2593C176.997 56.7085 176.916 57.2098 176.916 57.7632V63.5054H175.285V52.8022H176.632L176.808 54.7749H176.876C177.098 54.3778 177.365 54.0164 177.677 53.6909C177.99 53.3589 178.351 53.0952 178.761 52.8999C179.178 52.7046 179.64 52.6069 180.148 52.6069ZM184.689 52.8022V63.5054H183.068V52.8022H184.689ZM183.898 48.7983C184.165 48.7983 184.393 48.8862 184.582 49.062C184.777 49.2313 184.875 49.4982 184.875 49.8628C184.875 50.2209 184.777 50.4878 184.582 50.6636C184.393 50.8394 184.165 50.9272 183.898 50.9272C183.618 50.9272 183.384 50.8394 183.195 50.6636C183.013 50.4878 182.922 50.2209 182.922 49.8628C182.922 49.4982 183.013 49.2313 183.195 49.062C183.384 48.8862 183.618 48.7983 183.898 48.7983ZM190.715 68.3101C189.309 68.3101 188.225 68.0464 187.463 67.519C186.701 66.9982 186.321 66.2658 186.321 65.3218C186.321 64.6512 186.532 64.0783 186.955 63.603C187.385 63.1278 187.978 62.812 188.733 62.6558C188.453 62.5256 188.212 62.3302 188.01 62.0698C187.815 61.8094 187.717 61.5099 187.717 61.1714C187.717 60.7808 187.825 60.439 188.039 60.146C188.261 59.8465 188.596 59.5601 189.045 59.2866C188.485 59.0588 188.03 58.6746 187.678 58.1343C187.333 57.5874 187.16 56.9526 187.16 56.23C187.16 55.4618 187.32 54.8075 187.639 54.2671C187.958 53.7202 188.42 53.3035 189.026 53.0171C189.631 52.7306 190.364 52.5874 191.223 52.5874C191.412 52.5874 191.601 52.5972 191.789 52.6167C191.985 52.6297 192.17 52.6525 192.346 52.6851C192.522 52.7111 192.675 52.7437 192.805 52.7827H196.477V53.8276L194.504 54.0718C194.7 54.3257 194.862 54.6317 194.992 54.9897C195.123 55.3478 195.188 55.745 195.188 56.1812C195.188 57.2489 194.826 58.0985 194.104 58.73C193.381 59.355 192.388 59.6675 191.125 59.6675C190.826 59.6675 190.52 59.6414 190.207 59.5894C189.888 59.7651 189.644 59.9604 189.475 60.1753C189.312 60.3901 189.231 60.6375 189.231 60.9175C189.231 61.1258 189.293 61.2918 189.416 61.4155C189.547 61.5392 189.732 61.6304 189.973 61.689C190.214 61.741 190.504 61.7671 190.842 61.7671H192.727C193.892 61.7671 194.784 62.0112 195.403 62.4995C196.028 62.9878 196.34 63.7007 196.34 64.6382C196.34 65.8231 195.858 66.7313 194.895 67.3628C193.931 67.9943 192.538 68.3101 190.715 68.3101ZM190.764 67.0405C191.649 67.0405 192.382 66.9494 192.961 66.7671C193.547 66.5913 193.983 66.3341 194.27 65.9956C194.563 65.6636 194.709 65.2664 194.709 64.8042C194.709 64.3745 194.612 64.049 194.416 63.8276C194.221 63.6128 193.935 63.4696 193.557 63.3979C193.179 63.3198 192.717 63.2808 192.17 63.2808H190.315C189.833 63.2808 189.413 63.3556 189.055 63.5054C188.697 63.6551 188.42 63.8765 188.225 64.1694C188.036 64.4624 187.942 64.827 187.942 65.2632C187.942 65.8426 188.186 66.2821 188.674 66.5815C189.162 66.8875 189.859 67.0405 190.764 67.0405ZM191.184 58.4858C191.959 58.4858 192.541 58.2905 192.932 57.8999C193.323 57.5093 193.518 56.9396 193.518 56.1909C193.518 55.3901 193.319 54.7912 192.922 54.394C192.525 53.9904 191.939 53.7886 191.164 53.7886C190.422 53.7886 189.849 53.9969 189.446 54.4136C189.048 54.8237 188.85 55.4259 188.85 56.2202C188.85 56.9494 189.052 57.5093 189.455 57.8999C189.859 58.2905 190.435 58.4858 191.184 58.4858ZM199.807 48.3101V52.8511C199.807 53.1115 199.801 53.3752 199.788 53.6421C199.775 53.9025 199.752 54.1434 199.719 54.3647H199.827C200.048 53.9871 200.328 53.6714 200.667 53.4175C201.012 53.1571 201.402 52.9618 201.839 52.8315C202.275 52.6948 202.737 52.6265 203.225 52.6265C204.085 52.6265 204.801 52.7632 205.374 53.0366C205.953 53.3101 206.386 53.7332 206.673 54.3062C206.966 54.8791 207.112 55.6213 207.112 56.5327V63.5054H205.51V56.6401C205.51 55.7482 205.305 55.0809 204.895 54.6382C204.492 54.1955 203.87 53.9741 203.03 53.9741C202.236 53.9741 201.601 54.1271 201.126 54.4331C200.657 54.7326 200.318 55.1753 200.11 55.7612C199.908 56.3472 199.807 57.0633 199.807 57.9097V63.5054H198.186V48.3101H199.807ZM213.509 62.3726C213.776 62.3726 214.049 62.3498 214.329 62.3042C214.609 62.2586 214.837 62.2033 215.013 62.1382V63.3979C214.824 63.4826 214.56 63.5542 214.222 63.6128C213.89 63.6714 213.564 63.7007 213.245 63.7007C212.679 63.7007 212.164 63.603 211.702 63.4077C211.24 63.2059 210.869 62.8674 210.589 62.3921C210.316 61.9168 210.179 61.2593 210.179 60.4194V54.0718H208.655V53.2808L210.189 52.646L210.833 50.3218H211.81V52.8022H214.944V54.0718H211.81V60.3706C211.81 61.0412 211.963 61.5425 212.269 61.8745C212.581 62.2065 212.995 62.3726 213.509 62.3726ZM226.644 52.6069C227.914 52.6069 228.874 52.9194 229.525 53.5444C230.176 54.1629 230.502 55.159 230.502 56.5327V63.5054H228.9V56.6401C228.9 55.7482 228.695 55.0809 228.285 54.6382C227.881 54.1955 227.26 53.9741 226.42 53.9741C225.235 53.9741 224.402 54.3094 223.92 54.98C223.438 55.6506 223.197 56.6239 223.197 57.8999V63.5054H221.576V52.8022H222.885L223.129 54.3452H223.217C223.445 53.9676 223.734 53.6519 224.086 53.3979C224.437 53.1375 224.831 52.9422 225.267 52.812C225.704 52.6753 226.163 52.6069 226.644 52.6069ZM242.67 58.1343C242.67 59.0132 242.556 59.7977 242.328 60.4878C242.101 61.1779 241.772 61.7606 241.342 62.2358C240.912 62.7111 240.392 63.0757 239.78 63.3296C239.174 63.577 238.487 63.7007 237.719 63.7007C237.003 63.7007 236.345 63.577 235.746 63.3296C235.154 63.0757 234.64 62.7111 234.203 62.2358C233.774 61.7606 233.438 61.1779 233.198 60.4878C232.963 59.7977 232.846 59.0132 232.846 58.1343C232.846 56.9624 233.045 55.9663 233.442 55.146C233.839 54.3192 234.405 53.6909 235.141 53.2612C235.883 52.825 236.765 52.6069 237.787 52.6069C238.764 52.6069 239.617 52.825 240.346 53.2612C241.082 53.6974 241.651 54.3289 242.055 55.1558C242.465 55.9761 242.67 56.9689 242.67 58.1343ZM234.526 58.1343C234.526 58.9937 234.64 59.7391 234.867 60.3706C235.095 61.0021 235.447 61.4904 235.922 61.8354C236.397 62.1805 237.009 62.353 237.758 62.353C238.5 62.353 239.109 62.1805 239.584 61.8354C240.066 61.4904 240.421 61.0021 240.649 60.3706C240.877 59.7391 240.991 58.9937 240.991 58.1343C240.991 57.2814 240.877 56.5457 240.649 55.9272C240.421 55.3022 240.069 54.8205 239.594 54.4819C239.119 54.1434 238.504 53.9741 237.748 53.9741C236.635 53.9741 235.818 54.342 235.297 55.0776C234.783 55.8133 234.526 56.8322 234.526 58.1343ZM253.784 63.4858L251.88 57.2554C251.795 56.9884 251.714 56.728 251.635 56.4741C251.564 56.2137 251.495 55.9663 251.43 55.7319C251.372 55.491 251.316 55.2697 251.264 55.0679C251.219 54.8595 251.18 54.6805 251.147 54.5308H251.079C251.053 54.6805 251.017 54.8595 250.971 55.0679C250.926 55.2697 250.87 55.491 250.805 55.7319C250.747 55.9728 250.682 56.2267 250.61 56.4937C250.538 56.7541 250.457 57.0177 250.366 57.2847L248.374 63.4858H246.548L243.598 52.7827H245.278L246.821 58.6909C246.925 59.0815 247.023 59.4689 247.114 59.853C247.212 60.2306 247.293 60.5887 247.358 60.9272C247.43 61.2593 247.482 61.549 247.514 61.7964H247.592C247.632 61.6336 247.674 61.4383 247.719 61.2104C247.772 60.9826 247.827 60.7417 247.885 60.4878C247.951 60.2274 248.019 59.9702 248.091 59.7163C248.162 59.4559 248.234 59.2118 248.305 58.9839L250.278 52.7827H252.026L253.93 58.9741C254.028 59.2866 254.122 59.6121 254.214 59.9507C254.311 60.2892 254.399 60.618 254.477 60.937C254.555 61.2495 254.611 61.5295 254.643 61.7769H254.721C254.747 61.5555 254.796 61.2821 254.868 60.9565C254.939 60.631 255.021 60.2729 255.112 59.8823C255.21 59.4917 255.311 59.0946 255.415 58.6909L256.977 52.7827H258.628L255.669 63.4858H253.784ZM259.937 62.4897C259.937 62.034 260.047 61.7118 260.269 61.5229C260.49 61.3276 260.76 61.23 261.079 61.23C261.411 61.23 261.691 61.3276 261.919 61.5229C262.147 61.7118 262.261 62.034 262.261 62.4897C262.261 62.939 262.147 63.2677 261.919 63.4761C261.691 63.6779 261.411 63.7788 261.079 63.7788C260.76 63.7788 260.49 63.6779 260.269 63.4761C260.047 63.2677 259.937 62.939 259.937 62.4897Z" fill="white"/>
<rect x="29.9272" y="1" width="290.877" height="84" stroke="#C47370" stroke-width="0.805851"/>
<path d="M340.458 20.6526C340.458 9.79879 331.659 1 320.805 1V29.4446H340.458V20.6526Z" fill="#C47370" stroke="#C47370" stroke-width="0.805851"/>
<rect width="19.6526" height="27.1108" transform="matrix(-1 0 0 1 340.458 29.4446)" fill="#C47370" stroke="#C47370" stroke-width="0.805851"/>
<path d="M340.458 65.3474C340.458 76.2012 331.659 85 320.805 85V56.5554H340.458V65.3474Z" fill="#C47370" stroke="#C47370" stroke-width="0.805851"/>
</svg>
