<svg width="374" height="84" viewBox="0 0 374 84" fill="none" xmlns="http://www.w3.org/2000/svg">
<path d="M329.53 36C329.53 25.5066 321.024 17 310.53 17V37H329.53V36Z" fill="#5E2A28" stroke="#5E2A28" stroke-width="0.805851"/>
<rect width="19.6526" height="1.5554" transform="matrix(-1 0 0 1 330.183 37)" fill="#5E2A28" stroke="#5E2A28" stroke-width="0.805851"/>
<path fill-rule="evenodd" clip-rule="evenodd" d="M329.826 51.0942C330.06 49.8813 330.183 48.6286 330.183 47.3474V38.5554H310.53V67C315.289 67 319.653 65.3084 323.053 62.4937C326.446 64.7537 331.885 66.902 338.458 65.7071C336.647 64.9313 329.666 60.2767 329.924 50.9676C329.893 51.0108 329.86 51.053 329.826 51.0942Z" fill="#5E2A28"/>
<path d="M329.826 51.0942L330.137 51.3508L329.43 51.0178L329.826 51.0942ZM330.183 38.5554V38.1525H330.586V38.5554H330.183ZM310.53 38.5554H310.127V38.1525H310.53V38.5554ZM310.53 67V67.4029H310.127V67H310.53ZM323.053 62.4937L322.797 62.1833L323.027 61.9922L323.277 62.1584L323.053 62.4937ZM338.458 65.7071L338.616 65.3367L339.847 65.864L338.53 66.1035L338.458 65.7071ZM329.924 50.9676L329.598 50.7306L330.363 49.6791L330.327 50.9788L329.924 50.9676ZM330.586 47.3474C330.586 48.6544 330.461 49.9326 330.222 51.1706L329.43 51.0178C329.66 49.8299 329.78 48.6029 329.78 47.3474H330.586ZM330.586 38.5554V47.3474H329.78V38.5554H330.586ZM310.53 38.1525H330.183V38.9583H310.53V38.1525ZM310.127 67V38.5554H310.933V67H310.127ZM323.31 62.8041C319.84 65.6764 315.386 67.4029 310.53 67.4029V66.5971C315.192 66.5971 319.466 64.9404 322.797 62.1833L323.31 62.8041ZM338.53 66.1035C331.829 67.3217 326.285 65.1306 322.83 62.829L323.277 62.1584C326.607 64.3768 331.942 66.4822 338.385 65.3106L338.53 66.1035ZM330.327 50.9788C330.201 55.5221 331.839 58.9224 333.73 61.2856C335.628 63.6588 337.773 64.9753 338.616 65.3367L338.299 66.0774C337.332 65.6631 335.081 64.2644 333.1 61.7891C331.112 59.3038 329.389 55.7222 329.521 50.9564L330.327 50.9788ZM329.515 50.8375C329.544 50.8026 329.572 50.767 329.598 50.7306L330.25 51.2046C330.214 51.2546 330.176 51.3033 330.137 51.3508L329.515 50.8375Z" fill="#5E2A28"/>
<rect width="255.53" height="50" transform="matrix(-1 0 0 1 310.53 17)" fill="#5E2A28"/>
<rect width="255.53" height="50" transform="matrix(-1 0 0 1 310.53 17)" stroke="#5E2A28" stroke-width="0.805851"/>
<path d="M35 36.6526C35 25.7988 43.7988 17 54.6526 17V45.4446H35V36.6526Z" fill="#5E2A28" stroke="#5E2A28" stroke-width="0.805851"/>
<rect x="35" y="45.4446" width="19.6526" height="1" fill="#5E2A28" stroke="#5E2A28" stroke-width="0.805851"/>
<path d="M35 47.4446C35 58.4903 43.9543 67.4446 55 67.4446V46.4446H35V47.4446Z" fill="#5E2A28" stroke="#5E2A28" stroke-width="0.805851"/>
<path d="M69.0098 45.2012C69.0098 46.0475 68.7982 46.7702 68.375 47.3691C67.9583 47.9616 67.3724 48.4141 66.6172 48.7266C65.862 49.0391 64.9733 49.1953 63.9512 49.1953C63.4108 49.1953 62.8997 49.1693 62.418 49.1172C61.9362 49.0651 61.4935 48.9902 61.0898 48.8926C60.6862 48.7949 60.3314 48.6745 60.0254 48.5312V46.9395C60.5137 47.1413 61.1094 47.3301 61.8125 47.5059C62.5156 47.6751 63.2513 47.7598 64.0195 47.7598C64.7357 47.7598 65.3411 47.6654 65.8359 47.4766C66.3307 47.2812 66.7051 47.0046 66.959 46.6465C67.2194 46.2819 67.3496 45.8457 67.3496 45.3379C67.3496 44.8496 67.2422 44.4427 67.0273 44.1172C66.8125 43.7852 66.4544 43.4857 65.9531 43.2188C65.4583 42.9453 64.7812 42.6556 63.9219 42.3496C63.3164 42.1348 62.7826 41.9004 62.3203 41.6465C61.8581 41.3861 61.4707 41.0931 61.1582 40.7676C60.8457 40.4421 60.6081 40.0645 60.4453 39.6348C60.2891 39.2051 60.2109 38.7135 60.2109 38.1602C60.2109 37.3984 60.403 36.7474 60.7871 36.207C61.1777 35.6602 61.7148 35.2435 62.3984 34.957C63.0885 34.6641 63.8796 34.5176 64.7715 34.5176C65.5332 34.5176 66.2363 34.5892 66.8809 34.7324C67.5319 34.8757 68.1276 35.0677 68.668 35.3086L68.1504 36.7344C67.6361 36.5195 67.0892 36.3405 66.5098 36.1973C65.9368 36.054 65.3444 35.9824 64.7324 35.9824C64.1204 35.9824 63.6029 36.0736 63.1797 36.2559C62.763 36.4316 62.444 36.6823 62.2227 37.0078C62.0013 37.3333 61.8906 37.7207 61.8906 38.1699C61.8906 38.6712 61.9948 39.0879 62.2031 39.4199C62.418 39.752 62.7565 40.0482 63.2188 40.3086C63.6875 40.5625 64.306 40.8294 65.0742 41.1094C65.9141 41.4154 66.627 41.7409 67.2129 42.0859C67.7988 42.4245 68.2448 42.8411 68.5508 43.3359C68.8568 43.8242 69.0098 44.446 69.0098 45.2012ZM80.1234 38.2969V49H78.7953L78.5609 47.4961H78.473C78.2517 47.8672 77.9652 48.1797 77.6137 48.4336C77.2621 48.6875 76.865 48.8763 76.4223 49C75.9861 49.1302 75.5206 49.1953 75.0258 49.1953C74.1794 49.1953 73.4698 49.0586 72.8969 48.7852C72.324 48.5117 71.891 48.0885 71.598 47.5156C71.3116 46.9427 71.1684 46.207 71.1684 45.3086V38.2969H72.809V45.1914C72.809 46.0833 73.0108 46.7507 73.4145 47.1934C73.8181 47.6296 74.4333 47.8477 75.2602 47.8477C76.0544 47.8477 76.6859 47.6979 77.1547 47.3984C77.6299 47.099 77.9717 46.6595 78.1801 46.0801C78.3884 45.4941 78.4926 44.778 78.4926 43.9316V38.2969H80.1234ZM88.0145 38.1016C88.2293 38.1016 88.4539 38.1146 88.6883 38.1406C88.9227 38.1602 89.131 38.1895 89.3133 38.2285L89.1082 39.7324C88.9324 39.6868 88.7371 39.651 88.5223 39.625C88.3074 39.599 88.1056 39.5859 87.9168 39.5859C87.4871 39.5859 87.0802 39.6738 86.6961 39.8496C86.3185 40.0189 85.9865 40.2663 85.7 40.5918C85.4135 40.9108 85.1889 41.2982 85.0262 41.7539C84.8634 42.2031 84.782 42.7044 84.782 43.2578V49H83.1512V38.2969H84.4988L84.6746 40.2695H84.743C84.9643 39.8724 85.2313 39.5111 85.5438 39.1855C85.8563 38.8535 86.2176 38.5898 86.6277 38.3945C87.0444 38.1992 87.5066 38.1016 88.0145 38.1016ZM95.0559 38.1016C95.9673 38.1016 96.7486 38.3034 97.3996 38.707C98.0507 39.1107 98.5487 39.6771 98.8937 40.4062C99.2388 41.1289 99.4113 41.9753 99.4113 42.9453V43.9512H92.0187C92.0383 45.2077 92.3508 46.1647 92.9562 46.8223C93.5617 47.4798 94.4146 47.8086 95.5148 47.8086C96.1919 47.8086 96.7909 47.7467 97.3117 47.623C97.8326 47.4993 98.3729 47.3171 98.9328 47.0762V48.502C98.3924 48.7428 97.8553 48.9186 97.3215 49.0293C96.7941 49.14 96.1691 49.1953 95.4465 49.1953C94.4178 49.1953 93.5194 48.987 92.7512 48.5703C91.9895 48.1471 91.397 47.5286 90.9738 46.7148C90.5507 45.901 90.3391 44.9049 90.3391 43.7266C90.3391 42.5742 90.5311 41.5781 90.9152 40.7383C91.3059 39.8919 91.8527 39.2409 92.5559 38.7852C93.2655 38.3294 94.0988 38.1016 95.0559 38.1016ZM95.0363 39.4297C94.1704 39.4297 93.4803 39.7129 92.966 40.2793C92.4517 40.8457 92.1457 41.6367 92.048 42.6523H97.7121C97.7056 42.0143 97.6047 41.4544 97.4094 40.9727C97.2206 40.4844 96.9309 40.1068 96.5402 39.8398C96.1496 39.5664 95.6483 39.4297 95.0363 39.4297ZM101.521 47.9844C101.521 47.5286 101.632 47.2064 101.853 47.0176C102.074 46.8223 102.345 46.7246 102.664 46.7246C102.996 46.7246 103.276 46.8223 103.504 47.0176C103.731 47.2064 103.845 47.5286 103.845 47.9844C103.845 48.4336 103.731 48.7624 103.504 48.9707C103.276 49.1725 102.996 49.2734 102.664 49.2734C102.345 49.2734 102.074 49.1725 101.853 48.9707C101.632 48.7624 101.521 48.4336 101.521 47.9844ZM127.879 34.7227L124.061 49H122.391L119.559 39.3906C119.474 39.1172 119.393 38.8438 119.315 38.5703C119.243 38.2904 119.175 38.0267 119.11 37.7793C119.045 37.5254 118.989 37.304 118.944 37.1152C118.905 36.9199 118.875 36.7734 118.856 36.6758C118.843 36.7734 118.817 36.9167 118.778 37.1055C118.745 37.2943 118.7 37.5124 118.641 37.7598C118.589 38.0072 118.524 38.2708 118.446 38.5508C118.374 38.8307 118.296 39.1139 118.211 39.4004L115.457 49H113.787L109.998 34.7227H111.727L114.022 43.6777C114.1 43.9772 114.172 44.2734 114.237 44.5664C114.308 44.8529 114.37 45.1328 114.422 45.4062C114.481 45.6797 114.533 45.9466 114.579 46.207C114.624 46.4674 114.666 46.7214 114.705 46.9688C114.738 46.7148 114.78 46.4512 114.832 46.1777C114.885 45.8978 114.94 45.6146 114.998 45.3281C115.064 45.0417 115.132 44.752 115.204 44.459C115.282 44.166 115.363 43.873 115.448 43.5801L118.016 34.7227H119.725L122.401 43.6484C122.492 43.9544 122.577 44.2572 122.655 44.5566C122.733 44.8561 122.801 45.1491 122.86 45.4355C122.925 45.7155 122.98 45.9857 123.026 46.2461C123.078 46.5 123.123 46.7409 123.162 46.9688C123.208 46.6497 123.263 46.3145 123.329 45.9629C123.394 45.6113 123.468 45.2435 123.553 44.8594C123.644 44.4753 123.742 44.0781 123.846 43.668L126.141 34.7227H127.879ZM131.112 33.8047V38.3457C131.112 38.6061 131.106 38.8698 131.093 39.1367C131.08 39.3971 131.057 39.638 131.024 39.8594H131.132C131.353 39.4818 131.633 39.166 131.971 38.9121C132.317 38.6517 132.707 38.4564 133.143 38.3262C133.58 38.1895 134.042 38.1211 134.53 38.1211C135.389 38.1211 136.106 38.2578 136.679 38.5312C137.258 38.8047 137.691 39.2279 137.977 39.8008C138.27 40.3737 138.417 41.1159 138.417 42.0273V49H136.815V42.1348C136.815 41.2428 136.61 40.5755 136.2 40.1328C135.796 39.6901 135.175 39.4688 134.335 39.4688C133.54 39.4688 132.906 39.6217 132.43 39.9277C131.962 40.2272 131.623 40.6699 131.415 41.2559C131.213 41.8418 131.112 42.5579 131.112 43.4043V49H129.491V33.8047H131.112ZM145.361 38.1211C146.637 38.1211 147.584 38.4076 148.202 38.9805C148.821 39.5534 149.13 40.4681 149.13 41.7246V49H147.948L147.636 47.418H147.558C147.258 47.8086 146.946 48.1374 146.62 48.4043C146.295 48.6647 145.917 48.8633 145.488 49C145.064 49.1302 144.543 49.1953 143.925 49.1953C143.274 49.1953 142.695 49.0814 142.187 48.8535C141.685 48.6257 141.288 48.2806 140.995 47.8184C140.709 47.3561 140.566 46.7702 140.566 46.0605C140.566 44.9928 140.989 44.1725 141.835 43.5996C142.682 43.0267 143.971 42.7142 145.702 42.6621L147.548 42.584V41.9297C147.548 41.0052 147.349 40.3574 146.952 39.9863C146.555 39.6152 145.995 39.4297 145.273 39.4297C144.713 39.4297 144.179 39.5111 143.671 39.6738C143.163 39.8366 142.682 40.0286 142.226 40.25L141.728 39.0195C142.21 38.7721 142.763 38.5605 143.388 38.3848C144.013 38.209 144.67 38.1211 145.361 38.1211ZM147.529 43.7266L145.898 43.7949C144.563 43.847 143.622 44.0651 143.075 44.4492C142.529 44.8333 142.255 45.377 142.255 46.0801C142.255 46.6921 142.441 47.1445 142.812 47.4375C143.183 47.7305 143.674 47.877 144.286 47.877C145.237 47.877 146.015 47.6133 146.62 47.0859C147.226 46.5586 147.529 45.7676 147.529 44.7129V43.7266ZM155.527 47.8672C155.794 47.8672 156.067 47.8444 156.347 47.7988C156.627 47.7533 156.855 47.6979 157.031 47.6328V48.8926C156.842 48.9772 156.578 49.0488 156.24 49.1074C155.908 49.166 155.582 49.1953 155.263 49.1953C154.697 49.1953 154.183 49.0977 153.72 48.9023C153.258 48.7005 152.887 48.362 152.607 47.8867C152.334 47.4115 152.197 46.7539 152.197 45.9141V39.5664H150.673V38.7754L152.207 38.1406L152.851 35.8164H153.828V38.2969H156.963V39.5664H153.828V45.8652C153.828 46.5358 153.981 47.0371 154.287 47.3691C154.599 47.7012 155.013 47.8672 155.527 47.8672ZM167.881 49.1953C166.918 49.1953 166.068 48.9967 165.332 48.5996C164.597 48.2025 164.024 47.597 163.614 46.7832C163.204 45.9694 162.998 44.944 162.998 43.707C162.998 42.4115 163.213 41.3535 163.643 40.5332C164.079 39.7064 164.678 39.0944 165.44 38.6973C166.202 38.3001 167.067 38.1016 168.037 38.1016C168.571 38.1016 169.086 38.1569 169.58 38.2676C170.082 38.3717 170.492 38.5052 170.811 38.668L170.323 40.0254C169.997 39.8952 169.62 39.778 169.19 39.6738C168.767 39.5697 168.37 39.5176 167.998 39.5176C167.256 39.5176 166.638 39.6771 166.143 39.9961C165.655 40.3151 165.287 40.7839 165.039 41.4023C164.799 42.0208 164.678 42.7826 164.678 43.6875C164.678 44.5534 164.795 45.2923 165.03 45.9043C165.271 46.5163 165.625 46.985 166.094 47.3105C166.569 47.6296 167.162 47.7891 167.871 47.7891C168.438 47.7891 168.949 47.7305 169.405 47.6133C169.86 47.4896 170.274 47.3464 170.645 47.1836V48.6289C170.287 48.8112 169.886 48.9512 169.444 49.0488C169.008 49.1465 168.487 49.1953 167.881 49.1953ZM176.788 38.1211C178.064 38.1211 179.011 38.4076 179.63 38.9805C180.248 39.5534 180.557 40.4681 180.557 41.7246V49H179.376L179.063 47.418H178.985C178.686 47.8086 178.373 48.1374 178.048 48.4043C177.722 48.6647 177.345 48.8633 176.915 49C176.492 49.1302 175.971 49.1953 175.352 49.1953C174.701 49.1953 174.122 49.0814 173.614 48.8535C173.113 48.6257 172.716 48.2806 172.423 47.8184C172.136 47.3561 171.993 46.7702 171.993 46.0605C171.993 44.9928 172.416 44.1725 173.262 43.5996C174.109 43.0267 175.398 42.7142 177.13 42.6621L178.975 42.584V41.9297C178.975 41.0052 178.777 40.3574 178.38 39.9863C177.983 39.6152 177.423 39.4297 176.7 39.4297C176.14 39.4297 175.606 39.5111 175.098 39.6738C174.591 39.8366 174.109 40.0286 173.653 40.25L173.155 39.0195C173.637 38.7721 174.19 38.5605 174.815 38.3848C175.44 38.209 176.098 38.1211 176.788 38.1211ZM178.956 43.7266L177.325 43.7949C175.99 43.847 175.05 44.0651 174.503 44.4492C173.956 44.8333 173.682 45.377 173.682 46.0801C173.682 46.6921 173.868 47.1445 174.239 47.4375C174.61 47.7305 175.102 47.877 175.714 47.877C176.664 47.877 177.442 47.6133 178.048 47.0859C178.653 46.5586 178.956 45.7676 178.956 44.7129V43.7266ZM188.566 38.1016C189.835 38.1016 190.795 38.4141 191.446 39.0391C192.098 39.6576 192.423 40.6536 192.423 42.0273V49H190.821V42.1348C190.821 41.2428 190.616 40.5755 190.206 40.1328C189.803 39.6901 189.181 39.4688 188.341 39.4688C187.156 39.4688 186.323 39.804 185.841 40.4746C185.359 41.1452 185.118 42.1185 185.118 43.3945V49H183.497V38.2969H184.806L185.05 39.8398H185.138C185.366 39.4622 185.655 39.1465 186.007 38.8926C186.359 38.6322 186.752 38.4368 187.189 38.3066C187.625 38.1699 188.084 38.1016 188.566 38.1016ZM200.402 49V34.7227H202.062V49H200.402ZM211.761 33.8047V38.3457C211.761 38.6061 211.754 38.8698 211.741 39.1367C211.728 39.3971 211.705 39.638 211.673 39.8594H211.78C212.001 39.4818 212.281 39.166 212.62 38.9121C212.965 38.6517 213.356 38.4564 213.792 38.3262C214.228 38.1895 214.69 38.1211 215.179 38.1211C216.038 38.1211 216.754 38.2578 217.327 38.5312C217.906 38.8047 218.339 39.2279 218.626 39.8008C218.919 40.3737 219.065 41.1159 219.065 42.0273V49H217.464V42.1348C217.464 41.2428 217.259 40.5755 216.848 40.1328C216.445 39.6901 215.823 39.4688 214.983 39.4688C214.189 39.4688 213.554 39.6217 213.079 39.9277C212.61 40.2272 212.272 40.6699 212.063 41.2559C211.861 41.8418 211.761 42.5579 211.761 43.4043V49H210.139V33.8047H211.761ZM226.126 38.1016C227.038 38.1016 227.819 38.3034 228.47 38.707C229.121 39.1107 229.619 39.6771 229.964 40.4062C230.309 41.1289 230.482 41.9753 230.482 42.9453V43.9512H223.089C223.109 45.2077 223.421 46.1647 224.027 46.8223C224.632 47.4798 225.485 47.8086 226.585 47.8086C227.262 47.8086 227.861 47.7467 228.382 47.623C228.903 47.4993 229.443 47.3171 230.003 47.0762V48.502C229.463 48.7428 228.926 48.9186 228.392 49.0293C227.864 49.14 227.239 49.1953 226.517 49.1953C225.488 49.1953 224.59 48.987 223.821 48.5703C223.06 48.1471 222.467 47.5286 222.044 46.7148C221.621 45.901 221.409 44.9049 221.409 43.7266C221.409 42.5742 221.601 41.5781 221.986 40.7383C222.376 39.8919 222.923 39.2409 223.626 38.7852C224.336 38.3294 225.169 38.1016 226.126 38.1016ZM226.107 39.4297C225.241 39.4297 224.551 39.7129 224.036 40.2793C223.522 40.8457 223.216 41.6367 223.118 42.6523H228.782C228.776 42.0143 228.675 41.4544 228.48 40.9727C228.291 40.4844 228.001 40.1068 227.611 39.8398C227.22 39.5664 226.719 39.4297 226.107 39.4297ZM234.466 49H232.836V33.8047H234.466V49ZM242.523 38.1016C243.858 38.1016 244.923 38.5605 245.717 39.4785C246.511 40.3965 246.908 41.7767 246.908 43.6191C246.908 44.8366 246.726 45.8587 246.361 46.6855C245.997 47.5124 245.482 48.1374 244.818 48.5605C244.161 48.9837 243.383 49.1953 242.484 49.1953C241.918 49.1953 241.42 49.1204 240.99 48.9707C240.561 48.821 240.193 48.6191 239.887 48.3652C239.581 48.1113 239.327 47.8346 239.125 47.5352H239.008C239.027 47.7891 239.05 48.0951 239.076 48.4531C239.109 48.8112 239.125 49.1237 239.125 49.3906V53.7852H237.494V38.2969H238.832L239.047 39.8789H239.125C239.333 39.5534 239.587 39.2572 239.887 38.9902C240.186 38.7168 240.551 38.502 240.98 38.3457C241.417 38.1829 241.931 38.1016 242.523 38.1016ZM242.24 39.4688C241.498 39.4688 240.899 39.612 240.443 39.8984C239.994 40.1849 239.665 40.6146 239.457 41.1875C239.249 41.7539 239.138 42.4668 239.125 43.3262V43.6387C239.125 44.5436 239.223 45.3086 239.418 45.9336C239.62 46.5586 239.949 47.0339 240.404 47.3594C240.867 47.6849 241.485 47.8477 242.26 47.8477C242.924 47.8477 243.477 47.6686 243.92 47.3105C244.363 46.9525 244.691 46.4544 244.906 45.8164C245.128 45.1719 245.238 44.4329 245.238 43.5996C245.238 42.3366 244.991 41.334 244.496 40.5918C244.008 39.8431 243.256 39.4688 242.24 39.4688ZM262.846 48.9805L260.942 42.75C260.858 42.4831 260.776 42.2227 260.698 41.9688C260.626 41.7083 260.558 41.4609 260.493 41.2266C260.434 40.9857 260.379 40.7643 260.327 40.5625C260.281 40.3542 260.242 40.1751 260.21 40.0254H260.141C260.115 40.1751 260.08 40.3542 260.034 40.5625C259.988 40.7643 259.933 40.9857 259.868 41.2266C259.809 41.4674 259.744 41.7214 259.673 41.9883C259.601 42.2487 259.52 42.5124 259.429 42.7793L257.436 48.9805H255.61L252.661 38.2773H254.341L255.884 44.1855C255.988 44.5762 256.085 44.9635 256.177 45.3477C256.274 45.7253 256.356 46.0833 256.421 46.4219C256.492 46.7539 256.544 47.0436 256.577 47.291H256.655C256.694 47.1283 256.736 46.9329 256.782 46.7051C256.834 46.4772 256.889 46.2363 256.948 45.9824C257.013 45.722 257.082 45.4648 257.153 45.2109C257.225 44.9505 257.296 44.7064 257.368 44.4785L259.341 38.2773H261.089L262.993 44.4688C263.091 44.7812 263.185 45.1068 263.276 45.4453C263.374 45.7839 263.462 46.1126 263.54 46.4316C263.618 46.7441 263.673 47.0241 263.706 47.2715H263.784C263.81 47.0501 263.859 46.7767 263.93 46.4512C264.002 46.1257 264.083 45.7676 264.175 45.377C264.272 44.9863 264.373 44.5892 264.477 44.1855L266.04 38.2773H267.69L264.731 48.9805H262.846ZM270.864 38.2969V49H269.243V38.2969H270.864ZM270.073 34.293C270.34 34.293 270.568 34.3809 270.757 34.5566C270.952 34.7259 271.05 34.9928 271.05 35.3574C271.05 35.7155 270.952 35.9824 270.757 36.1582C270.568 36.334 270.34 36.4219 270.073 36.4219C269.793 36.4219 269.559 36.334 269.37 36.1582C269.188 35.9824 269.097 35.7155 269.097 35.3574C269.097 34.9928 269.188 34.7259 269.37 34.5566C269.559 34.3809 269.793 34.293 270.073 34.293ZM277.359 47.8672C277.626 47.8672 277.899 47.8444 278.179 47.7988C278.459 47.7533 278.687 47.6979 278.863 47.6328V48.8926C278.674 48.9772 278.41 49.0488 278.072 49.1074C277.74 49.166 277.414 49.1953 277.095 49.1953C276.529 49.1953 276.015 49.0977 275.552 48.9023C275.09 48.7005 274.719 48.362 274.439 47.8867C274.166 47.4115 274.029 46.7539 274.029 45.9141V39.5664H272.505V38.7754L274.039 38.1406L274.683 35.8164H275.66V38.2969H278.795V39.5664H275.66V45.8652C275.66 46.5358 275.813 47.0371 276.119 47.3691C276.431 47.7012 276.845 47.8672 277.359 47.8672ZM282.252 33.8047V38.3457C282.252 38.6061 282.245 38.8698 282.232 39.1367C282.219 39.3971 282.197 39.638 282.164 39.8594H282.271C282.493 39.4818 282.773 39.166 283.111 38.9121C283.456 38.6517 283.847 38.4564 284.283 38.3262C284.719 38.1895 285.182 38.1211 285.67 38.1211C286.529 38.1211 287.245 38.2578 287.818 38.5312C288.398 38.8047 288.831 39.2279 289.117 39.8008C289.41 40.3737 289.557 41.1159 289.557 42.0273V49H287.955V42.1348C287.955 41.2428 287.75 40.5755 287.34 40.1328C286.936 39.6901 286.314 39.4688 285.475 39.4688C284.68 39.4688 284.046 39.6217 283.57 39.9277C283.102 40.2272 282.763 40.6699 282.555 41.2559C282.353 41.8418 282.252 42.5579 282.252 43.4043V49H280.631V33.8047H282.252ZM293.6 45.0352V44.5273C293.6 44.0065 293.649 43.5605 293.746 43.1895C293.844 42.8118 294.013 42.4603 294.254 42.1348C294.502 41.8092 294.843 41.4642 295.28 41.0996C295.788 40.6764 296.188 40.3184 296.481 40.0254C296.78 39.7259 296.995 39.4264 297.125 39.127C297.256 38.8275 297.321 38.4661 297.321 38.043C297.321 37.3659 297.103 36.8483 296.666 36.4902C296.23 36.1257 295.615 35.9434 294.821 35.9434C294.176 35.9434 293.603 36.0247 293.102 36.1875C292.601 36.3503 292.119 36.5456 291.657 36.7734L291.09 35.4648C291.624 35.1849 292.204 34.957 292.829 34.7812C293.454 34.6055 294.15 34.5176 294.918 34.5176C296.175 34.5176 297.148 34.8301 297.838 35.4551C298.528 36.0736 298.873 36.9264 298.873 38.0137C298.873 38.6191 298.776 39.1367 298.58 39.5664C298.385 39.9896 298.108 40.3802 297.75 40.7383C297.392 41.0898 296.969 41.4642 296.481 41.8613C296.051 42.2259 295.722 42.5482 295.495 42.8281C295.267 43.1016 295.11 43.3848 295.026 43.6777C294.941 43.9642 294.899 44.3092 294.899 44.7129V45.0352H293.6ZM293.17 47.9844C293.17 47.5286 293.278 47.2064 293.493 47.0176C293.707 46.8223 293.984 46.7246 294.323 46.7246C294.642 46.7246 294.912 46.8223 295.133 47.0176C295.361 47.2064 295.475 47.5286 295.475 47.9844C295.475 48.4336 295.361 48.7624 295.133 48.9707C294.912 49.1725 294.642 49.2734 294.323 49.2734C293.984 49.2734 293.707 49.1725 293.493 48.9707C293.278 48.7624 293.17 48.4336 293.17 47.9844Z" fill="white"/>
</svg>
