<svg width="374" height="84" viewBox="0 0 374 84" fill="none" xmlns="http://www.w3.org/2000/svg">
<path d="M329.53 19.5C329.53 9.00659 321.024 0.5 310.53 0.5V20.5H329.53V19.5Z" fill="#5E2A28" stroke="#5E2A28" stroke-width="0.805851"/>
<rect width="19.6526" height="34.5554" transform="matrix(-1 0 0 1 330.183 20.5)" fill="#5E2A28" stroke="#5E2A28" stroke-width="0.805851"/>
<path fill-rule="evenodd" clip-rule="evenodd" d="M329.826 67.5942C330.06 66.3813 330.183 65.1286 330.183 63.8474V55.0554H310.53V83.5C315.289 83.5 319.653 81.8084 323.053 78.9937C326.446 81.2537 331.885 83.402 338.458 82.2071C336.647 81.4313 329.666 76.7767 329.924 67.4676C329.893 67.5108 329.86 67.553 329.826 67.5942Z" fill="#5E2A28"/>
<path d="M329.826 67.5942L330.137 67.8508L329.43 67.5178L329.826 67.5942ZM330.183 55.0554V54.6525H330.586V55.0554H330.183ZM310.53 55.0554H310.127V54.6525H310.53V55.0554ZM310.53 83.5V83.9029H310.127V83.5H310.53ZM323.053 78.9937L322.797 78.6833L323.027 78.4922L323.277 78.6584L323.053 78.9937ZM338.458 82.2071L338.616 81.8367L339.847 82.364L338.53 82.6035L338.458 82.2071ZM329.924 67.4676L329.598 67.2306L330.363 66.1791L330.327 67.4788L329.924 67.4676ZM330.586 63.8474C330.586 65.1544 330.461 66.4326 330.222 67.6706L329.43 67.5178C329.66 66.3299 329.78 65.1029 329.78 63.8474H330.586ZM330.586 55.0554V63.8474H329.78V55.0554H330.586ZM310.53 54.6525H330.183V55.4583H310.53V54.6525ZM310.127 83.5V55.0554H310.933V83.5H310.127ZM323.31 79.3041C319.84 82.1764 315.386 83.9029 310.53 83.9029V83.0971C315.192 83.0971 319.466 81.4404 322.797 78.6833L323.31 79.3041ZM338.53 82.6035C331.829 83.8217 326.285 81.6306 322.83 79.329L323.277 78.6584C326.607 80.8768 331.942 82.9822 338.385 81.8106L338.53 82.6035ZM330.327 67.4788C330.201 72.0221 331.839 75.4224 333.73 77.7856C335.628 80.1588 337.773 81.4753 338.616 81.8367L338.299 82.5774C337.332 82.1631 335.081 80.7644 333.1 78.2891C331.112 75.8038 329.389 72.2222 329.521 67.4564L330.327 67.4788ZM329.515 67.3375C329.544 67.3026 329.572 67.267 329.598 67.2306L330.25 67.7046C330.214 67.7546 330.176 67.8033 330.137 67.8508L329.515 67.3375Z" fill="#5E2A28"/>
<rect width="255.53" height="83" transform="matrix(-1 0 0 1 310.53 0.5)" fill="#5E2A28"/>
<rect width="255.53" height="83" transform="matrix(-1 0 0 1 310.53 0.5)" stroke="#5E2A28" stroke-width="0.805851"/>
<path d="M35 20.1526C35 9.29879 43.7988 0.5 54.6526 0.5V28.9446H35V20.1526Z" fill="#5E2A28" stroke="#5E2A28" stroke-width="0.805851"/>
<rect x="35" y="28.9446" width="19.6526" height="33.5554" fill="#5E2A28" stroke="#5E2A28" stroke-width="0.805851"/>
<path d="M35 63.5C35 74.5457 43.9543 83.5 55 83.5V62.5H35V63.5Z" fill="#5E2A28" stroke="#5E2A28" stroke-width="0.805851"/>
<path d="M60.9531 38V23.7227H62.6133V38H60.9531ZM79.4012 37.9805L77.4969 31.75C77.4122 31.4831 77.3309 31.2227 77.2527 30.9688C77.1811 30.7083 77.1128 30.4609 77.0477 30.2266C76.9891 29.9857 76.9337 29.7643 76.8816 29.5625C76.8361 29.3542 76.797 29.1751 76.7645 29.0254H76.6961C76.6701 29.1751 76.6342 29.3542 76.5887 29.5625C76.5431 29.7643 76.4878 29.9857 76.4227 30.2266C76.3641 30.4674 76.299 30.7214 76.2273 30.9883C76.1557 31.2487 76.0743 31.5124 75.9832 31.7793L73.991 37.9805H72.1648L69.2156 27.2773H70.8953L72.4383 33.1855C72.5424 33.5762 72.6401 33.9635 72.7312 34.3477C72.8289 34.7253 72.9103 35.0833 72.9754 35.4219C73.047 35.7539 73.0991 36.0436 73.1316 36.291H73.2098C73.2488 36.1283 73.2911 35.9329 73.3367 35.7051C73.3888 35.4772 73.4441 35.2363 73.5027 34.9824C73.5678 34.722 73.6362 34.4648 73.7078 34.2109C73.7794 33.9505 73.851 33.7064 73.9227 33.4785L75.8953 27.2773H77.6434L79.5477 33.4688C79.6453 33.7812 79.7397 34.1068 79.8309 34.4453C79.9285 34.7839 80.0164 35.1126 80.0945 35.4316C80.1727 35.7441 80.228 36.0241 80.2605 36.2715H80.3387C80.3647 36.0501 80.4135 35.7767 80.4852 35.4512C80.5568 35.1257 80.6382 34.7676 80.7293 34.377C80.827 33.9863 80.9279 33.5892 81.032 33.1855L82.5945 27.2773H84.2449L81.2859 37.9805H79.4012ZM95.0266 32.6289C95.0266 33.5078 94.9126 34.2923 94.6848 34.9824C94.4569 35.6725 94.1281 36.2552 93.6984 36.7305C93.2687 37.2057 92.7479 37.5703 92.1359 37.8242C91.5305 38.0716 90.8436 38.1953 90.0754 38.1953C89.3592 38.1953 88.7017 38.0716 88.1027 37.8242C87.5103 37.5703 86.996 37.2057 86.5598 36.7305C86.1301 36.2552 85.7948 35.6725 85.5539 34.9824C85.3195 34.2923 85.2023 33.5078 85.2023 32.6289C85.2023 31.457 85.4009 30.4609 85.798 29.6406C86.1952 28.8138 86.7616 28.1855 87.4973 27.7559C88.2395 27.3197 89.1216 27.1016 90.1437 27.1016C91.1203 27.1016 91.9732 27.3197 92.7023 27.7559C93.438 28.1921 94.0077 28.8236 94.4113 29.6504C94.8215 30.4707 95.0266 31.4635 95.0266 32.6289ZM86.882 32.6289C86.882 33.4883 86.996 34.2337 87.2238 34.8652C87.4517 35.4967 87.8033 35.985 88.2785 36.3301C88.7538 36.6751 89.3658 36.8477 90.1145 36.8477C90.8566 36.8477 91.4654 36.6751 91.9406 36.3301C92.4224 35.985 92.7772 35.4967 93.0051 34.8652C93.2329 34.2337 93.3469 33.4883 93.3469 32.6289C93.3469 31.776 93.2329 31.0404 93.0051 30.4219C92.7772 29.7969 92.4257 29.3151 91.9504 28.9766C91.4751 28.638 90.8599 28.4688 90.1047 28.4688C88.9914 28.4688 88.1743 28.8366 87.6535 29.5723C87.1392 30.3079 86.882 31.3268 86.882 32.6289ZM102.498 27.1016C103.767 27.1016 104.727 27.4141 105.379 28.0391C106.03 28.6576 106.355 29.6536 106.355 31.0273V38H104.754V31.1348C104.754 30.2428 104.548 29.5755 104.138 29.1328C103.735 28.6901 103.113 28.4688 102.273 28.4688C101.088 28.4688 100.255 28.804 99.773 29.4746C99.2913 30.1452 99.0504 31.1185 99.0504 32.3945V38H97.4293V27.2969H98.7379L98.982 28.8398H99.0699C99.2978 28.4622 99.5875 28.1465 99.9391 27.8926C100.291 27.6322 100.685 27.4368 101.121 27.3066C101.557 27.1699 102.016 27.1016 102.498 27.1016ZM110.574 23.7227L110.721 23.9375C110.604 24.4128 110.454 24.9238 110.271 25.4707C110.089 26.0111 109.891 26.5514 109.676 27.0918C109.461 27.6322 109.246 28.14 109.031 28.6152H107.84C107.938 28.2441 108.035 27.847 108.133 27.4238C108.237 27.0007 108.335 26.571 108.426 26.1348C108.517 25.6986 108.598 25.2754 108.67 24.8652C108.748 24.4551 108.813 24.0742 108.865 23.7227H110.574ZM115.75 36.8672C116.017 36.8672 116.291 36.8444 116.571 36.7988C116.851 36.7533 117.079 36.6979 117.254 36.6328V37.8926C117.065 37.9772 116.802 38.0488 116.463 38.1074C116.131 38.166 115.806 38.1953 115.487 38.1953C114.92 38.1953 114.406 38.0977 113.944 37.9023C113.482 37.7005 113.11 37.362 112.83 36.8867C112.557 36.4115 112.42 35.7539 112.42 34.9141V28.5664H110.897V27.7754L112.43 27.1406L113.075 24.8164H114.051V27.2969H117.186V28.5664H114.051V34.8652C114.051 35.5358 114.204 36.0371 114.51 36.3691C114.823 36.7012 115.236 36.8672 115.75 36.8672ZM130.741 35.0703C130.741 35.7539 130.569 36.3301 130.224 36.7988C129.885 37.2611 129.397 37.6094 128.759 37.8438C128.127 38.0781 127.372 38.1953 126.493 38.1953C125.745 38.1953 125.097 38.1367 124.55 38.0195C124.003 37.9023 123.525 37.7363 123.114 37.5215V36.0273C123.551 36.2422 124.071 36.4375 124.677 36.6133C125.282 36.7891 125.901 36.877 126.532 36.877C127.457 36.877 128.127 36.7272 128.544 36.4277C128.961 36.1283 129.169 35.7214 129.169 35.207C129.169 34.9141 129.085 34.6569 128.915 34.4355C128.752 34.2077 128.476 33.9896 128.085 33.7812C127.695 33.5664 127.154 33.332 126.464 33.0781C125.78 32.8177 125.188 32.5605 124.687 32.3066C124.192 32.0462 123.808 31.7305 123.534 31.3594C123.267 30.9883 123.134 30.5065 123.134 29.9141C123.134 29.0091 123.499 28.3158 124.228 27.834C124.963 27.3457 125.927 27.1016 127.118 27.1016C127.763 27.1016 128.365 27.1667 128.925 27.2969C129.491 27.4206 130.019 27.5898 130.507 27.8047L129.96 29.1035C129.517 28.9147 129.045 28.7552 128.544 28.625C128.043 28.4948 127.532 28.4297 127.011 28.4297C126.262 28.4297 125.686 28.5534 125.282 28.8008C124.885 29.0482 124.687 29.3867 124.687 29.8164C124.687 30.1484 124.778 30.4219 124.96 30.6367C125.149 30.8516 125.448 31.0534 125.859 31.2422C126.269 31.431 126.809 31.6523 127.48 31.9062C128.15 32.1536 128.73 32.4108 129.218 32.6777C129.706 32.9382 130.081 33.2572 130.341 33.6348C130.608 34.0059 130.741 34.4844 130.741 35.0703ZM137.07 27.1016C137.981 27.1016 138.763 27.3034 139.414 27.707C140.065 28.1107 140.563 28.6771 140.908 29.4062C141.253 30.1289 141.425 30.9753 141.425 31.9453V32.9512H134.033C134.052 34.2077 134.365 35.1647 134.97 35.8223C135.576 36.4798 136.429 36.8086 137.529 36.8086C138.206 36.8086 138.805 36.7467 139.326 36.623C139.847 36.4993 140.387 36.3171 140.947 36.0762V37.502C140.407 37.7428 139.869 37.9186 139.336 38.0293C138.808 38.14 138.183 38.1953 137.461 38.1953C136.432 38.1953 135.533 37.987 134.765 37.5703C134.004 37.1471 133.411 36.5286 132.988 35.7148C132.565 34.901 132.353 33.9049 132.353 32.7266C132.353 31.5742 132.545 30.5781 132.929 29.7383C133.32 28.8919 133.867 28.2409 134.57 27.7852C135.28 27.3294 136.113 27.1016 137.07 27.1016ZM137.05 28.4297C136.185 28.4297 135.494 28.7129 134.98 29.2793C134.466 29.8457 134.16 30.6367 134.062 31.6523H139.726C139.72 31.0143 139.619 30.4544 139.423 29.9727C139.235 29.4844 138.945 29.1068 138.554 28.8398C138.164 28.5664 137.662 28.4297 137.05 28.4297ZM148.848 27.1016C150.117 27.1016 151.077 27.4141 151.729 28.0391C152.38 28.6576 152.705 29.6536 152.705 31.0273V38H151.104V31.1348C151.104 30.2428 150.898 29.5755 150.488 29.1328C150.085 28.6901 149.463 28.4688 148.623 28.4688C147.438 28.4688 146.605 28.804 146.123 29.4746C145.641 30.1452 145.4 31.1185 145.4 32.3945V38H143.779V27.2969H145.088L145.332 28.8398H145.42C145.648 28.4622 145.938 28.1465 146.289 27.8926C146.641 27.6322 147.035 27.4368 147.471 27.3066C147.907 27.1699 148.366 27.1016 148.848 27.1016ZM159.454 38.1953C158.099 38.1953 157.025 37.7331 156.231 36.8086C155.443 35.8841 155.049 34.5104 155.049 32.6875C155.049 30.8451 155.453 29.4551 156.26 28.5176C157.067 27.5736 158.142 27.1016 159.483 27.1016C160.049 27.1016 160.544 27.1764 160.967 27.3262C161.39 27.4759 161.755 27.6777 162.061 27.9316C162.367 28.179 162.624 28.4622 162.832 28.7812H162.95C162.924 28.5794 162.898 28.3027 162.871 27.9512C162.845 27.5996 162.832 27.3132 162.832 27.0918V22.8047H164.454V38H163.145L162.901 36.4766H162.832C162.631 36.7956 162.373 37.0853 162.061 37.3457C161.755 37.6061 161.387 37.8145 160.957 37.9707C160.534 38.1204 160.033 38.1953 159.454 38.1953ZM159.707 36.8477C160.853 36.8477 161.664 36.5221 162.139 35.8711C162.614 35.2201 162.852 34.2533 162.852 32.9707V32.6777C162.852 31.3171 162.624 30.2721 162.168 29.543C161.719 28.8138 160.899 28.4492 159.707 28.4492C158.711 28.4492 157.966 28.8333 157.471 29.6016C156.976 30.3633 156.729 31.4049 156.729 32.7266C156.729 34.0417 156.973 35.0573 157.461 35.7734C157.956 36.4896 158.705 36.8477 159.707 36.8477ZM183.907 27.1016C185.086 27.1016 185.974 27.4108 186.573 28.0293C187.172 28.6413 187.472 29.6276 187.472 30.9883V38H185.87V31.0664C185.87 30.2005 185.682 29.5527 185.304 29.123C184.933 28.6868 184.379 28.4688 183.644 28.4688C182.609 28.4688 181.857 28.7682 181.388 29.3672C180.919 29.9661 180.685 30.8483 180.685 32.0137V38H179.073V31.0664C179.073 30.487 178.989 30.0052 178.82 29.6211C178.657 29.237 178.409 28.9505 178.077 28.7617C177.752 28.5664 177.338 28.4688 176.837 28.4688C176.127 28.4688 175.558 28.6152 175.128 28.9082C174.698 29.2012 174.386 29.6374 174.191 30.2168C174.002 30.7897 173.907 31.4961 173.907 32.3359V38H172.286V27.2969H173.595L173.839 28.8105H173.927C174.142 28.4395 174.412 28.127 174.738 27.873C175.063 27.6191 175.428 27.4271 175.831 27.2969C176.235 27.1667 176.665 27.1016 177.12 27.1016C177.934 27.1016 178.614 27.2546 179.161 27.5605C179.715 27.86 180.115 28.319 180.363 28.9375H180.45C180.802 28.319 181.284 27.86 181.896 27.5605C182.508 27.2546 183.178 27.1016 183.907 27.1016ZM199.63 32.6289C199.63 33.5078 199.517 34.2923 199.289 34.9824C199.061 35.6725 198.732 36.2552 198.302 36.7305C197.873 37.2057 197.352 37.5703 196.74 37.8242C196.134 38.0716 195.448 38.1953 194.679 38.1953C193.963 38.1953 193.306 38.0716 192.707 37.8242C192.114 37.5703 191.6 37.2057 191.164 36.7305C190.734 36.2552 190.399 35.6725 190.158 34.9824C189.923 34.2923 189.806 33.5078 189.806 32.6289C189.806 31.457 190.005 30.4609 190.402 29.6406C190.799 28.8138 191.365 28.1855 192.101 27.7559C192.843 27.3197 193.726 27.1016 194.748 27.1016C195.724 27.1016 196.577 27.3197 197.306 27.7559C198.042 28.1921 198.612 28.8236 199.015 29.6504C199.425 30.4707 199.63 31.4635 199.63 32.6289ZM191.486 32.6289C191.486 33.4883 191.6 34.2337 191.828 34.8652C192.056 35.4967 192.407 35.985 192.882 36.3301C193.358 36.6751 193.97 36.8477 194.718 36.8477C195.461 36.8477 196.069 36.6751 196.545 36.3301C197.026 35.985 197.381 35.4967 197.609 34.8652C197.837 34.2337 197.951 33.4883 197.951 32.6289C197.951 31.776 197.837 31.0404 197.609 30.4219C197.381 29.7969 197.03 29.3151 196.554 28.9766C196.079 28.638 195.464 28.4688 194.709 28.4688C193.595 28.4688 192.778 28.8366 192.257 29.5723C191.743 30.3079 191.486 31.3268 191.486 32.6289ZM207.102 27.1016C208.371 27.1016 209.331 27.4141 209.982 28.0391C210.633 28.6576 210.959 29.6536 210.959 31.0273V38H209.357V31.1348C209.357 30.2428 209.152 29.5755 208.742 29.1328C208.339 28.6901 207.717 28.4688 206.877 28.4688C205.692 28.4688 204.859 28.804 204.377 29.4746C203.895 30.1452 203.654 31.1185 203.654 32.3945V38H202.033V27.2969H203.342L203.586 28.8398H203.674C203.902 28.4622 204.191 28.1465 204.543 27.8926C204.895 27.6322 205.288 27.4368 205.725 27.3066C206.161 27.1699 206.62 27.1016 207.102 27.1016ZM218.02 27.1016C218.931 27.1016 219.713 27.3034 220.364 27.707C221.015 28.1107 221.513 28.6771 221.858 29.4062C222.203 30.1289 222.375 30.9753 222.375 31.9453V32.9512H214.983C215.002 34.2077 215.315 35.1647 215.92 35.8223C216.526 36.4798 217.379 36.8086 218.479 36.8086C219.156 36.8086 219.755 36.7467 220.276 36.623C220.797 36.4993 221.337 36.3171 221.897 36.0762V37.502C221.357 37.7428 220.819 37.9186 220.286 38.0293C219.758 38.14 219.133 38.1953 218.411 38.1953C217.382 38.1953 216.483 37.987 215.715 37.5703C214.954 37.1471 214.361 36.5286 213.938 35.7148C213.515 34.901 213.303 33.9049 213.303 32.7266C213.303 31.5742 213.495 30.5781 213.879 29.7383C214.27 28.8919 214.817 28.2409 215.52 27.7852C216.23 27.3294 217.063 27.1016 218.02 27.1016ZM218 28.4297C217.135 28.4297 216.444 28.7129 215.93 29.2793C215.416 29.8457 215.11 30.6367 215.012 31.6523H220.676C220.67 31.0143 220.569 30.4544 220.373 29.9727C220.185 29.4844 219.895 29.1068 219.504 28.8398C219.114 28.5664 218.612 28.4297 218 28.4297ZM223.04 27.2969H224.778L227.141 33.5078C227.278 33.8724 227.405 34.224 227.522 34.5625C227.639 34.8945 227.744 35.2135 227.835 35.5195C227.926 35.8255 227.998 36.1217 228.05 36.4082H228.118C228.209 36.0827 228.339 35.6562 228.509 35.1289C228.678 34.5951 228.86 34.0514 229.055 33.498L231.292 27.2969H233.04L228.382 39.5723C228.134 40.2298 227.845 40.8027 227.512 41.291C227.187 41.7793 226.79 42.1536 226.321 42.4141C225.852 42.681 225.286 42.8145 224.622 42.8145C224.316 42.8145 224.046 42.7949 223.811 42.7559C223.577 42.7233 223.375 42.6842 223.206 42.6387V41.3398C223.349 41.3724 223.522 41.4017 223.723 41.4277C223.932 41.4538 224.147 41.4668 224.368 41.4668C224.772 41.4668 225.12 41.3887 225.413 41.2324C225.712 41.0827 225.97 40.8613 226.184 40.5684C226.399 40.2754 226.585 39.9271 226.741 39.5234L227.327 38.0195L223.04 27.2969ZM234.105 36.9844C234.105 36.5286 234.215 36.2064 234.437 36.0176C234.658 35.8223 234.928 35.7246 235.247 35.7246C235.579 35.7246 235.859 35.8223 236.087 36.0176C236.315 36.2064 236.429 36.5286 236.429 36.9844C236.429 37.4336 236.315 37.7624 236.087 37.9707C235.859 38.1725 235.579 38.2734 235.247 38.2734C234.928 38.2734 234.658 38.1725 234.437 37.9707C234.215 37.7624 234.105 37.4336 234.105 36.9844ZM250.346 24.9824C249.558 24.9824 248.848 25.1191 248.217 25.3926C247.592 25.6595 247.058 26.0501 246.615 26.5645C246.179 27.0723 245.844 27.6875 245.609 28.4102C245.375 29.1328 245.258 29.9466 245.258 30.8516C245.258 32.0495 245.443 33.0911 245.814 33.9766C246.192 34.8555 246.752 35.5358 247.494 36.0176C248.243 36.4993 249.177 36.7402 250.297 36.7402C250.935 36.7402 251.534 36.6882 252.094 36.584C252.66 36.4733 253.21 36.3366 253.744 36.1738V37.6191C253.223 37.8145 252.676 37.9577 252.104 38.0488C251.531 38.1465 250.85 38.1953 250.062 38.1953C248.611 38.1953 247.396 37.8958 246.42 37.2969C245.45 36.6914 244.721 35.8385 244.232 34.7383C243.751 33.638 243.51 32.3392 243.51 30.8418C243.51 29.7611 243.66 28.7747 243.959 27.8828C244.265 26.9844 244.708 26.2096 245.287 25.5586C245.873 24.9076 246.589 24.4062 247.436 24.0547C248.288 23.6966 249.265 23.5176 250.365 23.5176C251.088 23.5176 251.785 23.5892 252.455 23.7324C253.126 23.8757 253.731 24.0807 254.271 24.3477L253.607 25.7539C253.152 25.5456 252.65 25.3665 252.104 25.2168C251.563 25.0605 250.977 24.9824 250.346 24.9824ZM260.2 27.1211C261.476 27.1211 262.423 27.4076 263.041 27.9805C263.66 28.5534 263.969 29.4681 263.969 30.7246V38H262.788L262.475 36.418H262.397C262.097 36.8086 261.785 37.1374 261.459 37.4043C261.134 37.6647 260.756 37.8633 260.327 38C259.903 38.1302 259.383 38.1953 258.764 38.1953C258.113 38.1953 257.534 38.0814 257.026 37.8535C256.524 37.6257 256.127 37.2806 255.834 36.8184C255.548 36.3561 255.405 35.7702 255.405 35.0605C255.405 33.9928 255.828 33.1725 256.674 32.5996C257.521 32.0267 258.81 31.7142 260.541 31.6621L262.387 31.584V30.9297C262.387 30.0052 262.189 29.3574 261.791 28.9863C261.394 28.6152 260.834 28.4297 260.112 28.4297C259.552 28.4297 259.018 28.5111 258.51 28.6738C258.002 28.8366 257.521 29.0286 257.065 29.25L256.567 28.0195C257.049 27.7721 257.602 27.5605 258.227 27.3848C258.852 27.209 259.51 27.1211 260.2 27.1211ZM262.368 32.7266L260.737 32.7949C259.402 32.847 258.461 33.0651 257.914 33.4492C257.368 33.8333 257.094 34.377 257.094 35.0801C257.094 35.6921 257.28 36.1445 257.651 36.4375C258.022 36.7305 258.513 36.877 259.125 36.877C260.076 36.877 260.854 36.6133 261.459 36.0859C262.065 35.5586 262.368 34.7676 262.368 33.7129V32.7266ZM271.977 27.1016C273.247 27.1016 274.207 27.4141 274.858 28.0391C275.509 28.6576 275.835 29.6536 275.835 31.0273V38H274.233V31.1348C274.233 30.2428 274.028 29.5755 273.618 29.1328C273.214 28.6901 272.593 28.4688 271.753 28.4688C270.568 28.4688 269.735 28.804 269.253 29.4746C268.771 30.1452 268.53 31.1185 268.53 32.3945V38H266.909V27.2969H268.218L268.462 28.8398H268.55C268.777 28.4622 269.067 28.1465 269.419 27.8926C269.77 27.6322 270.164 27.4368 270.6 27.3066C271.037 27.1699 271.496 27.1016 271.977 27.1016ZM283.814 38V23.7227H285.474V38H283.814ZM62.3301 49.8047V54.3457C62.3301 54.6061 62.3236 54.8698 62.3105 55.1367C62.2975 55.3971 62.2747 55.638 62.2422 55.8594H62.3496C62.571 55.4818 62.8509 55.166 63.1895 54.9121C63.5345 54.6517 63.9251 54.4564 64.3613 54.3262C64.7975 54.1895 65.2598 54.1211 65.748 54.1211C66.6074 54.1211 67.3236 54.2578 67.8965 54.5312C68.4759 54.8047 68.9089 55.2279 69.1953 55.8008C69.4883 56.3737 69.6348 57.1159 69.6348 58.0273V65H68.0332V58.1348C68.0332 57.2428 67.8281 56.5755 67.418 56.1328C67.0143 55.6901 66.3926 55.4688 65.5527 55.4688C64.7585 55.4688 64.1237 55.6217 63.6484 55.9277C63.1797 56.2272 62.8411 56.6699 62.6328 57.2559C62.431 57.8418 62.3301 58.5579 62.3301 59.4043V65H60.709V49.8047H62.3301ZM76.6957 54.1016C77.6072 54.1016 78.3884 54.3034 79.0395 54.707C79.6905 55.1107 80.1885 55.6771 80.5336 56.4062C80.8786 57.1289 81.0512 57.9753 81.0512 58.9453V59.9512H73.6586C73.6781 61.2077 73.9906 62.1647 74.5961 62.8223C75.2016 63.4798 76.0544 63.8086 77.1547 63.8086C77.8318 63.8086 78.4307 63.7467 78.9516 63.623C79.4724 63.4993 80.0128 63.3171 80.5727 63.0762V64.502C80.0323 64.7428 79.4952 64.9186 78.9613 65.0293C78.434 65.14 77.809 65.1953 77.0863 65.1953C76.0577 65.1953 75.1592 64.987 74.391 64.5703C73.6293 64.1471 73.0368 63.5286 72.6137 62.7148C72.1905 61.901 71.9789 60.9049 71.9789 59.7266C71.9789 58.5742 72.171 57.5781 72.5551 56.7383C72.9457 55.8919 73.4926 55.2409 74.1957 54.7852C74.9053 54.3294 75.7387 54.1016 76.6957 54.1016ZM76.6762 55.4297C75.8103 55.4297 75.1202 55.7129 74.6059 56.2793C74.0915 56.8457 73.7855 57.6367 73.6879 58.6523H79.352C79.3454 58.0143 79.2445 57.4544 79.0492 56.9727C78.8604 56.4844 78.5707 56.1068 78.1801 55.8398C77.7895 55.5664 77.2882 55.4297 76.6762 55.4297ZM85.0359 65H83.4051V49.8047H85.0359V65ZM93.093 54.1016C94.4276 54.1016 95.4921 54.5605 96.2863 55.4785C97.0806 56.3965 97.4777 57.7767 97.4777 59.6191C97.4777 60.8366 97.2954 61.8587 96.9309 62.6855C96.5663 63.5124 96.052 64.1374 95.3879 64.5605C94.7303 64.9837 93.9523 65.1953 93.0539 65.1953C92.4875 65.1953 91.9895 65.1204 91.5598 64.9707C91.1301 64.821 90.7622 64.6191 90.4562 64.3652C90.1503 64.1113 89.8964 63.8346 89.6945 63.5352H89.5773C89.5969 63.7891 89.6197 64.0951 89.6457 64.4531C89.6783 64.8112 89.6945 65.1237 89.6945 65.3906V69.7852H88.0637V54.2969H89.4016L89.6164 55.8789H89.6945C89.9029 55.5534 90.1568 55.2572 90.4562 54.9902C90.7557 54.7168 91.1203 54.502 91.55 54.3457C91.9862 54.1829 92.5005 54.1016 93.093 54.1016ZM92.8098 55.4688C92.0676 55.4688 91.4686 55.612 91.0129 55.8984C90.5637 56.1849 90.2349 56.6146 90.0266 57.1875C89.8182 57.7539 89.7076 58.4668 89.6945 59.3262V59.6387C89.6945 60.5436 89.7922 61.3086 89.9875 61.9336C90.1893 62.5586 90.5181 63.0339 90.9738 63.3594C91.4361 63.6849 92.0546 63.8477 92.8293 63.8477C93.4934 63.8477 94.0467 63.6686 94.4895 63.3105C94.9322 62.9525 95.2609 62.4544 95.4758 61.8164C95.6971 61.1719 95.8078 60.4329 95.8078 59.5996C95.8078 58.3366 95.5604 57.334 95.0656 56.5918C94.5773 55.8431 93.8254 55.4688 92.8098 55.4688ZM108.709 54.1211C109.985 54.1211 110.932 54.4076 111.551 54.9805C112.169 55.5534 112.479 56.4681 112.479 57.7246V65H111.297L110.984 63.418H110.906C110.607 63.8086 110.294 64.1374 109.969 64.4043C109.643 64.6647 109.266 64.8633 108.836 65C108.413 65.1302 107.892 65.1953 107.273 65.1953C106.622 65.1953 106.043 65.0814 105.535 64.8535C105.034 64.6257 104.637 64.2806 104.344 63.8184C104.057 63.3561 103.914 62.7702 103.914 62.0605C103.914 60.9928 104.337 60.1725 105.184 59.5996C106.03 59.0267 107.319 58.7142 109.051 58.6621L110.896 58.584V57.9297C110.896 57.0052 110.698 56.3574 110.301 55.9863C109.904 55.6152 109.344 55.4297 108.621 55.4297C108.061 55.4297 107.527 55.5111 107.02 55.6738C106.512 55.8366 106.03 56.0286 105.574 56.25L105.076 55.0195C105.558 54.7721 106.111 54.5605 106.736 54.3848C107.361 54.209 108.019 54.1211 108.709 54.1211ZM110.877 59.7266L109.246 59.7949C107.911 59.847 106.971 60.0651 106.424 60.4492C105.877 60.8333 105.604 61.377 105.604 62.0801C105.604 62.6921 105.789 63.1445 106.16 63.4375C106.531 63.7305 107.023 63.877 107.635 63.877C108.585 63.877 109.363 63.6133 109.969 63.0859C110.574 62.5586 110.877 61.7676 110.877 60.7129V59.7266ZM120.487 54.1016C121.756 54.1016 122.717 54.4141 123.368 55.0391C124.019 55.6576 124.344 56.6536 124.344 58.0273V65H122.743V58.1348C122.743 57.2428 122.537 56.5755 122.127 56.1328C121.724 55.6901 121.102 55.4688 120.262 55.4688C119.077 55.4688 118.244 55.804 117.762 56.4746C117.28 57.1452 117.039 58.1185 117.039 59.3945V65H115.418V54.2969H116.727L116.971 55.8398H117.059C117.287 55.4622 117.577 55.1465 117.928 54.8926C118.28 54.6322 118.674 54.4368 119.11 54.3066C119.546 54.1699 120.005 54.1016 120.487 54.1016ZM136.512 59.6289C136.512 60.5078 136.399 61.2923 136.171 61.9824C135.943 62.6725 135.614 63.2552 135.184 63.7305C134.755 64.2057 134.234 64.5703 133.622 64.8242C133.016 65.0716 132.33 65.1953 131.561 65.1953C130.845 65.1953 130.188 65.0716 129.589 64.8242C128.996 64.5703 128.482 64.2057 128.046 63.7305C127.616 63.2552 127.281 62.6725 127.04 61.9824C126.805 61.2923 126.688 60.5078 126.688 59.6289C126.688 58.457 126.887 57.4609 127.284 56.6406C127.681 55.8138 128.248 55.1855 128.983 54.7559C129.725 54.3197 130.608 54.1016 131.63 54.1016C132.606 54.1016 133.459 54.3197 134.188 54.7559C134.924 55.1921 135.494 55.8236 135.897 56.6504C136.307 57.4707 136.512 58.4635 136.512 59.6289ZM128.368 59.6289C128.368 60.4883 128.482 61.2337 128.71 61.8652C128.938 62.4967 129.289 62.985 129.764 63.3301C130.24 63.6751 130.852 63.8477 131.6 63.8477C132.343 63.8477 132.951 63.6751 133.427 63.3301C133.908 62.985 134.263 62.4967 134.491 61.8652C134.719 61.2337 134.833 60.4883 134.833 59.6289C134.833 58.776 134.719 58.0404 134.491 57.4219C134.263 56.7969 133.912 56.3151 133.436 55.9766C132.961 55.638 132.346 55.4688 131.591 55.4688C130.477 55.4688 129.66 55.8366 129.139 56.5723C128.625 57.3079 128.368 58.3268 128.368 59.6289ZM142.372 63.8672C142.639 63.8672 142.913 63.8444 143.193 63.7988C143.473 63.7533 143.7 63.6979 143.876 63.6328V64.8926C143.687 64.9772 143.424 65.0488 143.085 65.1074C142.753 65.166 142.428 65.1953 142.109 65.1953C141.542 65.1953 141.028 65.0977 140.566 64.9023C140.103 64.7005 139.732 64.362 139.452 63.8867C139.179 63.4115 139.042 62.7539 139.042 61.9141V55.5664H137.519V54.7754L139.052 54.1406L139.696 51.8164H140.673V54.2969H143.808V55.5664H140.673V61.8652C140.673 62.5358 140.826 63.0371 141.132 63.3691C141.445 63.7012 141.858 63.8672 142.372 63.8672ZM147.265 49.8047V54.3457C147.265 54.6061 147.259 54.8698 147.246 55.1367C147.233 55.3971 147.21 55.638 147.177 55.8594H147.285C147.506 55.4818 147.786 55.166 148.125 54.9121C148.47 54.6517 148.86 54.4564 149.296 54.3262C149.733 54.1895 150.195 54.1211 150.683 54.1211C151.543 54.1211 152.259 54.2578 152.832 54.5312C153.411 54.8047 153.844 55.2279 154.13 55.8008C154.423 56.3737 154.57 57.1159 154.57 58.0273V65H152.968V58.1348C152.968 57.2428 152.763 56.5755 152.353 56.1328C151.949 55.6901 151.328 55.4688 150.488 55.4688C149.694 55.4688 149.059 55.6217 148.584 55.9277C148.115 56.2272 147.776 56.6699 147.568 57.2559C147.366 57.8418 147.265 58.5579 147.265 59.4043V65H145.644V49.8047H147.265ZM161.631 54.1016C162.542 54.1016 163.324 54.3034 163.975 54.707C164.626 55.1107 165.124 55.6771 165.469 56.4062C165.814 57.1289 165.986 57.9753 165.986 58.9453V59.9512H158.594C158.613 61.2077 158.926 62.1647 159.531 62.8223C160.137 63.4798 160.99 63.8086 162.09 63.8086C162.767 63.8086 163.366 63.7467 163.887 63.623C164.408 63.4993 164.948 63.3171 165.508 63.0762V64.502C164.967 64.7428 164.43 64.9186 163.896 65.0293C163.369 65.14 162.744 65.1953 162.021 65.1953C160.993 65.1953 160.094 64.987 159.326 64.5703C158.564 64.1471 157.972 63.5286 157.549 62.7148C157.126 61.901 156.914 60.9049 156.914 59.7266C156.914 58.5742 157.106 57.5781 157.49 56.7383C157.881 55.8919 158.428 55.2409 159.131 54.7852C159.84 54.3294 160.674 54.1016 161.631 54.1016ZM161.611 55.4297C160.745 55.4297 160.055 55.7129 159.541 56.2793C159.027 56.8457 158.721 57.6367 158.623 58.6523H164.287C164.281 58.0143 164.18 57.4544 163.984 56.9727C163.796 56.4844 163.506 56.1068 163.115 55.8398C162.725 55.5664 162.223 55.4297 161.611 55.4297ZM173.204 54.1016C173.418 54.1016 173.643 54.1146 173.877 54.1406C174.112 54.1602 174.32 54.1895 174.502 54.2285L174.297 55.7324C174.121 55.6868 173.926 55.651 173.711 55.625C173.496 55.599 173.295 55.5859 173.106 55.5859C172.676 55.5859 172.269 55.6738 171.885 55.8496C171.508 56.0189 171.176 56.2663 170.889 56.5918C170.603 56.9108 170.378 57.2982 170.215 57.7539C170.052 58.2031 169.971 58.7044 169.971 59.2578V65H168.34V54.2969H169.688L169.864 56.2695H169.932C170.153 55.8724 170.42 55.5111 170.733 55.1855C171.045 54.8535 171.407 54.5898 171.817 54.3945C172.233 54.1992 172.696 54.1016 173.204 54.1016ZM189.63 64.9805L187.726 58.75C187.641 58.4831 187.56 58.2227 187.482 57.9688C187.41 57.7083 187.342 57.4609 187.277 57.2266C187.218 56.9857 187.163 56.7643 187.111 56.5625C187.065 56.3542 187.026 56.1751 186.993 56.0254H186.925C186.899 56.1751 186.863 56.3542 186.818 56.5625C186.772 56.7643 186.717 56.9857 186.652 57.2266C186.593 57.4674 186.528 57.7214 186.456 57.9883C186.385 58.2487 186.303 58.5124 186.212 58.7793L184.22 64.9805H182.394L179.445 54.2773H181.124L182.667 60.1855C182.771 60.5762 182.869 60.9635 182.96 61.3477C183.058 61.7253 183.139 62.0833 183.204 62.4219C183.276 62.7539 183.328 63.0436 183.361 63.291H183.439C183.478 63.1283 183.52 62.9329 183.566 62.7051C183.618 62.4772 183.673 62.2363 183.732 61.9824C183.797 61.722 183.865 61.4648 183.937 61.2109C184.008 60.9505 184.08 60.7064 184.152 60.4785L186.124 54.2773H187.872L189.777 60.4688C189.874 60.7812 189.969 61.1068 190.06 61.4453C190.157 61.7839 190.245 62.1126 190.323 62.4316C190.402 62.7441 190.457 63.0241 190.489 63.2715H190.568C190.594 63.0501 190.642 62.7767 190.714 62.4512C190.786 62.1257 190.867 61.7676 190.958 61.377C191.056 60.9863 191.157 60.5892 191.261 60.1855L192.823 54.2773H194.474L191.515 64.9805H189.63ZM200.031 54.1211C201.307 54.1211 202.254 54.4076 202.873 54.9805C203.491 55.5534 203.8 56.4681 203.8 57.7246V65H202.619L202.306 63.418H202.228C201.929 63.8086 201.616 64.1374 201.291 64.4043C200.965 64.6647 200.587 64.8633 200.158 65C199.735 65.1302 199.214 65.1953 198.595 65.1953C197.944 65.1953 197.365 65.0814 196.857 64.8535C196.356 64.6257 195.959 64.2806 195.666 63.8184C195.379 63.3561 195.236 62.7702 195.236 62.0605C195.236 60.9928 195.659 60.1725 196.505 59.5996C197.352 59.0267 198.641 58.7142 200.373 58.6621L202.218 58.584V57.9297C202.218 57.0052 202.02 56.3574 201.623 55.9863C201.226 55.6152 200.666 55.4297 199.943 55.4297C199.383 55.4297 198.849 55.5111 198.341 55.6738C197.834 55.8366 197.352 56.0286 196.896 56.25L196.398 55.0195C196.88 54.7721 197.433 54.5605 198.058 54.3848C198.683 54.209 199.341 54.1211 200.031 54.1211ZM202.199 59.7266L200.568 59.7949C199.233 59.847 198.293 60.0651 197.746 60.4492C197.199 60.8333 196.925 61.377 196.925 62.0801C196.925 62.6921 197.111 63.1445 197.482 63.4375C197.853 63.7305 198.345 63.877 198.957 63.877C199.907 63.877 200.685 63.6133 201.291 63.0859C201.896 62.5586 202.199 61.7676 202.199 60.7129V59.7266ZM205.051 54.2969H206.789L209.152 60.5078C209.289 60.8724 209.416 61.224 209.533 61.5625C209.65 61.8945 209.755 62.2135 209.846 62.5195C209.937 62.8255 210.008 63.1217 210.061 63.4082H210.129C210.22 63.0827 210.35 62.6562 210.52 62.1289C210.689 61.5951 210.871 61.0514 211.066 60.498L213.303 54.2969H215.051L210.393 66.5723C210.145 67.2298 209.855 67.8027 209.523 68.291C209.198 68.7793 208.801 69.1536 208.332 69.4141C207.863 69.681 207.297 69.8145 206.633 69.8145C206.327 69.8145 206.057 69.7949 205.822 69.7559C205.588 69.7233 205.386 69.6842 205.217 69.6387V68.3398C205.36 68.3724 205.533 68.4017 205.734 68.4277C205.943 68.4538 206.158 68.4668 206.379 68.4668C206.783 68.4668 207.131 68.3887 207.424 68.2324C207.723 68.0827 207.98 67.8613 208.195 67.5684C208.41 67.2754 208.596 66.9271 208.752 66.5234L209.338 65.0195L205.051 54.2969ZM217.463 61.0352V60.5273C217.463 60.0065 217.512 59.5605 217.61 59.1895C217.707 58.8118 217.877 58.4603 218.118 58.1348C218.365 57.8092 218.707 57.4642 219.143 57.0996C219.651 56.6764 220.051 56.3184 220.344 56.0254C220.644 55.7259 220.858 55.4264 220.989 55.127C221.119 54.8275 221.184 54.4661 221.184 54.043C221.184 53.3659 220.966 52.8483 220.53 52.4902C220.093 52.1257 219.478 51.9434 218.684 51.9434C218.039 51.9434 217.467 52.0247 216.965 52.1875C216.464 52.3503 215.982 52.5456 215.52 52.7734L214.954 51.4648C215.487 51.1849 216.067 50.957 216.692 50.7812C217.317 50.6055 218.013 50.5176 218.782 50.5176C220.038 50.5176 221.011 50.8301 221.702 51.4551C222.392 52.0736 222.737 52.9264 222.737 54.0137C222.737 54.6191 222.639 55.1367 222.444 55.5664C222.248 55.9896 221.972 56.3802 221.614 56.7383C221.256 57.0898 220.832 57.4642 220.344 57.8613C219.914 58.2259 219.586 58.5482 219.358 58.8281C219.13 59.1016 218.974 59.3848 218.889 59.6777C218.804 59.9642 218.762 60.3092 218.762 60.7129V61.0352H217.463ZM217.034 63.9844C217.034 63.5286 217.141 63.2064 217.356 63.0176C217.571 62.8223 217.847 62.7246 218.186 62.7246C218.505 62.7246 218.775 62.8223 218.996 63.0176C219.224 63.2064 219.338 63.5286 219.338 63.9844C219.338 64.4336 219.224 64.7624 218.996 64.9707C218.775 65.1725 218.505 65.2734 218.186 65.2734C217.847 65.2734 217.571 65.1725 217.356 64.9707C217.141 64.7624 217.034 64.4336 217.034 63.9844Z" fill="white"/>
</svg>
