<svg width="262" height="87" viewBox="0 0 262 87" fill="none" xmlns="http://www.w3.org/2000/svg">
<path d="M16.6455 23.917C16.6455 23.1878 16.3721 22.6523 15.8252 22.3105C15.3011 21.946 14.7201 21.7637 14.082 21.7637C12.806 21.7637 11.5641 21.9574 10.3564 22.3447C9.14876 22.7093 8.06641 23.222 7.10938 23.8828C6.15234 24.5208 5.3776 25.2956 4.78516 26.207C4.21549 27.0957 3.93066 28.0641 3.93066 29.1123C3.93066 29.8415 4.02181 30.4225 4.2041 30.8555C4.40918 31.2884 4.63704 31.6188 4.8877 31.8467C5.13835 32.0518 5.389 32.1885 5.63965 32.2568C5.91309 32.3024 6.10677 32.3252 6.2207 32.3252C6.79036 32.3252 7.25749 32.234 7.62207 32.0518C7.98665 31.8467 8.31706 31.6416 8.61328 31.4365C8.90951 31.2087 9.18294 31.0036 9.43359 30.8213C9.70703 30.6162 10.0146 30.5137 10.3564 30.5137C10.6299 30.5137 10.9147 30.582 11.2109 30.7188C11.5299 30.8327 11.8148 31.0264 12.0654 31.2998C12.3389 31.5732 12.5667 31.9378 12.749 32.3936C12.9313 32.8265 13.0225 33.362 13.0225 34C13.0225 34.9115 12.8402 35.6976 12.4756 36.3584C12.1338 37.0192 11.6781 37.5775 11.1084 38.0332C10.5615 38.4661 9.9235 38.7965 9.19434 39.0244C8.48796 39.2295 7.78158 39.332 7.0752 39.332C5.98145 39.332 4.99023 39.1497 4.10156 38.7852C3.23568 38.3978 2.49512 37.8737 1.87988 37.2129C1.26465 36.5521 0.797526 35.7773 0.478516 34.8887C0.159505 34 0 33.0544 0 32.0518C0 29.2035 0.717773 26.8678 2.15332 25.0449C3.58887 23.1992 5.53711 21.7523 7.99805 20.7041C10.4818 19.6331 13.3643 18.904 16.6455 18.5166C19.9495 18.1064 23.4587 17.9014 27.1729 17.9014C31.4111 17.9014 35.2393 18.3343 38.6572 19.2002C42.098 20.0433 45.0374 21.4219 47.4756 23.3359C49.9137 25.25 51.7936 27.7565 53.1152 30.8555C54.4368 33.9316 55.0977 37.6914 55.0977 42.1348C55.0977 46.5781 54.3913 50.5202 52.9785 53.9609C51.5885 57.4017 49.6745 60.2956 47.2363 62.6426C44.821 64.9668 41.9727 66.7441 38.6914 67.9746C35.4329 69.1823 31.9352 69.7861 28.1982 69.7861C25.7145 69.7861 23.7093 69.6608 22.1826 69.4102C20.6787 69.1823 19.5166 68.7835 18.6963 68.2139C17.876 67.6214 17.3291 66.8467 17.0557 65.8896C16.7822 64.9098 16.6455 63.6794 16.6455 62.1982V23.917ZM27.9248 62.5059C27.9248 63.8047 28.2096 64.7389 28.7793 65.3086C29.3717 65.8555 30.2376 66.1289 31.377 66.1289C33.0859 66.1289 34.6582 65.7529 36.0938 65.001C37.5521 64.249 38.8053 62.9616 39.8535 61.1387C40.9017 59.293 41.722 56.8434 42.3145 53.79C42.9069 50.7367 43.2031 46.8971 43.2031 42.2715C43.2031 39.1725 43.0094 36.4951 42.6221 34.2393C42.2575 31.9606 41.7676 30.0352 41.1523 28.4629C40.5371 26.8678 39.8307 25.5804 39.0332 24.6006C38.2585 23.598 37.4609 22.8232 36.6406 22.2764C35.8203 21.7067 35.0114 21.3307 34.2139 21.1484C33.4391 20.9434 32.7441 20.8408 32.1289 20.8408C30.6478 20.8408 29.5768 21.1712 28.916 21.832C28.2552 22.4928 27.9248 23.6777 27.9248 25.3867V62.5059ZM70.9912 53.3115C70.9912 54.0407 71.0938 54.8382 71.2988 55.7041C71.5267 56.5472 71.8457 57.4017 72.2559 58.2676C72.666 59.1335 73.1673 59.9652 73.7598 60.7627C74.375 61.5374 75.07 62.2324 75.8447 62.8477C76.6423 63.4629 77.5195 63.9528 78.4766 64.3174C79.4336 64.682 80.4818 64.8643 81.6211 64.8643C82.4186 64.8643 83.1592 64.7731 83.8428 64.5908C84.5264 64.4085 85.1644 64.1579 85.7568 63.8389C86.3493 63.5199 86.9189 63.1553 87.4658 62.7451C88.0127 62.3122 88.5596 61.8564 89.1064 61.3779L89.9609 62.1982C89.4368 62.9046 88.7646 63.6794 87.9443 64.5225C87.124 65.3656 86.1328 66.1631 84.9707 66.915C83.8086 67.6442 82.4528 68.2594 80.9033 68.7607C79.3538 69.2393 77.5879 69.4785 75.6055 69.4785C73.623 69.4785 71.6862 69.1253 69.7949 68.4189C67.9264 67.6898 66.263 66.6074 64.8047 65.1719C63.3464 63.7363 62.1729 61.9476 61.2842 59.8057C60.4183 57.6637 59.9854 55.1572 59.9854 52.2861C59.9854 50.2126 60.2474 48.3099 60.7715 46.5781C61.2956 44.8464 62.002 43.2855 62.8906 41.8955C63.8021 40.5055 64.8503 39.2865 66.0352 38.2383C67.2428 37.1901 68.5075 36.3242 69.8291 35.6406C71.1507 34.9342 72.4951 34.4102 73.8623 34.0684C75.2523 33.7038 76.5853 33.5215 77.8613 33.5215C79.5475 33.5215 81.0173 33.7038 82.2705 34.0684C83.5238 34.4329 84.5605 34.9229 85.3809 35.5381C86.224 36.1533 86.8506 36.8711 87.2607 37.6914C87.6709 38.4889 87.876 39.332 87.876 40.2207C87.876 41.2917 87.5684 42.2601 86.9531 43.126C86.3379 43.9691 85.5176 44.7096 84.4922 45.3477L70.9912 53.3115ZM77.8613 46.373C78.1576 46.1908 78.3968 46.0199 78.5791 45.8604C78.7842 45.6781 78.9437 45.473 79.0576 45.2451C79.1715 44.9945 79.2513 44.6982 79.2969 44.3564C79.3652 43.9919 79.3994 43.5475 79.3994 43.0234C79.3994 42.4538 79.3311 41.8271 79.1943 41.1436C79.0804 40.4372 78.8753 39.7764 78.5791 39.1611C78.2829 38.5459 77.9069 38.0332 77.4512 37.623C76.9954 37.2129 76.4486 37.0078 75.8105 37.0078C74.9902 37.0078 74.2839 37.2585 73.6914 37.7598C73.1217 38.2383 72.6432 38.8649 72.2559 39.6396C71.8913 40.4144 71.5951 41.3031 71.3672 42.3057C71.1621 43.2855 71.0026 44.2767 70.8887 45.2793C70.7747 46.2819 70.7064 47.2503 70.6836 48.1846C70.6608 49.096 70.6494 49.8708 70.6494 50.5088L77.8613 46.373ZM111.426 18.1748C110.788 18.1748 110.184 18.3115 109.614 18.585C109.045 18.8584 108.543 19.3027 108.11 19.918C107.7 20.5104 107.37 21.2738 107.119 22.208C106.868 23.1423 106.743 24.2702 106.743 25.5918V34H114.229V36.4609H106.743V63.3945C106.743 66.4935 106.333 69.3532 105.513 71.9736C104.715 74.5941 103.496 76.8499 101.855 78.7412C100.215 80.6553 98.1641 82.1478 95.7031 83.2188C93.2422 84.2897 90.3711 84.8252 87.0898 84.8252C85.9277 84.8252 84.8112 84.7227 83.7402 84.5176C82.6693 84.3353 81.7236 84.0732 80.9033 83.7314C80.083 83.3896 79.4336 82.9795 78.9551 82.501C78.4538 82.0452 78.2031 81.5326 78.2031 80.9629C78.2031 80.5527 78.2601 80.1312 78.374 79.6982C78.488 79.2881 78.6589 78.9121 78.8867 78.5703C79.1146 78.2285 79.3994 77.9437 79.7412 77.7158C80.0602 77.5107 80.4362 77.4082 80.8691 77.4082C81.1198 77.4082 81.3477 77.5335 81.5527 77.7842C81.735 78.0348 81.9287 78.3424 82.1338 78.707C82.3389 79.0716 82.5781 79.4704 82.8516 79.9033C83.1022 80.359 83.4326 80.7692 83.8428 81.1338C84.2529 81.4984 84.7656 81.806 85.3809 82.0566C85.9733 82.3073 86.7025 82.4326 87.5684 82.4326C88.7305 82.4326 89.7559 82.1934 90.6445 81.7148C91.5332 81.2591 92.2965 80.6211 92.9346 79.8008C93.5726 78.9805 94.1081 78.012 94.541 76.8955C94.974 75.779 95.3158 74.5827 95.5664 73.3066C95.8171 72.0306 95.988 70.6976 96.0791 69.3076C96.193 67.9176 96.25 66.5277 96.25 65.1377V36.4609H89.9609V34H96.25V30.001C96.25 27.9958 96.4893 26.2526 96.9678 24.7715C97.4691 23.2676 98.1185 21.9915 98.916 20.9434C99.7363 19.8952 100.659 19.0407 101.685 18.3799C102.71 17.7191 103.747 17.195 104.795 16.8076C105.866 16.4202 106.903 16.1582 107.905 16.0215C108.908 15.8848 109.785 15.8164 110.537 15.8164C112.155 15.8164 113.59 15.9417 114.844 16.1924C116.097 16.4202 117.145 16.7393 117.988 17.1494C118.831 17.5368 119.469 17.9925 119.902 18.5166C120.335 19.0407 120.552 19.5762 120.552 20.123C120.552 20.5332 120.483 20.9548 120.347 21.3877C120.233 21.7979 120.062 22.1852 119.834 22.5498C119.606 22.8916 119.321 23.1764 118.979 23.4043C118.66 23.6094 118.296 23.7119 117.886 23.7119C117.635 23.7119 117.407 23.5752 117.202 23.3018C116.997 23.0283 116.781 22.6865 116.553 22.2764C116.325 21.8662 116.074 21.4219 115.801 20.9434C115.527 20.4648 115.186 20.0205 114.775 19.6104C114.388 19.2002 113.921 18.8584 113.374 18.585C112.827 18.3115 112.178 18.1748 111.426 18.1748ZM184.81 51.9785C184.81 49.1074 184.673 46.8174 184.399 45.1084C184.149 43.3766 183.807 42.0664 183.374 41.1777C182.941 40.2663 182.463 39.6738 181.938 39.4004C181.414 39.1042 180.879 38.9561 180.332 38.9561C179.671 38.9561 179.079 39.1383 178.555 39.5029C178.053 39.8447 177.609 40.2435 177.222 40.6992C176.857 41.1549 176.538 41.6107 176.265 42.0664C176.014 42.5221 175.798 42.8639 175.615 43.0918V65.9238C175.615 66.2201 175.57 66.5846 175.479 67.0176C175.387 67.4277 175.16 67.8265 174.795 68.2139C174.453 68.5785 173.929 68.8861 173.223 69.1367C172.539 69.4102 171.593 69.5469 170.386 69.5469C169.178 69.5469 168.221 69.3988 167.515 69.1025C166.831 68.8291 166.307 68.4987 165.942 68.1113C165.578 67.724 165.35 67.3252 165.259 66.915C165.168 66.5049 165.122 66.1745 165.122 65.9238V39.5371C165.122 38.8763 164.963 38.3066 164.644 37.8281C164.347 37.3268 163.835 37.0762 163.105 37.0762C162.718 37.0762 162.388 37.1445 162.114 37.2812C161.841 37.418 161.545 37.6117 161.226 37.8623L160.508 37.0078C161.032 36.5749 161.613 36.1533 162.251 35.7432C162.912 35.3102 163.618 34.9342 164.37 34.6152C165.122 34.2962 165.931 34.0342 166.797 33.8291C167.663 33.624 168.574 33.5215 169.531 33.5215C171.012 33.5215 172.163 33.7721 172.983 34.2734C173.804 34.752 174.408 35.333 174.795 36.0166C175.182 36.7002 175.41 37.418 175.479 38.1699C175.57 38.8991 175.615 39.5143 175.615 40.0156C176.458 38.8079 177.415 37.7256 178.486 36.7686C178.919 36.3584 179.398 35.9596 179.922 35.5723C180.469 35.1849 181.038 34.8431 181.631 34.5469C182.246 34.2279 182.884 33.9772 183.545 33.7949C184.229 33.6126 184.924 33.5215 185.63 33.5215C187.179 33.5215 188.547 33.8177 189.731 34.4102C190.939 35.0026 191.953 35.9938 192.773 37.3838C193.594 38.7738 194.22 40.6195 194.653 42.9209C195.086 45.1995 195.303 48.0365 195.303 51.4316C195.303 54.7357 195.007 57.6068 194.414 60.0449C193.822 62.4831 193.047 64.5566 192.09 66.2656C191.133 67.9746 190.05 69.3646 188.843 70.4355C187.635 71.5293 186.416 72.3838 185.186 72.999C183.955 73.6143 182.77 74.0358 181.631 74.2637C180.514 74.5143 179.546 74.651 178.726 74.6738L178.35 73.2725C179.033 73.113 179.66 72.8623 180.229 72.5205C180.822 72.1787 181.357 71.6774 181.836 71.0166C182.314 70.3558 182.736 69.5241 183.101 68.5215C183.465 67.4961 183.773 66.2201 184.023 64.6934C184.297 63.1667 184.491 61.3665 184.604 59.293C184.741 57.1966 184.81 54.7585 184.81 51.9785ZM221.348 50.4404C221.348 50.1898 221.348 49.6885 221.348 48.9365C221.348 48.1618 221.325 47.2845 221.279 46.3047C221.234 45.3021 221.154 44.2425 221.04 43.126C220.926 42.0094 220.744 40.9727 220.493 40.0156C219.946 39.3092 219.331 38.6826 218.647 38.1357C217.987 37.5661 217.132 37.2812 216.084 37.2812C214.307 37.2812 212.996 38.4434 212.153 40.7676C211.333 43.0918 210.923 46.6921 210.923 51.5684C210.923 53.7103 211.014 55.6699 211.196 57.4473C211.401 59.2246 211.698 60.7513 212.085 62.0273C212.495 63.3034 213.008 64.2946 213.623 65.001C214.261 65.7074 215.013 66.0605 215.879 66.0605C219.525 66.0605 221.348 60.8538 221.348 50.4404ZM220.938 35.4014C220.505 33.1227 219.901 31.0036 219.126 29.0439C218.351 27.0615 217.417 25.3525 216.323 23.917C215.252 22.4814 214.022 21.3535 212.632 20.5332C211.265 19.7129 209.784 19.3027 208.188 19.3027C207.277 19.3027 206.445 19.4167 205.693 19.6445C204.964 19.8724 204.326 20.1458 203.779 20.4648C203.232 20.7611 202.777 21.0573 202.412 21.3535C202.07 21.627 201.82 21.832 201.66 21.9688L200.771 20.7725C201.318 20.0661 201.979 19.4053 202.754 18.79C203.551 18.1748 204.417 17.6507 205.352 17.2178C206.286 16.7848 207.266 16.443 208.291 16.1924C209.339 15.9417 210.376 15.8164 211.401 15.8164C214.774 15.8164 217.736 16.557 220.288 18.0381C222.84 19.4964 224.971 21.57 226.68 24.2588C228.389 26.9476 229.676 30.1947 230.542 34C231.408 37.8053 231.841 42.0322 231.841 46.6807C231.841 50.4404 231.453 53.7445 230.679 56.5928C229.927 59.4411 228.844 61.8337 227.432 63.7705C226.019 65.6846 224.299 67.1315 222.271 68.1113C220.265 69.0684 217.998 69.5469 215.469 69.5469C213.714 69.5469 211.925 69.2393 210.103 68.624C208.302 67.986 206.662 66.9606 205.181 65.5479C203.722 64.1351 202.526 62.2894 201.592 60.0107C200.658 57.7093 200.19 54.8952 200.19 51.5684C200.19 48.6973 200.589 46.1452 201.387 43.9121C202.207 41.679 203.301 39.7992 204.668 38.2725C206.035 36.723 207.619 35.5495 209.419 34.752C211.219 33.9316 213.122 33.5215 215.127 33.5215C215.902 33.5215 216.597 33.5898 217.212 33.7266C217.827 33.8405 218.363 33.9886 218.818 34.1709C219.274 34.3532 219.673 34.5583 220.015 34.7861C220.356 34.9912 220.664 35.1963 220.938 35.4014ZM249.307 40.7334C250.173 39.4118 251.095 38.2155 252.075 37.1445C252.485 36.6888 252.93 36.2445 253.408 35.8115C253.887 35.3786 254.377 34.9912 254.878 34.6494C255.402 34.3076 255.938 34.0342 256.484 33.8291C257.031 33.624 257.578 33.5215 258.125 33.5215C259.287 33.5215 260.199 33.8747 260.859 34.5811C261.52 35.2646 261.851 36.2331 261.851 37.4863C261.851 38.2611 261.782 39.013 261.646 39.7422C261.532 40.4486 261.292 41.3145 260.928 42.3398H259.971C259.834 41.6335 259.515 41.0524 259.014 40.5967C258.512 40.1182 257.783 39.8789 256.826 39.8789C256.12 39.8789 255.425 40.0156 254.741 40.2891C254.058 40.5397 253.385 40.8587 252.725 41.2461C252.087 41.6335 251.471 42.055 250.879 42.5107C250.309 42.9665 249.785 43.3994 249.307 43.8096V65.9922C249.307 66.2884 249.261 66.6416 249.17 67.0518C249.079 67.4619 248.851 67.8493 248.486 68.2139C248.145 68.5785 247.62 68.8861 246.914 69.1367C246.23 69.4102 245.285 69.5469 244.077 69.5469C242.869 69.5469 241.912 69.3988 241.206 69.1025C240.522 68.8291 239.998 68.4987 239.634 68.1113C239.269 67.724 239.041 67.3252 238.95 66.915C238.859 66.5049 238.813 66.1745 238.813 65.9238V39.5371C238.813 38.8763 238.654 38.3066 238.335 37.8281C238.039 37.3268 237.526 37.0762 236.797 37.0762C236.41 37.0762 236.079 37.1445 235.806 37.2812C235.532 37.418 235.236 37.6117 234.917 37.8623L234.199 37.0078C234.723 36.5749 235.304 36.1533 235.942 35.7432C236.603 35.3102 237.31 34.9342 238.062 34.6152C238.813 34.2962 239.622 34.0342 240.488 33.8291C241.354 33.624 242.266 33.5215 243.223 33.5215C244.202 33.5215 245.034 33.6582 245.718 33.9316C246.424 34.1823 246.994 34.5241 247.427 34.957C247.882 35.3672 248.236 35.8343 248.486 36.3584C248.737 36.8825 248.919 37.418 249.033 37.9648C249.17 38.4889 249.25 39.0016 249.272 39.5029C249.295 39.9814 249.307 40.3916 249.307 40.7334Z" fill="white"/>
<path d="M155.97 48.8874C155.875 37.2918 144.094 38.3145 139.457 42.2115C130.772 31.601 124.274 37.7309 122.11 42.1221C117.511 51.6221 128.855 63.8895 135.102 68.8357C141.719 67.1028 155.156 60.6871 155.97 48.8874Z" fill="white" stroke="white" stroke-linecap="round"/>
<path d="M130.772 37.4728C130.709 32.9583 132.829 24.2813 141.808 25.6896C150.788 27.0979 149.943 36.4796 148.398 40.9944" stroke="white" stroke-width="3"/>
<circle cx="138.315" cy="51.0274" r="2.83804" transform="rotate(11.2988 138.315 51.0274)" fill="#ED8986"/>
<path d="M138.687 58.8196L134.977 58.0782L137.944 52.8828L138.687 58.8196Z" fill="#ED8986" stroke="#ED8986"/>
</svg>
