<svg width="113" height="37" viewBox="0 0 113 37" fill="none" xmlns="http://www.w3.org/2000/svg">
<path d="M66.0536 19.9275C66.0143 15.1331 61.1433 15.5559 59.2259 17.1672C55.635 12.7801 52.9481 15.3146 52.0534 17.1303C50.1518 21.0582 54.8423 26.1304 57.4253 28.1755C60.1612 27.459 65.717 24.8063 66.0536 19.9275Z" fill="#ED8986" stroke="#ED8986" stroke-linecap="round"/>
<path d="M55.6347 15.2079C55.6088 13.3413 56.4851 9.75363 60.198 10.3359C63.9109 10.9182 63.5614 14.7972 62.9225 16.664" stroke="#ED8986"/>
<circle cx="58.7534" cy="20.8122" r="0.673441" transform="rotate(11.2988 58.7534 20.8122)" fill="#ED8986" stroke="white"/>
<path d="M58.9076 24.0342L57.3733 23.7277L58.6003 21.5795L58.9076 24.0342Z" fill="#ED8986" stroke="white"/>
<path d="M7.13379 9.67871C7.13379 9.36621 7.0166 9.13672 6.78223 8.99023C6.55762 8.83398 6.30859 8.75586 6.03516 8.75586C5.48828 8.75586 4.95605 8.83887 4.43848 9.00488C3.9209 9.16113 3.45703 9.38086 3.04688 9.66406C2.63672 9.9375 2.30469 10.2695 2.05078 10.6602C1.80664 11.041 1.68457 11.4561 1.68457 11.9053C1.68457 12.2178 1.72363 12.4668 1.80176 12.6523C1.88965 12.8379 1.9873 12.9795 2.09473 13.0771C2.20215 13.165 2.30957 13.2236 2.41699 13.2529C2.53418 13.2725 2.61719 13.2822 2.66602 13.2822C2.91016 13.2822 3.11035 13.2432 3.2666 13.165C3.42285 13.0771 3.56445 12.9893 3.69141 12.9014C3.81836 12.8037 3.93555 12.7158 4.04297 12.6377C4.16016 12.5498 4.29199 12.5059 4.43848 12.5059C4.55566 12.5059 4.67773 12.5352 4.80469 12.5938C4.94141 12.6426 5.06348 12.7256 5.1709 12.8428C5.28809 12.96 5.38574 13.1162 5.46387 13.3115C5.54199 13.4971 5.58105 13.7266 5.58105 14C5.58105 14.3906 5.50293 14.7275 5.34668 15.0107C5.2002 15.2939 5.00488 15.5332 4.76074 15.7285C4.52637 15.9141 4.25293 16.0557 3.94043 16.1533C3.6377 16.2412 3.33496 16.2852 3.03223 16.2852C2.56348 16.2852 2.13867 16.207 1.75781 16.0508C1.38672 15.8848 1.06934 15.6602 0.805664 15.377C0.541992 15.0938 0.341797 14.7617 0.205078 14.3809C0.0683594 14 0 13.5947 0 13.165C0 11.9443 0.307617 10.9434 0.922852 10.1621C1.53809 9.37109 2.37305 8.75098 3.42773 8.30176C4.49219 7.84277 5.72754 7.53027 7.13379 7.36426C8.5498 7.18848 10.0537 7.10059 11.6455 7.10059C13.4619 7.10059 15.1025 7.28613 16.5674 7.65723C18.042 8.01855 19.3018 8.60938 20.3467 9.42969C21.3916 10.25 22.1973 11.3242 22.7637 12.6523C23.3301 13.9707 23.6133 15.582 23.6133 17.4863C23.6133 19.3906 23.3105 21.0801 22.7051 22.5547C22.1094 24.0293 21.2891 25.2695 20.2441 26.2754C19.209 27.2715 17.9883 28.0332 16.582 28.5605C15.1855 29.0781 13.6865 29.3369 12.085 29.3369C11.0205 29.3369 10.1611 29.2832 9.50684 29.1758C8.8623 29.0781 8.36426 28.9072 8.0127 28.6631C7.66113 28.4092 7.42676 28.0771 7.30957 27.667C7.19238 27.2471 7.13379 26.7197 7.13379 26.085V9.67871ZM11.9678 26.2168C11.9678 26.7734 12.0898 27.1738 12.334 27.418C12.5879 27.6523 12.959 27.7695 13.4473 27.7695C14.1797 27.7695 14.8535 27.6084 15.4688 27.2861C16.0938 26.9639 16.6309 26.4121 17.0801 25.6309C17.5293 24.8398 17.8809 23.79 18.1348 22.4814C18.3887 21.1729 18.5156 19.5273 18.5156 17.5449C18.5156 16.2168 18.4326 15.0693 18.2666 14.1025C18.1104 13.126 17.9004 12.3008 17.6367 11.627C17.373 10.9434 17.0703 10.3916 16.7285 9.97168C16.3965 9.54199 16.0547 9.20996 15.7031 8.97559C15.3516 8.73145 15.0049 8.57031 14.6631 8.49219C14.3311 8.4043 14.0332 8.36035 13.7695 8.36035C13.1348 8.36035 12.6758 8.50195 12.3926 8.78516C12.1094 9.06836 11.9678 9.57617 11.9678 10.3086V26.2168ZM30.4248 22.2764C30.4248 22.5889 30.4688 22.9307 30.5566 23.3018C30.6543 23.6631 30.791 24.0293 30.9668 24.4004C31.1426 24.7715 31.3574 25.1279 31.6113 25.4697C31.875 25.8018 32.1729 26.0996 32.5049 26.3633C32.8467 26.627 33.2227 26.8369 33.6328 26.9932C34.043 27.1494 34.4922 27.2275 34.9805 27.2275C35.3223 27.2275 35.6396 27.1885 35.9326 27.1104C36.2256 27.0322 36.499 26.9248 36.7529 26.7881C37.0068 26.6514 37.251 26.4951 37.4854 26.3193C37.7197 26.1338 37.9541 25.9385 38.1885 25.7334L38.5547 26.085C38.3301 26.3877 38.042 26.7197 37.6904 27.0811C37.3389 27.4424 36.9141 27.7842 36.416 28.1064C35.918 28.4189 35.3369 28.6826 34.6729 28.8975C34.0088 29.1025 33.252 29.2051 32.4023 29.2051C31.5527 29.2051 30.7227 29.0537 29.9121 28.751C29.1113 28.4385 28.3984 27.9746 27.7734 27.3594C27.1484 26.7441 26.6455 25.9775 26.2646 25.0596C25.8936 24.1416 25.708 23.0674 25.708 21.8369C25.708 20.9482 25.8203 20.1328 26.0449 19.3906C26.2695 18.6484 26.5723 17.9795 26.9531 17.3838C27.3438 16.7881 27.793 16.2656 28.3008 15.8164C28.8184 15.3672 29.3604 14.9961 29.9268 14.7031C30.4932 14.4004 31.0693 14.1758 31.6553 14.0293C32.251 13.873 32.8223 13.7949 33.3691 13.7949C34.0918 13.7949 34.7217 13.873 35.2588 14.0293C35.7959 14.1855 36.2402 14.3955 36.5918 14.6592C36.9531 14.9229 37.2217 15.2305 37.3975 15.582C37.5732 15.9238 37.6611 16.2852 37.6611 16.666C37.6611 17.125 37.5293 17.54 37.2656 17.9111C37.002 18.2725 36.6504 18.5898 36.2109 18.8633L30.4248 22.2764ZM33.3691 19.3027C33.4961 19.2246 33.5986 19.1514 33.6768 19.083C33.7646 19.0049 33.833 18.917 33.8818 18.8193C33.9307 18.7119 33.9648 18.585 33.9844 18.4385C34.0137 18.2822 34.0283 18.0918 34.0283 17.8672C34.0283 17.623 33.999 17.3545 33.9404 17.0615C33.8916 16.7588 33.8037 16.4756 33.6768 16.2119C33.5498 15.9482 33.3887 15.7285 33.1934 15.5527C32.998 15.377 32.7637 15.2891 32.4902 15.2891C32.1387 15.2891 31.8359 15.3965 31.582 15.6113C31.3379 15.8164 31.1328 16.085 30.9668 16.417C30.8105 16.749 30.6836 17.1299 30.5859 17.5596C30.498 17.9795 30.4297 18.4043 30.3809 18.834C30.332 19.2637 30.3027 19.6787 30.293 20.0791C30.2832 20.4697 30.2783 20.8018 30.2783 21.0752L33.3691 19.3027ZM47.7539 7.21777C47.4805 7.21777 47.2217 7.27637 46.9775 7.39355C46.7334 7.51074 46.5186 7.70117 46.333 7.96484C46.1572 8.21875 46.0156 8.5459 45.9082 8.94629C45.8008 9.34668 45.7471 9.83008 45.7471 10.3965V14H48.9551V15.0547H45.7471V26.5977C45.7471 27.9258 45.5713 29.1514 45.2197 30.2744C44.8779 31.3975 44.3555 32.3643 43.6523 33.1748C42.9492 33.9951 42.0703 34.6348 41.0156 35.0938C39.9609 35.5527 38.7305 35.7822 37.3242 35.7822C36.8262 35.7822 36.3477 35.7383 35.8887 35.6504C35.4297 35.5723 35.0244 35.46 34.6729 35.3135C34.3213 35.167 34.043 34.9912 33.8379 34.7861C33.623 34.5908 33.5156 34.3711 33.5156 34.127C33.5156 33.9512 33.54 33.7705 33.5889 33.585C33.6377 33.4092 33.7109 33.248 33.8086 33.1016C33.9062 32.9551 34.0283 32.833 34.1748 32.7354C34.3115 32.6475 34.4727 32.6035 34.6582 32.6035C34.7656 32.6035 34.8633 32.6572 34.9512 32.7646C35.0293 32.8721 35.1123 33.0039 35.2002 33.1602C35.2881 33.3164 35.3906 33.4873 35.5078 33.6729C35.6152 33.8682 35.7568 34.0439 35.9326 34.2002C36.1084 34.3564 36.3281 34.4883 36.5918 34.5957C36.8457 34.7031 37.1582 34.7568 37.5293 34.7568C38.0273 34.7568 38.4668 34.6543 38.8477 34.4492C39.2285 34.2539 39.5557 33.9805 39.8291 33.6289C40.1025 33.2773 40.332 32.8623 40.5176 32.3838C40.7031 31.9053 40.8496 31.3926 40.957 30.8457C41.0645 30.2988 41.1377 29.7275 41.1768 29.1318C41.2256 28.5361 41.25 27.9404 41.25 27.3447V15.0547H38.5547V14H41.25V12.2861C41.25 11.4268 41.3525 10.6797 41.5576 10.0449C41.7725 9.40039 42.0508 8.85352 42.3926 8.4043C42.7441 7.95508 43.1396 7.58887 43.5791 7.30566C44.0186 7.02246 44.4629 6.79785 44.9121 6.63184C45.3711 6.46582 45.8154 6.35352 46.2451 6.29492C46.6748 6.23633 47.0508 6.20703 47.373 6.20703C48.0664 6.20703 48.6816 6.26074 49.2188 6.36816C49.7559 6.46582 50.2051 6.60254 50.5664 6.77832C50.9277 6.94434 51.2012 7.13965 51.3867 7.36426C51.5723 7.58887 51.665 7.81836 51.665 8.05273C51.665 8.22852 51.6357 8.40918 51.5771 8.59473C51.5283 8.77051 51.4551 8.93652 51.3574 9.09277C51.2598 9.23926 51.1377 9.36133 50.9912 9.45898C50.8545 9.54688 50.6982 9.59082 50.5225 9.59082C50.415 9.59082 50.3174 9.53223 50.2295 9.41504C50.1416 9.29785 50.0488 9.15137 49.9512 8.97559C49.8535 8.7998 49.7461 8.60938 49.6289 8.4043C49.5117 8.19922 49.3652 8.00879 49.1895 7.83301C49.0234 7.65723 48.8232 7.51074 48.5889 7.39355C48.3545 7.27637 48.0762 7.21777 47.7539 7.21777ZM79.2041 21.7051C79.2041 20.4746 79.1455 19.4932 79.0283 18.7607C78.9209 18.0186 78.7744 17.457 78.5889 17.0762C78.4033 16.6855 78.1982 16.4316 77.9736 16.3145C77.749 16.1875 77.5195 16.124 77.2852 16.124C77.002 16.124 76.748 16.2021 76.5234 16.3584C76.3086 16.5049 76.1182 16.6758 75.9521 16.8711C75.7959 17.0664 75.6592 17.2617 75.542 17.457C75.4346 17.6523 75.3418 17.7988 75.2637 17.8965V27.6816C75.2637 27.8086 75.2441 27.9648 75.2051 28.1504C75.166 28.3262 75.0684 28.4971 74.9121 28.6631C74.7656 28.8193 74.541 28.9512 74.2383 29.0586C73.9453 29.1758 73.54 29.2344 73.0225 29.2344C72.5049 29.2344 72.0947 29.1709 71.792 29.0439C71.499 28.9268 71.2744 28.7852 71.1182 28.6191C70.9619 28.4531 70.8643 28.2822 70.8252 28.1064C70.7861 27.9307 70.7666 27.7891 70.7666 27.6816V16.373C70.7666 16.0898 70.6982 15.8457 70.5615 15.6406C70.4346 15.4258 70.2148 15.3184 69.9023 15.3184C69.7363 15.3184 69.5947 15.3477 69.4775 15.4062C69.3604 15.4648 69.2334 15.5479 69.0967 15.6553L68.7891 15.2891C69.0137 15.1035 69.2627 14.9229 69.5361 14.7471C69.8193 14.5615 70.1221 14.4004 70.4443 14.2637C70.7666 14.127 71.1133 14.0146 71.4844 13.9268C71.8555 13.8389 72.2461 13.7949 72.6562 13.7949C73.291 13.7949 73.7842 13.9023 74.1357 14.1172C74.4873 14.3223 74.7461 14.5713 74.9121 14.8643C75.0781 15.1572 75.1758 15.4648 75.2051 15.7871C75.2441 16.0996 75.2637 16.3633 75.2637 16.5781C75.625 16.0605 76.0352 15.5967 76.4941 15.1865C76.6797 15.0107 76.8848 14.8398 77.1094 14.6738C77.3438 14.5078 77.5879 14.3613 77.8418 14.2344C78.1055 14.0977 78.3789 13.9902 78.6621 13.9121C78.9551 13.834 79.2529 13.7949 79.5557 13.7949C80.2197 13.7949 80.8057 13.9219 81.3135 14.1758C81.8311 14.4297 82.2656 14.8545 82.6172 15.4502C82.9688 16.0459 83.2373 16.8369 83.4229 17.8232C83.6084 18.7998 83.7012 20.0156 83.7012 21.4707C83.7012 22.8867 83.5742 24.1172 83.3203 25.1621C83.0664 26.207 82.7344 27.0957 82.3242 27.8281C81.9141 28.5605 81.4502 29.1562 80.9326 29.6152C80.415 30.084 79.8926 30.4502 79.3652 30.7139C78.8379 30.9775 78.3301 31.1582 77.8418 31.2559C77.3633 31.3633 76.9482 31.4219 76.5967 31.4316L76.4355 30.8311C76.7285 30.7627 76.9971 30.6553 77.2412 30.5088C77.4951 30.3623 77.7246 30.1475 77.9297 29.8643C78.1348 29.5811 78.3154 29.2246 78.4717 28.7949C78.6279 28.3555 78.7598 27.8086 78.8672 27.1543C78.9844 26.5 79.0674 25.7285 79.1162 24.8398C79.1748 23.9414 79.2041 22.8965 79.2041 21.7051ZM94.8633 21.0459C94.8633 20.9385 94.8633 20.7236 94.8633 20.4014C94.8633 20.0693 94.8535 19.6934 94.834 19.2734C94.8145 18.8438 94.7803 18.3896 94.7314 17.9111C94.6826 17.4326 94.6045 16.9883 94.4971 16.5781C94.2627 16.2754 93.999 16.0068 93.7061 15.7725C93.4229 15.5283 93.0566 15.4062 92.6074 15.4062C91.8457 15.4062 91.2842 15.9043 90.9229 16.9004C90.5713 17.8965 90.3955 19.4395 90.3955 21.5293C90.3955 22.4473 90.4346 23.2871 90.5127 24.0488C90.6006 24.8105 90.7275 25.4648 90.8936 26.0117C91.0693 26.5586 91.2891 26.9834 91.5527 27.2861C91.8262 27.5889 92.1484 27.7402 92.5195 27.7402C94.082 27.7402 94.8633 25.5088 94.8633 21.0459ZM94.6875 14.6006C94.502 13.624 94.2432 12.7158 93.9111 11.876C93.5791 11.0264 93.1787 10.2939 92.71 9.67871C92.251 9.06348 91.7236 8.58008 91.1279 8.22852C90.542 7.87695 89.9072 7.70117 89.2236 7.70117C88.833 7.70117 88.4766 7.75 88.1543 7.84766C87.8418 7.94531 87.5684 8.0625 87.334 8.19922C87.0996 8.32617 86.9043 8.45312 86.748 8.58008C86.6016 8.69727 86.4941 8.78516 86.4258 8.84375L86.0449 8.33105C86.2793 8.02832 86.5625 7.74512 86.8945 7.48145C87.2363 7.21777 87.6074 6.99316 88.0078 6.80762C88.4082 6.62207 88.8281 6.47559 89.2676 6.36816C89.7168 6.26074 90.1611 6.20703 90.6006 6.20703C92.0459 6.20703 93.3154 6.52441 94.4092 7.15918C95.5029 7.78418 96.416 8.67285 97.1484 9.8252C97.8809 10.9775 98.4326 12.3691 98.8037 14C99.1748 15.6309 99.3604 17.4424 99.3604 19.4346C99.3604 21.0459 99.1943 22.4619 98.8623 23.6826C98.54 24.9033 98.0762 25.9287 97.4707 26.7588C96.8652 27.5791 96.1279 28.1992 95.2588 28.6191C94.3994 29.0293 93.4277 29.2344 92.3438 29.2344C91.5918 29.2344 90.8252 29.1025 90.0439 28.8389C89.2725 28.5654 88.5693 28.126 87.9346 27.5205C87.3096 26.915 86.7969 26.124 86.3965 25.1475C85.9961 24.1611 85.7959 22.9551 85.7959 21.5293C85.7959 20.2988 85.9668 19.2051 86.3086 18.248C86.6602 17.291 87.1289 16.4854 87.7148 15.8311C88.3008 15.167 88.9795 14.6641 89.751 14.3223C90.5225 13.9707 91.3379 13.7949 92.1973 13.7949C92.5293 13.7949 92.8271 13.8242 93.0908 13.8828C93.3545 13.9316 93.584 13.9951 93.7793 14.0732C93.9746 14.1514 94.1455 14.2393 94.292 14.3369C94.4385 14.4248 94.5703 14.5127 94.6875 14.6006ZM106.846 16.8857C107.217 16.3193 107.612 15.8066 108.032 15.3477C108.208 15.1523 108.398 14.9619 108.604 14.7764C108.809 14.5908 109.019 14.4248 109.233 14.2783C109.458 14.1318 109.688 14.0146 109.922 13.9268C110.156 13.8389 110.391 13.7949 110.625 13.7949C111.123 13.7949 111.514 13.9463 111.797 14.249C112.08 14.542 112.222 14.957 112.222 15.4941C112.222 15.8262 112.192 16.1484 112.134 16.4609C112.085 16.7637 111.982 17.1348 111.826 17.5742H111.416C111.357 17.2715 111.221 17.0225 111.006 16.8271C110.791 16.6221 110.479 16.5195 110.068 16.5195C109.766 16.5195 109.468 16.5781 109.175 16.6953C108.882 16.8027 108.594 16.9395 108.311 17.1055C108.037 17.2715 107.773 17.4521 107.52 17.6475C107.275 17.8428 107.051 18.0283 106.846 18.2041V27.7109C106.846 27.8379 106.826 27.9893 106.787 28.165C106.748 28.3408 106.65 28.5068 106.494 28.6631C106.348 28.8193 106.123 28.9512 105.82 29.0586C105.527 29.1758 105.122 29.2344 104.604 29.2344C104.087 29.2344 103.677 29.1709 103.374 29.0439C103.081 28.9268 102.856 28.7852 102.7 28.6191C102.544 28.4531 102.446 28.2822 102.407 28.1064C102.368 27.9307 102.349 27.7891 102.349 27.6816V16.373C102.349 16.0898 102.28 15.8457 102.144 15.6406C102.017 15.4258 101.797 15.3184 101.484 15.3184C101.318 15.3184 101.177 15.3477 101.06 15.4062C100.942 15.4648 100.815 15.5479 100.679 15.6553L100.371 15.2891C100.596 15.1035 100.845 14.9229 101.118 14.7471C101.401 14.5615 101.704 14.4004 102.026 14.2637C102.349 14.127 102.695 14.0146 103.066 13.9268C103.438 13.8389 103.828 13.7949 104.238 13.7949C104.658 13.7949 105.015 13.8535 105.308 13.9707C105.61 14.0781 105.854 14.2246 106.04 14.4102C106.235 14.5859 106.387 14.7861 106.494 15.0107C106.602 15.2354 106.68 15.4648 106.729 15.6992C106.787 15.9238 106.821 16.1436 106.831 16.3584C106.841 16.5635 106.846 16.7393 106.846 16.8857Z" fill="url(#paint0_linear_112_34)"/>
<defs>
<linearGradient id="paint0_linear_112_34" x1="34.9528" y1="27.7748" x2="69.4643" y2="-16.8989" gradientUnits="userSpaceOnUse">
<stop stop-color="#EE7C78"/>
<stop offset="1" stop-color="#ECA4A2"/>
</linearGradient>
</defs>
</svg>
