<svg width="161" height="162" viewBox="0 0 161 162" fill="none" xmlns="http://www.w3.org/2000/svg">
<path d="M8.51562 153.832C9.03646 153.832 9.55078 153.734 10.0586 153.539C10.5664 153.357 11.0156 153.044 11.4062 152.602C11.8099 152.172 12.1354 151.605 12.3828 150.902C12.6302 150.199 12.7539 149.34 12.7539 148.324C12.7539 147.23 12.4805 146.169 11.9336 145.141C11.3997 144.112 10.7227 143.103 9.90234 142.113C9.09505 141.111 8.21615 140.121 7.26562 139.145C6.32812 138.155 5.44922 137.152 4.62891 136.137C3.82161 135.108 3.14453 134.053 2.59766 132.973C2.0638 131.879 1.79688 130.74 1.79688 129.555C1.79688 128.37 2.01172 127.302 2.44141 126.352C2.88411 125.388 3.47656 124.574 4.21875 123.91C4.97396 123.233 5.84635 122.712 6.83594 122.348C7.83854 121.983 8.90625 121.801 10.0391 121.801C11.25 121.801 12.3242 121.931 13.2617 122.191C14.2122 122.439 15.013 122.784 15.6641 123.227C16.3281 123.656 16.8294 124.171 17.168 124.77C17.5065 125.355 17.6758 125.98 17.6758 126.645C17.6758 126.957 17.6302 127.283 17.5391 127.621C17.4479 127.947 17.3047 128.246 17.1094 128.52C16.9141 128.793 16.6667 129.021 16.3672 129.203C16.0677 129.385 15.7161 129.477 15.3125 129.477C14.8307 129.477 14.4727 129.333 14.2383 129.047C14.0169 128.747 13.8477 128.383 13.7305 127.953C13.6263 127.523 13.5352 127.055 13.457 126.547C13.3789 126.026 13.2552 125.551 13.0859 125.121C12.9167 124.691 12.6628 124.333 12.3242 124.047C11.9857 123.747 11.4909 123.598 10.8398 123.598C10.4883 123.598 10.1367 123.676 9.78516 123.832C9.44661 123.988 9.13411 124.229 8.84766 124.555C8.57422 124.867 8.35286 125.271 8.18359 125.766C8.01432 126.26 7.92969 126.846 7.92969 127.523C7.92969 128.305 8.09245 129.066 8.41797 129.809C8.74349 130.551 9.17318 131.286 9.70703 132.016C10.2409 132.732 10.8464 133.454 11.5234 134.184C12.2135 134.9 12.9102 135.629 13.6133 136.371C14.3294 137.1 15.026 137.855 15.7031 138.637C16.3932 139.405 17.0052 140.206 17.5391 141.039C18.0729 141.872 18.5026 142.745 18.8281 143.656C19.1536 144.568 19.3164 145.525 19.3164 146.527C19.3164 147.999 19.0299 149.314 18.457 150.473C17.8971 151.618 17.1289 152.582 16.1523 153.363C15.1888 154.158 14.056 154.763 12.7539 155.18C11.4518 155.596 10.0651 155.805 8.59375 155.805C7.26562 155.805 6.08724 155.635 5.05859 155.297C4.04297 154.971 3.18359 154.535 2.48047 153.988C1.77734 153.441 1.24349 152.816 0.878906 152.113C0.527344 151.423 0.351562 150.707 0.351562 149.965C0.351562 149.652 0.397135 149.32 0.488281 148.969C0.592448 148.604 0.735677 148.272 0.917969 147.973C1.11328 147.673 1.35417 147.426 1.64062 147.23C1.92708 147.022 2.25911 146.918 2.63672 146.918C3.02734 146.918 3.33984 147.016 3.57422 147.211C3.82161 147.406 4.01693 147.667 4.16016 147.992C4.30339 148.318 4.42057 148.689 4.51172 149.105C4.60286 149.522 4.70052 149.945 4.80469 150.375C4.90885 150.805 5.03906 151.228 5.19531 151.645C5.35156 152.061 5.56641 152.432 5.83984 152.758C6.11328 153.083 6.46484 153.344 6.89453 153.539C7.32422 153.734 7.86458 153.832 8.51562 153.832ZM29.3555 132.406V146.84C29.3555 147.53 29.4857 148.012 29.7461 148.285C30.0065 148.546 30.3646 148.676 30.8203 148.676C31.1719 148.676 31.4844 148.578 31.7578 148.383C32.0312 148.188 32.2656 147.966 32.4609 147.719C32.6953 147.445 32.8971 147.126 33.0664 146.762L33.6719 147.035C33.4766 147.452 33.2422 147.908 32.9688 148.402C32.7083 148.897 32.3568 149.359 31.9141 149.789C31.4714 150.206 30.9115 150.557 30.2344 150.844C29.5703 151.13 28.7305 151.273 27.7148 151.273C27.1419 151.273 26.5885 151.189 26.0547 151.02C25.5339 150.85 25.0651 150.583 24.6484 150.219C24.2448 149.854 23.9193 149.398 23.6719 148.852C23.4245 148.305 23.3008 147.647 23.3008 146.879V132.406H21.1133V131C21.4779 131 21.9857 130.909 22.6367 130.727C23.2878 130.531 23.9518 130.212 24.6289 129.77C25.319 129.327 25.957 128.734 26.543 127.992C27.1289 127.25 27.5456 126.332 27.793 125.238H29.3555V131H32.5391C33.5807 131 34.1016 130.824 34.1016 130.473C34.1016 130.342 34.0365 130.258 33.9062 130.219C33.776 130.167 33.6263 130.108 33.457 130.043C33.3008 129.965 33.1576 129.861 33.0273 129.73C32.8971 129.6 32.832 129.385 32.832 129.086C32.832 128.721 32.9427 128.435 33.1641 128.227C33.3984 128.018 33.6979 127.914 34.0625 127.914C34.2969 127.914 34.4987 127.966 34.668 128.07C34.8503 128.161 35 128.292 35.1172 128.461C35.2344 128.617 35.319 128.799 35.3711 129.008C35.4362 129.216 35.4688 129.424 35.4688 129.633C35.4688 130.479 35.2214 131.156 34.7266 131.664C34.2448 132.159 33.4635 132.406 32.3828 132.406H29.3555ZM42.7344 134.848C43.2292 134.092 43.7565 133.409 44.3164 132.797C44.5508 132.536 44.8047 132.283 45.0781 132.035C45.3516 131.788 45.6315 131.566 45.918 131.371C46.2174 131.176 46.5234 131.02 46.8359 130.902C47.1484 130.785 47.4609 130.727 47.7734 130.727C48.4375 130.727 48.9583 130.928 49.3359 131.332C49.7135 131.723 49.9023 132.276 49.9023 132.992C49.9023 133.435 49.8633 133.865 49.7852 134.281C49.7201 134.685 49.5833 135.18 49.375 135.766H48.8281C48.75 135.362 48.5677 135.03 48.2812 134.77C47.9948 134.496 47.5781 134.359 47.0312 134.359C46.6276 134.359 46.2305 134.438 45.8398 134.594C45.4492 134.737 45.0651 134.919 44.6875 135.141C44.3229 135.362 43.9714 135.603 43.6328 135.863C43.3073 136.124 43.0078 136.371 42.7344 136.605V149.281C42.7344 149.451 42.7083 149.652 42.6562 149.887C42.6042 150.121 42.474 150.342 42.2656 150.551C42.0703 150.759 41.7708 150.935 41.3672 151.078C40.9766 151.234 40.4362 151.312 39.7461 151.312C39.056 151.312 38.5091 151.228 38.1055 151.059C37.7148 150.902 37.4154 150.714 37.207 150.492C36.9987 150.271 36.8685 150.043 36.8164 149.809C36.7643 149.574 36.7383 149.385 36.7383 149.242V134.164C36.7383 133.786 36.6471 133.461 36.4648 133.188C36.2956 132.901 36.0026 132.758 35.5859 132.758C35.3646 132.758 35.1758 132.797 35.0195 132.875C34.8633 132.953 34.694 133.064 34.5117 133.207L34.1016 132.719C34.401 132.471 34.7331 132.23 35.0977 131.996C35.4753 131.749 35.8789 131.534 36.3086 131.352C36.7383 131.169 37.2005 131.02 37.6953 130.902C38.1901 130.785 38.7109 130.727 39.2578 130.727C39.8177 130.727 40.293 130.805 40.6836 130.961C41.0872 131.104 41.4128 131.299 41.6602 131.547C41.9206 131.781 42.1224 132.048 42.2656 132.348C42.4089 132.647 42.513 132.953 42.5781 133.266C42.6562 133.565 42.7018 133.858 42.7148 134.145C42.7279 134.418 42.7344 134.652 42.7344 134.848ZM60.8008 140.883C60.8008 140.557 60.6966 140.31 60.4883 140.141C60.2799 139.971 60.013 139.887 59.6875 139.887C59.2318 139.887 58.7956 139.991 58.3789 140.199C57.9753 140.408 57.6172 140.714 57.3047 141.117C56.9922 141.521 56.7448 142.022 56.5625 142.621C56.3802 143.207 56.2891 143.891 56.2891 144.672C56.2891 145.427 56.3411 146.052 56.4453 146.547C56.5625 147.042 56.7122 147.439 56.8945 147.738C57.0898 148.025 57.3112 148.227 57.5586 148.344C57.806 148.461 58.0664 148.52 58.3398 148.52C58.6784 148.52 58.9974 148.435 59.2969 148.266C59.5964 148.083 59.8568 147.855 60.0781 147.582C60.2995 147.309 60.4753 147.003 60.6055 146.664C60.7357 146.326 60.8008 145.987 60.8008 145.648V140.883ZM57.6953 132.328C57.2526 132.328 56.8424 132.38 56.4648 132.484C56.0872 132.589 55.7617 132.719 55.4883 132.875C55.2148 133.031 55 133.207 54.8438 133.402C54.6875 133.585 54.6094 133.76 54.6094 133.93C54.6094 134.125 54.707 134.268 54.9023 134.359C55.1107 134.438 55.3385 134.535 55.5859 134.652C55.8333 134.757 56.0547 134.913 56.25 135.121C56.4583 135.316 56.5625 135.622 56.5625 136.039C56.5625 136.312 56.5039 136.566 56.3867 136.801C56.2826 137.022 56.1328 137.224 55.9375 137.406C55.7552 137.576 55.5339 137.712 55.2734 137.816C55.026 137.908 54.7656 137.953 54.4922 137.953C53.763 137.953 53.1706 137.706 52.7148 137.211C52.2721 136.716 52.0508 136.059 52.0508 135.238C52.0508 134.444 52.2591 133.767 52.6758 133.207C53.0924 132.634 53.6328 132.165 54.2969 131.801C54.974 131.436 55.7357 131.169 56.582 131C57.4284 130.818 58.2747 130.727 59.1211 130.727C60.1367 130.727 61.1068 130.837 62.0312 131.059C62.9557 131.28 63.7695 131.632 64.4727 132.113C65.1888 132.595 65.7552 133.207 66.1719 133.949C66.6016 134.691 66.8164 135.59 66.8164 136.645V147.68C66.8164 147.797 66.8229 147.927 66.8359 148.07C66.849 148.214 66.8815 148.344 66.9336 148.461C66.9857 148.578 67.0638 148.676 67.168 148.754C67.2721 148.832 67.4219 148.871 67.6172 148.871C67.8516 148.871 68.0664 148.786 68.2617 148.617C68.4701 148.435 68.6523 148.253 68.8086 148.07L69.2969 148.48C69.1016 148.754 68.8672 149.053 68.5938 149.379C68.3203 149.704 67.9883 150.01 67.5977 150.297C67.207 150.583 66.7513 150.824 66.2305 151.02C65.7096 151.215 65.1172 151.312 64.4531 151.312C63.6328 151.312 62.9036 151.072 62.2656 150.59C61.6276 150.095 61.2109 149.34 61.0156 148.324C60.599 148.884 60.1628 149.353 59.707 149.73C59.2643 150.108 58.8086 150.414 58.3398 150.648C57.8711 150.883 57.3958 151.052 56.9141 151.156C56.4453 151.26 55.9701 151.312 55.4883 151.312C54.8633 151.312 54.2578 151.215 53.6719 151.02C53.0859 150.824 52.5586 150.518 52.0898 150.102C51.6341 149.672 51.263 149.118 50.9766 148.441C50.7031 147.764 50.5664 146.938 50.5664 145.961C50.5664 144.776 50.8008 143.806 51.2695 143.051C51.7383 142.296 52.3503 141.664 53.1055 141.156C53.8737 140.635 54.7396 140.193 55.7031 139.828C56.6797 139.464 57.6758 139.079 58.6914 138.676C59.4466 138.376 59.9935 137.934 60.332 137.348C60.6836 136.749 60.8594 136.137 60.8594 135.512C60.8594 134.548 60.5729 133.78 60 133.207C59.4401 132.621 58.6719 132.328 57.6953 132.328ZM83.418 141.273C83.418 139.633 83.3398 138.324 83.1836 137.348C83.0404 136.358 82.8451 135.609 82.5977 135.102C82.3503 134.581 82.0768 134.242 81.7773 134.086C81.4779 133.917 81.1719 133.832 80.8594 133.832C80.4818 133.832 80.1432 133.936 79.8438 134.145C79.5573 134.34 79.3034 134.568 79.082 134.828C78.8737 135.089 78.6914 135.349 78.5352 135.609C78.3919 135.87 78.2682 136.065 78.1641 136.195V149.242C78.1641 149.411 78.138 149.62 78.0859 149.867C78.0339 150.102 77.9036 150.329 77.6953 150.551C77.5 150.759 77.2005 150.935 76.7969 151.078C76.4062 151.234 75.8659 151.312 75.1758 151.312C74.4857 151.312 73.9388 151.228 73.5352 151.059C73.1445 150.902 72.8451 150.714 72.6367 150.492C72.4284 150.271 72.2982 150.043 72.2461 149.809C72.194 149.574 72.168 149.385 72.168 149.242V134.164C72.168 133.786 72.0768 133.461 71.8945 133.188C71.7253 132.901 71.4323 132.758 71.0156 132.758C70.7943 132.758 70.6055 132.797 70.4492 132.875C70.293 132.953 70.1237 133.064 69.9414 133.207L69.5312 132.719C69.8307 132.471 70.1628 132.23 70.5273 131.996C70.9049 131.749 71.3086 131.534 71.7383 131.352C72.168 131.169 72.6302 131.02 73.125 130.902C73.6198 130.785 74.1406 130.727 74.6875 130.727C75.5339 130.727 76.1914 130.87 76.6602 131.156C77.1289 131.43 77.474 131.762 77.6953 132.152C77.9167 132.543 78.0469 132.953 78.0859 133.383C78.138 133.799 78.1641 134.151 78.1641 134.438C78.6458 133.747 79.1927 133.129 79.8047 132.582C80.0521 132.348 80.3255 132.12 80.625 131.898C80.9375 131.677 81.263 131.482 81.6016 131.312C81.9531 131.13 82.3177 130.987 82.6953 130.883C83.0859 130.779 83.4831 130.727 83.8867 130.727C84.7721 130.727 85.5534 130.896 86.2305 131.234C86.9206 131.573 87.5 132.139 87.9688 132.934C88.4375 133.728 88.7956 134.783 89.043 136.098C89.2904 137.4 89.4141 139.021 89.4141 140.961C89.4141 142.849 89.2448 144.49 88.9062 145.883C88.5677 147.276 88.125 148.461 87.5781 149.438C87.0312 150.414 86.4128 151.208 85.7227 151.82C85.0326 152.445 84.3359 152.934 83.6328 153.285C82.9297 153.637 82.2526 153.878 81.6016 154.008C80.9635 154.151 80.4102 154.229 79.9414 154.242L79.7266 153.441C80.1172 153.35 80.4753 153.207 80.8008 153.012C81.1393 152.816 81.4453 152.53 81.7188 152.152C81.9922 151.775 82.2331 151.299 82.4414 150.727C82.6497 150.141 82.8255 149.411 82.9688 148.539C83.125 147.667 83.2357 146.638 83.3008 145.453C83.3789 144.255 83.418 142.862 83.418 141.273ZM92.6172 138.715C92.6172 137.387 92.8451 136.228 93.3008 135.238C93.7695 134.236 94.3945 133.402 95.1758 132.738C95.957 132.061 96.862 131.56 97.8906 131.234C98.9193 130.896 100 130.727 101.133 130.727C102.266 130.727 103.34 130.876 104.355 131.176C105.371 131.475 106.27 131.938 107.051 132.562C107.298 132.185 107.5 131.788 107.656 131.371C107.812 130.954 107.891 130.538 107.891 130.121C107.891 129.574 107.741 129.138 107.441 128.812C107.155 128.487 106.784 128.324 106.328 128.324V127.758C106.615 127.667 106.868 127.589 107.09 127.523C107.311 127.445 107.513 127.387 107.695 127.348C107.878 127.309 108.06 127.283 108.242 127.27C108.424 127.243 108.626 127.23 108.848 127.23C109.46 127.23 109.928 127.419 110.254 127.797C110.579 128.174 110.742 128.695 110.742 129.359C110.742 129.75 110.651 130.141 110.469 130.531C110.286 130.909 110.059 131.273 109.785 131.625C109.512 131.977 109.206 132.309 108.867 132.621C108.542 132.934 108.229 133.207 107.93 133.441C108.477 134.066 108.9 134.796 109.199 135.629C109.499 136.462 109.648 137.413 109.648 138.48C109.648 139.822 109.414 141.007 108.945 142.035C108.49 143.064 107.871 143.93 107.09 144.633C106.309 145.336 105.404 145.87 104.375 146.234C103.346 146.586 102.266 146.762 101.133 146.762C100.469 146.762 99.8177 146.703 99.1797 146.586C98.5417 146.469 97.9427 146.299 97.3828 146.078C97.1745 146.234 96.9922 146.43 96.8359 146.664C96.6927 146.898 96.6211 147.159 96.6211 147.445C96.6211 147.927 96.8294 148.285 97.2461 148.52C97.6628 148.754 98.2161 148.923 98.9062 149.027C99.5964 149.132 100.378 149.197 101.25 149.223C102.122 149.249 103.014 149.294 103.926 149.359C104.85 149.411 105.749 149.522 106.621 149.691C107.493 149.848 108.275 150.115 108.965 150.492C109.655 150.857 110.208 151.358 110.625 151.996C111.042 152.634 111.25 153.461 111.25 154.477C111.25 155.219 111.094 155.883 110.781 156.469C110.469 157.068 110.046 157.589 109.512 158.031C108.991 158.487 108.379 158.871 107.676 159.184C106.986 159.509 106.25 159.77 105.469 159.965C104.701 160.173 103.913 160.323 103.105 160.414C102.311 160.505 101.549 160.551 100.82 160.551C99.4922 160.551 98.2943 160.479 97.2266 160.336C96.1719 160.206 95.2734 159.997 94.5312 159.711C93.7891 159.424 93.2161 159.053 92.8125 158.598C92.4089 158.142 92.207 157.595 92.207 156.957C92.207 156.501 92.3112 156.078 92.5195 155.688C92.7279 155.31 93.0013 154.958 93.3398 154.633C93.6914 154.32 94.082 154.034 94.5117 153.773C94.9414 153.526 95.3776 153.292 95.8203 153.07C95.1693 152.797 94.6224 152.38 94.1797 151.82C93.75 151.273 93.5352 150.544 93.5352 149.633C93.5352 149.151 93.6198 148.708 93.7891 148.305C93.9583 147.888 94.1732 147.51 94.4336 147.172C94.707 146.82 95 146.508 95.3125 146.234C95.638 145.948 95.9505 145.707 96.25 145.512C95.7161 145.199 95.2214 144.822 94.7656 144.379C94.3229 143.923 93.9388 143.415 93.6133 142.855C93.3008 142.283 93.0534 141.651 92.8711 140.961C92.7018 140.271 92.6172 139.522 92.6172 138.715ZM103.77 138.559C103.77 137.803 103.73 137.068 103.652 136.352C103.574 135.635 103.438 134.997 103.242 134.438C103.047 133.878 102.78 133.428 102.441 133.09C102.103 132.738 101.667 132.562 101.133 132.562C100.599 132.562 100.163 132.745 99.8242 133.109C99.4857 133.461 99.2188 133.93 99.0234 134.516C98.8281 135.089 98.6914 135.746 98.6133 136.488C98.5352 137.217 98.4961 137.96 98.4961 138.715C98.4961 139.483 98.5352 140.238 98.6133 140.98C98.6914 141.723 98.8281 142.387 99.0234 142.973C99.2188 143.559 99.4857 144.034 99.8242 144.398C100.163 144.75 100.599 144.926 101.133 144.926C101.667 144.926 102.103 144.737 102.441 144.359C102.78 143.982 103.047 143.493 103.242 142.895C103.438 142.283 103.574 141.599 103.652 140.844C103.73 140.089 103.77 139.327 103.77 138.559ZM106.738 156.039C106.738 155.622 106.576 155.277 106.25 155.004C105.924 154.743 105.495 154.529 104.961 154.359C104.44 154.203 103.841 154.079 103.164 153.988C102.5 153.91 101.823 153.845 101.133 153.793C100.443 153.754 99.7721 153.715 99.1211 153.676C98.4701 153.637 97.9036 153.585 97.4219 153.52C97.1484 153.715 96.8815 153.923 96.6211 154.145C96.3737 154.379 96.1523 154.62 95.957 154.867C95.7747 155.128 95.625 155.395 95.5078 155.668C95.3906 155.954 95.332 156.241 95.332 156.527C95.332 157.022 95.4753 157.432 95.7617 157.758C96.0482 158.096 96.4323 158.363 96.9141 158.559C97.4089 158.754 97.9753 158.891 98.6133 158.969C99.2643 159.047 99.9479 159.086 100.664 159.086C101.615 159.086 102.467 159.001 103.223 158.832C103.978 158.676 104.616 158.454 105.137 158.168C105.658 157.895 106.055 157.576 106.328 157.211C106.602 156.846 106.738 156.456 106.738 156.039ZM118.887 142.035C118.887 142.452 118.945 142.908 119.062 143.402C119.193 143.884 119.375 144.372 119.609 144.867C119.844 145.362 120.13 145.837 120.469 146.293C120.82 146.736 121.217 147.133 121.66 147.484C122.116 147.836 122.617 148.116 123.164 148.324C123.711 148.533 124.31 148.637 124.961 148.637C125.417 148.637 125.84 148.585 126.23 148.48C126.621 148.376 126.986 148.233 127.324 148.051C127.663 147.868 127.988 147.66 128.301 147.426C128.613 147.178 128.926 146.918 129.238 146.645L129.727 147.113C129.427 147.517 129.043 147.96 128.574 148.441C128.105 148.923 127.539 149.379 126.875 149.809C126.211 150.225 125.436 150.577 124.551 150.863C123.665 151.137 122.656 151.273 121.523 151.273C120.391 151.273 119.284 151.072 118.203 150.668C117.135 150.251 116.185 149.633 115.352 148.812C114.518 147.992 113.848 146.97 113.34 145.746C112.845 144.522 112.598 143.09 112.598 141.449C112.598 140.264 112.747 139.177 113.047 138.188C113.346 137.198 113.75 136.306 114.258 135.512C114.779 134.717 115.378 134.021 116.055 133.422C116.745 132.823 117.467 132.328 118.223 131.938C118.978 131.534 119.746 131.234 120.527 131.039C121.322 130.831 122.083 130.727 122.812 130.727C123.776 130.727 124.616 130.831 125.332 131.039C126.048 131.247 126.641 131.527 127.109 131.879C127.591 132.23 127.949 132.641 128.184 133.109C128.418 133.565 128.535 134.047 128.535 134.555C128.535 135.167 128.359 135.72 128.008 136.215C127.656 136.697 127.188 137.12 126.602 137.484L118.887 142.035ZM122.812 138.07C122.982 137.966 123.118 137.868 123.223 137.777C123.34 137.673 123.431 137.556 123.496 137.426C123.561 137.283 123.607 137.113 123.633 136.918C123.672 136.71 123.691 136.456 123.691 136.156C123.691 135.831 123.652 135.473 123.574 135.082C123.509 134.678 123.392 134.301 123.223 133.949C123.053 133.598 122.839 133.305 122.578 133.07C122.318 132.836 122.005 132.719 121.641 132.719C121.172 132.719 120.768 132.862 120.43 133.148C120.104 133.422 119.831 133.78 119.609 134.223C119.401 134.665 119.232 135.173 119.102 135.746C118.984 136.306 118.893 136.872 118.828 137.445C118.763 138.018 118.724 138.572 118.711 139.105C118.698 139.626 118.691 140.069 118.691 140.434L122.812 138.07ZM138.594 134.848C139.089 134.092 139.616 133.409 140.176 132.797C140.41 132.536 140.664 132.283 140.938 132.035C141.211 131.788 141.491 131.566 141.777 131.371C142.077 131.176 142.383 131.02 142.695 130.902C143.008 130.785 143.32 130.727 143.633 130.727C144.297 130.727 144.818 130.928 145.195 131.332C145.573 131.723 145.762 132.276 145.762 132.992C145.762 133.435 145.723 133.865 145.645 134.281C145.579 134.685 145.443 135.18 145.234 135.766H144.688C144.609 135.362 144.427 135.03 144.141 134.77C143.854 134.496 143.438 134.359 142.891 134.359C142.487 134.359 142.09 134.438 141.699 134.594C141.309 134.737 140.924 134.919 140.547 135.141C140.182 135.362 139.831 135.603 139.492 135.863C139.167 136.124 138.867 136.371 138.594 136.605V149.281C138.594 149.451 138.568 149.652 138.516 149.887C138.464 150.121 138.333 150.342 138.125 150.551C137.93 150.759 137.63 150.935 137.227 151.078C136.836 151.234 136.296 151.312 135.605 151.312C134.915 151.312 134.368 151.228 133.965 151.059C133.574 150.902 133.275 150.714 133.066 150.492C132.858 150.271 132.728 150.043 132.676 149.809C132.624 149.574 132.598 149.385 132.598 149.242V134.164C132.598 133.786 132.507 133.461 132.324 133.188C132.155 132.901 131.862 132.758 131.445 132.758C131.224 132.758 131.035 132.797 130.879 132.875C130.723 132.953 130.553 133.064 130.371 133.207L129.961 132.719C130.26 132.471 130.592 132.23 130.957 131.996C131.335 131.749 131.738 131.534 132.168 131.352C132.598 131.169 133.06 131.02 133.555 130.902C134.049 130.785 134.57 130.727 135.117 130.727C135.677 130.727 136.152 130.805 136.543 130.961C136.947 131.104 137.272 131.299 137.52 131.547C137.78 131.781 137.982 132.048 138.125 132.348C138.268 132.647 138.372 132.953 138.438 133.266C138.516 133.565 138.561 133.858 138.574 134.145C138.587 134.418 138.594 134.652 138.594 134.848ZM154.531 132.289C154.232 132.289 153.945 132.328 153.672 132.406C153.411 132.484 153.177 132.615 152.969 132.797C152.76 132.966 152.598 133.188 152.48 133.461C152.363 133.721 152.305 134.034 152.305 134.398C152.305 134.906 152.487 135.414 152.852 135.922C153.229 136.417 153.691 136.938 154.238 137.484C154.798 138.018 155.397 138.578 156.035 139.164C156.686 139.737 157.285 140.349 157.832 141C158.392 141.638 158.854 142.322 159.219 143.051C159.596 143.78 159.785 144.561 159.785 145.395C159.785 146.332 159.622 147.165 159.297 147.895C158.984 148.624 158.529 149.242 157.93 149.75C157.344 150.258 156.628 150.648 155.781 150.922C154.948 151.182 154.017 151.312 152.988 151.312C152.09 151.312 151.276 151.189 150.547 150.941C149.818 150.681 149.167 150.368 148.594 150.004C148.034 149.626 147.552 149.229 147.148 148.812C146.745 148.396 146.432 148.018 146.211 147.68L146.895 147.191C147.064 147.387 147.279 147.602 147.539 147.836C147.799 148.057 148.086 148.266 148.398 148.461C148.724 148.656 149.069 148.819 149.434 148.949C149.798 149.066 150.169 149.125 150.547 149.125C151.484 149.125 152.253 148.904 152.852 148.461C153.451 148.005 153.75 147.335 153.75 146.449C153.75 145.954 153.587 145.447 153.262 144.926C152.936 144.392 152.526 143.845 152.031 143.285C151.536 142.725 151.003 142.146 150.43 141.547C149.857 140.948 149.323 140.329 148.828 139.691C148.333 139.053 147.923 138.396 147.598 137.719C147.272 137.042 147.109 136.339 147.109 135.609C147.109 134.789 147.272 134.073 147.598 133.461C147.936 132.849 148.379 132.341 148.926 131.938C149.486 131.534 150.117 131.234 150.82 131.039C151.536 130.831 152.272 130.727 153.027 130.727C153.9 130.727 154.694 130.805 155.41 130.961C156.126 131.117 156.738 131.358 157.246 131.684C157.767 131.996 158.164 132.393 158.438 132.875C158.724 133.357 158.867 133.917 158.867 134.555C158.867 135.049 158.704 135.479 158.379 135.844C158.053 136.208 157.598 136.391 157.012 136.391C156.452 136.391 156.022 136.273 155.723 136.039C155.436 135.792 155.293 135.46 155.293 135.043C155.293 134.77 155.358 134.555 155.488 134.398C155.632 134.242 155.788 134.118 155.957 134.027C156.126 133.923 156.276 133.839 156.406 133.773C156.549 133.695 156.621 133.598 156.621 133.48C156.621 133.116 156.426 132.829 156.035 132.621C155.645 132.4 155.143 132.289 154.531 132.289Z" fill="white"/>
<circle cx="80.5" cy="56.5" r="46.5" fill="white" stroke="url(#paint0_linear_122_156)" stroke-width="20"/>
<path d="M94.1825 44.4425C93.3673 43.6244 92.3986 42.9753 91.332 42.5324C90.2654 42.0896 89.1218 41.8616 87.9669 41.8616C86.812 41.8616 85.6684 42.0896 84.6018 42.5324C83.5352 42.9753 82.5665 43.6244 81.7513 44.4425L80.5 45.71L79.2488 44.4425C78.4335 43.6244 77.4648 42.9753 76.3982 42.5324C75.3316 42.0896 74.1881 41.8616 73.0331 41.8616C71.8782 41.8616 70.7347 42.0896 69.6681 42.5324C68.6014 42.9753 67.6327 43.6244 66.8175 44.4425C63.3725 47.8875 63.1613 53.705 67.5 58.125L80.5 71.125L93.5 58.125C97.8388 53.705 97.6275 47.8875 94.1825 44.4425Z" stroke="#C47370" stroke-width="2" stroke-linecap="round" stroke-linejoin="round"/>
<path d="M80.5 45.71L75.4138 50.8125C74.7707 51.4607 74.4099 52.3369 74.4099 53.25C74.4099 54.1631 74.7707 55.0392 75.4138 55.6875V55.6875C76.062 56.3305 76.9382 56.6913 77.8513 56.6913C78.7644 56.6913 79.6405 56.3305 80.2888 55.6875L83.9613 52.0962C84.874 51.1932 86.1061 50.6867 87.39 50.6867C88.6739 50.6867 89.9061 51.1932 90.8188 52.0962L94.7188 55.9962" stroke="#C47370" stroke-width="2" stroke-linecap="round" stroke-linejoin="round"/>
<path d="M90.25 61.375L87 58.125" stroke="#C47370" stroke-width="2" stroke-linecap="round" stroke-linejoin="round"/>
<path d="M85.375 66.25L82.125 63" stroke="#C47370" stroke-width="2" stroke-linecap="round" stroke-linejoin="round"/>
<defs>
<linearGradient id="paint0_linear_122_156" x1="51" y1="94.5" x2="139.485" y2="55.8632" gradientUnits="userSpaceOnUse">
<stop stop-color="#EE8481"/>
<stop offset="1" stop-color="#ED9592"/>
</linearGradient>
</defs>
</svg>
