<svg width="189" height="162" viewBox="0 0 189 162" fill="none" xmlns="http://www.w3.org/2000/svg">
<path d="M21.2891 144.164C21.5755 143.396 21.875 142.569 22.1875 141.684C22.5 140.798 22.806 139.887 23.1055 138.949C23.4049 137.999 23.6914 137.042 23.9648 136.078C24.2513 135.102 24.5052 134.145 24.7266 133.207L22.832 126.996C22.7018 126.566 22.7083 126.195 22.8516 125.883C23.0078 125.557 23.2487 125.29 23.5742 125.082C23.8997 124.861 24.2839 124.698 24.7266 124.594C25.1823 124.49 25.6576 124.438 26.1523 124.438C26.582 124.438 26.9661 124.464 27.3047 124.516C27.6432 124.555 27.9362 124.633 28.1836 124.75C28.444 124.867 28.6589 125.036 28.8281 125.258C28.9974 125.466 29.1341 125.74 29.2383 126.078L34.8438 144.125C35.1432 143.318 35.4557 142.445 35.7812 141.508C36.1068 140.57 36.4258 139.607 36.7383 138.617C37.0508 137.628 37.3503 136.625 37.6367 135.609C37.9232 134.594 38.1706 133.598 38.3789 132.621C38.6003 131.645 38.7695 130.714 38.8867 129.828C39.0169 128.93 39.082 128.109 39.082 127.367C39.082 126.508 39.0234 125.792 38.9062 125.219C38.7891 124.646 38.6523 124.171 38.4961 123.793C38.3529 123.402 38.2227 123.083 38.1055 122.836C37.9883 122.589 37.9297 122.361 37.9297 122.152C37.9297 121.879 38.0013 121.651 38.1445 121.469C38.2878 121.273 38.4701 121.111 38.6914 120.98C38.9128 120.85 39.1536 120.759 39.4141 120.707C39.6745 120.642 39.9219 120.609 40.1562 120.609C40.6771 120.609 41.1198 120.688 41.4844 120.844C41.849 121 42.1029 121.267 42.2461 121.645C42.3112 121.84 42.3633 122.048 42.4023 122.27C42.4414 122.478 42.4674 122.686 42.4805 122.895C42.5065 123.09 42.5195 123.279 42.5195 123.461C42.5195 123.63 42.5195 123.767 42.5195 123.871C42.5195 124.418 42.4284 125.167 42.2461 126.117C42.0768 127.068 41.8359 128.142 41.5234 129.34C41.224 130.525 40.8789 131.801 40.4883 133.168C40.0977 134.535 39.6875 135.915 39.2578 137.309C38.8411 138.689 38.418 140.043 37.9883 141.371C37.5586 142.699 37.1484 143.93 36.7578 145.062C36.3802 146.182 36.0417 147.172 35.7422 148.031C35.4557 148.878 35.2344 149.509 35.0781 149.926C34.974 150.238 34.8307 150.486 34.6484 150.668C34.4792 150.85 34.2773 150.987 34.043 151.078C33.8216 151.182 33.5742 151.247 33.3008 151.273C33.0404 151.299 32.7669 151.312 32.4805 151.312C31.9596 151.312 31.5299 151.26 31.1914 151.156C30.8659 151.052 30.6055 150.922 30.4102 150.766C30.2148 150.609 30.0716 150.44 29.9805 150.258C29.8893 150.076 29.8177 149.913 29.7656 149.77L25.8789 136.996C25.4492 138.415 25.013 139.815 24.5703 141.195C24.1276 142.562 23.7044 143.826 23.3008 144.984C22.9102 146.143 22.5586 147.159 22.2461 148.031C21.9336 148.891 21.6927 149.522 21.5234 149.926C21.3932 150.238 21.2305 150.486 21.0352 150.668C20.8529 150.85 20.6445 150.987 20.4102 151.078C20.1888 151.182 19.9479 151.247 19.6875 151.273C19.4271 151.299 19.1602 151.312 18.8867 151.312C18.3659 151.312 17.9362 151.26 17.5977 151.156C17.2721 151.052 17.0117 150.922 16.8164 150.766C16.6211 150.609 16.4714 150.44 16.3672 150.258C16.276 150.076 16.2044 149.913 16.1523 149.77L9.19922 126.527C9.06901 126.085 8.92578 125.714 8.76953 125.414C8.6263 125.102 8.44401 124.848 8.22266 124.652C8.01432 124.457 7.75391 124.314 7.44141 124.223C7.14193 124.132 6.77083 124.086 6.32812 124.086C5.96354 124.086 5.54036 124.177 5.05859 124.359C4.57682 124.529 4.11458 124.789 3.67188 125.141C3.24219 125.479 2.8776 125.909 2.57812 126.43C2.27865 126.938 2.12891 127.53 2.12891 128.207C2.12891 128.624 2.18099 128.956 2.28516 129.203C2.40234 129.451 2.53255 129.639 2.67578 129.77C2.81901 129.887 2.96224 129.965 3.10547 130.004C3.26172 130.03 3.3724 130.043 3.4375 130.043C3.76302 130.043 4.02995 129.991 4.23828 129.887C4.44661 129.77 4.63542 129.652 4.80469 129.535C4.97396 129.405 5.13021 129.288 5.27344 129.184C5.42969 129.066 5.60547 129.008 5.80078 129.008C5.95703 129.008 6.11979 129.047 6.28906 129.125C6.47135 129.19 6.63411 129.301 6.77734 129.457C6.93359 129.613 7.0638 129.822 7.16797 130.082C7.27214 130.329 7.32422 130.635 7.32422 131C7.32422 131.521 7.22005 131.97 7.01172 132.348C6.81641 132.725 6.55599 133.044 6.23047 133.305C5.91797 133.552 5.55339 133.741 5.13672 133.871C4.73307 133.988 4.32943 134.047 3.92578 134.047C3.30078 134.047 2.74089 133.936 2.24609 133.715C1.76432 133.493 1.35417 133.194 1.01562 132.816C0.690104 132.439 0.436198 132.003 0.253906 131.508C0.0846354 131 0 130.46 0 129.887C0 128.533 0.260417 127.354 0.78125 126.352C1.30208 125.336 1.99219 124.49 2.85156 123.812C3.71094 123.135 4.6875 122.634 5.78125 122.309C6.875 121.97 8.0013 121.801 9.16016 121.801C10.4622 121.801 11.5299 122.003 12.3633 122.406C13.1966 122.797 13.8672 123.305 14.375 123.93C14.8958 124.555 15.306 125.258 15.6055 126.039C15.9049 126.807 16.1719 127.569 16.4062 128.324L21.2891 144.164ZM42.9492 141C42.9492 139.294 43.1966 137.803 43.6914 136.527C44.1862 135.238 44.8438 134.164 45.6641 133.305C46.4974 132.445 47.4609 131.801 48.5547 131.371C49.6484 130.941 50.7943 130.727 51.9922 130.727C53.1901 130.727 54.3359 130.928 55.4297 131.332C56.5234 131.723 57.4805 132.328 58.3008 133.148C59.1341 133.969 59.7982 135.01 60.293 136.273C60.7878 137.523 61.0352 139.008 61.0352 140.727C61.0352 142.432 60.7878 143.943 60.293 145.258C59.7982 146.573 59.1341 147.68 58.3008 148.578C57.4805 149.477 56.5234 150.16 55.4297 150.629C54.3359 151.085 53.1901 151.312 51.9922 151.312C50.7943 151.312 49.6484 151.098 48.5547 150.668C47.4609 150.225 46.4974 149.574 45.6641 148.715C44.8438 147.855 44.1862 146.781 43.6914 145.492C43.1966 144.203 42.9492 142.706 42.9492 141ZM54.9609 140.805C54.9609 139.763 54.9219 138.76 54.8438 137.797C54.7786 136.82 54.6419 135.954 54.4336 135.199C54.2253 134.444 53.9258 133.845 53.5352 133.402C53.1445 132.947 52.6302 132.719 51.9922 132.719C51.3542 132.719 50.8398 132.96 50.4492 133.441C50.0586 133.91 49.7591 134.535 49.5508 135.316C49.3424 136.085 49.2057 136.964 49.1406 137.953C49.0755 138.943 49.043 139.958 49.043 141C49.043 142.042 49.0755 143.064 49.1406 144.066C49.2057 145.056 49.3424 145.941 49.5508 146.723C49.7591 147.504 50.0586 148.135 50.4492 148.617C50.8398 149.086 51.3542 149.32 51.9922 149.32C52.6302 149.32 53.1445 149.073 53.5352 148.578C53.9258 148.083 54.2253 147.432 54.4336 146.625C54.6419 145.818 54.7786 144.906 54.8438 143.891C54.9219 142.875 54.9609 141.846 54.9609 140.805ZM70.9375 134.848C71.4323 134.092 71.9596 133.409 72.5195 132.797C72.7539 132.536 73.0078 132.283 73.2812 132.035C73.5547 131.788 73.8346 131.566 74.1211 131.371C74.4206 131.176 74.7266 131.02 75.0391 130.902C75.3516 130.785 75.6641 130.727 75.9766 130.727C76.6406 130.727 77.1615 130.928 77.5391 131.332C77.9167 131.723 78.1055 132.276 78.1055 132.992C78.1055 133.435 78.0664 133.865 77.9883 134.281C77.9232 134.685 77.7865 135.18 77.5781 135.766H77.0312C76.9531 135.362 76.7708 135.03 76.4844 134.77C76.1979 134.496 75.7812 134.359 75.2344 134.359C74.8307 134.359 74.4336 134.438 74.043 134.594C73.6523 134.737 73.2682 134.919 72.8906 135.141C72.526 135.362 72.1745 135.603 71.8359 135.863C71.5104 136.124 71.2109 136.371 70.9375 136.605V149.281C70.9375 149.451 70.9115 149.652 70.8594 149.887C70.8073 150.121 70.6771 150.342 70.4688 150.551C70.2734 150.759 69.974 150.935 69.5703 151.078C69.1797 151.234 68.6393 151.312 67.9492 151.312C67.2591 151.312 66.7122 151.228 66.3086 151.059C65.918 150.902 65.6185 150.714 65.4102 150.492C65.2018 150.271 65.0716 150.043 65.0195 149.809C64.9674 149.574 64.9414 149.385 64.9414 149.242V134.164C64.9414 133.786 64.8503 133.461 64.668 133.188C64.4987 132.901 64.2057 132.758 63.7891 132.758C63.5677 132.758 63.3789 132.797 63.2227 132.875C63.0664 132.953 62.8971 133.064 62.7148 133.207L62.3047 132.719C62.6042 132.471 62.9362 132.23 63.3008 131.996C63.6784 131.749 64.082 131.534 64.5117 131.352C64.9414 131.169 65.4036 131.02 65.8984 130.902C66.3932 130.785 66.9141 130.727 67.4609 130.727C68.0208 130.727 68.4961 130.805 68.8867 130.961C69.2904 131.104 69.6159 131.299 69.8633 131.547C70.1237 131.781 70.3255 132.048 70.4688 132.348C70.612 132.647 70.7161 132.953 70.7812 133.266C70.8594 133.565 70.9049 133.858 70.918 134.145C70.931 134.418 70.9375 134.652 70.9375 134.848ZM86.25 136.039C86.7057 135.427 87.194 134.809 87.7148 134.184C88.2357 133.546 88.7956 132.973 89.3945 132.465C89.9935 131.957 90.6445 131.54 91.3477 131.215C92.0508 130.889 92.819 130.727 93.6523 130.727C94.3945 130.727 95.013 130.876 95.5078 131.176C96.0026 131.462 96.3997 131.814 96.6992 132.23C97.0117 132.634 97.2266 133.057 97.3438 133.5C97.474 133.943 97.5391 134.32 97.5391 134.633C97.5391 135.206 97.4609 135.805 97.3047 136.43C97.1615 137.042 96.9076 137.654 96.543 138.266C96.1914 138.865 95.7161 139.451 95.1172 140.023C94.5182 140.583 93.763 141.098 92.8516 141.566C94.0755 144.158 95.2669 146.391 96.4258 148.266C97.5846 150.128 98.6979 151.658 99.7656 152.855C100.846 154.066 101.882 154.958 102.871 155.531C103.861 156.104 104.805 156.391 105.703 156.391C105.859 156.391 106.016 156.371 106.172 156.332C106.328 156.293 106.471 156.247 106.602 156.195C106.745 156.143 106.895 156.078 107.051 156L107.422 156.684C107.07 156.879 106.712 157.061 106.348 157.23C105.983 157.413 105.566 157.569 105.098 157.699C104.629 157.829 104.089 157.934 103.477 158.012C102.865 158.09 102.135 158.129 101.289 158.129C100.521 158.129 99.7591 158.038 99.0039 157.855C98.2617 157.673 97.513 157.348 96.7578 156.879C96.0026 156.41 95.2344 155.785 94.4531 155.004C93.6849 154.223 92.8906 153.233 92.0703 152.035C91.263 150.837 90.4297 149.411 89.5703 147.758C88.7109 146.104 87.819 144.171 86.8945 141.957C88.1445 141.033 89.1276 140.18 89.8438 139.398C90.5599 138.604 91.1003 137.888 91.4648 137.25C91.8294 136.612 92.0573 136.046 92.1484 135.551C92.2396 135.056 92.2852 134.633 92.2852 134.281C92.2852 134.229 92.2786 134.145 92.2656 134.027C92.2526 133.897 92.207 133.773 92.1289 133.656C92.0638 133.539 91.9596 133.435 91.8164 133.344C91.6862 133.253 91.4974 133.207 91.25 133.207C90.7682 133.207 90.2799 133.415 89.7852 133.832C89.2904 134.236 88.8151 134.743 88.3594 135.355C87.9167 135.954 87.513 136.605 87.1484 137.309C86.7839 137.999 86.4844 138.63 86.25 139.203V149.281C86.25 149.451 86.2174 149.652 86.1523 149.887C86.1003 150.121 85.9635 150.342 85.7422 150.551C85.5339 150.759 85.2214 150.935 84.8047 151.078C84.401 151.234 83.8542 151.312 83.1641 151.312C82.474 151.312 81.9336 151.228 81.543 151.059C81.1523 150.902 80.8594 150.714 80.6641 150.492C80.4818 150.271 80.3646 150.043 80.3125 149.809C80.2734 149.574 80.2539 149.385 80.2539 149.242V124.047C80.2539 123.669 80.1628 123.344 79.9805 123.07C79.8112 122.784 79.5182 122.641 79.1016 122.641C78.8802 122.641 78.6849 122.68 78.5156 122.758C78.3594 122.823 78.1901 122.927 78.0078 123.07L77.6172 122.602C77.9167 122.354 78.2487 122.113 78.6133 121.879C78.9779 121.632 79.375 121.417 79.8047 121.234C80.2474 121.052 80.7161 120.902 81.2109 120.785C81.7057 120.668 82.2266 120.609 82.7734 120.609C83.6198 120.609 84.2773 120.727 84.7461 120.961C85.2148 121.182 85.5599 121.462 85.7812 121.801C86.0026 122.126 86.1328 122.478 86.1719 122.855C86.224 123.22 86.25 123.546 86.25 123.832V136.039ZM101.699 134.164C101.699 133.786 101.608 133.461 101.426 133.188C101.257 132.901 100.964 132.758 100.547 132.758C100.326 132.758 100.137 132.797 99.9805 132.875C99.8242 132.953 99.6549 133.064 99.4727 133.207L99.0625 132.719C99.362 132.471 99.694 132.23 100.059 131.996C100.436 131.749 100.84 131.534 101.27 131.352C101.699 131.169 102.161 131.02 102.656 130.902C103.151 130.785 103.672 130.727 104.219 130.727C104.805 130.727 105.306 130.818 105.723 131C106.139 131.182 106.484 131.404 106.758 131.664C107.044 131.911 107.259 132.178 107.402 132.465C107.546 132.738 107.63 132.973 107.656 133.168C107.917 132.803 108.223 132.471 108.574 132.172C108.939 131.872 109.329 131.618 109.746 131.41C110.176 131.189 110.625 131.02 111.094 130.902C111.576 130.785 112.07 130.727 112.578 130.727C113.62 130.727 114.564 130.941 115.41 131.371C116.257 131.801 116.979 132.439 117.578 133.285C118.19 134.132 118.659 135.18 118.984 136.43C119.31 137.68 119.473 139.125 119.473 140.766C119.473 142.667 119.271 144.288 118.867 145.629C118.477 146.957 117.956 148.044 117.305 148.891C116.667 149.737 115.931 150.355 115.098 150.746C114.277 151.124 113.438 151.312 112.578 151.312C111.862 151.312 111.23 151.241 110.684 151.098C110.15 150.954 109.688 150.779 109.297 150.57C108.906 150.362 108.581 150.154 108.32 149.945C108.06 149.724 107.852 149.542 107.695 149.398V158.93C107.695 159.099 107.669 159.301 107.617 159.535C107.565 159.77 107.435 159.991 107.227 160.199C107.031 160.421 106.732 160.609 106.328 160.766C105.938 160.922 105.397 161 104.707 161C104.017 161 103.47 160.915 103.066 160.746C102.676 160.59 102.376 160.395 102.168 160.16C101.96 159.939 101.829 159.711 101.777 159.477C101.725 159.255 101.699 159.073 101.699 158.93V134.164ZM107.695 146.605C107.695 146.71 107.741 146.892 107.832 147.152C107.923 147.413 108.066 147.68 108.262 147.953C108.457 148.227 108.704 148.474 109.004 148.695C109.316 148.904 109.694 149.008 110.137 149.008C110.71 149.008 111.198 148.793 111.602 148.363C112.005 147.921 112.337 147.328 112.598 146.586C112.858 145.831 113.047 144.958 113.164 143.969C113.281 142.966 113.34 141.898 113.34 140.766C113.34 139.372 113.262 138.194 113.105 137.23C112.962 136.267 112.747 135.492 112.461 134.906C112.174 134.307 111.829 133.878 111.426 133.617C111.035 133.344 110.592 133.207 110.098 133.207C109.811 133.207 109.525 133.292 109.238 133.461C108.952 133.617 108.691 133.819 108.457 134.066C108.236 134.301 108.053 134.568 107.91 134.867C107.767 135.167 107.695 135.453 107.695 135.727V146.605ZM129.219 149.281C129.219 149.451 129.186 149.652 129.121 149.887C129.069 150.121 128.932 150.342 128.711 150.551C128.503 150.759 128.19 150.935 127.773 151.078C127.37 151.234 126.823 151.312 126.133 151.312C125.443 151.312 124.902 151.228 124.512 151.059C124.121 150.902 123.828 150.714 123.633 150.492C123.451 150.271 123.333 150.043 123.281 149.809C123.242 149.574 123.223 149.385 123.223 149.242V124.047C123.223 123.669 123.132 123.344 122.949 123.07C122.78 122.784 122.487 122.641 122.07 122.641C121.849 122.641 121.654 122.68 121.484 122.758C121.328 122.823 121.159 122.927 120.977 123.07L120.586 122.602C120.885 122.354 121.217 122.113 121.582 121.879C121.947 121.632 122.344 121.417 122.773 121.234C123.216 121.052 123.685 120.902 124.18 120.785C124.674 120.668 125.195 120.609 125.742 120.609C126.589 120.609 127.246 120.727 127.715 120.961C128.184 121.182 128.529 121.462 128.75 121.801C128.971 122.126 129.102 122.478 129.141 122.855C129.193 123.22 129.219 123.546 129.219 123.832V149.281ZM142.949 140.883C142.949 140.557 142.845 140.31 142.637 140.141C142.428 139.971 142.161 139.887 141.836 139.887C141.38 139.887 140.944 139.991 140.527 140.199C140.124 140.408 139.766 140.714 139.453 141.117C139.141 141.521 138.893 142.022 138.711 142.621C138.529 143.207 138.438 143.891 138.438 144.672C138.438 145.427 138.49 146.052 138.594 146.547C138.711 147.042 138.861 147.439 139.043 147.738C139.238 148.025 139.46 148.227 139.707 148.344C139.954 148.461 140.215 148.52 140.488 148.52C140.827 148.52 141.146 148.435 141.445 148.266C141.745 148.083 142.005 147.855 142.227 147.582C142.448 147.309 142.624 147.003 142.754 146.664C142.884 146.326 142.949 145.987 142.949 145.648V140.883ZM139.844 132.328C139.401 132.328 138.991 132.38 138.613 132.484C138.236 132.589 137.91 132.719 137.637 132.875C137.363 133.031 137.148 133.207 136.992 133.402C136.836 133.585 136.758 133.76 136.758 133.93C136.758 134.125 136.855 134.268 137.051 134.359C137.259 134.438 137.487 134.535 137.734 134.652C137.982 134.757 138.203 134.913 138.398 135.121C138.607 135.316 138.711 135.622 138.711 136.039C138.711 136.312 138.652 136.566 138.535 136.801C138.431 137.022 138.281 137.224 138.086 137.406C137.904 137.576 137.682 137.712 137.422 137.816C137.174 137.908 136.914 137.953 136.641 137.953C135.911 137.953 135.319 137.706 134.863 137.211C134.421 136.716 134.199 136.059 134.199 135.238C134.199 134.444 134.408 133.767 134.824 133.207C135.241 132.634 135.781 132.165 136.445 131.801C137.122 131.436 137.884 131.169 138.73 131C139.577 130.818 140.423 130.727 141.27 130.727C142.285 130.727 143.255 130.837 144.18 131.059C145.104 131.28 145.918 131.632 146.621 132.113C147.337 132.595 147.904 133.207 148.32 133.949C148.75 134.691 148.965 135.59 148.965 136.645V147.68C148.965 147.797 148.971 147.927 148.984 148.07C148.997 148.214 149.03 148.344 149.082 148.461C149.134 148.578 149.212 148.676 149.316 148.754C149.421 148.832 149.57 148.871 149.766 148.871C150 148.871 150.215 148.786 150.41 148.617C150.618 148.435 150.801 148.253 150.957 148.07L151.445 148.48C151.25 148.754 151.016 149.053 150.742 149.379C150.469 149.704 150.137 150.01 149.746 150.297C149.355 150.583 148.9 150.824 148.379 151.02C147.858 151.215 147.266 151.312 146.602 151.312C145.781 151.312 145.052 151.072 144.414 150.59C143.776 150.095 143.359 149.34 143.164 148.324C142.747 148.884 142.311 149.353 141.855 149.73C141.413 150.108 140.957 150.414 140.488 150.648C140.02 150.883 139.544 151.052 139.062 151.156C138.594 151.26 138.118 151.312 137.637 151.312C137.012 151.312 136.406 151.215 135.82 151.02C135.234 150.824 134.707 150.518 134.238 150.102C133.783 149.672 133.411 149.118 133.125 148.441C132.852 147.764 132.715 146.938 132.715 145.961C132.715 144.776 132.949 143.806 133.418 143.051C133.887 142.296 134.499 141.664 135.254 141.156C136.022 140.635 136.888 140.193 137.852 139.828C138.828 139.464 139.824 139.079 140.84 138.676C141.595 138.376 142.142 137.934 142.48 137.348C142.832 136.749 143.008 136.137 143.008 135.512C143.008 134.548 142.721 133.78 142.148 133.207C141.589 132.621 140.82 132.328 139.844 132.328ZM166.484 137.484C166.081 137.484 165.742 137.426 165.469 137.309C165.195 137.178 164.974 137.009 164.805 136.801C164.635 136.592 164.512 136.365 164.434 136.117C164.355 135.857 164.316 135.59 164.316 135.316C164.316 134.965 164.336 134.626 164.375 134.301C164.427 133.975 164.434 133.682 164.395 133.422C164.368 133.161 164.271 132.953 164.102 132.797C163.932 132.641 163.633 132.562 163.203 132.562C162.747 132.562 162.266 132.693 161.758 132.953C161.25 133.214 160.788 133.624 160.371 134.184C159.954 134.743 159.609 135.466 159.336 136.352C159.062 137.224 158.926 138.279 158.926 139.516C158.926 140.883 159.049 142.133 159.297 143.266C159.557 144.385 159.941 145.342 160.449 146.137C160.957 146.931 161.589 147.549 162.344 147.992C163.099 148.422 163.984 148.637 165 148.637C165.456 148.637 165.885 148.585 166.289 148.48C166.706 148.376 167.096 148.233 167.461 148.051C167.826 147.868 168.171 147.66 168.496 147.426C168.835 147.178 169.16 146.918 169.473 146.645L169.961 147.113C169.661 147.517 169.277 147.96 168.809 148.441C168.34 148.923 167.773 149.379 167.109 149.809C166.445 150.225 165.671 150.577 164.785 150.863C163.9 151.137 162.891 151.273 161.758 151.273C160.625 151.273 159.518 151.059 158.438 150.629C157.37 150.186 156.419 149.548 155.586 148.715C154.753 147.882 154.082 146.872 153.574 145.688C153.079 144.49 152.832 143.129 152.832 141.605C152.832 140.421 152.982 139.333 153.281 138.344C153.581 137.341 153.984 136.436 154.492 135.629C155.013 134.822 155.612 134.112 156.289 133.5C156.979 132.888 157.702 132.38 158.457 131.977C159.212 131.56 159.98 131.247 160.762 131.039C161.556 130.831 162.318 130.727 163.047 130.727C164.01 130.727 164.85 130.837 165.566 131.059C166.283 131.28 166.875 131.573 167.344 131.938C167.826 132.302 168.184 132.725 168.418 133.207C168.652 133.676 168.77 134.164 168.77 134.672C168.77 135.049 168.717 135.414 168.613 135.766C168.522 136.104 168.379 136.404 168.184 136.664C168.001 136.911 167.767 137.113 167.48 137.27C167.194 137.413 166.862 137.484 166.484 137.484ZM177.637 142.035C177.637 142.452 177.695 142.908 177.812 143.402C177.943 143.884 178.125 144.372 178.359 144.867C178.594 145.362 178.88 145.837 179.219 146.293C179.57 146.736 179.967 147.133 180.41 147.484C180.866 147.836 181.367 148.116 181.914 148.324C182.461 148.533 183.06 148.637 183.711 148.637C184.167 148.637 184.59 148.585 184.98 148.48C185.371 148.376 185.736 148.233 186.074 148.051C186.413 147.868 186.738 147.66 187.051 147.426C187.363 147.178 187.676 146.918 187.988 146.645L188.477 147.113C188.177 147.517 187.793 147.96 187.324 148.441C186.855 148.923 186.289 149.379 185.625 149.809C184.961 150.225 184.186 150.577 183.301 150.863C182.415 151.137 181.406 151.273 180.273 151.273C179.141 151.273 178.034 151.072 176.953 150.668C175.885 150.251 174.935 149.633 174.102 148.812C173.268 147.992 172.598 146.97 172.09 145.746C171.595 144.522 171.348 143.09 171.348 141.449C171.348 140.264 171.497 139.177 171.797 138.188C172.096 137.198 172.5 136.306 173.008 135.512C173.529 134.717 174.128 134.021 174.805 133.422C175.495 132.823 176.217 132.328 176.973 131.938C177.728 131.534 178.496 131.234 179.277 131.039C180.072 130.831 180.833 130.727 181.562 130.727C182.526 130.727 183.366 130.831 184.082 131.039C184.798 131.247 185.391 131.527 185.859 131.879C186.341 132.23 186.699 132.641 186.934 133.109C187.168 133.565 187.285 134.047 187.285 134.555C187.285 135.167 187.109 135.72 186.758 136.215C186.406 136.697 185.938 137.12 185.352 137.484L177.637 142.035ZM181.562 138.07C181.732 137.966 181.868 137.868 181.973 137.777C182.09 137.673 182.181 137.556 182.246 137.426C182.311 137.283 182.357 137.113 182.383 136.918C182.422 136.71 182.441 136.456 182.441 136.156C182.441 135.831 182.402 135.473 182.324 135.082C182.259 134.678 182.142 134.301 181.973 133.949C181.803 133.598 181.589 133.305 181.328 133.07C181.068 132.836 180.755 132.719 180.391 132.719C179.922 132.719 179.518 132.862 179.18 133.148C178.854 133.422 178.581 133.78 178.359 134.223C178.151 134.665 177.982 135.173 177.852 135.746C177.734 136.306 177.643 136.872 177.578 137.445C177.513 138.018 177.474 138.572 177.461 139.105C177.448 139.626 177.441 140.069 177.441 140.434L181.562 138.07Z" fill="white"/>
<circle cx="94.5" cy="56.5" r="46.5" fill="white" stroke="url(#paint0_linear_130_313)" stroke-width="20"/>
<path d="M107.5 48.375H81.5C79.7051 48.375 78.25 49.8301 78.25 51.625V67.875C78.25 69.6699 79.7051 71.125 81.5 71.125H107.5C109.295 71.125 110.75 69.6699 110.75 67.875V51.625C110.75 49.8301 109.295 48.375 107.5 48.375Z" stroke="#C47370" stroke-width="2" stroke-linecap="round" stroke-linejoin="round"/>
<path d="M101 71.125V45.125C101 44.263 100.658 43.4364 100.048 42.8269C99.4386 42.2174 98.612 41.875 97.75 41.875H91.25C90.388 41.875 89.5614 42.2174 88.9519 42.8269C88.3424 43.4364 88 44.263 88 45.125V71.125" stroke="#C47370" stroke-width="2" stroke-linecap="round" stroke-linejoin="round"/>
<defs>
<linearGradient id="paint0_linear_130_313" x1="65" y1="94.5" x2="153.485" y2="55.8632" gradientUnits="userSpaceOnUse">
<stop stop-color="#EE8481"/>
<stop offset="1" stop-color="#ED9592"/>
</linearGradient>
</defs>
</svg>
